<?xml version="1.0" encoding="UTF-8" standalone="no"?>
<!DOCTYPE svg PUBLIC "-//W3C//DTD SVG 1.1//EN"
"http://www.w3.org/Graphics/SVG/1.1/DTD/svg11.dtd">


<!-- Page 1 -->
<svg x="0" y="0" width="553" height="380" viewBox="0 0 553 380" version="1.1" xmlns="http://www.w3.org/2000/svg" xmlns:xlink="http://www.w3.org/1999/xlink"
style="display: block;margin-left: auto;margin-right: auto;">
<defs>

<style type="text/css"><![CDATA[

.g1_1{
fill: #FFFFFF;
}
.g2_1{
fill: #E6E6E6;
}
.g3_1{
fill: none;
stroke: #000000;
stroke-width: 3.0555556;
stroke-linecap: butt;
stroke-linejoin: miter;
}
.g4_1{
}
.g5_1{
fill: none;
stroke: #000000;
stroke-width: 1.5277778;
stroke-linecap: butt;
stroke-linejoin: round;
}
.g6_1{
fill: none;
stroke: #000000;
stroke-width: 0.7908084;
stroke-linecap: butt;
stroke-linejoin: miter;
}
.g7_1{
fill: none;
stroke: #000000;
stroke-width: 3.0555556;
stroke-linecap: butt;
stroke-linejoin: miter;
stroke-dasharray: 4,7;
}
.g8_1{
fill: none;
stroke: #000000;
stroke-width: 3.0555556;
stroke-linecap: butt;
stroke-linejoin: miter;
stroke-dasharray: 4,4;
}


]]></style>

</defs>
<path d="M0,0
L0,380
L553,380
L553,0 Z " 
fill="#FFFFFF" stroke="none" />
<path d="M0,0L553.1,0l0,378.9L0,378.9L0,0Z" class="g1_1" />
<path d="M1.5,1.5l550,0l0,107l-550,0l0,-107Z" class="g2_1" />
<path d="M1.5,1.5l550,0l0,107l-550,0l0,-107Z" class="g3_1" />
<path d="M1.5,108.5l91.7,0l0,30.5L1.5,139l0,-30.5Z" class="g1_1" />
<path d="M1.5,108.5l91.7,0l0,30.5L1.5,139l0,-30.5Z" class="g3_1" />
<path d="M20,117.7c0.9,0.8,1.4,1.8,1.5,3l-1.7,0c-0.2,-0.9,-0.6,-1.6,-1.2,-2.1c-0.6,-0.5,-1.4,-0.7,-2.5,-0.7c-1.3,0,-2.3,0.5,-3.1,1.4c-0.8,0.9,-1.2,2.3,-1.2,4.2c0,1.5,0.3,2.7,1.1,3.7c0.7,1,1.8,1.4,3.2,1.4c1.3,0,2.3,-0.5,3,-1.5c0.3,-0.5,0.6,-1.2,0.8,-2.1l1.7,0c-0.1,1.4,-0.6,2.6,-1.5,3.5c-1,1.1,-2.5,1.7,-4.2,1.7c-1.6,0,-2.8,-0.5,-3.9,-1.4c-1.3,-1.2,-2,-3.1,-2,-5.7c0,-1.9,0.5,-3.5,1.5,-4.7c1.1,-1.4,2.7,-2,4.6,-2c1.7,0,3,0.4,3.9,1.3Zm9.6,9.9c0.4,-0.8,0.6,-1.7,0.6,-2.7c0,-0.9,-0.2,-1.6,-0.5,-2.2c-0.4,-0.9,-1.2,-1.3,-2.3,-1.3c-1,0,-1.7,0.4,-2.2,1.1c-0.4,0.8,-0.6,1.7,-0.6,2.8c0,1,0.2,1.8,0.6,2.5c0.5,0.7,1.2,1,2.2,1c1,0,1.8,-0.4,2.2,-1.2Zm1,-6.4c0.8,0.9,1.3,2.1,1.3,3.7c0,1.5,-0.4,2.8,-1.2,3.8c-0.7,1,-1.9,1.5,-3.5,1.5c-1.3,0,-2.3,-0.4,-3.1,-1.3c-0.8,-0.9,-1.2,-2.1,-1.2,-3.6c0,-1.6,0.4,-2.9,1.2,-3.9c0.9,-0.9,2,-1.4,3.3,-1.4c1.3,0,2.3,0.4,3.2,1.2Zm3.2,-4.5l1.6,0l0,13.2l-1.6,0l0,-13.2Zm4.1,0l1.6,0l0,13.2l-1.6,0l0,-13.2Zm10,3.8c0.6,0.4,1.1,0.8,1.4,1.3c0.3,0.5,0.5,1,0.7,1.7c0.1,0.4,0.1,1.1,0.1,2.1l-7,0c0,1,0.2,1.7,0.7,2.3c0.4,0.6,1.1,0.9,2,0.9c0.8,0,1.5,-0.3,2,-0.8c0.3,-0.3,0.5,-0.7,0.6,-1.1l1.6,0c-0.1,0.3,-0.2,0.7,-0.5,1.1c-0.2,0.5,-0.4,0.8,-0.7,1.1c-0.5,0.5,-1.1,0.8,-1.9,1c-0.3,0.1,-0.8,0.1,-1.3,0.1c-1.2,0,-2.2,-0.4,-3,-1.3c-0.8,-0.9,-1.3,-2.1,-1.3,-3.6c0,-1.6,0.5,-2.8,1.3,-3.8c0.8,-1,1.9,-1.4,3.3,-1.4c0.7,0,1.3,0.1,2,0.4Zm0.5,3.8c0,-0.7,-0.2,-1.3,-0.4,-1.7c-0.5,-0.7,-1.2,-1.1,-2.2,-1.1c-0.8,0,-1.4,0.2,-1.9,0.8c-0.5,0.5,-0.8,1.2,-0.8,2l5.3,0Zm10,-3.5c0.7,0.5,1.1,1.4,1.2,2.7l-1.5,0C58,122.9,57.8,122.4,57.4,122c-0.3,-0.4,-0.9,-0.6,-1.6,-0.6c-1.1,0,-1.8,0.5,-2.2,1.5c-0.3,0.7,-0.5,1.5,-0.5,2.4c0,1,0.2,1.8,0.6,2.5c0.5,0.6,1.1,1,2,1c0.6,0,1.2,-0.2,1.6,-0.7c0.3,-0.4,0.6,-0.9,0.8,-1.6l1.5,0c-0.1,1.2,-0.6,2.2,-1.3,2.8c-0.7,0.5,-1.6,0.8,-2.8,0.8c-1.2,0,-2.2,-0.4,-3,-1.3c-0.7,-1,-1.1,-2.1,-1.1,-3.5c0,-1.7,0.4,-3,1.2,-3.9c0.9,-0.9,1.9,-1.4,3.2,-1.4c1.1,0,1.9,0.3,2.6,0.8Zm8.8,6.8c0.4,-0.8,0.6,-1.7,0.6,-2.7c0,-0.9,-0.1,-1.6,-0.4,-2.2c-0.4,-0.9,-1.2,-1.3,-2.3,-1.3c-1,0,-1.7,0.4,-2.2,1.1c-0.4,0.8,-0.7,1.7,-0.7,2.8c0,1,0.3,1.8,0.7,2.5c0.5,0.7,1.2,1,2.1,1c1.1,0,1.8,-0.4,2.2,-1.2Zm1,-6.4c0.9,0.9,1.3,2.1,1.3,3.7c0,1.5,-0.4,2.8,-1.1,3.8c-0.8,1,-1.9,1.5,-3.5,1.5c-1.3,0,-2.4,-0.4,-3.1,-1.3C61,128,60.6,126.8,60.6,125.3c0,-1.6,0.4,-2.9,1.2,-3.9c0.8,-0.9,1.9,-1.4,3.3,-1.4c1.2,0,2.3,0.4,3.1,1.2Zm3.3,-0.9l1.5,0l0,1.6c0.1,-0.3,0.4,-0.7,0.9,-1.1c0.5,-0.5,1.1,-0.7,1.7,-0.7c0.1,0,0.1,0,0.2,0c0,0,0.2,0,0.3,0l0,1.7c-0.1,0,-0.1,0,-0.2,0c-0.1,0,-0.2,0,-0.3,0c-0.8,0,-1.4,0.2,-1.9,0.7c-0.4,0.6,-0.6,1.2,-0.6,1.8l0,5.6l-1.6,0l0,-9.6Zm7,6.6c0,0.5,0.2,0.9,0.4,1.2c0.4,0.5,1.1,0.8,2.1,0.8c0.6,0,1.1,-0.2,1.6,-0.4c0.4,-0.3,0.7,-0.7,0.7,-1.2c0,-0.4,-0.2,-0.8,-0.6,-1c-0.2,-0.1,-0.7,-0.2,-1.4,-0.4L80,125.6c-0.8,-0.2,-1.4,-0.5,-1.8,-0.7c-0.7,-0.5,-1,-1.1,-1,-1.8c0,-0.9,0.3,-1.7,1,-2.2c0.6,-0.6,1.5,-0.9,2.6,-0.9c1.5,0,2.5,0.4,3.1,1.3c0.4,0.5,0.6,1.1,0.6,1.7L83,123c0,-0.3,-0.2,-0.7,-0.4,-1c-0.4,-0.4,-1,-0.6,-1.9,-0.6c-0.6,0,-1.1,0.1,-1.4,0.4c-0.3,0.2,-0.5,0.5,-0.5,0.9c0,0.4,0.2,0.7,0.7,1c0.2,0.1,0.5,0.3,1,0.4l1.1,0.2c1.1,0.3,1.9,0.6,2.3,0.8c0.6,0.5,0.9,1.1,0.9,2c0,0.8,-0.3,1.6,-0.9,2.2c-0.7,0.6,-1.7,0.9,-3,0.9c-1.4,0,-2.4,-0.3,-3,-0.9c-0.6,-0.7,-0.9,-1.5,-1,-2.4l1.6,0Z" class="g4_1" />
<path d="M495.5,66.8l5.3,9.3L374.1,147.8l5.7,9.9l-42.3,4.6l25.7,-33.8l5.7,10L495.5,66.8Z" class="g1_1" />
<path d="M495.5,66.8l5.3,9.3L374.1,147.8l5.7,9.9l-42.3,4.6l25.7,-33.8l5.7,10L495.5,66.8Z" class="g5_1" />
<path d="M398.8,16.8l137.5,0l0,76.4l-137.5,0l0,-76.4Z" class="g1_1" />
<path d="M398.8,16.8l137.5,0l0,76.4l-137.5,0l0,-76.4Z" class="g3_1" />
<path d="M447,43.3c0.8,0,1.5,-0.2,2,-0.5c0.5,-0.3,0.7,-0.9,0.7,-1.8c0,-1,-0.3,-1.6,-1,-1.9c-0.4,-0.2,-0.9,-0.3,-1.5,-0.3l-4.3,0l0,4.5l4.1,0Zm-5.9,-6l6.1,0c1,0,1.8,0.1,2.5,0.4c1.2,0.6,1.8,1.6,1.8,3.1c0,0.8,-0.2,1.4,-0.5,1.9c-0.3,0.5,-0.8,0.9,-1.3,1.3c0.5,0.2,0.9,0.4,1.1,0.8c0.3,0.3,0.4,0.9,0.4,1.6l0.1,1.8c0,0.5,0.1,0.9,0.1,1.1c0.1,0.4,0.3,0.7,0.6,0.8l0,0.3l-2.2,0c0,-0.1,-0.1,-0.2,-0.1,-0.4c-0.1,-0.2,-0.1,-0.5,-0.1,-1.1l-0.1,-2.2c-0.1,-0.8,-0.4,-1.4,-1,-1.7c-0.3,-0.1,-0.8,-0.2,-1.6,-0.2l-4,0l0,5.6l-1.8,0l0,-13.1Zm18.8,3.8c0.6,0.3,1.1,0.7,1.4,1.2c0.3,0.5,0.5,1.1,0.7,1.7c0.1,0.5,0.1,1.2,0.1,2.1l-7,0c0,1,0.2,1.8,0.7,2.4c0.4,0.6,1.1,0.9,2,0.9c0.8,0,1.5,-0.3,2,-0.9c0.3,-0.3,0.5,-0.7,0.6,-1.1l1.6,0c-0.1,0.4,-0.2,0.8,-0.5,1.2c-0.2,0.4,-0.5,0.8,-0.7,1c-0.5,0.5,-1.1,0.8,-1.9,1c-0.3,0.1,-0.8,0.2,-1.3,0.2c-1.2,0,-2.2,-0.5,-3,-1.3c-0.8,-0.9,-1.3,-2.1,-1.3,-3.7c0,-1.5,0.5,-2.8,1.3,-3.7c0.8,-1,1.9,-1.5,3.3,-1.5c0.7,0,1.3,0.2,2,0.5Zm0.5,3.8c0,-0.7,-0.2,-1.3,-0.4,-1.7C459.5,42.4,458.8,42,457.8,42c-0.8,0,-1.4,0.3,-1.9,0.8c-0.5,0.6,-0.8,1.2,-0.8,2.1l5.3,0Zm9,-3.7c0.3,0.2,0.6,0.5,1,0.9l0,-1.2l1.4,0l0,8.7c0,1.3,-0.1,2.2,-0.5,2.9c-0.7,1.3,-1.9,2,-3.8,2c-1,0,-1.9,-0.3,-2.6,-0.7c-0.7,-0.5,-1.1,-1.2,-1.2,-2.2l1.7,0c0.1,0.4,0.2,0.8,0.4,1c0.4,0.4,1,0.5,1.8,0.5c1.2,0,2,-0.4,2.4,-1.3c0.2,-0.5,0.3,-1.4,0.3,-2.7c-0.3,0.5,-0.7,0.8,-1.2,1.1c-0.4,0.2,-1,0.3,-1.8,0.3c-1,0,-1.9,-0.3,-2.7,-1.1c-0.8,-0.7,-1.2,-1.9,-1.2,-3.6c0,-1.6,0.4,-2.9,1.2,-3.8c0.8,-0.9,1.7,-1.3,2.9,-1.3c0.7,0,1.4,0.1,1.9,0.5Zm0.2,1.7c-0.5,-0.5,-1.1,-0.8,-1.8,-0.8c-1.2,0,-2,0.5,-2.4,1.6c-0.2,0.5,-0.3,1.3,-0.3,2.2c0,1.1,0.2,1.9,0.7,2.5c0.4,0.5,1,0.8,1.7,0.8c1.2,0,2,-0.5,2.5,-1.5c0.2,-0.6,0.4,-1.3,0.4,-2.1c0,-1.2,-0.3,-2.1,-0.8,-2.7Zm10.6,-1.8c0.7,0.3,1.2,0.7,1.5,1.2c0.3,0.5,0.5,1.1,0.6,1.7c0.1,0.5,0.2,1.2,0.2,2.1l-7,0c0,1,0.2,1.8,0.6,2.4c0.5,0.6,1.1,0.9,2,0.9c0.9,0,1.6,-0.3,2.1,-0.9c0.2,-0.3,0.4,-0.7,0.6,-1.1l1.6,0c-0.1,0.4,-0.2,0.8,-0.5,1.2c-0.2,0.4,-0.5,0.8,-0.8,1c-0.4,0.5,-1.1,0.8,-1.8,1c-0.4,0.1,-0.8,0.2,-1.3,0.2c-1.2,0,-2.2,-0.5,-3,-1.3c-0.9,-0.9,-1.3,-2.1,-1.3,-3.7c0,-1.5,0.4,-2.8,1.3,-3.7c0.8,-1,1.9,-1.5,3.3,-1.5c0.6,0,1.3,0.2,1.9,0.5Zm0.6,3.8c0,-0.7,-0.2,-1.3,-0.4,-1.7C479.9,42.4,479.2,42,478.2,42c-0.8,0,-1.4,0.3,-1.9,0.8c-0.5,0.6,-0.8,1.2,-0.8,2.1l5.3,0Zm2.7,-4.1l2.1,0l2.2,3.4l2.3,-3.4l1.9,0.1l-3.2,4.6l3.4,4.9l-2.1,0l-2.4,-3.6l-2.3,3.6l-2,0l3.4,-4.9l-3.3,-4.7Z" class="g4_1" />
<path d="M439.9,62.7c0.7,0.6,1.1,1.5,1.2,2.7l-1.6,0c-0.1,-0.6,-0.3,-1,-0.6,-1.4c-0.4,-0.4,-0.9,-0.6,-1.7,-0.6c-1,0,-1.7,0.5,-2.2,1.5c-0.2,0.6,-0.4,1.4,-0.4,2.4c0,1,0.2,1.8,0.6,2.4c0.4,0.7,1.1,1,1.9,1c0.7,0,1.2,-0.2,1.6,-0.6c0.4,-0.4,0.7,-1,0.8,-1.7l1.6,0c-0.2,1.3,-0.6,2.2,-1.3,2.8c-0.8,0.6,-1.7,0.9,-2.8,0.9c-1.2,0,-2.2,-0.5,-3,-1.4c-0.7,-0.9,-1.1,-2.1,-1.1,-3.4c0,-1.7,0.4,-3,1.2,-4c0.8,-0.9,1.9,-1.4,3.1,-1.4c1.1,0,2,0.3,2.7,0.8Zm8.8,6.9c0.4,-0.9,0.6,-1.8,0.6,-2.7c0,-0.9,-0.1,-1.7,-0.4,-2.2c-0.5,-0.9,-1.3,-1.4,-2.4,-1.4c-1,0,-1.7,0.4,-2.1,1.2c-0.5,0.7,-0.7,1.6,-0.7,2.7c0,1,0.2,1.9,0.7,2.5c0.4,0.7,1.1,1.1,2.1,1.1c1.1,0,1.8,-0.4,2.2,-1.2Zm1,-6.4c0.9,0.8,1.3,2,1.3,3.6c0,1.6,-0.4,2.8,-1.1,3.8c-0.8,1.1,-2,1.6,-3.5,1.6c-1.4,0,-2.4,-0.5,-3.2,-1.4c-0.8,-0.9,-1.1,-2.1,-1.1,-3.6c0,-1.6,0.4,-2.9,1.2,-3.8c0.8,-1,1.9,-1.5,3.3,-1.5c1.2,0,2.3,0.5,3.1,1.3Zm3.2,-4.5l1.7,0l0,13.1l-1.7,0l0,-13.1Zm4.1,0l1.6,0l0,13.1l-1.6,0l0,-13.1Zm10,3.8c0.6,0.3,1.1,0.7,1.4,1.2c0.4,0.5,0.6,1.1,0.7,1.7c0.1,0.5,0.1,1.2,0.1,2.1l-7,0c0,1,0.3,1.8,0.7,2.4c0.4,0.6,1.1,0.8,2,0.8c0.8,0,1.5,-0.2,2,-0.8c0.3,-0.3,0.5,-0.7,0.6,-1.1l1.6,0c0,0.3,-0.2,0.7,-0.4,1.2c-0.2,0.4,-0.5,0.8,-0.8,1c-0.5,0.5,-1.1,0.8,-1.8,1c-0.4,0.1,-0.8,0.1,-1.3,0.1c-1.2,0,-2.2,-0.4,-3.1,-1.3c-0.8,-0.8,-1.2,-2,-1.2,-3.6c0,-1.5,0.4,-2.8,1.2,-3.8c0.9,-0.9,2,-1.4,3.3,-1.4c0.7,0,1.4,0.2,2,0.5Zm0.6,3.7c-0.1,-0.7,-0.2,-1.2,-0.5,-1.6c-0.4,-0.8,-1.2,-1.2,-2.2,-1.2c-0.7,0,-1.3,0.3,-1.8,0.8c-0.6,0.5,-0.8,1.2,-0.8,2l5.3,0Zm9.9,-3.5c0.7,0.6,1.1,1.5,1.3,2.7l-1.6,0c-0.1,-0.6,-0.3,-1,-0.7,-1.4c-0.3,-0.4,-0.8,-0.6,-1.6,-0.6c-1,0,-1.8,0.5,-2.2,1.5c-0.3,0.6,-0.4,1.4,-0.4,2.4c0,1,0.2,1.8,0.6,2.4c0.4,0.7,1,1,1.9,1c0.7,0,1.2,-0.2,1.6,-0.6c0.4,-0.4,0.7,-1,0.8,-1.7l1.6,0c-0.2,1.3,-0.7,2.2,-1.4,2.8c-0.7,0.6,-1.6,0.9,-2.7,0.9c-1.3,0,-2.3,-0.5,-3,-1.4c-0.8,-0.9,-1.1,-2.1,-1.1,-3.4c0,-1.7,0.4,-3,1.2,-4c0.8,-0.9,1.8,-1.4,3.1,-1.4c1.1,0,2,0.3,2.6,0.8Zm3.2,-3.2l1.6,0l0,2.7l1.6,0l0,1.3l-1.6,0l0,6.3c0,0.3,0.1,0.5,0.4,0.7c0.1,0,0.3,0.1,0.6,0.1c0.1,0,0.2,0,0.2,0c0.1,0,0.2,-0.1,0.4,-0.1l0,1.3c-0.2,0.1,-0.4,0.1,-0.6,0.1c-0.2,0,-0.4,0.1,-0.7,0.1c-0.7,0,-1.2,-0.2,-1.5,-0.6c-0.3,-0.4,-0.4,-0.9,-0.4,-1.5l0,-6.4l-1.3,0l0,-1.3l1.3,0l0,-2.7Zm10.8,10.1c0.4,-0.9,0.6,-1.8,0.6,-2.7c0,-0.9,-0.2,-1.7,-0.5,-2.2c-0.4,-0.9,-1.2,-1.4,-2.3,-1.4c-1,0,-1.7,0.4,-2.2,1.2c-0.4,0.7,-0.6,1.6,-0.6,2.7c0,1,0.2,1.9,0.6,2.5c0.5,0.7,1.2,1.1,2.2,1.1c1,0,1.8,-0.4,2.2,-1.2Zm1,-6.4c0.8,0.8,1.2,2,1.2,3.6c0,1.6,-0.3,2.8,-1.1,3.8c-0.7,1.1,-1.9,1.6,-3.5,1.6c-1.3,0,-2.4,-0.5,-3.1,-1.4c-0.8,-0.9,-1.2,-2.1,-1.2,-3.6c0,-1.6,0.4,-2.9,1.2,-3.8c0.9,-1,2,-1.5,3.3,-1.5c1.3,0,2.3,0.5,3.2,1.3Zm3.2,-1l1.5,0l0,1.7c0.2,-0.3,0.5,-0.7,1,-1.2c0.4,-0.5,1,-0.7,1.6,-0.7c0.1,0,0.1,0,0.2,0c0.1,0,0.2,0,0.4,0l0,1.7c-0.1,0,-0.2,0,-0.3,0c-0.1,0,-0.2,0,-0.3,0c-0.8,0,-1.4,0.3,-1.8,0.8c-0.5,0.5,-0.7,1.1,-0.7,1.8l0,5.5l-1.6,0l0,-9.6Z" class="g4_1" />
<path d="M61.5,83.7l5.1,-9.3L185.3,139l5.5,-10.1L217,162.3l-42.3,-3.9l5.5,-10L61.5,83.7Z" class="g1_1" />
<path d="M61.5,83.7l5.1,-9.3L185.3,139l5.5,-10.1L217,162.3l-42.3,-3.9l5.5,-10L61.5,83.7Z" class="g5_1" />
<path d="M16.8,16.8l137.5,0l0,76.4l-137.5,0l0,-76.4Z" class="g1_1" />
<path d="M16.8,16.8l137.5,0l0,76.4l-137.5,0l0,-76.4Z" class="g3_1" />
<path d="M52.3,37.3l2.5,0l3.8,11.1L62.4,37.3l2.5,0l0,13.1l-1.7,0l0,-7.7c0,-0.3,0,-0.8,0,-1.4c0,-0.6,0,-1.3,0,-2L59.5,50.4l-1.8,0L53.9,39.3l0,0.4c0,0.4,0.1,0.8,0.1,1.5c0,0.7,0,1.1,0,1.5l0,7.7l-1.7,0l0,-13.1Zm21,3.8c0.7,0.3,1.2,0.7,1.5,1.2c0.3,0.5,0.5,1.1,0.7,1.7c0,0.5,0.1,1.2,0.1,2.1l-7,0c0,1,0.2,1.8,0.7,2.4c0.4,0.6,1.1,0.9,2,0.9c0.8,0,1.5,-0.3,2,-0.9c0.3,-0.3,0.5,-0.7,0.6,-1.1l1.6,0c-0.1,0.4,-0.2,0.8,-0.5,1.2c-0.2,0.4,-0.5,0.8,-0.7,1c-0.5,0.5,-1.1,0.8,-1.9,1c-0.4,0.1,-0.8,0.2,-1.3,0.2c-1.2,0,-2.2,-0.5,-3,-1.3C67.3,48.6,66.8,47.4,66.8,45.8c0,-1.5,0.5,-2.8,1.3,-3.7c0.8,-1,1.9,-1.5,3.3,-1.5c0.7,0,1.3,0.2,1.9,0.5Zm0.6,3.8c0,-0.7,-0.2,-1.3,-0.4,-1.7C73,42.4,72.3,42,71.3,42c-0.8,0,-1.4,0.3,-1.9,0.8c-0.5,0.6,-0.8,1.2,-0.8,2.1l5.3,0Zm3.7,-4.1l1.6,0l0,1.4c0.3,-0.5,0.7,-0.8,1,-1c0.5,-0.4,1.1,-0.6,1.8,-0.6c0.8,0,1.4,0.2,1.9,0.6c0.2,0.2,0.5,0.5,0.7,0.9c0.3,-0.5,0.7,-0.9,1.2,-1.1c0.5,-0.3,1.1,-0.4,1.7,-0.4c1.3,0,2.1,0.5,2.6,1.4c0.2,0.5,0.4,1.2,0.4,2l0,6.4l-1.7,0l0,-6.6c0,-0.7,-0.2,-1.1,-0.5,-1.4C88,42.2,87.6,42.1,87.1,42.1c-0.6,0,-1.1,0.2,-1.6,0.6c-0.4,0.4,-0.7,1.1,-0.7,2.1l0,5.6l-1.6,0l0,-6.2C83.2,43.5,83.1,43,83,42.7C82.7,42.3,82.3,42.1,81.6,42.1c-0.6,0,-1.2,0.2,-1.7,0.7c-0.5,0.4,-0.7,1.3,-0.7,2.5l0,5.1l-1.6,0l0,-9.6Zm21.2,7.4c0.4,-0.8,0.6,-1.7,0.6,-2.7c0,-0.9,-0.1,-1.7,-0.4,-2.2C98.5,42.4,97.8,42,96.6,42c-0.9,0,-1.7,0.3,-2.1,1.1c-0.4,0.7,-0.7,1.6,-0.7,2.7c0,1,0.3,1.9,0.7,2.6c0.4,0.6,1.2,1,2.1,1c1.1,0,1.8,-0.4,2.2,-1.2Zm1,-6.4c0.9,0.8,1.3,2,1.3,3.6c0,1.6,-0.4,2.8,-1.1,3.9c-0.8,1,-1.9,1.5,-3.5,1.5c-1.3,0,-2.4,-0.5,-3.2,-1.4C92.6,48.5,92.2,47.3,92.2,45.8c0,-1.6,0.4,-2.9,1.2,-3.8c0.8,-1,1.9,-1.4,3.3,-1.4c1.2,0,2.3,0.4,3.1,1.2Zm3.3,-1l1.5,0l0,1.7c0.1,-0.3,0.4,-0.7,0.9,-1.2c0.5,-0.5,1.1,-0.7,1.7,-0.7c0,0,0.1,0,0.2,0c0,0,0.2,0,0.3,0.1l0,1.7c-0.1,-0.1,-0.2,-0.1,-0.2,-0.1c-0.1,0,-0.2,0,-0.3,0c-0.8,0,-1.4,0.3,-1.9,0.8c-0.4,0.5,-0.6,1.1,-0.6,1.8l0,5.5l-1.6,0l0,-9.6Zm12,0l1.8,0c-0.3,0.6,-0.8,2,-1.5,4.2c-0.6,1.7,-1.1,3,-1.5,4.1c-0.9,2.4,-1.6,3.9,-2,4.4c-0.4,0.6,-1,0.8,-1.9,0.8c-0.3,0,-0.4,0,-0.6,0c-0.1,0,-0.2,0,-0.4,-0.1l0,-1.4c0.3,0,0.5,0.1,0.6,0.1c0.1,0,0.2,0,0.3,0c0.3,0,0.5,0,0.7,-0.1c0.1,-0.1,0.2,-0.2,0.3,-0.4c0.1,0,0.2,-0.3,0.4,-0.7c0.1,-0.5,0.3,-0.8,0.4,-1l-3.6,-9.9l1.8,0l2.6,7.8l2.6,-7.8Z" class="g4_1" />
<path d="M57.9,62.7c0.7,0.6,1.1,1.5,1.3,2.7l-1.6,0C57.5,64.8,57.3,64.4,56.9,64C56.6,63.6,56,63.4,55.3,63.4c-1,0,-1.8,0.5,-2.2,1.5c-0.3,0.6,-0.4,1.4,-0.4,2.4c0,1,0.2,1.8,0.6,2.4c0.4,0.7,1,1,1.9,1c0.7,0,1.2,-0.2,1.6,-0.6c0.4,-0.4,0.6,-1,0.8,-1.7l1.6,0c-0.2,1.3,-0.7,2.2,-1.4,2.8c-0.7,0.6,-1.6,0.9,-2.7,0.9c-1.3,0,-2.3,-0.5,-3,-1.4C51.3,69.8,50.9,68.6,50.9,67.3c0,-1.7,0.5,-3,1.3,-4C53,62.4,54,61.9,55.3,61.9c1.1,0,2,0.3,2.6,0.8Zm8.9,6.9c0.4,-0.9,0.6,-1.8,0.6,-2.7c0,-0.9,-0.2,-1.7,-0.5,-2.2C66.5,63.8,65.7,63.3,64.6,63.3c-1,0,-1.7,0.4,-2.2,1.2c-0.4,0.7,-0.6,1.6,-0.6,2.7c0,1,0.2,1.9,0.6,2.5c0.5,0.7,1.2,1.1,2.2,1.1c1,0,1.8,-0.4,2.2,-1.2Zm1,-6.4c0.8,0.8,1.2,2,1.2,3.6c0,1.6,-0.3,2.8,-1.1,3.8c-0.7,1.1,-1.9,1.6,-3.5,1.6c-1.3,0,-2.3,-0.5,-3.1,-1.4C60.5,69.9,60.1,68.7,60.1,67.2c0,-1.6,0.4,-2.9,1.2,-3.8c0.9,-1,2,-1.5,3.3,-1.5c1.3,0,2.3,0.5,3.2,1.3ZM71,58.7l1.6,0l0,13.1l-1.6,0L71,58.7Zm4.1,0l1.6,0l0,13.1l-1.6,0l0,-13.1ZM85,62.5c0.7,0.3,1.2,0.7,1.5,1.2c0.3,0.5,0.5,1.1,0.6,1.7c0.1,0.5,0.2,1.2,0.2,2.1l-7,0c0,1,0.2,1.8,0.7,2.4c0.4,0.6,1,0.8,2,0.8c0.8,0,1.5,-0.2,2,-0.8c0.3,-0.3,0.5,-0.7,0.6,-1.1l1.6,0C87.1,69.1,87,69.5,86.7,70c-0.2,0.4,-0.5,0.8,-0.8,1c-0.4,0.5,-1,0.8,-1.8,1c-0.4,0.1,-0.8,0.1,-1.3,0.1c-1.2,0,-2.2,-0.4,-3,-1.3C79,70,78.5,68.8,78.5,67.2c0,-1.5,0.5,-2.8,1.3,-3.8C80.6,62.5,81.7,62,83.1,62c0.6,0,1.3,0.2,1.9,0.5Zm0.6,3.7c0,-0.7,-0.2,-1.2,-0.4,-1.6C84.7,63.8,84,63.4,83,63.4c-0.8,0,-1.4,0.3,-1.9,0.8c-0.5,0.5,-0.8,1.2,-0.8,2l5.3,0Zm10,-3.5c0.7,0.6,1.1,1.5,1.2,2.7l-1.5,0C95.2,64.8,94.9,64.4,94.6,64C94.3,63.6,93.7,63.4,93,63.4c-1.1,0,-1.8,0.5,-2.2,1.5c-0.3,0.6,-0.5,1.4,-0.5,2.4c0,1,0.2,1.8,0.6,2.4c0.4,0.7,1.1,1,2,1c0.6,0,1.2,-0.2,1.5,-0.6c0.4,-0.4,0.7,-1,0.9,-1.7l1.5,0c-0.2,1.3,-0.6,2.2,-1.3,2.8c-0.7,0.6,-1.7,0.9,-2.8,0.9c-1.2,0,-2.2,-0.5,-3,-1.4C89,69.8,88.6,68.6,88.6,67.3c0,-1.7,0.4,-3,1.2,-4c0.9,-0.9,1.9,-1.4,3.2,-1.4c1,0,1.9,0.3,2.6,0.8Zm3.2,-3.2l1.6,0l0,2.7l1.5,0l0,1.3l-1.5,0l0,6.3c0,0.3,0.1,0.5,0.3,0.7c0.2,0,0.4,0.1,0.7,0.1c0,0,0.1,0,0.2,0c0.1,0,0.2,-0.1,0.3,-0.1l0,1.3c-0.2,0.1,-0.4,0.1,-0.6,0.1c-0.2,0,-0.4,0.1,-0.6,0.1c-0.8,0,-1.3,-0.2,-1.5,-0.6C98.9,71,98.8,70.5,98.8,69.9l0,-6.4l-1.3,0l0,-1.3l1.3,0l0,-2.7Zm10.7,10.1c0.4,-0.9,0.6,-1.8,0.6,-2.7c0,-0.9,-0.1,-1.7,-0.4,-2.2c-0.5,-0.9,-1.2,-1.4,-2.4,-1.4c-0.9,0,-1.7,0.4,-2.1,1.2c-0.5,0.7,-0.7,1.6,-0.7,2.7c0,1,0.2,1.9,0.7,2.5c0.4,0.7,1.2,1.1,2.1,1.1c1.1,0,1.8,-0.4,2.2,-1.2Zm1,-6.4c0.9,0.8,1.3,2,1.3,3.6c0,1.6,-0.4,2.8,-1.1,3.8c-0.8,1.1,-1.9,1.6,-3.5,1.6c-1.3,0,-2.4,-0.5,-3.2,-1.4c-0.7,-0.9,-1.1,-2.1,-1.1,-3.6c0,-1.6,0.4,-2.9,1.2,-3.8c0.8,-1,1.9,-1.5,3.3,-1.5c1.2,0,2.3,0.5,3.1,1.3Zm3.3,-1l1.5,0l0,1.7c0.1,-0.3,0.4,-0.7,0.9,-1.2c0.5,-0.5,1.1,-0.7,1.7,-0.7c0,0,0.1,0,0.2,0c0,0,0.1,0,0.3,0l0,1.7c-0.1,0,-0.2,0,-0.2,0c-0.1,0,-0.2,0,-0.3,0c-0.8,0,-1.4,0.3,-1.9,0.8c-0.4,0.5,-0.6,1.1,-0.6,1.8l0,5.5l-1.6,0l0,-9.6Z" class="g4_1" />
<path d="M271.9,18.3l10.7,0l0,90.9l11.5,0l-16.8,39l-16.8,-39l11.4,0l0,-90.9Z" class="g1_1" />
<path d="M271.9,18.3l10.7,0l0,90.9l11.5,0l-16.8,39l-16.8,-39l11.4,0l0,-90.9Z" class="g5_1" />
<path d="M207.8,16.8l137.5,0l0,76.4l-137.5,0l0,-76.4Z" class="g1_1" />
<path d="M207.8,16.8l137.5,0l0,76.4l-137.5,0l0,-76.4Z" class="g3_1" />
<path d="M241.5,38.2c0.9,0.9,1.4,1.9,1.5,3l-1.7,0c-0.2,-0.8,-0.6,-1.5,-1.2,-2c-0.6,-0.5,-1.4,-0.7,-2.4,-0.7c-1.3,0,-2.4,0.4,-3.2,1.3c-0.8,0.9,-1.2,2.3,-1.2,4.2c0,1.5,0.4,2.8,1.1,3.8c0.7,0.9,1.8,1.4,3.2,1.4c1.3,0,2.3,-0.5,3,-1.5c0.4,-0.6,0.6,-1.3,0.8,-2.1l1.8,0c-0.2,1.4,-0.7,2.5,-1.6,3.5c-1,1.1,-2.4,1.7,-4.2,1.7c-1.5,0,-2.8,-0.5,-3.8,-1.4c-1.4,-1.3,-2.1,-3.1,-2.1,-5.7c0,-1.9,0.5,-3.5,1.5,-4.8c1.1,-1.3,2.7,-2,4.6,-2c1.7,0,3,0.4,3.9,1.3Zm9.6,10c0.4,-0.8,0.6,-1.7,0.6,-2.7c0,-0.9,-0.1,-1.7,-0.4,-2.2C250.8,42.4,250,42,248.9,42c-1,0,-1.7,0.3,-2.1,1.1c-0.5,0.7,-0.7,1.6,-0.7,2.7c0,1,0.2,1.9,0.7,2.6c0.4,0.6,1.1,1,2.1,1c1.1,0,1.8,-0.4,2.2,-1.2Zm1,-6.4c0.9,0.8,1.3,2,1.3,3.6c0,1.6,-0.4,2.8,-1.1,3.9c-0.8,1,-2,1.5,-3.5,1.5c-1.4,0,-2.4,-0.5,-3.2,-1.4c-0.8,-0.9,-1.2,-2.1,-1.2,-3.6c0,-1.6,0.5,-2.9,1.3,-3.8c0.8,-1,1.9,-1.4,3.3,-1.4c1.2,0,2.2,0.4,3.1,1.2Zm3.2,-1l1.6,0l0,1.4c0.4,-0.5,0.7,-0.8,1,-1c0.6,-0.4,1.2,-0.6,1.8,-0.6c0.8,0,1.4,0.2,1.9,0.6c0.2,0.2,0.5,0.5,0.7,0.9c0.4,-0.5,0.8,-0.9,1.3,-1.1c0.4,-0.3,1,-0.4,1.6,-0.4c1.3,0,2.2,0.5,2.6,1.4c0.3,0.5,0.4,1.2,0.4,2l0,6.4l-1.7,0l0,-6.6c0,-0.7,-0.1,-1.1,-0.5,-1.4c-0.3,-0.2,-0.7,-0.3,-1.1,-0.3c-0.7,0,-1.2,0.2,-1.7,0.6c-0.4,0.4,-0.6,1.1,-0.6,2.1l0,5.6l-1.7,0l0,-6.2c0,-0.7,-0.1,-1.2,-0.2,-1.5c-0.3,-0.4,-0.7,-0.6,-1.4,-0.6c-0.6,0,-1.1,0.2,-1.6,0.7c-0.5,0.4,-0.8,1.3,-0.8,2.5l0,5.1l-1.6,0l0,-9.6Zm21.2,7.6c0.5,-0.6,0.7,-1.6,0.7,-2.8c0,-0.8,-0.1,-1.5,-0.3,-2C276.5,42.5,275.7,42,274.6,42c-1.1,0,-1.9,0.6,-2.3,1.7C272.1,44.3,272,45,272,46c0,0.7,0.1,1.3,0.3,1.8c0.4,1,1.2,1.5,2.3,1.5c0.7,0,1.4,-0.3,1.9,-0.9Zm-6.1,-7.5l1.6,0l0,1.2c0.3,-0.4,0.7,-0.7,1,-1c0.6,-0.3,1.2,-0.5,2,-0.5c1,0,2,0.4,2.7,1.2c0.8,0.9,1.2,2.1,1.2,3.6c0,2.1,-0.6,3.6,-1.7,4.5c-0.7,0.6,-1.5,0.8,-2.4,0.8c-0.7,0,-1.3,-0.1,-1.8,-0.4c-0.3,-0.2,-0.6,-0.5,-1,-1l0,4.9l-1.6,0l0,-13.3Zm10.4,-3.6l1.6,0l0,13.1l-1.6,0l0,-13.1Zm10,3.8c0.6,0.3,1.1,0.7,1.4,1.2c0.4,0.5,0.6,1.1,0.7,1.7c0.1,0.5,0.1,1.2,0.1,2.1l-7,0c0,1,0.2,1.8,0.7,2.4c0.4,0.6,1.1,0.9,2,0.9c0.8,0,1.5,-0.3,2,-0.9c0.3,-0.3,0.5,-0.7,0.6,-1.1l1.6,0c-0.1,0.4,-0.2,0.8,-0.4,1.2c-0.3,0.4,-0.5,0.8,-0.8,1c-0.5,0.5,-1.1,0.8,-1.8,1c-0.4,0.1,-0.9,0.2,-1.4,0.2c-1.2,0,-2.2,-0.5,-3,-1.3c-0.8,-0.9,-1.2,-2.1,-1.2,-3.7c0,-1.5,0.4,-2.8,1.2,-3.7c0.9,-1,1.9,-1.5,3.3,-1.5c0.7,0,1.3,0.2,2,0.5Zm0.6,3.8c-0.1,-0.7,-0.3,-1.3,-0.5,-1.7C290.5,42.4,289.7,42,288.7,42c-0.7,0,-1.4,0.3,-1.9,0.8c-0.5,0.6,-0.7,1.2,-0.8,2.1l5.4,0Zm2.7,-4.1l2.1,0l2.2,3.4l2.2,-3.4l2,0.1l-3.3,4.6l3.4,4.9l-2.1,0l-2.3,-3.6L296,50.4l-2.1,0l3.4,-4.9l-3.2,-4.7Zm10.1,0.1l1.6,0l0,9.5l-1.6,0l0,-9.5Zm0,-3.6l1.6,0l0,1.8l-1.6,0l0,-1.8Zm4.3,0.9l1.7,0l0,2.6l1.5,0l0,1.3l-1.5,0l0,6.3c0,0.3,0.1,0.6,0.3,0.7c0.1,0,0.3,0.1,0.6,0.1c0.1,0,0.2,0,0.3,0c0.1,0,0.2,0,0.3,-0.1l0,1.3c-0.2,0.1,-0.4,0.1,-0.6,0.1c-0.2,0.1,-0.4,0.1,-0.6,0.1c-0.8,0,-1.3,-0.2,-1.6,-0.6c-0.2,-0.4,-0.4,-0.9,-0.4,-1.5l0,-6.4l-1.3,0l0,-1.3l1.3,0l0,-2.6Zm10.8,2.6l1.8,0c-0.3,0.6,-0.8,2,-1.5,4.2c-0.6,1.7,-1.1,3,-1.5,4.1c-0.9,2.4,-1.6,3.9,-2,4.4c-0.4,0.6,-1,0.8,-1.9,0.8c-0.3,0,-0.4,0,-0.6,0c-0.1,0,-0.2,0,-0.4,-0.1l0,-1.4c0.3,0,0.5,0.1,0.6,0.1c0.1,0,0.2,0,0.3,0c0.3,0,0.5,0,0.7,-0.1c0.1,-0.1,0.2,-0.2,0.3,-0.4c0.1,0,0.2,-0.3,0.4,-0.7c0.1,-0.5,0.3,-0.8,0.4,-1l-3.6,-9.9l1.8,0l2.6,7.8l2.6,-7.8Z" class="g4_1" />
<path d="M249.2,62.7c0.6,0.6,1.1,1.5,1.2,2.7l-1.6,0c-0.1,-0.6,-0.3,-1,-0.6,-1.4c-0.4,-0.4,-0.9,-0.6,-1.7,-0.6c-1,0,-1.7,0.5,-2.2,1.5c-0.3,0.6,-0.4,1.4,-0.4,2.4c0,1,0.2,1.8,0.6,2.4c0.4,0.7,1.1,1,1.9,1c0.7,0,1.2,-0.2,1.6,-0.6c0.4,-0.4,0.7,-1,0.8,-1.7l1.6,0c-0.2,1.3,-0.6,2.2,-1.4,2.8c-0.7,0.6,-1.6,0.9,-2.7,0.9c-1.3,0,-2.3,-0.5,-3,-1.4c-0.7,-0.9,-1.1,-2.1,-1.1,-3.4c0,-1.7,0.4,-3,1.2,-4c0.8,-0.9,1.9,-1.4,3.1,-1.4c1.1,0,2,0.3,2.7,0.8Zm8.8,6.9c0.4,-0.9,0.6,-1.8,0.6,-2.7c0,-0.9,-0.1,-1.7,-0.4,-2.2c-0.5,-0.9,-1.3,-1.4,-2.4,-1.4c-1,0,-1.7,0.4,-2.1,1.2c-0.5,0.7,-0.7,1.6,-0.7,2.7c0,1,0.2,1.9,0.7,2.5c0.4,0.7,1.1,1.1,2.1,1.1c1.1,0,1.8,-0.4,2.2,-1.2Zm1,-6.4c0.9,0.8,1.3,2,1.3,3.6c0,1.6,-0.4,2.8,-1.1,3.8c-0.8,1.1,-2,1.6,-3.5,1.6c-1.4,0,-2.4,-0.5,-3.2,-1.4c-0.8,-0.9,-1.2,-2.1,-1.2,-3.6c0,-1.6,0.5,-2.9,1.3,-3.8c0.8,-1,1.9,-1.5,3.3,-1.5c1.2,0,2.2,0.5,3.1,1.3Zm3.2,-4.5l1.6,0l0,13.1l-1.6,0l0,-13.1Zm4.1,0l1.6,0l0,13.1l-1.6,0l0,-13.1Zm10,3.8c0.6,0.3,1.1,0.7,1.4,1.2c0.4,0.5,0.6,1.1,0.7,1.7c0.1,0.5,0.1,1.2,0.1,2.1l-7,0c0,1,0.3,1.8,0.7,2.4c0.4,0.6,1.1,0.8,2,0.8c0.8,0,1.5,-0.2,2,-0.8c0.3,-0.3,0.5,-0.7,0.6,-1.1l1.6,0c0,0.3,-0.2,0.7,-0.4,1.2c-0.3,0.4,-0.5,0.8,-0.8,1c-0.5,0.5,-1.1,0.8,-1.8,1c-0.4,0.1,-0.9,0.1,-1.3,0.1c-1.2,0,-2.3,-0.4,-3.1,-1.3c-0.8,-0.8,-1.2,-2,-1.2,-3.6c0,-1.5,0.4,-2.8,1.2,-3.8c0.9,-0.9,2,-1.4,3.3,-1.4c0.7,0,1.3,0.2,2,0.5Zm0.6,3.7c-0.1,-0.7,-0.2,-1.2,-0.5,-1.6c-0.4,-0.8,-1.2,-1.2,-2.2,-1.2c-0.7,0,-1.4,0.3,-1.9,0.8c-0.5,0.5,-0.7,1.2,-0.8,2l5.4,0Zm9.9,-3.5c0.7,0.6,1.1,1.5,1.3,2.7l-1.6,0c-0.1,-0.6,-0.3,-1,-0.7,-1.4c-0.3,-0.4,-0.8,-0.6,-1.6,-0.6c-1,0,-1.8,0.5,-2.2,1.5c-0.3,0.6,-0.4,1.4,-0.4,2.4c0,1,0.2,1.8,0.6,2.4c0.4,0.7,1,1,1.9,1c0.7,0,1.2,-0.2,1.6,-0.6c0.4,-0.4,0.6,-1,0.8,-1.7l1.6,0c-0.2,1.3,-0.7,2.2,-1.4,2.8c-0.7,0.6,-1.6,0.9,-2.7,0.9c-1.3,0,-2.3,-0.5,-3,-1.4c-0.8,-0.9,-1.2,-2.1,-1.2,-3.4c0,-1.7,0.5,-3,1.3,-4c0.8,-0.9,1.8,-1.4,3.1,-1.4c1.1,0,2,0.3,2.6,0.8ZM290,59.5l1.6,0l0,2.7l1.6,0l0,1.3l-1.6,0l0,6.3c0,0.3,0.1,0.5,0.4,0.7c0.1,0,0.3,0.1,0.6,0.1c0.1,0,0.1,0,0.2,0c0.1,0,0.2,-0.1,0.4,-0.1l0,1.3c-0.2,0.1,-0.4,0.1,-0.6,0.1c-0.2,0,-0.4,0.1,-0.7,0.1c-0.7,0,-1.2,-0.2,-1.5,-0.6C290.1,71,290,70.5,290,69.9l0,-6.4l-1.3,0l0,-1.3l1.3,0l0,-2.7Zm10.8,10.1c0.4,-0.9,0.6,-1.8,0.6,-2.7c0,-0.9,-0.2,-1.7,-0.5,-2.2c-0.4,-0.9,-1.2,-1.4,-2.3,-1.4c-1,0,-1.7,0.4,-2.2,1.2c-0.4,0.7,-0.6,1.6,-0.6,2.7c0,1,0.2,1.9,0.6,2.5c0.5,0.7,1.2,1.1,2.2,1.1c1,0,1.8,-0.4,2.2,-1.2Zm1,-6.4c0.8,0.8,1.2,2,1.2,3.6c0,1.6,-0.3,2.8,-1.1,3.8c-0.7,1.1,-1.9,1.6,-3.5,1.6c-1.3,0,-2.4,-0.5,-3.1,-1.4c-0.8,-0.9,-1.2,-2.1,-1.2,-3.6c0,-1.6,0.4,-2.9,1.2,-3.8c0.8,-1,1.9,-1.5,3.3,-1.5c1.3,0,2.3,0.5,3.2,1.3Zm3.2,-1l1.5,0l0,1.7c0.1,-0.3,0.5,-0.7,0.9,-1.2c0.5,-0.5,1.1,-0.7,1.7,-0.7c0.1,0,0.1,0,0.2,0c0.1,0,0.2,0,0.4,0l0,1.7c-0.1,0,-0.2,0,-0.3,0c-0.1,0,-0.2,0,-0.3,0c-0.8,0,-1.4,0.3,-1.8,0.8c-0.5,0.5,-0.7,1.1,-0.7,1.8l0,5.5l-1.6,0l0,-9.6Z" class="g4_1" />
<path d="M361.8,185.6c6.1,-13.9,21.7,-21.5,36.7,-17.9c15,3.6,24.6,17.4,22.6,32.3c-1.9,14.9,-15,26.3,-30.5,26.7c-15.5,0.5,-28.7,-10.3,-30.9,-25m17.2,-20.1l-15.1,4l0.3,-17.1" class="g6_1" />
<path d="M414,180.3l122.3,0l0,30.5l-122.3,0l0,-30.5Z" class="g1_1" />
<path d="M414,180.3l122.3,0l0,30.5l-122.3,0l0,-30.5Z" class="g3_1" />
<path d="M423.2,188.5l6,0c1.1,0,2.1,0.3,2.8,1c0.7,0.7,1.1,1.6,1.1,2.8c0,1,-0.4,1.9,-1,2.7c-0.6,0.7,-1.6,1.1,-2.9,1.1l-4.2,0l0,5.6l-1.8,0l0,-13.2Zm7,1.8c-0.4,-0.2,-1,-0.3,-1.6,-0.3l-3.6,0l0,4.6l3.6,0c0.8,0,1.4,-0.2,1.9,-0.5c0.5,-0.3,0.8,-0.9,0.8,-1.8c0,-1,-0.4,-1.6,-1.1,-2Zm10.9,9.1c0.4,-0.8,0.6,-1.7,0.6,-2.7c0,-0.9,-0.2,-1.6,-0.5,-2.2c-0.4,-0.9,-1.2,-1.3,-2.3,-1.3c-1,0,-1.7,0.4,-2.2,1.1c-0.4,0.8,-0.6,1.7,-0.6,2.8c0,1,0.2,1.8,0.6,2.5c0.5,0.7,1.2,1,2.2,1c1,0,1.8,-0.4,2.2,-1.2Zm1,-6.4c0.8,0.9,1.3,2.1,1.3,3.7c0,1.5,-0.4,2.8,-1.2,3.8c-0.7,1,-1.9,1.5,-3.5,1.5c-1.3,0,-2.3,-0.4,-3.1,-1.3c-0.8,-0.9,-1.2,-2.1,-1.2,-3.6c0,-1.6,0.4,-2.9,1.2,-3.9c0.9,-0.9,2,-1.4,3.3,-1.4c1.3,0,2.3,0.4,3.2,1.2Zm4.1,5.7c0.1,0.5,0.2,0.9,0.4,1.2c0.4,0.5,1.1,0.8,2.1,0.8c0.6,0,1.2,-0.2,1.6,-0.4c0.5,-0.3,0.7,-0.7,0.7,-1.2c0,-0.4,-0.2,-0.7,-0.6,-1c-0.2,-0.1,-0.6,-0.2,-1.3,-0.4l-1.3,-0.3c-0.8,-0.2,-1.4,-0.5,-1.8,-0.7c-0.7,-0.5,-1.1,-1.1,-1.1,-1.8c0,-0.9,0.4,-1.7,1,-2.2c0.7,-0.6,1.6,-0.9,2.7,-0.9c1.4,0,2.4,0.5,3.1,1.3c0.4,0.5,0.6,1.1,0.6,1.7l-1.6,0c0,-0.3,-0.1,-0.7,-0.3,-1c-0.4,-0.4,-1.1,-0.6,-2,-0.6c-0.6,0,-1,0.1,-1.4,0.4c-0.3,0.2,-0.4,0.5,-0.4,0.9c0,0.4,0.2,0.7,0.6,1c0.2,0.1,0.6,0.3,1.1,0.4l1,0.2c1.2,0.3,2,0.6,2.3,0.8c0.7,0.5,1,1.1,1,2c0,0.8,-0.3,1.6,-1,2.2c-0.6,0.6,-1.6,0.9,-2.9,0.9c-1.5,0,-2.5,-0.3,-3.1,-0.9c-0.6,-0.7,-0.9,-1.5,-0.9,-2.4l1.5,0Zm8.6,-9.3l1.6,0l0,2.7l1.5,0l0,1.3l-1.5,0l0,6.3c0,0.3,0.1,0.5,0.3,0.6c0.1,0.1,0.4,0.1,0.6,0.1c0.1,0,0.2,0,0.3,0c0.1,0,0.2,0,0.3,0l0,1.3c-0.2,0,-0.4,0.1,-0.6,0.1c-0.2,0,-0.4,0,-0.6,0c-0.8,0,-1.3,-0.2,-1.5,-0.6c-0.3,-0.3,-0.4,-0.8,-0.4,-1.5l0,-6.3l-1.3,0l0,-1.3l1.3,0l0,-2.7Zm15.7,10.2c0.5,-0.6,0.8,-1.5,0.8,-2.8c0,-0.7,-0.1,-1.4,-0.4,-2c-0.4,-1,-1.1,-1.5,-2.3,-1.5c-1.1,0,-1.8,0.5,-2.2,1.6c-0.3,0.6,-0.4,1.4,-0.4,2.3c0,0.7,0.1,1.4,0.4,1.9c0.4,1,1.1,1.5,2.2,1.5c0.8,0,1.4,-0.3,1.9,-1Zm-6,-7.5l1.5,0l0,1.3c0.4,-0.4,0.7,-0.8,1.1,-1c0.5,-0.4,1.2,-0.6,1.9,-0.6c1.1,0,2,0.5,2.8,1.3c0.7,0.8,1.1,2,1.1,3.6c0,2.1,-0.5,3.5,-1.6,4.4c-0.7,0.6,-1.5,0.9,-2.4,0.9c-0.8,0,-1.4,-0.2,-1.9,-0.5c-0.2,-0.2,-0.6,-0.5,-0.9,-0.9l0,4.9l-1.6,0l0,-13.4Zm10.3,0l1.6,0l0,1.6c0.1,-0.3,0.4,-0.7,0.9,-1.1c0.5,-0.5,1,-0.7,1.7,-0.7c0,0,0.1,0,0.1,0c0.1,0,0.2,0,0.4,0l0,1.7c-0.1,0,-0.2,0,-0.3,0c0,0,-0.1,0,-0.2,0c-0.8,0,-1.5,0.2,-1.9,0.7c-0.4,0.6,-0.7,1.2,-0.7,1.9l0,5.5l-1.6,0l0,-9.6Zm12.1,7.3c0.4,-0.8,0.6,-1.7,0.6,-2.7c0,-0.9,-0.2,-1.6,-0.5,-2.2c-0.4,-0.9,-1.2,-1.3,-2.3,-1.3c-1,0,-1.7,0.4,-2.1,1.1c-0.5,0.8,-0.7,1.7,-0.7,2.8c0,1,0.2,1.8,0.7,2.5c0.4,0.7,1.1,1,2.1,1c1.1,0,1.8,-0.4,2.2,-1.2Zm1,-6.4c0.8,0.9,1.3,2.1,1.3,3.7c0,1.5,-0.4,2.8,-1.2,3.8c-0.7,1,-1.9,1.5,-3.5,1.5c-1.3,0,-2.3,-0.4,-3.1,-1.3c-0.8,-0.9,-1.2,-2.1,-1.2,-3.6c0,-1.6,0.4,-2.9,1.3,-3.9c0.8,-0.9,1.9,-1.4,3.2,-1.4c1.3,0,2.3,0.4,3.2,1.2Zm9.5,-0.4c0.7,0.5,1.1,1.4,1.2,2.7l-1.5,0c-0.1,-0.6,-0.4,-1.1,-0.7,-1.5c-0.3,-0.4,-0.9,-0.6,-1.6,-0.6c-1.1,0,-1.8,0.5,-2.2,1.5c-0.3,0.7,-0.5,1.5,-0.5,2.5c0,0.9,0.2,1.7,0.6,2.4c0.5,0.6,1.1,1,2,1c0.6,0,1.2,-0.2,1.6,-0.6c0.3,-0.5,0.6,-1,0.8,-1.7l1.5,0c-0.2,1.2,-0.6,2.2,-1.3,2.8c-0.7,0.6,-1.6,0.8,-2.8,0.8c-1.2,0,-2.2,-0.4,-3,-1.3c-0.7,-0.9,-1.1,-2.1,-1.1,-3.5c0,-1.6,0.4,-3,1.2,-3.9c0.9,-0.9,1.9,-1.4,3.2,-1.4c1.1,0,1.9,0.3,2.6,0.8Zm8.8,-0.3c0.6,0.4,1.1,0.8,1.5,1.3c0.3,0.5,0.5,1,0.6,1.7c0.1,0.4,0.2,1.1,0.2,2.1l-7.1,0c0.1,1,0.3,1.7,0.7,2.3c0.4,0.6,1.1,0.9,2,0.9c0.9,0,1.5,-0.3,2,-0.8c0.3,-0.3,0.5,-0.7,0.6,-1.1l1.6,0c0,0.3,-0.2,0.7,-0.4,1.1c-0.2,0.5,-0.5,0.8,-0.8,1.1c-0.5,0.5,-1.1,0.8,-1.8,1c-0.4,0.1,-0.8,0.1,-1.3,0.1c-1.2,0,-2.2,-0.4,-3.1,-1.3c-0.8,-0.9,-1.2,-2.1,-1.2,-3.6c0,-1.6,0.4,-2.8,1.3,-3.8c0.8,-1,1.9,-1.4,3.2,-1.4c0.7,0,1.4,0.1,2,0.4Zm0.6,3.8c-0.1,-0.7,-0.2,-1.2,-0.5,-1.7c-0.4,-0.7,-1.1,-1.1,-2.2,-1.1c-0.7,0,-1.3,0.2,-1.8,0.8c-0.5,0.5,-0.8,1.2,-0.8,2l5.3,0Zm4.6,2.6c0,0.5,0.2,0.9,0.4,1.2c0.4,0.5,1.1,0.8,2.1,0.8c0.6,0,1.1,-0.2,1.6,-0.4c0.4,-0.3,0.7,-0.7,0.7,-1.2c0,-0.4,-0.2,-0.7,-0.6,-1c-0.2,-0.1,-0.7,-0.2,-1.4,-0.4L513,197.4c-0.9,-0.2,-1.5,-0.5,-1.9,-0.7c-0.6,-0.5,-1,-1.1,-1,-1.8c0,-0.9,0.3,-1.7,1,-2.2c0.6,-0.6,1.5,-0.9,2.6,-0.9c1.5,0,2.5,0.5,3.2,1.3c0.4,0.5,0.5,1.1,0.5,1.7l-1.5,0c0,-0.3,-0.1,-0.7,-0.4,-1c-0.3,-0.4,-1,-0.6,-1.9,-0.6c-0.6,0,-1.1,0.1,-1.4,0.4c-0.3,0.2,-0.5,0.5,-0.5,0.9c0,0.4,0.3,0.7,0.7,1c0.2,0.1,0.6,0.3,1,0.4l1.1,0.2c1.1,0.3,1.9,0.6,2.3,0.8c0.6,0.5,1,1.1,1,2c0,0.8,-0.4,1.6,-1,2.2c-0.7,0.6,-1.6,0.9,-3,0.9c-1.4,0,-2.4,-0.3,-3,-0.9c-0.6,-0.7,-0.9,-1.5,-1,-2.4l1.6,0Zm9.2,0c0,0.5,0.1,0.9,0.4,1.2c0.4,0.5,1.1,0.8,2.1,0.8c0.6,0,1.1,-0.2,1.5,-0.4c0.5,-0.3,0.7,-0.7,0.7,-1.2c0,-0.4,-0.2,-0.7,-0.5,-1c-0.3,-0.1,-0.7,-0.2,-1.4,-0.4l-1.3,-0.3c-0.8,-0.2,-1.4,-0.5,-1.8,-0.7c-0.7,-0.5,-1,-1.1,-1,-1.8c0,-0.9,0.3,-1.7,1,-2.2c0.6,-0.6,1.5,-0.9,2.6,-0.9c1.4,0,2.5,0.5,3.1,1.3c0.4,0.5,0.6,1.1,0.6,1.7l-1.5,0c-0.1,-0.3,-0.2,-0.7,-0.4,-1c-0.4,-0.4,-1,-0.6,-1.9,-0.6c-0.6,0,-1.1,0.1,-1.4,0.4c-0.3,0.2,-0.5,0.5,-0.5,0.9c0,0.4,0.2,0.7,0.6,1c0.3,0.1,0.6,0.3,1.1,0.4l1.1,0.2c1.1,0.3,1.9,0.6,2.3,0.8c0.6,0.5,0.9,1.1,0.9,2c0,0.8,-0.3,1.6,-0.9,2.2c-0.7,0.6,-1.7,0.9,-3,0.9c-1.4,0,-2.4,-0.3,-3,-0.9c-0.6,-0.7,-0.9,-1.5,-1,-2.4l1.6,0Z" class="g4_1" />
<path d="M360.6,194c0,25.3,-37.7,45.9,-84.1,45.9c-46.4,0,-84,-20.6,-84,-45.9c0,-25.3,37.6,-45.8,84,-45.8c46.4,0,84.1,20.5,84.1,45.8Z" class="g1_1" />
<path d="M360.6,194c0,25.3,-37.7,45.9,-84.1,45.9c-46.4,0,-84,-20.6,-84,-45.9c0,-25.3,37.6,-45.8,84,-45.8c46.4,0,84.1,20.5,84.1,45.8Z" class="g3_1" />
<path d="M223.3,176.3l0,8.1c0,1,0.2,1.8,0.6,2.4c0.5,1,1.4,1.4,2.7,1.4c1.5,0,2.5,-0.5,3,-1.5c0.3,-0.6,0.5,-1.3,0.5,-2.3l0,-8.1l1.8,0l0,7.4c0,1.6,-0.2,2.8,-0.7,3.7c-0.8,1.6,-2.3,2.4,-4.5,2.4c-2.2,0,-3.7,-0.8,-4.5,-2.4c-0.5,-0.9,-0.7,-2.1,-0.7,-3.7l0,-7.4l1.8,0Zm11.1,3.6l1.5,0l0,1.3c0.5,-0.5,1,-0.9,1.5,-1.2c0.5,-0.2,1,-0.4,1.7,-0.4c1.3,0,2.3,0.5,2.7,1.5c0.3,0.5,0.4,1.2,0.4,2.2l0,6.1l-1.6,0l0,-6c0,-0.6,-0.1,-1.1,-0.3,-1.4c-0.3,-0.6,-0.8,-0.9,-1.5,-0.9c-0.4,0,-0.7,0,-1,0.1c-0.4,0.1,-0.8,0.4,-1.1,0.8c-0.3,0.3,-0.5,0.6,-0.6,1c0,0.3,-0.1,0.8,-0.1,1.4l0,5l-1.6,0l0,-9.5Zm10.2,0l1.6,0l0,9.5l-1.6,0l0,-9.5Zm0,-3.6l1.6,0l0,1.8l-1.6,0l0,-1.8Zm4.8,0.6c0.4,-0.5,1.1,-0.8,2.2,-0.8c0.1,0,0.2,0,0.3,0c0.1,0,0.2,0,0.4,0l0,1.5c-0.2,0,-0.3,0,-0.4,0c-0.1,0,-0.1,0,-0.2,0c-0.5,0,-0.8,0.1,-0.9,0.4c-0.1,0.2,-0.1,0.9,-0.1,1.9l1.6,0l0,1.3l-1.6,0l0,8.2l-1.6,0l0,-8.2l-1.4,0l0,-1.3l1.4,0l0,-1.5c0,-0.7,0.1,-1.2,0.3,-1.5Zm4.3,3l1.7,0l0,9.5l-1.7,0l0,-9.5Zm0,-3.6l1.7,0l0,1.8l-1.7,0l0,-1.8Zm10.1,3.8c0.6,0.3,1.1,0.8,1.4,1.3c0.4,0.4,0.6,1,0.7,1.7c0.1,0.4,0.1,1.1,0.1,2.1l-7,0c0,0.9,0.3,1.7,0.7,2.3c0.4,0.6,1.1,0.9,2,0.9c0.8,0,1.5,-0.3,2,-0.8c0.3,-0.4,0.5,-0.7,0.6,-1.2l1.6,0c-0.1,0.4,-0.2,0.8,-0.4,1.2c-0.3,0.4,-0.5,0.8,-0.8,1.1c-0.5,0.5,-1.1,0.8,-1.8,0.9c-0.4,0.1,-0.9,0.2,-1.4,0.2c-1.2,0,-2.2,-0.4,-3,-1.3c-0.8,-0.9,-1.2,-2.1,-1.2,-3.7c0,-1.5,0.4,-2.8,1.2,-3.7c0.9,-1,1.9,-1.5,3.3,-1.5c0.7,0,1.3,0.2,2,0.5Zm0.6,3.8c-0.1,-0.7,-0.3,-1.3,-0.5,-1.7c-0.4,-0.8,-1.2,-1.2,-2.2,-1.2c-0.7,0,-1.4,0.3,-1.9,0.8c-0.5,0.6,-0.7,1.3,-0.8,2.1l5.4,0Zm5.3,3.4c0.4,0.7,1.1,1.1,2.1,1.1c0.7,0,1.3,-0.3,1.8,-1c0.5,-0.6,0.7,-1.5,0.7,-2.7c0,-1.3,-0.2,-2.2,-0.7,-2.7c-0.5,-0.6,-1.1,-0.9,-1.9,-0.9c-0.8,0,-1.4,0.3,-1.9,0.9c-0.5,0.6,-0.8,1.6,-0.8,2.8c0,1,0.2,1.8,0.7,2.5Zm3.6,-7.1c0.3,0.1,0.6,0.4,1,0.9l0,-4.9l1.5,0l0,13.2l-1.4,0l0,-1.3c-0.4,0.6,-0.9,1,-1.4,1.3c-0.5,0.3,-1.1,0.4,-1.7,0.4c-1.1,0,-2,-0.5,-2.8,-1.4c-0.8,-0.9,-1.2,-2.1,-1.2,-3.5c0,-1.4,0.4,-2.7,1.1,-3.7c0.7,-1,1.7,-1.5,3,-1.5c0.8,0,1.4,0.1,1.9,0.5Zm15.9,7.2c0.5,-0.6,0.7,-1.6,0.7,-2.8c0,-0.8,-0.1,-1.4,-0.3,-2c-0.4,-1,-1.2,-1.6,-2.3,-1.6c-1.1,0,-1.9,0.6,-2.3,1.7c-0.2,0.6,-0.3,1.4,-0.3,2.3c0,0.7,0.1,1.4,0.3,1.9c0.4,1,1.2,1.5,2.3,1.5c0.8,0,1.4,-0.4,1.9,-1Zm-6.1,-7.5l1.6,0l0,1.3c0.3,-0.5,0.7,-0.8,1.1,-1c0.5,-0.4,1.2,-0.6,1.9,-0.6c1.1,0,2,0.4,2.8,1.3c0.7,0.8,1.1,2,1.1,3.5c0,2.1,-0.6,3.6,-1.7,4.5c-0.6,0.6,-1.4,0.9,-2.4,0.9c-0.7,0,-1.3,-0.2,-1.8,-0.5c-0.3,-0.2,-0.6,-0.5,-0.9,-0.9l0,4.9l-1.7,0l0,-13.4Zm10.4,0l1.5,0l0,1.6c0.2,-0.3,0.5,-0.7,1,-1.2c0.5,-0.4,1,-0.7,1.7,-0.7l0.1,0.1c0.1,0,0.2,0,0.4,0l0,1.7c-0.1,0,-0.2,0,-0.3,0c-0.1,-0.1,-0.2,-0.1,-0.3,-0.1c-0.8,0,-1.4,0.3,-1.8,0.8c-0.5,0.5,-0.7,1.1,-0.7,1.8l0,5.5l-1.6,0l0,-9.5Zm12.1,7.3c0.4,-0.8,0.5,-1.7,0.5,-2.7c0,-0.9,-0.1,-1.6,-0.4,-2.2c-0.4,-0.9,-1.2,-1.3,-2.3,-1.3c-1,0,-1.7,0.4,-2.2,1.1c-0.4,0.8,-0.6,1.7,-0.6,2.7c0,1.1,0.2,1.9,0.6,2.6c0.5,0.7,1.2,1,2.2,1c1,0,1.8,-0.4,2.2,-1.2Zm1,-6.4c0.8,0.8,1.2,2,1.2,3.6c0,1.6,-0.3,2.9,-1.1,3.9c-0.7,1,-1.9,1.5,-3.5,1.5c-1.3,0,-2.4,-0.5,-3.1,-1.3c-0.8,-0.9,-1.2,-2.1,-1.2,-3.6c0,-1.7,0.4,-2.9,1.2,-3.9c0.8,-0.9,1.9,-1.4,3.3,-1.4c1.3,0,2.3,0.4,3.2,1.2Zm3.9,-3.9c0.4,-0.5,1.1,-0.8,2.2,-0.8c0.1,0,0.2,0,0.3,0c0.1,0,0.2,0,0.4,0l0,1.5c-0.2,0,-0.3,0,-0.4,0c-0.1,0,-0.2,0,-0.2,0c-0.5,0,-0.8,0.1,-0.9,0.4c-0.1,0.2,-0.1,0.9,-0.1,1.9l1.6,0l0,1.3l-1.7,0l0,8.2l-1.6,0l0,-8.2l-1.3,0l0,-1.3l1.3,0l0,-1.5c0.1,-0.7,0.2,-1.2,0.4,-1.5Zm4.3,3l1.7,0l0,9.5l-1.7,0l0,-9.5Zm0,-3.6l1.7,0l0,1.8l-1.7,0l0,-1.8Zm4.1,0l1.6,0l0,13.1l-1.6,0l0,-13.1Zm10,3.8c0.7,0.3,1.1,0.8,1.5,1.3c0.3,0.4,0.5,1,0.6,1.7c0.1,0.4,0.2,1.1,0.2,2.1l-7.1,0c0.1,0.9,0.3,1.7,0.7,2.3c0.5,0.6,1.1,0.9,2,0.9c0.9,0,1.5,-0.3,2,-0.8c0.3,-0.4,0.5,-0.7,0.6,-1.2l1.6,0c0,0.4,-0.2,0.8,-0.4,1.2c-0.2,0.4,-0.5,0.8,-0.8,1.1c-0.5,0.5,-1.1,0.8,-1.8,0.9c-0.4,0.1,-0.8,0.2,-1.3,0.2c-1.2,0,-2.2,-0.4,-3,-1.3c-0.9,-0.9,-1.3,-2.1,-1.3,-3.7c0,-1.5,0.4,-2.8,1.3,-3.7c0.8,-1,1.9,-1.5,3.2,-1.5c0.7,0,1.4,0.2,2,0.5Zm0.6,3.8c-0.1,-0.7,-0.2,-1.3,-0.4,-1.7c-0.5,-0.8,-1.2,-1.2,-2.3,-1.2c-0.7,0,-1.3,0.3,-1.8,0.8c-0.5,0.6,-0.8,1.3,-0.8,2.1l5.3,0Z" class="g4_1" />
<path d="M251.7,198.3c0.4,-0.5,1.2,-0.8,2.2,-0.8c0.1,0,0.2,0,0.3,0c0.1,0,0.3,0,0.4,0l0,1.5c-0.2,0,-0.3,0,-0.4,0c0,0,-0.1,0,-0.2,0c-0.5,0,-0.7,0.1,-0.8,0.4c-0.1,0.2,-0.2,0.9,-0.2,1.9l1.6,0l0,1.3l-1.6,0l0,8.2l-1.6,0l0,-8.2l-1.3,0l0,-1.3l1.3,0l0,-1.5c0,-0.7,0.1,-1.2,0.3,-1.5Zm10.4,10.3c0.4,-0.8,0.6,-1.7,0.6,-2.7c0,-0.9,-0.2,-1.6,-0.5,-2.2c-0.4,-0.9,-1.2,-1.3,-2.3,-1.3c-1,0,-1.7,0.3,-2.1,1.1c-0.5,0.8,-0.7,1.7,-0.7,2.7c0,1,0.2,1.9,0.7,2.6c0.4,0.7,1.1,1,2.1,1c1.1,0,1.8,-0.4,2.2,-1.2Zm1,-6.4c0.8,0.8,1.3,2,1.3,3.6c0,1.6,-0.4,2.9,-1.2,3.9c-0.7,1,-1.9,1.5,-3.5,1.5c-1.3,0,-2.3,-0.5,-3.1,-1.4c-0.8,-0.8,-1.2,-2,-1.2,-3.5c0,-1.7,0.4,-2.9,1.3,-3.9c0.8,-1,1.9,-1.4,3.2,-1.4c1.3,0,2.3,0.4,3.2,1.2Zm3.2,-1l1.6,0l0,1.7c0.1,-0.3,0.4,-0.7,0.9,-1.2c0.5,-0.4,1,-0.7,1.7,-0.7l0.1,0c0.1,0,0.2,0.1,0.4,0.1l0,1.7c-0.1,0,-0.2,-0.1,-0.3,-0.1c-0.1,0,-0.1,0,-0.2,0c-0.9,0,-1.5,0.3,-1.9,0.8c-0.5,0.5,-0.7,1.1,-0.7,1.8l0,5.5l-1.6,0l0,-9.6Zm6.1,0l1.6,0l0,1.4c0.3,-0.5,0.7,-0.8,1,-1c0.5,-0.4,1.1,-0.6,1.8,-0.6c0.8,0,1.4,0.2,1.8,0.6c0.3,0.2,0.5,0.5,0.8,0.9c0.3,-0.5,0.7,-0.8,1.2,-1.1c0.5,-0.2,1.1,-0.4,1.7,-0.4c1.2,0,2.1,0.5,2.6,1.4c0.2,0.5,0.4,1.2,0.4,2.1l0,6.3l-1.7,0l0,-6.6c0,-0.7,-0.2,-1.1,-0.5,-1.3c-0.3,-0.3,-0.7,-0.4,-1.2,-0.4c-0.6,0,-1.1,0.2,-1.6,0.6c-0.4,0.5,-0.7,1.2,-0.7,2.2l0,5.5l-1.6,0l0,-6.2c0,-0.7,-0.1,-1.1,-0.2,-1.4c-0.3,-0.5,-0.8,-0.7,-1.4,-0.7c-0.6,0,-1.2,0.2,-1.7,0.7c-0.5,0.5,-0.7,1.3,-0.7,2.5l0,5.1l-1.6,0l0,-9.6Zm17,8.2c0.3,0.3,0.7,0.4,1.2,0.4c0.5,0,1.1,-0.1,1.6,-0.4c0.9,-0.4,1.4,-1.2,1.4,-2.1l0,-1.3c-0.2,0.1,-0.5,0.2,-0.8,0.3c-0.3,0.1,-0.6,0.1,-0.9,0.1l-1,0.2c-0.6,0,-1,0.2,-1.3,0.3c-0.5,0.3,-0.7,0.8,-0.7,1.4c0,0.4,0.1,0.8,0.5,1.1Zm3.4,-4.4c0.3,0,0.6,-0.2,0.7,-0.4c0.1,-0.2,0.1,-0.4,0.1,-0.7c0,-0.5,-0.2,-0.9,-0.6,-1.2c-0.4,-0.2,-0.9,-0.3,-1.7,-0.3c-0.8,0,-1.4,0.2,-1.8,0.7c-0.1,0.2,-0.3,0.6,-0.3,1.1l-1.5,0c0,-1.2,0.4,-2,1.1,-2.5c0.7,-0.5,1.6,-0.7,2.6,-0.7c1.1,0,2,0.2,2.7,0.7c0.7,0.4,1.1,1.1,1.1,2l0,5.5c0,0.2,0,0.3,0.1,0.4c0,0.1,0.2,0.1,0.4,0.1c0.1,0,0.2,0,0.3,0c0,0,0.1,0,0.2,0l0,1.2c-0.2,0,-0.4,0.1,-0.5,0.1c-0.2,0,-0.3,0,-0.6,0c-0.5,0,-0.9,-0.2,-1.2,-0.6c-0.1,-0.2,-0.2,-0.5,-0.3,-0.8c-0.3,0.4,-0.8,0.8,-1.4,1.1c-0.6,0.3,-1.3,0.5,-2,0.5c-0.9,0,-1.6,-0.3,-2.2,-0.9c-0.5,-0.5,-0.8,-1.2,-0.8,-2c0,-0.9,0.2,-1.6,0.8,-2c0.6,-0.5,1.3,-0.8,2.2,-1l2.6,-0.3Zm5.3,-6.4l1.7,0l0,2.6l1.5,0l0,1.4l-1.5,0l0,6.2c0,0.4,0.1,0.6,0.3,0.7c0.1,0.1,0.3,0.1,0.6,0.1c0.1,0,0.2,0,0.3,0c0.1,0,0.2,0,0.3,0l0,1.2c-0.2,0.1,-0.4,0.1,-0.6,0.1c-0.2,0.1,-0.4,0.1,-0.6,0.1c-0.8,0,-1.3,-0.2,-1.6,-0.6c-0.2,-0.4,-0.4,-0.9,-0.4,-1.5l0,-6.3l-1.3,0l0,-1.4l1.3,0l0,-2.6Z" class="g4_1" />
<path d="M1.5,270.4l550,0l0,107l-550,0l0,-107Z" class="g2_1" />
<path d="M1.5,270.4l550,0l0,107l-550,0l0,-107Z" class="g3_1" />
<path d="M398.8,285.7l137.5,0l0,76.4l-137.5,0l0,-76.4Z" class="g1_1" />
<path d="M398.8,285.7l137.5,0l0,76.4l-137.5,0l0,-76.4Z" class="g3_1" />
<path d="M441,315.1c0.1,0.7,0.3,1.3,0.6,1.8c0.6,0.9,1.6,1.3,3.1,1.3c0.7,0,1.3,-0.1,1.8,-0.3c1.1,-0.4,1.6,-1,1.6,-2c0,-0.7,-0.2,-1.2,-0.7,-1.5c-0.4,-0.3,-1.1,-0.6,-2.1,-0.8l-1.8,-0.4c-1.1,-0.3,-2,-0.6,-2.4,-0.9c-0.9,-0.5,-1.3,-1.3,-1.3,-2.4c0,-1.2,0.4,-2.2,1.2,-2.9c0.8,-0.8,2,-1.2,3.5,-1.2c1.4,0,2.5,0.4,3.5,1c1,0.7,1.5,1.8,1.5,3.2l-1.7,0c-0.1,-0.7,-0.3,-1.2,-0.6,-1.6c-0.5,-0.7,-1.5,-1,-2.8,-1c-1,0,-1.8,0.2,-2.2,0.6c-0.5,0.5,-0.7,1,-0.7,1.6c0,0.6,0.3,1.1,0.8,1.4c0.3,0.2,1.1,0.4,2.4,0.7l1.8,0.4c0.9,0.2,1.6,0.5,2.1,0.8c0.8,0.7,1.2,1.6,1.2,2.7c0,1.5,-0.5,2.5,-1.5,3.2c-1.1,0.6,-2.3,0.9,-3.7,0.9c-1.7,0,-3,-0.4,-3.9,-1.3c-0.9,-0.8,-1.4,-1.9,-1.3,-3.3l1.6,0Zm17.2,-4.9c0.7,0.6,1.1,1.5,1.2,2.7l-1.5,0c-0.1,-0.6,-0.3,-1,-0.7,-1.4c-0.3,-0.4,-0.9,-0.6,-1.6,-0.6c-1.1,0,-1.8,0.5,-2.2,1.5c-0.3,0.6,-0.5,1.4,-0.5,2.4c0,1,0.2,1.8,0.7,2.4c0.4,0.7,1,1,1.9,1c0.6,0,1.2,-0.2,1.6,-0.6c0.3,-0.4,0.6,-1,0.8,-1.7l1.5,0c-0.1,1.3,-0.6,2.2,-1.3,2.8c-0.7,0.6,-1.6,0.9,-2.8,0.9c-1.2,0,-2.2,-0.5,-3,-1.4c-0.7,-0.9,-1.1,-2.1,-1.1,-3.4c0,-1.7,0.4,-3,1.2,-4c0.9,-0.9,1.9,-1.4,3.2,-1.4c1.1,0,1.9,0.3,2.6,0.8Zm4.6,7.7c0.3,0.2,0.7,0.4,1.2,0.4c0.6,0,1.1,-0.2,1.6,-0.4c0.9,-0.5,1.4,-1.2,1.4,-2.2l0,-1.3c-0.2,0.2,-0.5,0.3,-0.8,0.3c-0.3,0.1,-0.6,0.2,-0.9,0.2l-1,0.1c-0.5,0.1,-1,0.2,-1.3,0.4c-0.5,0.3,-0.7,0.7,-0.7,1.4c0,0.4,0.1,0.8,0.5,1.1Zm3.4,-4.4c0.4,-0.1,0.6,-0.2,0.7,-0.5c0.1,-0.1,0.1,-0.3,0.1,-0.6c0,-0.5,-0.2,-0.9,-0.6,-1.2c-0.3,-0.2,-0.9,-0.4,-1.6,-0.4c-0.9,0,-1.5,0.3,-1.8,0.7c-0.2,0.3,-0.3,0.7,-0.4,1.1l-1.5,0c0,-1.1,0.4,-2,1.1,-2.4c0.8,-0.5,1.6,-0.7,2.6,-0.7c1.1,0,2,0.2,2.8,0.6c0.6,0.5,1,1.1,1,2l0,5.6c0,0.1,0,0.3,0.1,0.4c0.1,0.1,0.2,0.1,0.4,0.1c0.1,0,0.2,0,0.3,0c0.1,0,0.2,0,0.3,0l0,1.2c-0.3,0,-0.5,0.1,-0.6,0.1c-0.1,0,-0.3,0,-0.5,0c-0.6,0,-1,-0.2,-1.3,-0.6c-0.1,-0.2,-0.2,-0.5,-0.2,-0.9c-0.4,0.5,-0.8,0.8,-1.4,1.2c-0.7,0.3,-1.3,0.4,-2.1,0.4c-0.9,0,-1.6,-0.2,-2.2,-0.8c-0.5,-0.5,-0.8,-1.2,-0.8,-2c0,-0.9,0.3,-1.6,0.8,-2.1c0.6,-0.5,1.3,-0.8,2.2,-0.9l2.6,-0.3Zm5.4,-6.5l1.6,0l0,2.7l1.5,0l0,1.3l-1.5,0l0,6.3c0,0.3,0.1,0.5,0.3,0.7c0.2,0,0.4,0.1,0.7,0.1c0,0,0.1,0,0.2,0c0.1,0,0.2,-0.1,0.3,-0.1l0,1.3c-0.2,0.1,-0.4,0.1,-0.6,0.1c-0.2,0,-0.4,0.1,-0.6,0.1c-0.8,0,-1.3,-0.2,-1.5,-0.6c-0.3,-0.4,-0.4,-0.9,-0.4,-1.5l0,-6.4l-1.3,0l0,-1.3l1.3,0l0,-2.7Zm5,0l1.7,0l0,2.7l1.5,0l0,1.3l-1.5,0l0,6.3c0,0.3,0.1,0.5,0.3,0.7c0.1,0,0.3,0.1,0.6,0.1c0.1,0,0.2,0,0.3,0c0.1,0,0.2,-0.1,0.3,-0.1l0,1.3c-0.2,0.1,-0.4,0.1,-0.6,0.1c-0.2,0,-0.4,0.1,-0.6,0.1c-0.8,0,-1.3,-0.2,-1.6,-0.6c-0.2,-0.4,-0.4,-0.9,-0.4,-1.5l0,-6.4l-1.3,0l0,-1.3l1.3,0l0,-2.7Zm10.8,3c0.6,0.3,1.1,0.7,1.4,1.2c0.4,0.5,0.6,1.1,0.7,1.7c0.1,0.5,0.1,1.2,0.1,2.1l-7,0c0,1,0.3,1.8,0.7,2.4c0.4,0.6,1.1,0.8,2,0.8c0.8,0,1.5,-0.2,2,-0.8c0.3,-0.3,0.5,-0.7,0.6,-1.1l1.6,0c-0.1,0.3,-0.2,0.7,-0.4,1.2c-0.3,0.4,-0.5,0.8,-0.8,1c-0.5,0.5,-1.1,0.8,-1.8,1c-0.4,0.1,-0.9,0.1,-1.4,0.1c-1.1,0,-2.2,-0.4,-3,-1.3c-0.8,-0.8,-1.2,-2,-1.2,-3.6c0,-1.5,0.4,-2.8,1.2,-3.8c0.9,-0.9,1.9,-1.4,3.3,-1.4c0.7,0,1.3,0.2,2,0.5Zm0.6,3.7c-0.1,-0.7,-0.3,-1.2,-0.5,-1.6c-0.4,-0.8,-1.2,-1.2,-2.2,-1.2c-0.7,0,-1.4,0.3,-1.9,0.8c-0.5,0.5,-0.7,1.2,-0.8,2l5.4,0Zm3.6,-4l1.6,0l0,1.7c0.1,-0.3,0.4,-0.7,0.9,-1.2c0.5,-0.5,1,-0.7,1.7,-0.7c0,0,0.1,0,0.1,0c0.1,0,0.2,0,0.4,0l0,1.7c-0.1,0,-0.2,0,-0.3,0c0,0,-0.1,0,-0.2,0c-0.8,0,-1.5,0.3,-1.9,0.8c-0.4,0.5,-0.6,1.1,-0.6,1.8l0,5.5l-1.7,0l0,-9.6Z" class="g4_1" />
<path d="M452.5,327.5l5.9,0c1.2,0,2.2,0.4,2.9,1c0.7,0.7,1,1.6,1,2.8c0,1,-0.3,1.9,-0.9,2.7c-0.7,0.8,-1.6,1.1,-3,1.1l-4.1,0l0,5.6l-1.8,0l0,-13.2Zm7,1.9c-0.4,-0.2,-1,-0.3,-1.7,-0.3l-3.5,0l0,4.5l3.5,0c0.8,0,1.5,-0.1,2,-0.5c0.5,-0.3,0.7,-0.9,0.7,-1.8c0,-0.9,-0.3,-1.6,-1,-1.9Zm4.9,-1.9l1.6,0l0,13.2l-1.6,0l0,-13.2Zm10,10.9c0.4,-0.8,0.6,-1.7,0.6,-2.7c0,-0.9,-0.1,-1.6,-0.4,-2.1c-0.5,-0.9,-1.2,-1.4,-2.4,-1.4c-0.9,0,-1.7,0.4,-2.1,1.2c-0.5,0.7,-0.7,1.6,-0.7,2.7c0,1,0.2,1.9,0.7,2.5c0.4,0.7,1.2,1.1,2.1,1.1c1.1,0,1.8,-0.4,2.2,-1.3Zm1,-6.3c0.9,0.8,1.3,2,1.3,3.6c0,1.5,-0.4,2.8,-1.1,3.8c-0.8,1,-1.9,1.5,-3.5,1.5c-1.3,0,-2.4,-0.4,-3.2,-1.3c-0.7,-0.9,-1.1,-2.1,-1.1,-3.6c0,-1.6,0.4,-2.9,1.2,-3.8c0.8,-1,1.9,-1.5,3.3,-1.5c1.2,0,2.3,0.4,3.1,1.3Zm3.5,-3.7l1.7,0l0,2.7l1.5,0l0,1.3l-1.5,0l0,6.3c0,0.3,0.1,0.5,0.3,0.7c0.1,0,0.3,0.1,0.6,0.1c0.1,0,0.2,-0.1,0.3,-0.1c0.1,0,0.2,0,0.3,0l0,1.3c-0.2,0,-0.4,0.1,-0.6,0.1c-0.2,0,-0.4,0,-0.6,0c-0.8,0,-1.3,-0.1,-1.6,-0.5c-0.2,-0.4,-0.4,-0.9,-0.4,-1.5l0,-6.4l-1.3,0l0,-1.3l1.3,0l0,-2.7Z" class="g4_1" />
<path d="M16.8,285.7l137.5,0l0,76.4l-137.5,0l0,-76.4Z" class="g1_1" />
<path d="M16.8,285.7l137.5,0l0,76.4l-137.5,0l0,-76.4Z" class="g3_1" />
<path d="M44.2,316.8l1.8,0l0,5.5l6.9,0l0,-5.5l1.8,0l0,13.2l-1.8,0l0,-6.1l-6.9,0l0,6.1l-1.8,0l0,-13.2Zm19,3.9c0.6,0.3,1.1,0.7,1.4,1.2c0.3,0.5,0.6,1.1,0.7,1.7c0.1,0.5,0.1,1.2,0.1,2.1l-7,0c0,1,0.2,1.8,0.7,2.4c0.4,0.5,1.1,0.8,2,0.8c0.8,0,1.5,-0.2,2,-0.8c0.3,-0.3,0.5,-0.7,0.6,-1.1l1.6,0c-0.1,0.3,-0.2,0.7,-0.4,1.2c-0.3,0.4,-0.5,0.8,-0.8,1c-0.5,0.5,-1.1,0.8,-1.9,1c-0.3,0.1,-0.8,0.1,-1.3,0.1c-1.2,0,-2.2,-0.4,-3,-1.3c-0.8,-0.8,-1.3,-2,-1.3,-3.6c0,-1.5,0.5,-2.8,1.3,-3.8c0.8,-0.9,1.9,-1.4,3.3,-1.4c0.7,0,1.3,0.2,2,0.5Zm0.5,3.7c0,-0.7,-0.2,-1.2,-0.4,-1.6c-0.5,-0.8,-1.2,-1.2,-2.2,-1.2c-0.8,0,-1.4,0.3,-1.9,0.8c-0.5,0.5,-0.8,1.2,-0.8,2l5.3,0Zm5.4,4.1c0.4,0.3,0.8,0.5,1.2,0.5c0.6,0,1.1,-0.2,1.7,-0.4c0.9,-0.5,1.3,-1.2,1.3,-2.2l0,-1.3c-0.2,0.1,-0.4,0.3,-0.7,0.3c-0.3,0.1,-0.7,0.2,-1,0.2l-0.9,0.1c-0.6,0.1,-1.1,0.2,-1.3,0.4c-0.5,0.3,-0.8,0.7,-0.8,1.3c0,0.5,0.2,0.9,0.5,1.1Zm3.4,-4.3c0.4,-0.1,0.6,-0.2,0.8,-0.5c0,-0.1,0.1,-0.3,0.1,-0.6c0,-0.5,-0.2,-0.9,-0.6,-1.2c-0.4,-0.2,-1,-0.4,-1.7,-0.4c-0.8,0,-1.4,0.3,-1.8,0.7c-0.2,0.3,-0.3,0.6,-0.4,1.1l-1.5,0c0.1,-1.1,0.4,-2,1.2,-2.4c0.7,-0.5,1.6,-0.7,2.5,-0.7c1.2,0,2.1,0.2,2.8,0.6c0.7,0.5,1,1.1,1,2l0,5.6c0,0.1,0.1,0.3,0.1,0.4c0.1,0.1,0.2,0.1,0.5,0.1c0,0,0.1,0,0.2,0c0.1,0,0.2,0,0.3,0l0,1.1c-0.3,0.1,-0.4,0.2,-0.6,0.2c-0.1,0,-0.3,0,-0.5,0c-0.6,0,-1,-0.2,-1.2,-0.6c-0.2,-0.2,-0.2,-0.5,-0.3,-0.9c-0.3,0.5,-0.8,0.8,-1.4,1.1c-0.6,0.4,-1.3,0.5,-2,0.5c-0.9,0,-1.7,-0.2,-2.2,-0.8c-0.6,-0.5,-0.9,-1.2,-0.9,-2c0,-0.9,0.3,-1.6,0.9,-2.1c0.5,-0.5,1.2,-0.8,2.1,-0.9l2.6,-0.3Zm11,3.8c0.5,-0.7,0.7,-1.6,0.7,-2.9c0,-0.7,-0.1,-1.4,-0.3,-1.9c-0.4,-1.1,-1.2,-1.6,-2.3,-1.6c-1.1,0,-1.9,0.6,-2.3,1.7c-0.2,0.6,-0.3,1.3,-0.3,2.2c0,0.8,0.1,1.4,0.3,1.9c0.4,1,1.2,1.5,2.3,1.5c0.8,0,1.4,-0.3,1.9,-0.9Zm-6.1,-7.5l1.6,0l0,1.2c0.3,-0.4,0.7,-0.7,1.1,-1c0.5,-0.3,1.1,-0.5,1.9,-0.5c1.1,0,2,0.4,2.7,1.2c0.8,0.9,1.2,2.1,1.2,3.6c0,2.1,-0.6,3.6,-1.7,4.5c-0.6,0.5,-1.4,0.8,-2.4,0.8c-0.7,0,-1.3,-0.1,-1.8,-0.5c-0.3,-0.1,-0.6,-0.4,-0.9,-0.9l0,4.9l-1.7,0l0,-13.3Zm15.4,-0.1l1.6,0l0,1.4c0.4,-0.5,0.8,-0.8,1.1,-1.1c0.5,-0.3,1.1,-0.5,1.8,-0.5c0.8,0,1.4,0.2,1.8,0.6c0.3,0.2,0.5,0.5,0.7,0.9c0.4,-0.5,0.8,-0.9,1.3,-1.1c0.5,-0.3,1,-0.4,1.6,-0.4c1.3,0,2.2,0.5,2.7,1.4c0.2,0.5,0.3,1.2,0.3,2l0,6.4l-1.6,0l0,-6.7c0,-0.6,-0.2,-1,-0.5,-1.3c-0.3,-0.2,-0.7,-0.3,-1.2,-0.3c-0.6,0,-1.2,0.2,-1.6,0.6c-0.5,0.4,-0.7,1.1,-0.7,2.1l0,5.6l-1.6,0l0,-6.3c0,-0.6,-0.1,-1.1,-0.3,-1.4c-0.2,-0.4,-0.7,-0.7,-1.3,-0.7c-0.6,0,-1.2,0.3,-1.7,0.8c-0.5,0.4,-0.7,1.3,-0.7,2.5l0,5.1l-1.7,0l0,-9.6Zm17,8.1c0.4,0.3,0.8,0.5,1.3,0.5c0.5,0,1.1,-0.2,1.6,-0.4c0.9,-0.5,1.3,-1.2,1.3,-2.2l0,-1.3c-0.2,0.1,-0.4,0.3,-0.7,0.3c-0.3,0.1,-0.6,0.2,-0.9,0.2l-1,0.1c-0.6,0.1,-1,0.2,-1.3,0.4c-0.5,0.3,-0.8,0.7,-0.8,1.3c0,0.5,0.2,0.9,0.5,1.1Zm3.4,-4.3c0.4,-0.1,0.7,-0.2,0.8,-0.5c0.1,-0.1,0.1,-0.3,0.1,-0.6c0,-0.5,-0.2,-0.9,-0.6,-1.2c-0.4,-0.2,-0.9,-0.4,-1.7,-0.4c-0.8,0,-1.4,0.3,-1.8,0.7c-0.2,0.3,-0.3,0.6,-0.3,1.1l-1.6,0c0.1,-1.1,0.5,-2,1.2,-2.4c0.7,-0.5,1.6,-0.7,2.6,-0.7c1.1,0,2,0.2,2.7,0.6c0.7,0.5,1.1,1.1,1.1,2l0,5.6c0,0.1,0,0.3,0.1,0.4c0,0.1,0.2,0.1,0.4,0.1c0.1,0,0.1,0,0.2,0c0.1,0,0.2,0,0.3,0l0,1.1c-0.2,0.1,-0.4,0.2,-0.6,0.2c-0.1,0,-0.3,0,-0.5,0c-0.5,0,-0.9,-0.2,-1.2,-0.6c-0.1,-0.2,-0.2,-0.5,-0.3,-0.9c-0.3,0.5,-0.8,0.8,-1.4,1.1c-0.6,0.4,-1.3,0.5,-2,0.5c-0.9,0,-1.6,-0.2,-2.2,-0.8c-0.6,-0.5,-0.8,-1.2,-0.8,-2c0,-0.9,0.2,-1.6,0.8,-2.1c0.5,-0.5,1.3,-0.8,2.2,-0.9l2.5,-0.3Zm11,3.8c0.5,-0.7,0.8,-1.6,0.8,-2.9c0,-0.7,-0.1,-1.4,-0.4,-1.9c-0.4,-1.1,-1.1,-1.6,-2.3,-1.6c-1.1,0,-1.8,0.6,-2.3,1.7c-0.2,0.6,-0.3,1.3,-0.3,2.2c0,0.8,0.1,1.4,0.3,1.9c0.5,1,1.2,1.5,2.3,1.5c0.8,0,1.4,-0.3,1.9,-0.9Zm-6,-7.5l1.5,0l0,1.2c0.4,-0.4,0.7,-0.7,1.1,-1c0.5,-0.3,1.2,-0.5,1.9,-0.5c1.1,0,2,0.4,2.8,1.2c0.7,0.9,1.1,2.1,1.1,3.6c0,2.1,-0.5,3.6,-1.6,4.5c-0.7,0.5,-1.5,0.8,-2.4,0.8c-0.8,0,-1.4,-0.1,-1.9,-0.5c-0.2,-0.1,-0.6,-0.4,-0.9,-0.9l0,4.9l-1.6,0l0,-13.3Z" class="g4_1" />
<path d="M207.8,285.7l137.5,0l0,76.4l-137.5,0l0,-76.4Z" class="g1_1" />
<path d="M207.8,285.7l137.5,0l0,76.4l-137.5,0l0,-76.4Z" class="g3_1" />
<path d="M236.7,312.2c0.8,0,1.5,-0.2,2,-0.5c0.4,-0.4,0.7,-1,0.7,-1.8c0,-1,-0.4,-1.6,-1,-1.9c-0.4,-0.2,-0.9,-0.3,-1.5,-0.3l-4.3,0l0,4.5l4.1,0Zm-5.9,-6l6.1,0c1,0,1.8,0.1,2.4,0.4c1.3,0.6,1.9,1.6,1.9,3.1c0,0.8,-0.2,1.4,-0.5,1.9c-0.3,0.5,-0.8,0.9,-1.4,1.2c0.6,0.3,0.9,0.5,1.2,0.9c0.3,0.3,0.4,0.9,0.4,1.6l0.1,1.8c0,0.5,0.1,0.9,0.1,1.1c0.1,0.4,0.3,0.7,0.6,0.8l0,0.3l-2.2,0c0,-0.1,-0.1,-0.3,-0.1,-0.4c-0.1,-0.2,-0.1,-0.6,-0.1,-1.1l-0.1,-2.2c-0.1,-0.8,-0.4,-1.4,-1,-1.7c-0.3,-0.2,-0.9,-0.2,-1.6,-0.2l-4,0l0,5.6l-1.8,0l0,-13.1Zm18.7,3.8c0.7,0.3,1.2,0.7,1.5,1.2c0.3,0.5,0.5,1.1,0.6,1.7c0.1,0.5,0.2,1.2,0.2,2.1l-7,0c0,1,0.2,1.8,0.7,2.4c0.4,0.6,1,0.8,1.9,0.8c0.9,0,1.6,-0.2,2.1,-0.8c0.2,-0.3,0.5,-0.7,0.6,-1.1l1.6,0c-0.1,0.3,-0.2,0.7,-0.5,1.2c-0.2,0.4,-0.5,0.8,-0.8,1c-0.4,0.5,-1,0.8,-1.8,1c-0.4,0.1,-0.8,0.1,-1.3,0.1c-1.2,0,-2.2,-0.4,-3,-1.3c-0.8,-0.8,-1.3,-2,-1.3,-3.6c0,-1.5,0.5,-2.8,1.3,-3.8c0.8,-0.9,1.9,-1.4,3.3,-1.4c0.6,0,1.3,0.2,1.9,0.5Zm0.6,3.7c0,-0.7,-0.2,-1.2,-0.4,-1.6c-0.5,-0.8,-1.2,-1.2,-2.2,-1.2c-0.8,0,-1.4,0.3,-1.9,0.8c-0.5,0.5,-0.8,1.2,-0.8,2l5.3,0Zm9,-3.6c0.3,0.2,0.6,0.5,1,0.9l0,-1.2l1.4,0l0,8.7c0,1.2,-0.1,2.2,-0.5,2.9c-0.7,1.3,-1.9,2,-3.8,2c-1,0,-1.9,-0.3,-2.6,-0.7c-0.7,-0.5,-1.1,-1.2,-1.2,-2.2l1.7,0c0,0.4,0.2,0.8,0.4,1c0.4,0.3,1,0.5,1.7,0.5c1.3,0,2.1,-0.4,2.5,-1.3c0.2,-0.5,0.3,-1.4,0.3,-2.7c-0.3,0.5,-0.7,0.8,-1.2,1.1c-0.4,0.2,-1,0.3,-1.8,0.3c-1,0,-1.9,-0.3,-2.7,-1.1c-0.8,-0.7,-1.2,-1.9,-1.2,-3.6c0,-1.6,0.4,-2.9,1.2,-3.8c0.8,-0.9,1.7,-1.4,2.9,-1.4c0.7,0,1.4,0.2,1.9,0.6Zm0.2,1.7c-0.5,-0.5,-1.1,-0.8,-1.9,-0.8c-1.1,0,-1.9,0.5,-2.3,1.6c-0.2,0.5,-0.3,1.3,-0.3,2.2c0,1.1,0.2,1.9,0.6,2.5c0.5,0.5,1.1,0.8,1.8,0.8c1.2,0,2,-0.5,2.5,-1.6c0.2,-0.6,0.4,-1.2,0.4,-2c0,-1.2,-0.3,-2.1,-0.8,-2.7Zm4.7,-2.1l1.5,0l0,1.7c0.2,-0.3,0.5,-0.7,1,-1.2c0.4,-0.5,1,-0.7,1.6,-0.7c0.1,0,0.1,0,0.2,0c0.1,0,0.2,0,0.4,0l0,1.7c-0.1,0,-0.2,0,-0.3,0c-0.1,0,-0.2,0,-0.3,0c-0.8,0,-1.4,0.3,-1.8,0.8c-0.5,0.5,-0.7,1.1,-0.7,1.8l0,5.5l-1.6,0l0,-9.6Zm12,0.3c0.7,0.3,1.1,0.7,1.5,1.2c0.3,0.5,0.5,1.1,0.6,1.7c0.1,0.5,0.2,1.2,0.2,2.1l-7.1,0c0.1,1,0.3,1.8,0.7,2.4c0.5,0.6,1.1,0.8,2,0.8c0.9,0,1.5,-0.2,2,-0.8c0.3,-0.3,0.5,-0.7,0.6,-1.1l1.6,0c0,0.3,-0.2,0.7,-0.4,1.2c-0.2,0.4,-0.5,0.8,-0.8,1c-0.5,0.5,-1.1,0.8,-1.8,1c-0.4,0.1,-0.8,0.1,-1.3,0.1c-1.2,0,-2.2,-0.4,-3,-1.3c-0.9,-0.8,-1.3,-2,-1.3,-3.6c0,-1.5,0.4,-2.8,1.3,-3.8c0.8,-0.9,1.9,-1.4,3.2,-1.4c0.7,0,1.4,0.2,2,0.5Zm0.6,3.7c-0.1,-0.7,-0.2,-1.2,-0.4,-1.6c-0.5,-0.8,-1.2,-1.2,-2.3,-1.2c-0.7,0,-1.3,0.3,-1.8,0.8c-0.5,0.5,-0.8,1.2,-0.8,2l5.3,0Zm4.6,2.6c0,0.5,0.2,0.9,0.4,1.2c0.4,0.6,1.1,0.8,2.1,0.8c0.6,0,1.1,-0.1,1.6,-0.4c0.4,-0.2,0.7,-0.6,0.7,-1.2c0,-0.4,-0.2,-0.7,-0.6,-0.9c-0.2,-0.2,-0.7,-0.3,-1.4,-0.5L282.8,315c-0.9,-0.2,-1.5,-0.4,-1.8,-0.7c-0.7,-0.4,-1.1,-1,-1.1,-1.8c0,-0.9,0.3,-1.6,1,-2.2c0.7,-0.6,1.5,-0.8,2.6,-0.8c1.5,0,2.5,0.4,3.2,1.2c0.4,0.6,0.6,1.2,0.5,1.8l-1.5,0c0,-0.4,-0.1,-0.7,-0.4,-1c-0.3,-0.4,-1,-0.7,-1.9,-0.7c-0.6,0,-1.1,0.2,-1.4,0.4c-0.3,0.2,-0.4,0.5,-0.4,0.9c0,0.4,0.2,0.8,0.6,1c0.2,0.2,0.6,0.3,1,0.4l1.1,0.3c1.2,0.3,1.9,0.5,2.3,0.8c0.6,0.4,1,1,1,1.9c0,0.9,-0.4,1.6,-1,2.2c-0.7,0.7,-1.6,1,-3,1c-1.4,0,-2.4,-0.4,-3,-1c-0.6,-0.6,-0.9,-1.4,-1,-2.4l1.6,0Zm9.2,0c0,0.5,0.1,0.9,0.4,1.2c0.4,0.6,1.1,0.8,2.1,0.8c0.6,0,1.1,-0.1,1.6,-0.4c0.4,-0.2,0.6,-0.6,0.6,-1.2c0,-0.4,-0.1,-0.7,-0.5,-0.9c-0.2,-0.2,-0.7,-0.3,-1.4,-0.5L291.9,315c-0.8,-0.2,-1.4,-0.4,-1.8,-0.7c-0.7,-0.4,-1,-1,-1,-1.8c0,-0.9,0.3,-1.6,1,-2.2c0.6,-0.6,1.5,-0.8,2.6,-0.8c1.4,0,2.5,0.4,3.1,1.2c0.4,0.6,0.6,1.2,0.6,1.8l-1.5,0c0,-0.4,-0.2,-0.7,-0.4,-1c-0.4,-0.4,-1,-0.7,-1.9,-0.7c-0.6,0,-1.1,0.2,-1.4,0.4c-0.3,0.2,-0.5,0.5,-0.5,0.9c0,0.4,0.2,0.8,0.6,1c0.3,0.2,0.6,0.3,1.1,0.4l1.1,0.3c1.1,0.3,1.9,0.5,2.3,0.8c0.6,0.4,0.9,1,0.9,1.9c0,0.9,-0.3,1.6,-0.9,2.2c-0.7,0.7,-1.7,1,-3,1c-1.4,0,-2.4,-0.4,-3,-1c-0.6,-0.6,-0.9,-1.4,-1,-2.4l1.6,0Zm8.2,-6.5l1.6,0l0,9.5l-1.6,0l0,-9.5Zm0,-3.6l1.6,0l0,1.8l-1.6,0l0,-1.8Zm10,10.9c0.4,-0.9,0.6,-1.8,0.6,-2.7c0,-0.9,-0.1,-1.7,-0.4,-2.2c-0.5,-0.9,-1.2,-1.4,-2.3,-1.4c-1,0,-1.7,0.4,-2.2,1.2c-0.4,0.7,-0.7,1.6,-0.7,2.7c0,1,0.3,1.9,0.7,2.5c0.5,0.7,1.2,1.1,2.1,1.1c1.1,0,1.8,-0.4,2.2,-1.2Zm1,-6.4c0.9,0.8,1.3,2,1.3,3.6c0,1.6,-0.4,2.8,-1.1,3.8c-0.8,1.1,-1.9,1.6,-3.5,1.6c-1.3,0,-2.4,-0.5,-3.2,-1.4c-0.7,-0.9,-1.1,-2.1,-1.1,-3.6c0,-1.6,0.4,-2.9,1.2,-3.8c0.8,-1,1.9,-1.5,3.3,-1.5c1.2,0,2.3,0.5,3.1,1.3Zm3.2,-1l1.6,0l0,1.4c0.4,-0.6,0.9,-1,1.4,-1.2c0.5,-0.3,1.1,-0.4,1.7,-0.4c1.3,0,2.3,0.5,2.7,1.4c0.3,0.5,0.4,1.3,0.4,2.3l0,6.1l-1.6,0l0,-6c0,-0.6,-0.1,-1.1,-0.3,-1.5c-0.2,-0.5,-0.8,-0.8,-1.5,-0.8c-0.4,0,-0.7,0,-1,0.1c-0.4,0.1,-0.8,0.4,-1.1,0.8c-0.3,0.3,-0.5,0.6,-0.5,0.9c-0.1,0.4,-0.2,0.9,-0.2,1.5l0,5l-1.6,0l0,-9.6Z" class="g4_1" />
<path d="M244.8,339.2c0.4,0.3,0.8,0.4,1.2,0.4c0.6,0,1.1,-0.1,1.7,-0.3c0.9,-0.5,1.3,-1.2,1.3,-2.2l0,-1.3c-0.2,0.1,-0.4,0.2,-0.7,0.3c-0.4,0.1,-0.7,0.2,-1,0.2l-0.9,0.1c-0.6,0.1,-1.1,0.2,-1.3,0.4c-0.5,0.3,-0.8,0.7,-0.8,1.3c0,0.5,0.2,0.9,0.5,1.1Zm3.4,-4.3c0.4,-0.1,0.6,-0.2,0.8,-0.5c0,-0.1,0.1,-0.3,0.1,-0.6c0,-0.5,-0.2,-0.9,-0.6,-1.2c-0.4,-0.2,-1,-0.4,-1.7,-0.4c-0.8,0,-1.4,0.3,-1.8,0.7c-0.2,0.3,-0.3,0.6,-0.4,1.1l-1.5,0c0,-1.1,0.4,-2,1.2,-2.4c0.7,-0.5,1.6,-0.7,2.5,-0.7c1.2,0,2.1,0.2,2.8,0.6c0.7,0.4,1,1.1,1,2l0,5.5c0,0.2,0.1,0.3,0.1,0.5c0.1,0.1,0.2,0.1,0.5,0.1c0,0,0.1,0,0.2,0c0.1,0,0.2,0,0.3,-0.1l0,1.2c-0.3,0.1,-0.4,0.2,-0.6,0.2c-0.1,0,-0.3,0,-0.5,0c-0.6,0,-1,-0.2,-1.2,-0.6c-0.2,-0.2,-0.2,-0.5,-0.3,-0.9c-0.3,0.5,-0.8,0.8,-1.4,1.1c-0.6,0.4,-1.3,0.5,-2.1,0.5c-0.8,0,-1.6,-0.3,-2.1,-0.8c-0.6,-0.5,-0.9,-1.2,-0.9,-2c0,-0.9,0.3,-1.6,0.9,-2.1c0.5,-0.5,1.2,-0.8,2.1,-0.9l2.6,-0.3Zm5.1,-3.8l1.5,0l0,1.4c0.4,-0.6,0.9,-1,1.4,-1.2c0.5,-0.3,1.1,-0.4,1.7,-0.4c1.4,0,2.3,0.5,2.8,1.4c0.2,0.5,0.4,1.3,0.4,2.2l0,6.2l-1.7,0l0,-6c0,-0.6,0,-1.1,-0.2,-1.5c-0.3,-0.6,-0.8,-0.9,-1.6,-0.9c-0.4,0,-0.7,0.1,-0.9,0.2c-0.5,0.1,-0.8,0.4,-1.2,0.7c-0.2,0.4,-0.4,0.7,-0.5,1c-0.1,0.4,-0.1,0.8,-0.1,1.5l0,5l-1.6,0l0,-9.6Zm11.9,8.1c0.3,0.3,0.7,0.4,1.2,0.4c0.6,0,1.1,-0.1,1.7,-0.3c0.9,-0.5,1.3,-1.2,1.3,-2.2l0,-1.3c-0.2,0.1,-0.4,0.2,-0.8,0.3c-0.3,0.1,-0.6,0.2,-0.9,0.2l-0.9,0.1c-0.6,0.1,-1.1,0.2,-1.4,0.4c-0.5,0.3,-0.7,0.7,-0.7,1.3c0,0.5,0.2,0.9,0.5,1.1Zm3.4,-4.3c0.4,-0.1,0.6,-0.2,0.7,-0.5c0.1,-0.1,0.1,-0.3,0.1,-0.6c0,-0.5,-0.1,-0.9,-0.5,-1.2c-0.4,-0.2,-1,-0.4,-1.7,-0.4c-0.9,0,-1.5,0.3,-1.8,0.7c-0.2,0.3,-0.3,0.6,-0.4,1.1l-1.5,0c0,-1.1,0.4,-2,1.2,-2.4c0.7,-0.5,1.5,-0.7,2.5,-0.7c1.1,0,2.1,0.2,2.8,0.6c0.7,0.4,1,1.1,1,2l0,5.5c0,0.2,0,0.3,0.1,0.5c0.1,0.1,0.2,0.1,0.5,0.1c0,0,0.1,0,0.2,0c0.1,0,0.2,0,0.3,-0.1l0,1.2c-0.3,0.1,-0.5,0.2,-0.6,0.2c-0.1,0,-0.3,0,-0.5,0c-0.6,0,-1,-0.2,-1.2,-0.6c-0.2,-0.2,-0.3,-0.5,-0.3,-0.9c-0.3,0.5,-0.8,0.8,-1.4,1.1c-0.6,0.4,-1.3,0.5,-2.1,0.5c-0.9,0,-1.6,-0.3,-2.1,-0.8c-0.6,-0.5,-0.9,-1.2,-0.9,-2c0,-0.9,0.3,-1.6,0.8,-2.1c0.6,-0.5,1.3,-0.8,2.2,-0.9l2.6,-0.3Zm5.1,-7.4l1.6,0l0,13.2l-1.6,0l0,-13.2Zm10,3.6l1.8,0c-0.2,0.6,-0.8,2,-1.5,4.2c-0.6,1.7,-1.1,3,-1.5,4c-0.9,2.5,-1.6,4,-2,4.5c-0.4,0.6,-1,0.8,-1.9,0.8c-0.3,0,-0.4,0,-0.6,0c-0.1,0,-0.2,-0.1,-0.4,-0.1l0,-1.5c0.3,0.1,0.5,0.2,0.6,0.2c0.1,0,0.2,0,0.3,0c0.3,0,0.5,0,0.7,-0.1c0.1,-0.1,0.2,-0.3,0.3,-0.4c0.1,-0.1,0.2,-0.3,0.4,-0.7c0.1,-0.5,0.3,-0.8,0.4,-1l-3.6,-9.9l1.8,0l2.6,7.8l2.6,-7.8Zm4.1,6.6c0.1,0.5,0.2,0.9,0.4,1.2c0.4,0.5,1.1,0.8,2.1,0.8c0.6,0,1.2,-0.1,1.6,-0.4c0.5,-0.2,0.7,-0.6,0.7,-1.2c0,-0.4,-0.2,-0.7,-0.5,-0.9c-0.3,-0.2,-0.7,-0.3,-1.4,-0.5l-1.3,-0.3c-0.8,-0.2,-1.4,-0.4,-1.8,-0.7c-0.7,-0.4,-1,-1,-1,-1.8c0,-0.9,0.3,-1.6,0.9,-2.2c0.7,-0.6,1.6,-0.8,2.7,-0.8c1.4,0,2.5,0.4,3.1,1.2c0.4,0.6,0.6,1.1,0.6,1.8l-1.5,0c-0.1,-0.4,-0.2,-0.7,-0.4,-1c-0.4,-0.5,-1,-0.7,-2,-0.7c-0.6,0,-1,0.2,-1.3,0.4c-0.4,0.2,-0.5,0.5,-0.5,0.9c0,0.4,0.2,0.8,0.6,1c0.2,0.2,0.6,0.3,1.1,0.4l1,0.3c1.2,0.2,2,0.5,2.4,0.8c0.6,0.4,0.9,1,0.9,1.9c0,0.9,-0.3,1.6,-1,2.2c-0.6,0.7,-1.6,1,-2.9,1c-1.5,0,-2.5,-0.4,-3.1,-1c-0.6,-0.7,-0.9,-1.5,-0.9,-2.4l1.5,0Zm8.2,-6.5l1.7,0l0,9.5l-1.7,0l0,-9.5Zm0,-3.7l1.7,0l0,1.9l-1.7,0l0,-1.9Zm5.1,10.2c0,0.5,0.1,0.9,0.4,1.2c0.4,0.5,1.1,0.8,2.1,0.8c0.6,0,1.1,-0.1,1.5,-0.4c0.5,-0.2,0.7,-0.6,0.7,-1.2c0,-0.4,-0.2,-0.7,-0.5,-0.9c-0.2,-0.2,-0.7,-0.3,-1.4,-0.5l-1.3,-0.3c-0.8,-0.2,-1.4,-0.4,-1.8,-0.7c-0.7,-0.4,-1,-1,-1,-1.8c0,-0.9,0.3,-1.6,1,-2.2c0.6,-0.6,1.5,-0.8,2.6,-0.8c1.4,0,2.5,0.4,3.1,1.2c0.4,0.6,0.6,1.1,0.6,1.8l-1.5,0c-0.1,-0.4,-0.2,-0.7,-0.4,-1c-0.4,-0.5,-1,-0.7,-1.9,-0.7c-0.6,0,-1.1,0.2,-1.4,0.4c-0.3,0.2,-0.5,0.5,-0.5,0.9c0,0.4,0.2,0.8,0.6,1c0.3,0.2,0.6,0.3,1.1,0.4l1.1,0.3c1.1,0.2,1.9,0.5,2.3,0.8c0.6,0.4,0.9,1,0.9,1.9c0,0.9,-0.3,1.6,-0.9,2.2c-0.7,0.7,-1.7,1,-3,1c-1.4,0,-2.4,-0.4,-3,-1c-0.6,-0.7,-0.9,-1.5,-1,-2.4l1.6,0Z" class="g4_1" />
<path d="M345.3,55l53.5,0" class="g7_1" />
<path d="M345.3,323.9l53.5,0" class="g7_1" />
<path d="M216.9,226.1L97,280.5" class="g8_1" />
<path d="M88.7,284.3l8.6,-10.6L97,280.5l5.3,4.3L88.7,284.3Z" class="g4_1" />
<path d="M88.7,284.3l8.6,-10.6L97,280.5l5.3,4.3L88.7,284.3Z" class="g3_1" />
<path d="M276.5,239.9l0,33.2" class="g8_1" />
<path d="M276.5,282.3L270.4,270l6.1,3.1l6.1,-3.1l-6.1,12.3Z" class="g4_1" />
<path d="M276.5,282.3L270.4,270l6.1,3.1l6.1,-3.1l-6.1,12.3Z" class="g3_1" />
<path d="M336.1,226.1L456,280.5" class="g8_1" />
<path d="M464.4,284.3l-13.7,0.5l5.3,-4.3l-0.2,-6.8l8.6,10.6Z" class="g4_1" />
<path d="M464.4,284.3l-13.7,0.5l5.3,-4.3l-0.2,-6.8l8.6,10.6Z" class="g3_1" />
<path d="M444.6,239.9l106.9,0l0,30.5l-106.9,0l0,-30.5Z" class="g1_1" />
<path d="M444.6,239.9l106.9,0l0,30.5l-106.9,0l0,-30.5Z" class="g3_1" />
<path d="M456.2,248.1l3.8,11.2l3.7,-11.2l2,0l-4.8,13.2l-1.9,0l-4.8,-13.2l2,0Zm11,3.6l1.6,0l0,9.6l-1.6,0l0,-9.6Zm0,-3.6l1.6,0l0,1.8l-1.6,0l0,-1.8Zm5,10.1c0,0.6,0.2,1,0.4,1.3c0.4,0.5,1.1,0.8,2.1,0.8c0.6,0,1.1,-0.2,1.6,-0.4c0.4,-0.3,0.6,-0.7,0.6,-1.2c0,-0.4,-0.1,-0.8,-0.5,-1c-0.2,-0.1,-0.7,-0.3,-1.4,-0.4l-1.3,-0.4c-0.8,-0.2,-1.4,-0.4,-1.8,-0.6c-0.7,-0.5,-1,-1.1,-1,-1.8c0,-1,0.3,-1.7,1,-2.2c0.6,-0.6,1.5,-0.9,2.6,-0.9c1.5,0,2.5,0.4,3.1,1.3c0.4,0.5,0.6,1.1,0.6,1.7l-1.5,0c0,-0.3,-0.2,-0.7,-0.4,-1c-0.4,-0.4,-1,-0.6,-1.9,-0.6c-0.6,0,-1.1,0.1,-1.4,0.3c-0.3,0.3,-0.5,0.6,-0.5,1c0,0.4,0.2,0.7,0.6,1c0.3,0.1,0.6,0.2,1.1,0.4l1.1,0.2c1.1,0.3,1.9,0.6,2.3,0.8c0.6,0.4,0.9,1.1,0.9,2c0,0.8,-0.3,1.6,-0.9,2.2c-0.7,0.6,-1.7,0.9,-3,0.9c-1.4,0,-2.4,-0.3,-3,-1c-0.6,-0.6,-0.9,-1.4,-1,-2.4l1.6,0Zm9.8,-6.5l0,6.3c0,0.5,0.1,0.9,0.2,1.2c0.3,0.6,0.8,0.9,1.6,0.9c1.1,0,1.9,-0.5,2.3,-1.5c0.2,-0.6,0.3,-1.3,0.3,-2.2l0,-4.7l1.7,0l0,9.6l-1.6,0l0.1,-1.5c-0.3,0.4,-0.5,0.7,-0.8,1c-0.6,0.5,-1.4,0.7,-2.3,0.7c-1.3,0,-2.3,-0.4,-2.8,-1.4c-0.2,-0.4,-0.4,-1.1,-0.4,-1.9l0,-6.5l1.7,0Zm10.3,8.1c0.4,0.3,0.8,0.4,1.2,0.4c0.6,0,1.1,-0.1,1.7,-0.4c0.9,-0.4,1.3,-1.1,1.3,-2.1l0,-1.3c-0.2,0.1,-0.4,0.2,-0.7,0.3c-0.4,0.1,-0.7,0.1,-1,0.2l-0.9,0.1c-0.6,0.1,-1.1,0.2,-1.3,0.4c-0.5,0.2,-0.8,0.7,-0.8,1.3c0,0.5,0.2,0.8,0.5,1.1Zm3.4,-4.4c0.4,0,0.6,-0.2,0.8,-0.4c0,-0.2,0.1,-0.4,0.1,-0.6c0,-0.6,-0.2,-1,-0.6,-1.2c-0.4,-0.3,-1,-0.4,-1.7,-0.4c-0.8,0,-1.4,0.2,-1.8,0.7c-0.2,0.2,-0.3,0.6,-0.4,1.1l-1.5,0c0,-1.2,0.4,-2,1.2,-2.5c0.7,-0.4,1.6,-0.7,2.5,-0.7c1.2,0,2.1,0.2,2.8,0.7c0.7,0.4,1,1.1,1,2l0,5.5c0,0.2,0.1,0.3,0.1,0.4c0.1,0.1,0.2,0.2,0.5,0.2c0,0,0.1,0,0.2,-0.1c0.1,0,0.2,0,0.3,0l0,1.2c-0.3,0.1,-0.4,0.1,-0.6,0.1c-0.1,0,-0.3,0.1,-0.5,0.1c-0.6,0,-1,-0.2,-1.2,-0.6c-0.2,-0.2,-0.2,-0.5,-0.3,-0.9c-0.3,0.4,-0.8,0.8,-1.4,1.1c-0.6,0.3,-1.3,0.5,-2.1,0.5c-0.8,0,-1.6,-0.3,-2.1,-0.8c-0.6,-0.6,-0.9,-1.3,-0.9,-2.1c0,-0.9,0.3,-1.5,0.9,-2c0.5,-0.5,1.2,-0.8,2.1,-0.9l2.6,-0.4Zm5.1,-7.3l1.6,0l0,13.2l-1.6,0l0,-13.2Zm4,3.6l1.7,0l0,9.6l-1.7,0l0,-9.6Zm0,-3.6l1.7,0l0,1.8l-1.7,0l0,-1.8Zm3.4,11.9l5.6,-6.9l-5.2,0l0,-1.4l7.4,0l0,1.3l-5.6,6.8l5.8,0l0,1.5l-8,0l0,-1.3ZM524,251.9c0.7,0.3,1.1,0.8,1.5,1.3c0.3,0.4,0.5,1,0.6,1.7c0.1,0.4,0.2,1.1,0.2,2.1l-7.1,0c0.1,0.9,0.3,1.7,0.7,2.3c0.5,0.6,1.1,0.9,2,0.9c0.9,0,1.5,-0.3,2,-0.8c0.3,-0.4,0.5,-0.7,0.6,-1.2l1.6,0c0,0.4,-0.1,0.8,-0.4,1.2c-0.2,0.5,-0.5,0.8,-0.8,1.1c-0.5,0.5,-1.1,0.8,-1.8,0.9c-0.4,0.1,-0.8,0.2,-1.3,0.2c-1.2,0,-2.2,-0.4,-3,-1.3c-0.9,-0.9,-1.3,-2.1,-1.3,-3.7c0,-1.5,0.4,-2.8,1.3,-3.7c0.8,-1,1.9,-1.5,3.2,-1.5c0.7,0,1.4,0.2,2,0.5Zm0.6,3.8c-0.1,-0.7,-0.2,-1.3,-0.4,-1.7c-0.5,-0.8,-1.2,-1.1,-2.3,-1.1c-0.7,0,-1.3,0.2,-1.8,0.8c-0.5,0.5,-0.8,1.2,-0.8,2l5.3,0Zm3.7,-4l1.5,0l0,1.6c0.1,-0.3,0.4,-0.7,0.9,-1.2c0.5,-0.4,1.1,-0.7,1.7,-0.7c0.1,0,0.1,0.1,0.2,0.1c0.1,0,0.2,0,0.3,0l0,1.7c0,0,-0.1,0,-0.2,0c-0.1,0,-0.2,-0.1,-0.3,-0.1c-0.8,0,-1.4,0.3,-1.8,0.8c-0.5,0.6,-0.7,1.2,-0.7,1.8l0,5.6l-1.6,0l0,-9.6Zm7,6.5c0,0.6,0.2,1,0.4,1.3c0.4,0.5,1.1,0.8,2.1,0.8c0.6,0,1.1,-0.2,1.6,-0.4c0.4,-0.3,0.7,-0.7,0.7,-1.2c0,-0.4,-0.2,-0.8,-0.6,-1c-0.2,-0.1,-0.7,-0.3,-1.4,-0.4l-1.2,-0.4c-0.9,-0.2,-1.5,-0.4,-1.9,-0.6c-0.6,-0.5,-1,-1.1,-1,-1.8c0,-1,0.3,-1.7,1,-2.2c0.6,-0.6,1.5,-0.9,2.6,-0.9c1.5,0,2.5,0.4,3.1,1.3c0.4,0.5,0.6,1.1,0.6,1.7l-1.5,0c0,-0.3,-0.2,-0.7,-0.4,-1c-0.3,-0.4,-1,-0.6,-1.9,-0.6c-0.6,0,-1.1,0.1,-1.4,0.3c-0.3,0.3,-0.5,0.6,-0.5,1c0,0.4,0.3,0.7,0.7,1c0.2,0.1,0.6,0.2,1,0.4l1.1,0.2c1.1,0.3,1.9,0.6,2.3,0.8c0.6,0.4,1,1.1,1,2c0,0.8,-0.4,1.6,-1,2.2c-0.7,0.6,-1.7,0.9,-3,0.9c-1.4,0,-2.4,-0.3,-3,-1c-0.6,-0.6,-0.9,-1.4,-1,-2.4l1.6,0Z" class="g4_1" />

</svg>
