<?xml version="1.0" encoding="UTF-8" standalone="no"?>
<!DOCTYPE svg PUBLIC "-//W3C//DTD SVG 1.1//EN"
"http://www.w3.org/Graphics/SVG/1.1/DTD/svg11.dtd">


<!-- Page 1 -->
<svg x="0" y="0" width="939" height="712" viewBox="0 0 939 712" version="1.1" xmlns="http://www.w3.org/2000/svg" xmlns:xlink="http://www.w3.org/1999/xlink"
style="display: block;margin-left: auto;margin-right: auto;">
<defs>
<clipPath id="c0_1"><path d="M0,712.3L0,0L939.6,0l0,712.3Z" /></clipPath>
<clipPath id="c1_1"><path d="M0,712.2L0,0L939.6,0l0,712.2L0,712.2Z" /></clipPath>
<clipPath id="c2_1"><path d="M0,712.3L0,0L939.6,0l0,712.2L0,712.3Z" /></clipPath>

<style type="text/css"><![CDATA[

.g1_1{
fill: none;
stroke: #000000;
stroke-width: 3.0555556;
stroke-linecap: round;
stroke-linejoin: round;
}
.g2_1{
fill-opacity: 0.29804;
}
.g3_1{
fill: none;
stroke: #000000;
stroke-width: 3.0555556;
stroke-linecap: round;
stroke-linejoin: round;
stroke-dasharray: 22,16;
}
.g4_1{
fill: #FFFFFF;
}
.g5_1{
fill: #F1F1F1;
}
.g6_1{
}

.s1_1{
font-size: 27.54px;
font-family: Calibri-Bold_b;
fill: TRANSPARENT;
}
.s2_1{
font-size: 18.37px;
font-family: Calibri-Bold_b;
fill: TRANSPARENT;
}
.s3_1{
font-size: 27.54px;
font-family: Calibri_d;
fill: TRANSPARENT;
}
.s4_1{
font-size: 21.08px;
font-family: Calibri-Bold_b;
fill: TRANSPARENT;
}
.s5_1{
font-size: 21.12px;
font-family: Calibri-Bold_b;
fill: TRANSPARENT;
}
.s6_1{
font-size: 21.12px;
font-family: Calibri_d;
fill: TRANSPARENT;
}
.s7_1{
font-size: 18.33px;
font-family: Calibri-Bold_b;
fill: TRANSPARENT;
}
.s8_1{
font-size: 15.62px;
font-family: Calibri_d;
fill: TRANSPARENT;
}
text::-moz-selection {
	color: transparent;
	background: rgba(0, 106, 173, 0.4);
}
text::selection {
	color: transparent;
	background: rgba(0, 106, 173, 0.4);
}

]]></style>

</defs>
<path d="M0,0
L0,712
L939,712
L939,0 Z " 
fill="#FFFFFF" stroke="none" />
<image x="129" y="83" width="718" height="577" xlink:href="1/shade/1.png" />
<path d="M130.4,658.4l714.5,0l0,-573.8l-714.5,0l0,573.8Z" class="g1_1" />
<path fill-rule="evenodd" d="M558,463.5l255.4,0l0,-361.6l-255.4,0l0,361.6Z" class="g2_1" />
<path d="M558,463.5l255.4,0l0,-361.6l-255.4,0l0,361.6Z" class="g3_1" />
<path fill-rule="evenodd" d="M146.6,636.8l682.1,0l0,-160.3l-682.1,0l0,160.3Z" class="g2_1" />
<path d="M146.6,636.8l682.1,0l0,-160.3l-682.1,0l0,160.3Z" class="g3_1" />
<path fill-rule="evenodd" d="M152,463.5l255.4,0l0,-361.6l-255.4,0l0,361.6Z" class="g2_1" />
<path d="M152,463.5l255.4,0l0,-361.6l-255.4,0l0,361.6Z" class="g3_1" />
<path fill-rule="evenodd" d="M435.8,511.8l87.4,0l0,-35.3l-87.4,0l0,35.3Z" class="g4_1" />
<path d="M435.8,511.8l87.4,0l0,-35.3l-87.4,0l0,35.3Z" class="g1_1" />
<g clip-path="url(#c0_1)">
<g fill="#000000" >
<use xlink:href="#f0_38" transform="matrix(18,0,0,18,449,503.1)" />
<use xlink:href="#f0_1c" transform="matrix(18,0,0,18,465.5,503.1)" />
<use xlink:href="#f0_t" transform="matrix(18,0,0,18,472.9,503.1)" />
<use xlink:href="#f0_39" transform="matrix(18,0,0,18,485.7,503.1)" />
</g>
</g>
<text 
x="448" 
y="503" 
dx="0,0.2,0,-0.6" 
class="s1_1"
>VIEW</text>

<path fill-rule="evenodd" d="M558,463.5l72.2,0l0,-35.4l-72.2,0l0,35.4Z" class="g4_1" />
<path d="M558,463.5l72.2,0l0,-35.4l-72.2,0l0,35.4Z" class="g1_1" />
<g clip-path="url(#c0_1)">
<g fill="#000000" >
<use xlink:href="#f0_p" transform="matrix(18,0,0,18,562.5,454.7)" />
<use xlink:href="#f0_5" transform="matrix(18,0,0,18,579.9,454.7)" />
<use xlink:href="#f0_2t" transform="matrix(18,0,0,18,596.5,454.7)" />
<use xlink:href="#f0_5" transform="matrix(18,0,0,18,610.2,454.7)" />
</g>
</g>
<text 
x="562" 
y="454" 
dx="0,0,-0.1,0.1" 
class="s1_1"
>DATA</text>

<path fill-rule="evenodd" d="M319.8,463.5l87.4,0l0,-35.2l-87.4,0l0,35.2Z" class="g4_1" />
<path d="M319.8,463.5l87.4,0l0,-35.2l-87.4,0l0,35.2Z" class="g1_1" />
<g clip-path="url(#c0_1)">
<g fill="#000000" >
<use xlink:href="#f0_1r" transform="matrix(18,0,0,18,329,454.8)" />
<use xlink:href="#f0_24" transform="matrix(18,0,0,18,340.9,454.8)" />
<use xlink:href="#f0_14" transform="matrix(18,0,0,18,359.2,454.8)" />
<use xlink:href="#f0_1c" transform="matrix(18,0,0,18,376.6,454.8)" />
<use xlink:href="#f0_j" transform="matrix(18,0,0,18,384,454.8)" />
</g>
</g>
<text 
x="329" 
y="454" 
dx="0,0.2,-0.3,-0.1,0" 
class="s1_1"
>LOGIC</text>

<path d="M716.7,84.6l128.2,0l0,-42.7l-128.2,0l0,42.7Z" class="g1_1" />
<g clip-path="url(#c0_1)">
<g fill="#000000" >
<use xlink:href="#f0_2g" transform="matrix(12,0,0,12,755,68.8)" />
<use xlink:href="#f0_t" transform="matrix(12,0,0,12,765.1,68.8)" />
<use xlink:href="#f0_2j" transform="matrix(12,0,0,12,773.4,68.8)" />
<use xlink:href="#f0_2x" transform="matrix(12,0,0,12,784.4,68.8)" />
<use xlink:href="#f0_1y" transform="matrix(12,0,0,12,796.4,68.8)" />
</g>
</g>
<text 
x="754" 
y="68" 
dx="0,0.3,-0.7,0.7,0" 
class="s2_1"
>PERUN</text>

<path fill-rule="evenodd" d="M159.5,615.6l128.2,0l0,-96.2l-128.2,0l0,96.2Z" class="g4_1" />
<path d="M159.5,615.6l128.2,0l0,-96.2l-128.2,0l0,96.2Z" class="g1_1" />
<g clip-path="url(#c0_1)">
<g fill="#000000" >
<use xlink:href="#f0_19" transform="matrix(18,0,0,18,192.8,560)" />
<use xlink:href="#f0_t" transform="matrix(18,0,0,18,210.2,560)" />
<use xlink:href="#f0_5" transform="matrix(18,0,0,18,223.9,560)" />
<use xlink:href="#f0_2g" transform="matrix(18,0,0,18,240.4,560)" />
<use xlink:href="#f0_1x" transform="matrix(18,0,0,18,196.1,593)" />
</g>
</g>
<text 
x="192" 
y="559" 
dx="0,0,0.3,-0.2" 
class="s1_1"
>HEAP</text>

<g clip-path="url(#c0_1)">
<g fill="#000000" >
<use xlink:href="#f0_5" transform="matrix(18,0,0,18,220,593)" />
<use xlink:href="#f0_2g" transform="matrix(18,0,0,18,236.5,593)" />
</g>
</g>
<text 
x="196" 
y="593" 
dx="0,-0.2,-0.2" 
class="s1_1"
>MAP</text>

<path fill-rule="evenodd" d="M287.7,615.6l128.2,0l0,-96.2l-128.2,0l0,96.2Z" class="g4_1" />
<path d="M287.7,615.6l128.2,0l0,-96.2l-128.2,0l0,96.2Z" class="g1_1" />
<g clip-path="url(#c0_1)">
<g fill="#000000" >
<use xlink:href="#f0_14" transform="matrix(18,0,0,18,330.7,576.5)" />
<use xlink:href="#f0_2x" transform="matrix(18,0,0,18,348.1,576.5)" />
<use xlink:href="#f0_1c" transform="matrix(18,0,0,18,366.5,576.5)" />
</g>
</g>
<text 
x="330" 
y="576" 
dx="0,-0.1,0.3" 
class="s1_1"
>GUI</text>

<path fill-rule="evenodd" d="M415.9,615.6l128.2,0l0,-96.2l-128.2,0l0,96.2Z" class="g4_1" />
<path d="M415.9,615.6l128.2,0l0,-96.2l-128.2,0l0,96.2Z" class="g1_1" />
<g clip-path="url(#c0_1)">
<g fill="#000000" >
<use xlink:href="#f0_j" transform="matrix(18,0,0,18,463.7,576.5)" />
<use xlink:href="#f0_1r" transform="matrix(18,0,0,18,478.4,576.5)" />
<use xlink:href="#f0_1c" transform="matrix(18,0,0,18,490.3,576.5)" />
</g>
</g>
<text 
x="463" 
y="576" 
dx="0,0.1,0.2" 
class="s1_1"
>CLI</text>

<path fill-rule="evenodd" d="M672.3,615.6l128.3,0l0,-96.2l-128.3,0l0,96.2Z" class="g4_1" />
<path d="M672.3,615.6l128.3,0l0,-96.2l-128.3,0l0,96.2Z" class="g1_1" />
<g clip-path="url(#c0_1)">
<g fill="#000000" >
<use xlink:href="#f0_13" transform="matrix(18,0,0,18,697.9,560)" />
<use xlink:href="#f0_1r" transform="matrix(18,0,0,18,710.7,560)" />
<use xlink:href="#f0_5" transform="matrix(18,0,0,18,721.7,560)" />
<use xlink:href="#f0_1x" transform="matrix(18,0,0,18,739.2,560)" />
<use xlink:href="#f0_t" transform="matrix(18,0,0,18,763,560)" />
<use xlink:href="#f0_14" transform="matrix(18,0,0,18,696.3,593)" />
</g>
</g>
<text 
x="697" 
y="559" 
dx="0,0.2,-0.7,0.7,-0.2" 
class="s1_1"
>FLAME</text>

<g clip-path="url(#c0_1)">
<g fill="#000000" >
<use xlink:href="#f0_2j" transform="matrix(18,0,0,18,713.7,593)" />
<use xlink:href="#f0_5" transform="matrix(18,0,0,18,729.2,593)" />
<use xlink:href="#f0_2g" transform="matrix(18,0,0,18,745.8,593)" />
<use xlink:href="#f0_19" transform="matrix(18,0,0,18,760.4,593)" />
</g>
</g>
<text 
x="696" 
y="593" 
dx="0,-0.1,0,-0.1,0" 
class="s1_1"
>GRAPH</text>

<path fill-rule="evenodd" d="M544.1,615.6l128.2,0l0,-96.2l-128.2,0l0,96.2Z" class="g4_1" />
<path d="M544.1,615.6l128.2,0l0,-96.2l-128.2,0l0,96.2Z" class="g1_1" />
<g clip-path="url(#c0_1)">
<g fill="#000000" >
<use xlink:href="#f1_nt" transform="matrix(18,0,0,18,598.4,576.5)" />
<use xlink:href="#f1_nt" transform="matrix(18,0,0,18,605.7,576.5)" />
<use xlink:href="#f1_nt" transform="matrix(18,0,0,18,612.1,576.5)" />
</g>
</g>
<text 
x="598" 
y="576" 
dx="0,0.4,-0.5" 
class="s3_1"
>...</text>

<path fill-rule="evenodd" d="M755.9,463.5l72.1,0l0,-361.6l-72.1,0l0,361.6Z" class="g4_1" />
<path d="M755.9,463.5l72.1,0l0,-361.6l-72.1,0l0,361.6Z" class="g1_1" />
<g clip-path="url(#c0_1)">
<g fill="#000000" >
<use xlink:href="#f0_38" transform="matrix(18,0,0,18,770.8,291.4)" />
<use xlink:href="#f0_j" transform="matrix(18,0,0,18,787.3,291.4)" />
<use xlink:href="#f0_2n" transform="matrix(18,0,0,18,801.9,291.4)" />
</g>
</g>
<text 
x="770" 
y="291" 
dx="0,0.2,0.1" 
class="s1_1"
>VCS</text>

<path fill-rule="evenodd" d="M828.7,142.5l54.1,0l0,-40.6l-54.1,0l0,40.6Z" class="g5_1" />
<path d="M828.7,142.5l54.1,0l0,-40.6l-54.1,0l0,40.6Z" class="g1_1" />
<g clip-path="url(#c0_1)">
<g fill="#000000" >
<use xlink:href="#f0_14" transform="matrix(13.8,0,0,13.8,841.6,128.8)" />
<use xlink:href="#f0_1c" transform="matrix(13.8,0,0,13.8,855.3,128.8)" />
<use xlink:href="#f0_2t" transform="matrix(13.8,0,0,13.8,860.9,128.8)" />
</g>
</g>
<text 
x="841" 
y="128" 
dx="0,0.3,-0.1" 
class="s4_1"
>GIT</text>

<path fill-rule="evenodd" d="M828.7,192.9l54.1,0l0,-40.6l-54.1,0l0,40.6Z" class="g5_1" />
<path d="M828.7,192.9l54.1,0l0,-40.6l-54.1,0l0,40.6Z" class="g1_1" />
<g clip-path="url(#c0_1)">
<g fill="#000000" >
<use xlink:href="#f0_2n" transform="matrix(13.8,0,0,13.8,838.1,179.2)" />
<use xlink:href="#f0_38" transform="matrix(13.8,0,0,13.8,848.2,179.2)" />
<use xlink:href="#f0_1y" transform="matrix(13.8,0,0,13.8,861,179.2)" />
</g>
</g>
<text 
x="838" 
y="179" 
dx="0,0.1,0.4" 
class="s4_1"
>SVN</text>

<path fill-rule="evenodd" d="M828.7,243.2l54.1,0l0,-40.6l-54.1,0l0,40.6Z" class="g5_1" />
<path d="M828.7,243.2l54.1,0l0,-40.6l-54.1,0l0,40.6Z" class="g1_1" />
<g clip-path="url(#c0_1)">
<g fill="#000000" >
<use xlink:href="#f0_nt" transform="matrix(13.8,0,0,13.8,848,229.6)" />
<use xlink:href="#f0_nt" transform="matrix(13.8,0,0,13.8,853.5,229.6)" />
<use xlink:href="#f0_nt" transform="matrix(13.8,0,0,13.8,859,229.6)" />
</g>
</g>
<text 
x="847" 
y="229" 
dx="0,-0.1,-0.1" 
class="s5_1"
>...</text>

<path fill-rule="evenodd" d="M828.7,293.6l54.1,0l0,-40.6l-54.1,0l0,40.6Z" class="g5_1" />
<path d="M828.7,293.6l54.1,0l0,-40.6l-54.1,0l0,40.6Z" class="g1_1" />
<g clip-path="url(#c0_1)">
<g fill="#000000" >
<use xlink:href="#f0_2g" transform="matrix(13.8,0,0,13.8,833.8,280)" />
<use xlink:href="#f0_38" transform="matrix(13.8,0,0,13.8,844.8,280)" />
<use xlink:href="#f0_j" transform="matrix(13.8,0,0,13.8,857.7,280)" />
<use xlink:href="#f0_2n" transform="matrix(13.8,0,0,13.8,869.5,280)" />
</g>
</g>
<text 
x="833" 
y="280" 
dx="0,-0.2,0.3,0.7" 
class="s5_1"
>PVCS</text>

<path fill-rule="evenodd" d="M576.1,256.6l115.4,0l0,-96.2l-115.4,0l0,96.2Z" class="g4_1" />
<path d="M576.1,256.6l115.4,0l0,-96.2l-115.4,0l0,96.2Z" class="g1_1" />
<g clip-path="url(#c0_1)">
<g fill="#000000" >
<use xlink:href="#f0_2g" transform="matrix(18,0,0,18,587.5,217)" />
<use xlink:href="#f0_2j" transform="matrix(18,0,0,18,602.2,217)" />
<use xlink:href="#f0_24" transform="matrix(18,0,0,18,617.7,217)" />
<use xlink:href="#f0_13" transform="matrix(18,0,0,18,636.1,217)" />
<use xlink:href="#f0_1c" transform="matrix(18,0,0,18,648.9,217)" />
<use xlink:href="#f0_1r" transform="matrix(18,0,0,18,656.2,217)" />
<use xlink:href="#f0_t" transform="matrix(18,0,0,18,668.1,217)" />
</g>
</g>
<text 
x="587" 
y="217" 
dx="0,0,0.1,-0.3,0.2,0,0.2" 
class="s1_1"
>PROFILE</text>

<path fill-rule="evenodd" d="M27.5,251.4l124.1,0l0,-21.7l-124.1,0l0,21.7Z" class="g5_1" />
<path d="M27.5,251.4l124.1,0l0,-21.7l-124.1,0l0,21.7Z" class="g1_1" />
<g clip-path="url(#c0_1)">
<g fill="#000000" >
<use xlink:href="#f0_2j" transform="matrix(13.8,0,0,13.8,62.8,247.3)" />
<use xlink:href="#f0_7z" transform="matrix(13.8,0,0,13.8,74.7,247.3)" />
<use xlink:href="#f0_9d" transform="matrix(13.8,0,0,13.8,85.7,247.3)" />
<use xlink:href="#f0_7z" transform="matrix(13.8,0,0,13.8,95.8,247.3)" />
<use xlink:href="#f0_cn" transform="matrix(13.8,0,0,13.8,106.8,247.3)" />
</g>
</g>
<text 
x="62" 
y="247" 
dx="0,0,0.4,0.1,0.4" 
class="s4_1"
>Regex</text>

<path fill-rule="evenodd" d="M27.5,221l124.1,0l0,-21.6l-124.1,0l0,21.6Z" class="g5_1" />
<path d="M27.5,221l124.1,0l0,-21.6l-124.1,0l0,21.6Z" class="g1_1" />
<g clip-path="url(#c0_1)">
<g fill="#000000" >
<use xlink:href="#f1_nt" transform="matrix(13.8,0,0,13.8,81.5,216.9)" />
<use xlink:href="#f1_nt" transform="matrix(13.8,0,0,13.8,87,216.9)" />
<use xlink:href="#f1_nt" transform="matrix(13.8,0,0,13.8,92.5,216.9)" />
</g>
</g>
<text 
x="81" 
y="216" 
dx="0,0.2,0.2" 
class="s6_1"
>...</text>

<path fill-rule="evenodd" d="M27.5,160.4l124.1,0l0,-21.7l-124.1,0l0,21.7Z" class="g5_1" />
<path d="M27.5,160.4l124.1,0l0,-21.7l-124.1,0l0,21.7Z" class="g1_1" />
<g clip-path="url(#c0_1)">
<g fill="#000000" >
<use xlink:href="#f0_1x" transform="matrix(13.8,0,0,13.8,51.5,156.2)" />
<use xlink:href="#f0_7z" transform="matrix(13.8,0,0,13.8,69.9,156.2)" />
<use xlink:href="#f0_ae" transform="matrix(13.8,0,0,13.8,80.9,156.2)" />
<use xlink:href="#f0_am" transform="matrix(13.8,0,0,13.8,98.4,156.2)" />
<use xlink:href="#f0_b1" transform="matrix(13.8,0,0,13.8,110.3,156.2)" />
<use xlink:href="#f0_co" transform="matrix(13.8,0,0,13.8,117.7,156.2)" />
</g>
</g>
<text 
x="51" 
y="156" 
dx="0,-0.1,0.4,0.3,0.6,-0.1" 
class="s5_1"
>Memory</text>

<path fill-rule="evenodd" d="M27.5,190.7l124.1,0l0,-21.6l-124.1,0l0,21.6Z" class="g5_1" />
<path d="M27.5,190.7l124.1,0l0,-21.6l-124.1,0l0,21.6Z" class="g1_1" />
<g clip-path="url(#c0_1)">
<g fill="#000000" >
<use xlink:href="#f0_2t" transform="matrix(13.8,0,0,13.8,67.6,186.5)" />
<use xlink:href="#f0_9q" transform="matrix(13.8,0,0,13.8,78.6,186.5)" />
<use xlink:href="#f0_ae" transform="matrix(13.8,0,0,13.8,83.2,186.5)" />
<use xlink:href="#f0_7z" transform="matrix(13.8,0,0,13.8,100.6,186.5)" />
</g>
</g>
<text 
x="67" 
y="186" 
dx="0,0.5,-0.6,0.2" 
class="s5_1"
>Time</text>

<path fill-rule="evenodd" d="M27.5,357.6l124.1,0l0,-25.1l-124.1,0l0,25.1Z" class="g5_1" />
<path d="M27.5,357.6l124.1,0l0,-25.1l-124.1,0l0,25.1Z" class="g1_1" />
<g clip-path="url(#c0_1)">
<g fill="#000000" >
<use xlink:href="#f1_nt" transform="matrix(13.8,0,0,13.8,81.5,351.9)" />
<use xlink:href="#f1_nt" transform="matrix(13.8,0,0,13.8,87,351.9)" />
<use xlink:href="#f1_nt" transform="matrix(13.8,0,0,13.8,92.5,351.9)" />
</g>
</g>
<text 
x="81" 
y="351" 
dx="0,0.2,0.2" 
class="s6_1"
>...</text>

<path fill-rule="evenodd" d="M27.5,314.5l124.1,0l0,-25.1l-124.1,0l0,25.1Z" class="g5_1" />
<path d="M27.5,314.5l124.1,0l0,-25.1l-124.1,0l0,25.1Z" class="g1_1" />
<g clip-path="url(#c0_1)">
<g fill="#000000" >
<use xlink:href="#f0_13" transform="matrix(13.8,0,0,13.8,66.5,308.8)" />
<use xlink:href="#f0_9q" transform="matrix(13.8,0,0,13.8,76.6,308.8)" />
<use xlink:href="#f0_a8" transform="matrix(13.8,0,0,13.8,81.2,308.8)" />
<use xlink:href="#f0_bf" transform="matrix(13.8,0,0,13.8,86.7,308.8)" />
<use xlink:href="#f0_7z" transform="matrix(13.8,0,0,13.8,94,308.8)" />
<use xlink:href="#f0_b1" transform="matrix(13.8,0,0,13.8,105,308.8)" />
</g>
</g>
<text 
x="66" 
y="308" 
dx="0,0.4,-0.6,0.3,0,0.4" 
class="s4_1"
>Filter</text>

<path fill-rule="evenodd" d="M27.5,400.7l124.1,0l0,-25.1l-124.1,0l0,25.1Z" class="g5_1" />
<path d="M27.5,400.7l124.1,0l0,-25.1l-124.1,0l0,25.1Z" class="g1_1" />
<g clip-path="url(#c0_1)">
<g fill="#000000" >
<use xlink:href="#f0_1y" transform="matrix(13.8,0,0,13.8,40.3,395.1)" />
<use xlink:href="#f0_am" transform="matrix(13.8,0,0,13.8,54.1,395.1)" />
<use xlink:href="#f0_b1" transform="matrix(13.8,0,0,13.8,66,395.1)" />
<use xlink:href="#f0_ae" transform="matrix(13.8,0,0,13.8,73.4,395.1)" />
<use xlink:href="#f0_77" transform="matrix(13.8,0,0,13.8,90.8,395.1)" />
<use xlink:href="#f0_a8" transform="matrix(13.8,0,0,13.8,101.9,395.1)" />
<use xlink:href="#f0_9q" transform="matrix(13.8,0,0,13.8,106.5,395.1)" />
<use xlink:href="#f0_ct" transform="matrix(13.8,0,0,13.8,112,395.1)" />
<use xlink:href="#f0_7z" transform="matrix(13.8,0,0,13.8,120.3,395.1)" />
<use xlink:href="#f0_b1" transform="matrix(13.8,0,0,13.8,131.3,395.1)" />
</g>
</g>
<text 
x="40" 
y="395" 
dx="0,-0.1,0.6,-0.1,0.3,0.6,-0.6,0.3,-0.1,0.4" 
class="s4_1"
>Normalizer</text>

<path fill-rule="evenodd" d="M152,119.8l258.8,0l0,-52L152,67.8l0,52Z" class="g4_1" />
<path d="M152,119.8l258.8,0l0,-52L152,67.8l0,52Z" class="g1_1" />
<g clip-path="url(#c0_1)">
<g fill="#000000" >
<use xlink:href="#f0_19" transform="matrix(12,0,0,12,254.1,99.5)" />
<use xlink:href="#f0_24" transform="matrix(12,0,0,12,266,99.5)" />
<use xlink:href="#f0_24" transform="matrix(12,0,0,12,277.9,99.5)" />
<use xlink:href="#f0_1p" transform="matrix(12,0,0,12,290.7,99.5)" />
<use xlink:href="#f0_2n" transform="matrix(12,0,0,12,300.8,99.5)" />
</g>
</g>
<text 
x="254" 
y="99" 
dx="0,0.3,-0.5,0.5,0" 
class="s7_1"
>HOOKS</text>

<path fill-rule="evenodd" d="M152,68.1l64.9,0l0,-40.6l-64.9,0l0,40.6Z" class="g5_1" />
<path d="M152,68.1l64.9,0l0,-40.6l-64.9,0l0,40.6Z" class="g1_1" />
<g clip-path="url(#c0_1)">
<g fill="#000000" >
<use xlink:href="#f0_14" transform="matrix(13.8,0,0,13.8,169.6,54.3)" />
<use xlink:href="#f0_1c" transform="matrix(13.8,0,0,13.8,183.4,54.3)" />
<use xlink:href="#f0_2t" transform="matrix(13.8,0,0,13.8,188.9,54.3)" />
</g>
</g>
<text 
x="169" 
y="54" 
dx="0,0.3,-0.1" 
class="s5_1"
>GIT</text>

<path fill-rule="evenodd" d="M250.5,68.1l65,0l0,-40.6l-65,0l0,40.6Z" class="g5_1" />
<path d="M250.5,68.1l65,0l0,-40.6l-65,0l0,40.6Z" class="g1_1" />
<g clip-path="url(#c0_1)">
<g fill="#000000" >
<use xlink:href="#f1_nt" transform="matrix(10.2,0,0,10.2,277.5,52.4)" />
<use xlink:href="#f1_nt" transform="matrix(10.2,0,0,10.2,281.2,52.4)" />
<use xlink:href="#f1_nt" transform="matrix(10.2,0,0,10.2,284.8,52.4)" />
</g>
</g>
<text 
x="277" 
y="52" 
dx="0,-0.3,-0.3" 
class="s8_1"
>...</text>

<g clip-path="url(#c1_1)">
<path d="M338.7,345C415.8,304.2,491.6,260.7,565.8,214.9" class="g3_1" />
</g>
<g clip-path="url(#c2_1)">
<path fill-rule="evenodd" d="M560.7,209.9l15.4,-1.4L568,221.6l-7.3,-11.7Z" class="g6_1" />
</g>
<g clip-path="url(#c1_1)">
<path d="M426.4,275.8c0.4,0.7,0.6,1.3,0.7,1.9c0.1,0.6,0,1.2,-0.2,1.8c-0.2,0.6,-0.5,1.1,-1,1.6c-0.4,0.5,-1,1,-1.8,1.5l-1,0.5l2.2,3.8c0,0,0,0.1,0,0.2c0,0,-0.1,0.1,-0.1,0.2c-0.1,0.1,-0.2,0.2,-0.3,0.3c-0.2,0.1,-0.4,0.2,-0.6,0.3c-0.2,0.2,-0.4,0.3,-0.6,0.3c-0.2,0.1,-0.3,0.2,-0.4,0.2c-0.1,0,-0.2,0,-0.3,0c0,0,-0.1,-0.1,-0.1,-0.2l-6.1,-10.5c-0.2,-0.3,-0.2,-0.5,-0.1,-0.7c0,-0.3,0.2,-0.5,0.4,-0.6l2.8,-1.6c0.3,-0.2,0.5,-0.3,0.8,-0.4c0.2,-0.1,0.6,-0.3,1,-0.4c0.4,-0.1,0.8,-0.2,1.2,-0.2c0.5,-0.1,1,0,1.4,0.1c0.4,0.2,0.8,0.4,1.1,0.7c0.4,0.3,0.7,0.7,1,1.2Zm-2.4,1.6c-0.2,-0.4,-0.5,-0.7,-0.8,-0.9c-0.3,-0.2,-0.6,-0.3,-0.9,-0.3c-0.3,0,-0.5,0.1,-0.8,0.2c-0.2,0.1,-0.5,0.2,-0.7,0.3l-1,0.6l2.2,4l1.1,-0.6c0.4,-0.2,0.7,-0.5,0.9,-0.7c0.2,-0.3,0.3,-0.5,0.4,-0.8c0,-0.3,0,-0.6,0,-0.9c-0.1,-0.3,-0.2,-0.6,-0.4,-0.9ZM439.7,271c0.5,1,0.9,1.9,1.1,2.8c0.2,0.9,0.2,1.8,0.1,2.6c-0.2,0.8,-0.6,1.5,-1.1,2.2c-0.5,0.7,-1.3,1.3,-2.2,1.9c-0.9,0.5,-1.8,0.8,-2.6,1c-0.8,0.1,-1.6,0.1,-2.3,-0.1c-0.7,-0.3,-1.4,-0.7,-2.1,-1.3c-0.7,-0.6,-1.3,-1.5,-1.9,-2.5c-0.5,-0.9,-0.9,-1.9,-1.1,-2.8c-0.2,-0.9,-0.2,-1.7,0,-2.5c0.1,-0.8,0.5,-1.6,1,-2.2c0.6,-0.7,1.3,-1.3,2.2,-1.9c0.9,-0.5,1.8,-0.8,2.6,-1c0.8,-0.1,1.6,-0.1,2.3,0.1c0.7,0.2,1.4,0.7,2.1,1.3c0.7,0.6,1.3,1.4,1.9,2.4Zm-2.4,1.6c-0.4,-0.6,-0.8,-1.2,-1.2,-1.6c-0.3,-0.5,-0.8,-0.8,-1.2,-1c-0.4,-0.3,-0.9,-0.3,-1.4,-0.3c-0.5,0,-1,0.2,-1.6,0.5c-0.6,0.4,-1,0.8,-1.3,1.2c-0.3,0.4,-0.4,0.9,-0.4,1.4c-0.1,0.5,0,1.1,0.2,1.6c0.2,0.6,0.4,1.1,0.7,1.7c0.4,0.6,0.8,1.1,1.2,1.6c0.4,0.4,0.8,0.8,1.2,1c0.5,0.2,0.9,0.3,1.4,0.3c0.5,0,1.1,-0.2,1.6,-0.5c0.6,-0.4,1.1,-0.8,1.3,-1.2c0.3,-0.5,0.4,-0.9,0.5,-1.4c0,-0.6,-0.1,-1.1,-0.3,-1.6c-0.2,-0.6,-0.4,-1.2,-0.7,-1.7Zm12.9,-4.4c0.4,0.6,0.6,1.2,0.6,1.8c0,0.6,0,1.2,-0.3,1.7c-0.2,0.6,-0.5,1.1,-0.9,1.5c-0.5,0.5,-1,0.9,-1.6,1.3c-0.4,0.2,-0.8,0.4,-1.2,0.5c-0.3,0.1,-0.7,0.2,-1,0.3c-0.3,0,-0.6,0.1,-0.9,0.1c-0.2,0,-0.4,0,-0.5,-0.1c-0.1,0,-0.2,-0.1,-0.4,-0.2c-0.1,-0.1,-0.2,-0.3,-0.4,-0.6c-0.1,-0.2,-0.2,-0.4,-0.2,-0.5c-0.1,-0.1,-0.1,-0.3,-0.1,-0.3c-0.1,-0.1,-0.1,-0.2,0,-0.3c0,0,0,-0.1,0.1,-0.1c0.1,-0.1,0.2,-0.1,0.4,-0.1c0.2,0,0.5,0,0.8,0c0.3,0,0.7,-0.1,1.1,-0.2c0.4,0,0.8,-0.2,1.2,-0.5c0.3,-0.1,0.6,-0.3,0.8,-0.5c0.1,-0.2,0.3,-0.4,0.4,-0.7c0,-0.2,0.1,-0.4,0.1,-0.6c-0.1,-0.3,-0.1,-0.5,-0.3,-0.7c-0.1,-0.3,-0.3,-0.5,-0.6,-0.6c-0.2,-0.1,-0.5,-0.2,-0.9,-0.2c-0.3,0,-0.6,0,-1,0.1c-0.3,0,-0.7,0,-1.1,0.1c-0.4,0,-0.8,0,-1.2,0c-0.4,0,-0.8,-0.1,-1.2,-0.2c-0.4,-0.1,-0.7,-0.3,-1.1,-0.6c-0.3,-0.2,-0.6,-0.6,-0.9,-1.1c-0.4,-0.6,-0.5,-1.1,-0.6,-1.7c0,-0.5,0.1,-1,0.3,-1.5c0.1,-0.5,0.4,-0.9,0.8,-1.4c0.4,-0.4,0.9,-0.7,1.4,-1.1c0.3,-0.1,0.6,-0.2,0.9,-0.4c0.3,-0.1,0.6,-0.2,0.9,-0.2c0.3,-0.1,0.5,-0.1,0.8,-0.2c0.2,0,0.4,0,0.5,0.1c0.1,0,0.1,0,0.2,0c0,0.1,0.1,0.1,0.1,0.2c0.1,0,0.1,0.1,0.2,0.2c0.1,0.1,0.2,0.2,0.3,0.4c0.1,0.2,0.1,0.3,0.2,0.5c0.1,0.1,0.1,0.2,0.1,0.3c0,0.1,0,0.1,0,0.2c0,0.1,0,0.1,-0.1,0.1c-0.1,0.1,-0.2,0.1,-0.4,0.1c-0.2,0,-0.4,0,-0.7,0c-0.2,0,-0.5,0.1,-0.9,0.2c-0.3,0.1,-0.6,0.2,-1,0.4c-0.2,0.1,-0.4,0.3,-0.6,0.5c-0.1,0.2,-0.2,0.3,-0.3,0.5c-0.1,0.2,-0.1,0.4,-0.1,0.6c0.1,0.2,0.1,0.4,0.2,0.5c0.2,0.3,0.4,0.5,0.6,0.6c0.3,0.1,0.6,0.2,0.9,0.2c0.3,0,0.7,0,1,-0.1c0.4,0,0.8,-0.1,1.2,-0.1c0.4,0,0.8,-0.1,1.2,0c0.4,0,0.8,0,1.2,0.2c0.4,0.1,0.7,0.3,1.1,0.5c0.3,0.3,0.6,0.7,0.9,1.1Zm5.4,-12.7c0.1,0.1,0.2,0.3,0.3,0.4c0,0.2,0.1,0.3,0.1,0.4c0,0.1,0,0.1,0,0.2c-0.1,0.1,-0.1,0.1,-0.2,0.2l-2.9,1.6l5.4,9.5c0.1,0,0.1,0.1,0.1,0.2c0,0,-0.1,0.1,-0.1,0.2c-0.1,0.1,-0.2,0.2,-0.4,0.3c-0.1,0.1,-0.3,0.2,-0.5,0.3c-0.3,0.2,-0.4,0.3,-0.6,0.3c-0.2,0.1,-0.3,0.2,-0.4,0.2c-0.1,0,-0.2,0,-0.3,0c0,0,-0.1,-0.1,-0.1,-0.2l-5.5,-9.4l-2.9,1.7c-0.1,0,-0.1,0,-0.2,0c-0.1,0,-0.1,0,-0.2,-0.1c-0.1,0,-0.2,-0.1,-0.2,-0.2c-0.1,-0.1,-0.2,-0.3,-0.3,-0.5c-0.1,-0.1,-0.2,-0.3,-0.3,-0.4c0,-0.2,-0.1,-0.3,-0.1,-0.4c0,-0.1,0,-0.1,0,-0.2c0.1,-0.1,0.1,-0.1,0.2,-0.1l8.2,-4.8c0.1,0,0.1,0,0.2,0c0.1,0,0.1,0,0.2,0.1c0.1,0,0.1,0.1,0.2,0.2c0.1,0.1,0.2,0.3,0.3,0.5Zm11.3,-3.1c0.4,0.7,0.6,1.3,0.7,1.9c0.1,0.7,0,1.3,-0.2,1.8c-0.2,0.6,-0.5,1.2,-1,1.7c-0.4,0.5,-1.1,1,-1.8,1.4l-1,0.6l2.2,3.7c0,0.1,0,0.1,0,0.2c0,0.1,-0.1,0.1,-0.1,0.2c-0.1,0.1,-0.2,0.2,-0.4,0.3c-0.1,0.1,-0.3,0.2,-0.5,0.4c-0.2,0.1,-0.4,0.2,-0.6,0.3c-0.2,0,-0.3,0.1,-0.4,0.1c-0.1,0,-0.2,0,-0.3,0c0,0,-0.1,-0.1,-0.1,-0.1l-6.1,-10.6c-0.2,-0.2,-0.2,-0.5,-0.1,-0.7c0,-0.2,0.2,-0.4,0.4,-0.6l2.8,-1.6c0.2,-0.1,0.5,-0.3,0.8,-0.4c0.2,-0.1,0.6,-0.2,1,-0.4c0.4,-0.1,0.8,-0.2,1.2,-0.2c0.5,0,1,0,1.4,0.2c0.4,0.1,0.8,0.3,1.1,0.6c0.4,0.3,0.7,0.7,1,1.2Zm-2.4,1.6c-0.3,-0.4,-0.5,-0.7,-0.8,-0.9c-0.3,-0.1,-0.6,-0.2,-0.9,-0.2c-0.3,0,-0.5,0,-0.8,0.1c-0.2,0.1,-0.5,0.2,-0.7,0.4l-1.1,0.6l2.3,3.9l1.1,-0.6c0.4,-0.2,0.7,-0.4,0.9,-0.7c0.2,-0.2,0.3,-0.5,0.4,-0.8c0,-0.3,0,-0.6,-0.1,-0.9c0,-0.3,-0.1,-0.6,-0.3,-0.9Zm17.1,0.4c0,0,0,0.1,0,0.2c0.1,0,0,0.1,-0.1,0.2c0,0.1,-0.1,0.2,-0.3,0.3c-0.2,0.1,-0.4,0.2,-0.7,0.4c-0.3,0.1,-0.5,0.3,-0.6,0.3c-0.2,0.1,-0.3,0.1,-0.4,0.2c-0.1,0,-0.2,0,-0.3,-0.1c-0.1,0,-0.1,0,-0.2,-0.1l-2.5,-2c-0.3,-0.2,-0.6,-0.4,-0.9,-0.6c-0.2,-0.1,-0.5,-0.2,-0.7,-0.3c-0.2,-0.1,-0.5,-0.1,-0.7,-0.1c-0.3,0.1,-0.5,0.2,-0.8,0.3l-0.7,0.4l2.6,4.5c0,0.1,0,0.1,0,0.2c0,0.1,0,0.1,-0.1,0.2c-0.1,0.1,-0.2,0.2,-0.3,0.3c-0.2,0.1,-0.4,0.2,-0.6,0.4c-0.2,0.1,-0.4,0.2,-0.6,0.3c-0.2,0,-0.3,0.1,-0.4,0.1c-0.1,0,-0.2,0,-0.3,0c0,0,-0.1,-0.1,-0.1,-0.1l-6.1,-10.7c-0.2,-0.2,-0.2,-0.5,-0.2,-0.6c0.1,-0.2,0.2,-0.4,0.4,-0.5l3.1,-1.8c0.3,-0.1,0.5,-0.3,0.7,-0.4c0.2,-0.1,0.4,-0.2,0.6,-0.3c0.5,-0.2,1,-0.3,1.5,-0.3c0.5,-0.1,0.9,-0.1,1.3,0c0.4,0.1,0.8,0.3,1.1,0.6c0.4,0.3,0.7,0.7,1,1.1c0.2,0.4,0.4,0.8,0.4,1.2c0.1,0.4,0.1,0.7,0.1,1.1c-0.1,0.4,-0.2,0.7,-0.3,1.1c-0.2,0.3,-0.5,0.7,-0.8,1c0.3,0,0.5,0,0.7,0c0.3,0.1,0.5,0.1,0.7,0.2c0.2,0.1,0.5,0.2,0.7,0.4c0.3,0.1,0.5,0.3,0.8,0.5l2.3,1.7c0.3,0.2,0.4,0.4,0.5,0.5c0.1,0,0.2,0.1,0.2,0.2Zm-7.7,-6.2c-0.2,-0.4,-0.5,-0.7,-0.8,-0.8c-0.3,-0.2,-0.7,-0.2,-1.2,-0.1c-0.1,0.1,-0.3,0.1,-0.4,0.2c-0.2,0,-0.4,0.2,-0.7,0.3l-1,0.6l1.9,3.4l1.2,-0.7c0.3,-0.2,0.6,-0.5,0.8,-0.7c0.2,-0.2,0.4,-0.4,0.4,-0.7c0.1,-0.2,0.2,-0.5,0.1,-0.7c0,-0.3,-0.1,-0.5,-0.3,-0.8Zm16.6,-6.5c0.5,0.9,0.9,1.9,1.1,2.8c0.2,0.9,0.2,1.7,0.1,2.6c-0.2,0.8,-0.5,1.5,-1.1,2.2c-0.5,0.7,-1.3,1.3,-2.2,1.8c-0.9,0.6,-1.8,0.9,-2.6,1c-0.8,0.2,-1.6,0.2,-2.3,-0.1c-0.7,-0.2,-1.4,-0.6,-2.1,-1.2c-0.7,-0.7,-1.3,-1.5,-1.9,-2.5c-0.5,-1,-0.9,-1.9,-1.1,-2.8c-0.2,-0.9,-0.2,-1.7,0,-2.5c0.1,-0.8,0.5,-1.6,1,-2.3c0.6,-0.7,1.3,-1.3,2.2,-1.8c0.9,-0.5,1.8,-0.9,2.6,-1c0.8,-0.2,1.6,-0.1,2.3,0.1c0.8,0.2,1.4,0.6,2.1,1.2c0.7,0.6,1.3,1.5,1.9,2.5Zm-2.4,1.5c-0.4,-0.6,-0.8,-1.1,-1.2,-1.6c-0.3,-0.4,-0.8,-0.7,-1.2,-1c-0.4,-0.2,-0.9,-0.3,-1.4,-0.3c-0.5,0.1,-1,0.2,-1.6,0.6c-0.6,0.3,-1,0.7,-1.3,1.2c-0.3,0.4,-0.4,0.9,-0.4,1.4c-0.1,0.5,0,1,0.2,1.6c0.2,0.5,0.4,1.1,0.8,1.6c0.3,0.7,0.7,1.2,1.1,1.7c0.4,0.4,0.8,0.8,1.2,1c0.5,0.2,0.9,0.3,1.4,0.3c0.5,-0.1,1.1,-0.2,1.6,-0.6c0.6,-0.3,1.1,-0.7,1.3,-1.1c0.3,-0.5,0.4,-1,0.5,-1.5c0,-0.5,-0.1,-1,-0.3,-1.6c-0.2,-0.5,-0.4,-1.1,-0.7,-1.7ZM503.2,240c0.1,0.1,0.1,0.2,0.2,0.4c0,0.1,0.1,0.2,0.1,0.2c0,0.1,0,0.2,0,0.3c0,0.1,0,0.1,0,0.2c0,0.2,-0.1,0.3,-0.2,0.5c-0.2,0.3,-0.3,0.5,-0.5,0.8c-0.3,0.2,-0.5,0.5,-0.8,0.7c-0.4,0.3,-0.7,0.6,-1.1,0.8c-0.8,0.5,-1.6,0.8,-2.4,0.9c-0.8,0.1,-1.6,0.1,-2.3,-0.2c-0.7,-0.2,-1.4,-0.6,-2.1,-1.2c-0.7,-0.6,-1.3,-1.4,-1.8,-2.4c-0.6,-1,-1,-1.9,-1.2,-2.8c-0.1,-1,-0.1,-1.8,0,-2.6c0.2,-0.8,0.5,-1.6,1,-2.2c0.5,-0.7,1.2,-1.2,2,-1.7c0.3,-0.2,0.7,-0.3,1,-0.5c0.3,-0.1,0.6,-0.2,1,-0.2c0.3,-0.1,0.5,-0.1,0.8,-0.1c0.3,0,0.5,0,0.6,0c0.2,0.1,0.2,0.1,0.3,0.1c0.1,0.1,0.1,0.1,0.2,0.2c0.1,0.1,0.1,0.2,0.2,0.3c0.1,0.1,0.2,0.2,0.3,0.4c0.1,0.2,0.2,0.3,0.2,0.5c0.1,0.1,0.1,0.2,0.1,0.3c0,0.1,0,0.2,0,0.2c0,0.1,0,0.1,-0.1,0.2c-0.1,0,-0.2,0,-0.4,0c-0.2,0,-0.5,0,-0.8,0c-0.3,0,-0.6,0,-1,0.1c-0.3,0,-0.7,0.2,-1.1,0.4c-0.5,0.3,-0.9,0.6,-1.1,1.1c-0.3,0.3,-0.4,0.8,-0.5,1.3c0,0.5,0,1,0.2,1.6c0.1,0.6,0.4,1.2,0.8,1.8c0.4,0.7,0.8,1.3,1.2,1.7c0.4,0.4,0.9,0.7,1.3,0.9c0.5,0.2,0.9,0.2,1.4,0.2c0.5,-0.1,0.9,-0.3,1.4,-0.5c0.4,-0.3,0.7,-0.5,1,-0.8c0.2,-0.3,0.4,-0.5,0.6,-0.8c0.1,-0.2,0.3,-0.5,0.3,-0.6c0.1,-0.2,0.2,-0.3,0.3,-0.4c0,0,0.1,0,0.2,0c0,0,0.1,0,0.1,0.1c0.1,0,0.2,0.1,0.3,0.2c0,0.2,0.2,0.3,0.3,0.6Zm8.8,-4c0.1,0.1,0.2,0.3,0.3,0.4c0,0.1,0.1,0.3,0.1,0.3c0,0.1,0,0.2,-0.1,0.3c0,0,0,0.1,-0.1,0.1l-5.9,3.4c-0.2,0.1,-0.4,0.2,-0.6,0.1c-0.2,0,-0.3,-0.2,-0.5,-0.4l-5.9,-10.3c-0.1,-0.2,-0.2,-0.4,-0.1,-0.6c0,-0.2,0.2,-0.4,0.4,-0.5l5.8,-3.4c0.1,0,0.1,0,0.2,0c0.1,0,0.1,0,0.2,0.1c0.1,0,0.2,0.1,0.2,0.2c0.1,0.1,0.2,0.3,0.3,0.5c0.1,0.1,0.2,0.3,0.2,0.4c0.1,0.1,0.1,0.2,0.1,0.3c0,0.1,0,0.2,0,0.3c0,0,0,0.1,-0.1,0.1l-4.2,2.4l1.7,2.9l3.5,-2.1c0.1,0,0.1,0,0.2,0c0.1,0,0.1,0,0.2,0.1c0.1,0,0.1,0.1,0.2,0.2c0.1,0.1,0.2,0.3,0.3,0.4c0.1,0.2,0.2,0.3,0.2,0.5c0.1,0.1,0.1,0.2,0.1,0.3c0,0.1,0,0.1,0,0.2c0,0.1,-0.1,0.1,-0.1,0.1l-3.6,2.1l1.9,3.3l4.2,-2.5c0.1,0,0.2,0,0.2,0c0.1,0,0.2,0,0.2,0.1c0.1,0.1,0.2,0.1,0.3,0.2c0,0.1,0.1,0.3,0.2,0.5Zm8.1,-8.1c0.3,0.6,0.5,1.2,0.6,1.8c0,0.6,-0.1,1.2,-0.3,1.7c-0.2,0.5,-0.5,1,-1,1.5c-0.4,0.5,-0.9,0.9,-1.5,1.2c-0.4,0.2,-0.8,0.4,-1.2,0.6c-0.4,0.1,-0.7,0.2,-1.1,0.3c-0.3,0,-0.6,0,-0.8,0c-0.2,0,-0.4,0,-0.5,0c-0.2,0,-0.3,-0.1,-0.4,-0.3c-0.1,-0.1,-0.2,-0.3,-0.4,-0.6c-0.1,-0.2,-0.2,-0.3,-0.3,-0.4c0,-0.2,-0.1,-0.3,-0.1,-0.4c0,-0.1,0,-0.2,0,-0.2c0.1,-0.1,0.1,-0.1,0.2,-0.2c0,0,0.2,0,0.4,0c0.2,0,0.5,0,0.8,0c0.3,0,0.7,-0.1,1,-0.2c0.4,-0.1,0.8,-0.3,1.3,-0.5c0.3,-0.2,0.5,-0.4,0.7,-0.6c0.2,-0.2,0.3,-0.4,0.4,-0.6c0.1,-0.2,0.1,-0.4,0.1,-0.7c0,-0.2,-0.1,-0.4,-0.2,-0.7c-0.2,-0.2,-0.4,-0.4,-0.6,-0.5c-0.3,-0.1,-0.6,-0.2,-0.9,-0.2c-0.3,0,-0.6,0,-1,0c-0.4,0.1,-0.8,0.1,-1.2,0.1c-0.4,0.1,-0.8,0.1,-1.2,0.1c-0.4,0,-0.8,-0.1,-1.1,-0.2c-0.4,-0.1,-0.8,-0.3,-1.1,-0.6c-0.4,-0.3,-0.7,-0.6,-1,-1.1c-0.3,-0.6,-0.5,-1.1,-0.5,-1.7c-0.1,-0.5,0,-1.1,0.2,-1.5c0.2,-0.5,0.5,-1,0.9,-1.4c0.4,-0.4,0.9,-0.8,1.4,-1.1c0.3,-0.1,0.6,-0.3,0.9,-0.4c0.3,-0.1,0.6,-0.2,0.9,-0.3c0.2,0,0.5,-0.1,0.7,-0.1c0.3,0,0.4,0,0.5,0c0.1,0,0.2,0.1,0.3,0.1c0,0,0,0.1,0.1,0.1c0.1,0.1,0.1,0.2,0.2,0.3c0.1,0.1,0.1,0.2,0.2,0.4c0.1,0.1,0.2,0.3,0.3,0.4c0,0.1,0.1,0.2,0.1,0.3c0,0.1,0,0.2,0,0.3c0,0,-0.1,0.1,-0.1,0.1c-0.1,0.1,-0.2,0.1,-0.4,0.1c-0.2,0,-0.4,0,-0.7,0c-0.3,0,-0.6,0.1,-0.9,0.1c-0.3,0.1,-0.6,0.3,-1,0.4c-0.2,0.2,-0.5,0.4,-0.6,0.5c-0.2,0.2,-0.3,0.4,-0.3,0.6c-0.1,0.2,-0.1,0.4,-0.1,0.6c0,0.1,0.1,0.3,0.2,0.5c0.1,0.3,0.3,0.4,0.6,0.6c0.2,0.1,0.5,0.1,0.9,0.1c0.3,0,0.6,0,1,0c0.4,-0.1,0.8,-0.1,1.2,-0.1c0.4,-0.1,0.8,-0.1,1.2,-0.1c0.4,0,0.8,0.1,1.2,0.2c0.3,0.1,0.7,0.3,1.1,0.6c0.3,0.3,0.6,0.6,0.9,1.1Zm8.7,-5.1c0.4,0.7,0.6,1.3,0.6,1.9c0,0.6,-0.1,1.1,-0.3,1.7c-0.2,0.5,-0.5,1,-0.9,1.5c-0.5,0.4,-1,0.8,-1.6,1.2c-0.4,0.2,-0.8,0.4,-1.2,0.5c-0.3,0.1,-0.7,0.3,-1,0.3c-0.3,0.1,-0.6,0.1,-0.9,0.1c-0.2,0,-0.4,0,-0.5,-0.1c-0.1,0,-0.2,-0.1,-0.4,-0.2c-0.1,-0.1,-0.2,-0.3,-0.4,-0.6c-0.1,-0.2,-0.2,-0.3,-0.2,-0.5c-0.1,-0.1,-0.1,-0.2,-0.1,-0.3c-0.1,-0.1,-0.1,-0.2,0,-0.2c0,-0.1,0,-0.2,0.1,-0.2c0.1,0,0.2,-0.1,0.4,0c0.3,0,0.5,0,0.8,-0.1c0.3,0,0.7,0,1.1,-0.1c0.4,-0.1,0.8,-0.3,1.2,-0.5c0.3,-0.2,0.5,-0.4,0.7,-0.6c0.2,-0.2,0.4,-0.4,0.5,-0.6c0,-0.3,0.1,-0.5,0,-0.7c0,-0.3,-0.1,-0.5,-0.2,-0.7c-0.1,-0.3,-0.3,-0.5,-0.6,-0.6c-0.3,-0.1,-0.5,-0.1,-0.8,-0.1c-0.4,-0.1,-0.7,0,-1.1,0c-0.4,0,-0.7,0.1,-1.1,0.1c-0.4,0,-0.8,0,-1.2,0c-0.4,0,-0.8,0,-1.2,-0.2c-0.4,-0.1,-0.7,-0.3,-1.1,-0.5c-0.3,-0.3,-0.7,-0.7,-0.9,-1.2c-0.4,-0.5,-0.5,-1.1,-0.6,-1.6c0,-0.6,0.1,-1.1,0.2,-1.6c0.2,-0.5,0.5,-0.9,0.9,-1.3c0.4,-0.5,0.9,-0.8,1.4,-1.1c0.3,-0.2,0.6,-0.3,0.9,-0.4c0.3,-0.2,0.6,-0.3,0.9,-0.3c0.3,-0.1,0.5,-0.1,0.8,-0.1c0.2,-0.1,0.4,-0.1,0.5,0c0.1,0,0.1,0,0.2,0.1c0,0,0.1,0,0.1,0.1c0.1,0.1,0.2,0.1,0.2,0.2c0.1,0.1,0.1,0.3,0.2,0.4c0.1,0.2,0.2,0.4,0.3,0.5c0,0.1,0.1,0.2,0.1,0.3c0,0.1,0,0.2,0,0.2c0,0.1,0,0.1,-0.1,0.2c-0.1,0,-0.2,0,-0.4,0c-0.2,0,-0.4,0,-0.7,0.1c-0.3,0,-0.5,0,-0.9,0.1c-0.3,0.1,-0.6,0.2,-1,0.4c-0.2,0.2,-0.4,0.3,-0.6,0.5c-0.1,0.2,-0.2,0.4,-0.3,0.5c-0.1,0.2,-0.1,0.4,-0.1,0.6c0.1,0.2,0.1,0.4,0.2,0.6c0.2,0.2,0.4,0.4,0.6,0.5c0.3,0.1,0.6,0.2,0.9,0.2c0.3,0,0.7,0,1,-0.1c0.4,0,0.8,0,1.2,-0.1c0.4,0,0.8,0,1.2,0c0.4,0,0.8,0.1,1.2,0.2c0.4,0.1,0.7,0.3,1.1,0.5c0.3,0.3,0.6,0.7,0.9,1.1ZM539,220.4c0.1,0.2,0.2,0.3,0.3,0.4c0,0.2,0,0.3,0.1,0.4c0,0.1,0,0.1,-0.1,0.2c0,0,0,0.1,-0.1,0.1l-5.9,3.4c-0.2,0.1,-0.4,0.2,-0.6,0.1c-0.2,0,-0.3,-0.2,-0.5,-0.4l-5.9,-10.2c-0.1,-0.3,-0.2,-0.5,-0.1,-0.7c0,-0.2,0.2,-0.4,0.4,-0.5l5.8,-3.4c0.1,0,0.1,0,0.2,0c0,0,0.1,0,0.2,0.1c0.1,0,0.1,0.1,0.2,0.2c0.1,0.2,0.2,0.3,0.3,0.5c0.1,0.1,0.2,0.3,0.2,0.4c0.1,0.2,0.1,0.3,0.1,0.4c0,0,0,0.1,0,0.2c0,0,-0.1,0.1,-0.1,0.1l-4.2,2.4L531,217l3.5,-2.1c0.1,0,0.1,0,0.2,0c0,0,0.1,0,0.2,0.1c0.1,0,0.1,0.1,0.2,0.2c0.1,0.1,0.2,0.3,0.3,0.4c0.1,0.2,0.2,0.4,0.2,0.5c0.1,0.1,0.1,0.2,0.1,0.3c0,0.1,0,0.2,0,0.2c0,0.1,-0.1,0.1,-0.2,0.1l-3.5,2.1l1.9,3.3l4.2,-2.4c0.1,-0.1,0.2,-0.1,0.2,-0.1c0.1,0,0.2,0.1,0.2,0.1c0.1,0.1,0.2,0.1,0.3,0.3c0,0.1,0.1,0.2,0.2,0.4Zm7.3,-7.6c0.3,0.6,0.5,1.2,0.6,1.8c0,0.6,-0.1,1.2,-0.3,1.7c-0.2,0.5,-0.5,1,-1,1.5c-0.4,0.4,-0.9,0.8,-1.5,1.2c-0.4,0.2,-0.8,0.4,-1.2,0.5c-0.4,0.2,-0.7,0.3,-1.1,0.3c-0.3,0.1,-0.6,0.1,-0.8,0.1c-0.2,0,-0.4,0,-0.5,0c-0.2,-0.1,-0.3,-0.1,-0.4,-0.3c-0.1,-0.1,-0.2,-0.3,-0.4,-0.6c-0.1,-0.2,-0.2,-0.3,-0.3,-0.5c0,-0.1,-0.1,-0.2,-0.1,-0.3c0,-0.1,0,-0.2,0,-0.2c0.1,-0.1,0.1,-0.1,0.2,-0.2c0,0,0.2,0,0.4,0c0.2,0,0.5,0,0.8,0c0.3,-0.1,0.7,-0.1,1,-0.2c0.4,-0.1,0.8,-0.3,1.3,-0.5c0.3,-0.2,0.5,-0.4,0.7,-0.6c0.2,-0.2,0.3,-0.4,0.4,-0.6c0.1,-0.2,0.1,-0.5,0.1,-0.7c0,-0.2,-0.1,-0.5,-0.2,-0.7c-0.2,-0.3,-0.4,-0.5,-0.6,-0.6c-0.3,-0.1,-0.6,-0.1,-0.9,-0.1c-0.3,0,-0.7,0,-1,0c-0.4,0,-0.8,0.1,-1.2,0.1c-0.4,0.1,-0.8,0.1,-1.2,0.1c-0.4,-0.1,-0.8,-0.1,-1.1,-0.2c-0.4,-0.2,-0.8,-0.4,-1.1,-0.6c-0.4,-0.3,-0.7,-0.7,-1,-1.2c-0.3,-0.5,-0.5,-1.1,-0.5,-1.6c-0.1,-0.6,0,-1.1,0.2,-1.6c0.2,-0.5,0.5,-0.9,0.9,-1.3c0.4,-0.4,0.9,-0.8,1.4,-1.1c0.3,-0.2,0.6,-0.3,0.9,-0.4c0.3,-0.1,0.6,-0.2,0.8,-0.3c0.3,-0.1,0.6,-0.1,0.8,-0.1c0.3,0,0.4,0,0.5,0c0.1,0,0.2,0,0.2,0.1c0.1,0,0.1,0,0.2,0.1c0.1,0.1,0.1,0.1,0.2,0.3c0,0.1,0.1,0.2,0.2,0.3c0.1,0.2,0.2,0.4,0.2,0.5c0.1,0.1,0.2,0.2,0.2,0.3c0,0.1,0,0.2,0,0.2c0,0.1,-0.1,0.1,-0.1,0.2c-0.1,0,-0.2,0,-0.4,0c-0.2,0,-0.4,0.1,-0.7,0.1c-0.3,0,-0.6,0,-0.9,0.1c-0.3,0.1,-0.7,0.2,-1,0.4c-0.2,0.2,-0.5,0.3,-0.6,0.5c-0.2,0.2,-0.3,0.4,-0.3,0.6c-0.1,0.1,-0.1,0.3,-0.1,0.5c0,0.2,0.1,0.4,0.2,0.6c0.1,0.2,0.3,0.4,0.6,0.5c0.2,0.1,0.5,0.2,0.9,0.2c0.3,0,0.6,0,1,0c0.4,-0.1,0.8,-0.1,1.2,-0.2c0.4,0,0.8,0,1.2,0c0.4,0,0.8,0.1,1.2,0.2c0.3,0.1,0.7,0.3,1,0.6c0.4,0.2,0.7,0.6,1,1.1Z" class="g6_1" />
</g>
<path d="M337.4,195.1l227.5,0" class="g3_1" />
<path fill-rule="evenodd" d="M563.2,188.1l13.8,7L563.2,202l0,-13.9Z" class="g6_1" />
<path d="M438.1,172.7c0,0.2,0,0.4,0,0.6c0,0.1,-0.1,0.2,-0.1,0.3c0,0.1,-0.1,0.1,-0.1,0.2c-0.1,0,-0.1,0,-0.2,0c-0.1,0,-0.2,0,-0.4,-0.2c-0.2,-0.1,-0.5,-0.2,-0.8,-0.4c-0.3,-0.1,-0.7,-0.2,-1.2,-0.4c-0.5,-0.1,-1,-0.2,-1.6,-0.2c-0.7,0,-1.3,0.1,-1.8,0.4c-0.5,0.2,-1,0.5,-1.4,0.9c-0.3,0.5,-0.6,1,-0.8,1.5c-0.2,0.6,-0.3,1.3,-0.3,2c0,0.7,0.1,1.4,0.3,2c0.2,0.6,0.5,1.1,0.8,1.5c0.4,0.4,0.9,0.7,1.4,0.9c0.5,0.2,1.1,0.3,1.7,0.3c0.3,0,0.6,0,0.9,-0.1c0.3,-0.1,0.6,-0.2,0.8,-0.3l0,-3.2l-2.5,0c-0.1,0,-0.2,-0.1,-0.3,-0.2c-0.1,-0.2,-0.1,-0.4,-0.1,-0.8c0,-0.2,0,-0.4,0,-0.5c0,-0.1,0.1,-0.2,0.1,-0.3c0,-0.1,0.1,-0.2,0.1,-0.2c0.1,0,0.1,0,0.2,0l4.5,0c0.2,0,0.3,0,0.3,0c0.1,0,0.2,0.1,0.3,0.2c0,0.1,0.1,0.2,0.1,0.3c0.1,0.1,0.1,0.2,0.1,0.3l0,5.4c0,0.2,-0.1,0.4,-0.1,0.6c-0.1,0.1,-0.3,0.2,-0.5,0.3c-0.2,0.1,-0.5,0.2,-0.8,0.3c-0.4,0.1,-0.7,0.2,-1.1,0.3c-0.3,0,-0.7,0.1,-1.1,0.1c-0.3,0.1,-0.7,0.1,-1.1,0.1c-1,0,-2,-0.2,-2.8,-0.5c-0.9,-0.3,-1.6,-0.7,-2.2,-1.3c-0.6,-0.6,-1.1,-1.3,-1.4,-2.2c-0.3,-0.8,-0.4,-1.8,-0.4,-2.9c0,-1.1,0.1,-2.1,0.5,-3c0.3,-0.8,0.8,-1.6,1.4,-2.2c0.6,-0.6,1.3,-1.1,2.2,-1.4c0.9,-0.3,1.8,-0.5,2.9,-0.5c0.6,0,1.1,0,1.6,0.1c0.5,0.1,0.9,0.2,1.3,0.3c0.3,0.1,0.6,0.3,0.8,0.4c0.3,0.1,0.5,0.2,0.5,0.3c0.1,0.1,0.2,0.3,0.2,0.4c0.1,0.2,0.1,0.5,0.1,0.8ZM449,183.1c0,0.2,0,0.3,0,0.5c0,0.1,0,0.2,-0.1,0.3c0,0.1,-0.1,0.1,-0.1,0.2c-0.1,0,-0.1,0,-0.2,0l-6.8,0c-0.2,0,-0.4,0,-0.5,-0.2c-0.2,-0.1,-0.3,-0.3,-0.3,-0.6l0,-11.8c0,-0.3,0.1,-0.5,0.3,-0.7c0.1,-0.1,0.3,-0.2,0.5,-0.2l6.8,0c0,0,0.1,0,0.1,0.1c0.1,0,0.1,0.1,0.2,0.2c0,0,0,0.2,0.1,0.3c0,0.1,0,0.3,0,0.5c0,0.2,0,0.4,0,0.5c-0.1,0.1,-0.1,0.3,-0.1,0.3c-0.1,0.1,-0.1,0.2,-0.2,0.2c0,0.1,-0.1,0.1,-0.1,0.1l-4.8,0l0,3.3l4,0c0.1,0,0.2,0,0.2,0c0.1,0.1,0.1,0.1,0.1,0.2c0.1,0.1,0.1,0.2,0.1,0.3c0,0.2,0,0.3,0,0.5c0,0.2,0,0.4,0,0.5c0,0.2,0,0.3,-0.1,0.4c0,0,0,0.1,-0.1,0.1c0,0.1,-0.1,0.1,-0.2,0.1l-4,0l0,3.8l4.8,0c0.1,0,0.1,0,0.2,0.1c0,0,0.1,0,0.1,0.1c0.1,0.1,0.1,0.2,0.1,0.4c0,0.1,0,0.3,0,0.5Zm13.2,0.1c0,0.1,0,0.3,0,0.4c-0.1,0.1,-0.2,0.2,-0.3,0.3c-0.1,0.1,-0.2,0.2,-0.3,0.2c-0.1,0,-0.3,0.1,-0.4,0.1l-1.2,0c-0.2,0,-0.4,-0.1,-0.6,-0.1c-0.2,-0.1,-0.3,-0.2,-0.5,-0.3c-0.1,-0.1,-0.3,-0.3,-0.4,-0.5c-0.2,-0.2,-0.3,-0.5,-0.5,-0.9l-3.3,-6.3c-0.2,-0.3,-0.4,-0.8,-0.6,-1.2c-0.2,-0.4,-0.4,-0.8,-0.6,-1.3c0,0.5,0,1,0.1,1.5c0,0.5,0,1.1,0,1.6l0,7c0,0.1,0,0.2,-0.1,0.2c0,0.1,-0.1,0.1,-0.2,0.2c-0.1,0,-0.2,0,-0.4,0.1c-0.1,0,-0.3,0,-0.6,0c-0.2,0,-0.4,0,-0.6,0c-0.1,-0.1,-0.3,-0.1,-0.4,-0.1c-0.1,-0.1,-0.1,-0.1,-0.1,-0.2c-0.1,0,-0.1,-0.1,-0.1,-0.2l0,-12.1c0,-0.3,0.1,-0.6,0.3,-0.7c0.2,-0.2,0.4,-0.3,0.7,-0.3l1.5,0c0.2,0,0.5,0.1,0.6,0.1c0.2,0,0.4,0.1,0.5,0.2c0.2,0.1,0.3,0.3,0.4,0.5c0.1,0.1,0.3,0.4,0.4,0.6l2.6,5c0.2,0.3,0.3,0.6,0.5,0.9c0.1,0.2,0.3,0.5,0.4,0.8c0.2,0.3,0.3,0.6,0.4,0.9c0.2,0.3,0.3,0.5,0.4,0.8c0,-0.5,0,-1,0,-1.5c0,-0.5,0,-1.1,0,-1.5l0,-6.4c0,0,0,-0.1,0,-0.2c0.1,0,0.1,-0.1,0.2,-0.1c0.1,0,0.3,-0.1,0.4,-0.1c0.2,0,0.4,0,0.6,0c0.3,0,0.5,0,0.6,0c0.2,0,0.3,0.1,0.4,0.1c0.1,0,0.2,0.1,0.2,0.1c0,0.1,0,0.2,0,0.2Zm11.6,-0.1c0,0.2,0,0.3,-0.1,0.5c0,0.1,0,0.2,0,0.3c-0.1,0.1,-0.1,0.1,-0.2,0.2c0,0,-0.1,0,-0.1,0l-6.8,0c-0.2,0,-0.4,0,-0.6,-0.2c-0.1,-0.1,-0.2,-0.3,-0.2,-0.6l0,-11.8c0,-0.3,0.1,-0.5,0.2,-0.7c0.2,-0.1,0.4,-0.2,0.6,-0.2l6.7,0c0.1,0,0.1,0,0.2,0.1c0,0,0.1,0.1,0.1,0.2c0.1,0,0.1,0.2,0.1,0.3c0,0.1,0,0.3,0,0.5c0,0.2,0,0.4,0,0.5c0,0.1,0,0.3,-0.1,0.3c0,0.1,-0.1,0.2,-0.1,0.2c-0.1,0.1,-0.1,0.1,-0.2,0.1l-4.8,0l0,3.3l4.1,0c0,0,0.1,0,0.2,0c0,0.1,0.1,0.1,0.1,0.2c0,0.1,0.1,0.2,0.1,0.3c0,0.2,0,0.3,0,0.5c0,0.2,0,0.4,0,0.5c0,0.2,-0.1,0.3,-0.1,0.4c0,0,-0.1,0.1,-0.1,0.1c-0.1,0.1,-0.2,0.1,-0.2,0.1l-4.1,0l0,3.8l4.9,0c0,0,0.1,0,0.1,0.1c0.1,0,0.1,0,0.2,0.1c0,0.1,0,0.2,0,0.4c0.1,0.1,0.1,0.3,0.1,0.5Zm12.1,0.7c0,0.1,0,0.1,-0.1,0.2c0,0,-0.1,0.1,-0.2,0.1c-0.1,0,-0.2,0.1,-0.4,0.1c-0.2,0,-0.5,0,-0.8,0c-0.3,0,-0.6,0,-0.8,0c-0.1,0,-0.3,-0.1,-0.4,-0.1c-0.1,0,-0.1,-0.1,-0.2,-0.1c0,-0.1,-0.1,-0.2,-0.1,-0.3l-1.2,-3c-0.1,-0.3,-0.3,-0.6,-0.4,-0.9c-0.2,-0.3,-0.3,-0.5,-0.5,-0.7c-0.1,-0.1,-0.3,-0.3,-0.6,-0.3c-0.2,-0.1,-0.4,-0.2,-0.8,-0.2l-0.8,0l0,5.2c0,0,0,0.1,-0.1,0.1c0,0.1,-0.1,0.2,-0.2,0.2c-0.1,0,-0.2,0,-0.4,0.1c-0.2,0,-0.4,0,-0.7,0c-0.2,0,-0.5,0,-0.6,0c-0.2,-0.1,-0.4,-0.1,-0.5,-0.1c-0.1,0,-0.2,-0.1,-0.2,-0.2c0,0,0,-0.1,0,-0.1l0,-12.3c0,-0.3,0,-0.5,0.2,-0.7c0.1,-0.1,0.3,-0.2,0.6,-0.2l3.5,0c0.3,0,0.6,0,0.8,0c0.3,0.1,0.5,0.1,0.7,0.1c0.5,0.1,1,0.2,1.4,0.4c0.5,0.2,0.8,0.4,1.1,0.7c0.4,0.3,0.6,0.7,0.7,1.1c0.2,0.4,0.3,0.9,0.3,1.4c0,0.5,-0.1,0.9,-0.2,1.3c-0.1,0.3,-0.3,0.7,-0.5,1c-0.2,0.3,-0.5,0.5,-0.8,0.7c-0.4,0.2,-0.7,0.4,-1.2,0.5c0.3,0.2,0.4,0.3,0.6,0.4c0.2,0.2,0.4,0.3,0.5,0.5c0.2,0.2,0.3,0.4,0.5,0.7c0.1,0.3,0.3,0.5,0.4,0.8l1.1,2.7c0.1,0.3,0.2,0.5,0.2,0.6c0.1,0.1,0.1,0.2,0.1,0.3Zm-3.6,-9.2c0,-0.4,-0.1,-0.8,-0.3,-1.1c-0.2,-0.3,-0.5,-0.5,-1,-0.7c-0.1,0,-0.3,0,-0.4,0c-0.2,-0.1,-0.4,-0.1,-0.8,-0.1l-1.2,0l0,3.8l1.4,0c0.4,0,0.7,0,1,-0.1c0.3,-0.1,0.6,-0.2,0.8,-0.4c0.2,-0.2,0.3,-0.4,0.4,-0.6c0.1,-0.2,0.1,-0.5,0.1,-0.8Zm16.5,8.5c0.1,0.3,0.2,0.5,0.2,0.6c0,0.2,0,0.3,-0.1,0.3c-0.1,0.1,-0.2,0.2,-0.4,0.2c-0.2,0,-0.5,0,-0.8,0c-0.4,0,-0.6,0,-0.8,0c-0.2,0,-0.4,0,-0.5,-0.1c-0.1,0,-0.2,0,-0.2,-0.1c0,-0.1,-0.1,-0.1,-0.1,-0.2l-0.9,-2.7l-5.1,0l-0.8,2.6c-0.1,0.1,-0.1,0.2,-0.2,0.2c0,0.1,-0.1,0.2,-0.2,0.2c-0.1,0,-0.2,0.1,-0.4,0.1c-0.2,0,-0.4,0,-0.7,0c-0.3,0,-0.6,0,-0.8,0c-0.2,-0.1,-0.3,-0.1,-0.4,-0.2c0,-0.1,0,-0.2,0,-0.3c0,-0.2,0,-0.4,0.1,-0.6l4.2,-12c0,-0.1,0.1,-0.2,0.1,-0.3c0.1,-0.1,0.2,-0.1,0.3,-0.1c0.1,-0.1,0.3,-0.1,0.5,-0.1c0.2,0,0.5,0,0.9,0c0.4,0,0.7,0,0.9,0c0.3,0,0.5,0,0.6,0.1c0.2,0,0.3,0,0.3,0.1c0.1,0.1,0.1,0.2,0.2,0.3Zm-6.2,-9.9l0,0l-1.9,5.7l3.8,0Zm17,-1.4c0,0.2,0,0.3,0,0.5c-0.1,0.1,-0.1,0.2,-0.1,0.3c0,0.1,-0.1,0.2,-0.1,0.2c-0.1,0.1,-0.1,0.1,-0.2,0.1l-3.4,0l0,10.9c0,0,0,0.1,-0.1,0.1c0,0.1,-0.1,0.2,-0.2,0.2c-0.1,0,-0.2,0,-0.4,0.1c-0.2,0,-0.4,0,-0.7,0c-0.2,0,-0.5,0,-0.6,0c-0.2,-0.1,-0.4,-0.1,-0.5,-0.1c-0.1,0,-0.1,-0.1,-0.2,-0.2c0,0,0,-0.1,0,-0.1l0,-10.9l-3.4,0c-0.1,0,-0.2,0,-0.2,-0.1c-0.1,0,-0.1,-0.1,-0.1,-0.2c-0.1,-0.1,-0.1,-0.2,-0.1,-0.3c0,-0.2,-0.1,-0.3,-0.1,-0.5c0,-0.3,0.1,-0.4,0.1,-0.6c0,-0.1,0,-0.2,0.1,-0.3c0,-0.1,0,-0.2,0.1,-0.2c0,-0.1,0.1,-0.1,0.2,-0.1l9.5,0c0.1,0,0.1,0,0.2,0.1c0,0,0.1,0.1,0.1,0.2c0,0.1,0,0.2,0.1,0.3c0,0.2,0,0.3,0,0.6Zm10,11.3c0,0.2,0,0.3,0,0.5c0,0.1,-0.1,0.2,-0.1,0.3c0,0.1,-0.1,0.1,-0.1,0.2c-0.1,0,-0.1,0,-0.2,0l-6.8,0c-0.2,0,-0.4,0,-0.6,-0.2c-0.1,-0.1,-0.2,-0.3,-0.2,-0.6l0,-11.8c0,-0.3,0.1,-0.5,0.2,-0.7c0.2,-0.1,0.4,-0.2,0.6,-0.2l6.8,0c0,0,0.1,0,0.1,0.1c0.1,0,0.1,0.1,0.2,0.2c0,0,0,0.2,0,0.3c0.1,0.1,0.1,0.3,0.1,0.5c0,0.2,0,0.4,-0.1,0.5c0,0.1,0,0.3,0,0.3c-0.1,0.1,-0.1,0.2,-0.2,0.2c0,0.1,-0.1,0.1,-0.1,0.1l-4.9,0l0,3.3l4.1,0c0.1,0,0.1,0,0.2,0c0.1,0.1,0.1,0.1,0.1,0.2c0.1,0.1,0.1,0.2,0.1,0.3c0,0.2,0,0.3,0,0.5c0,0.2,0,0.4,0,0.5c0,0.2,0,0.3,-0.1,0.4c0,0,0,0.1,-0.1,0.1c-0.1,0.1,-0.1,0.1,-0.2,0.1l-4.1,0l0,3.8l4.9,0c0.1,0,0.1,0,0.2,0.1c0,0,0.1,0,0.1,0.1c0,0.1,0.1,0.2,0.1,0.4c0,0.1,0,0.3,0,0.5Zm10.1,-3c0,0.7,-0.1,1.3,-0.4,1.9c-0.3,0.5,-0.6,0.9,-1.1,1.3c-0.4,0.4,-1,0.6,-1.6,0.8c-0.6,0.2,-1.2,0.3,-1.9,0.3c-0.5,0,-0.9,-0.1,-1.3,-0.1c-0.4,-0.1,-0.8,-0.2,-1.1,-0.3c-0.3,-0.1,-0.5,-0.2,-0.7,-0.3c-0.2,-0.2,-0.4,-0.3,-0.5,-0.4c-0.1,-0.1,-0.1,-0.2,-0.2,-0.4c0,-0.1,0,-0.4,0,-0.7c0,-0.2,0,-0.4,0,-0.5c0,-0.2,0,-0.3,0.1,-0.4c0,-0.1,0,-0.2,0.1,-0.2c0,0,0.1,0,0.2,0c0.1,0,0.2,0,0.4,0.1c0.2,0.1,0.4,0.3,0.7,0.4c0.2,0.1,0.6,0.3,1,0.4c0.4,0.1,0.8,0.2,1.3,0.2c0.3,0,0.6,-0.1,0.9,-0.1c0.3,-0.1,0.5,-0.2,0.7,-0.4c0.2,-0.1,0.3,-0.3,0.4,-0.5c0.1,-0.2,0.1,-0.5,0.1,-0.8c0,-0.3,0,-0.5,-0.2,-0.7c-0.2,-0.3,-0.4,-0.5,-0.7,-0.6c-0.2,-0.2,-0.5,-0.4,-0.9,-0.5c-0.3,-0.2,-0.7,-0.3,-1,-0.5c-0.4,-0.2,-0.7,-0.3,-1.1,-0.6c-0.3,-0.2,-0.6,-0.4,-0.9,-0.7c-0.3,-0.3,-0.5,-0.7,-0.6,-1.1c-0.2,-0.4,-0.3,-0.9,-0.3,-1.4c0,-0.7,0.1,-1.2,0.4,-1.7c0.2,-0.5,0.5,-0.9,0.9,-1.2c0.4,-0.4,0.9,-0.6,1.5,-0.8c0.5,-0.1,1.1,-0.2,1.7,-0.2c0.4,0,0.7,0,1,0.1c0.3,0,0.6,0.1,0.9,0.2c0.3,0,0.5,0.1,0.7,0.2c0.2,0.1,0.4,0.2,0.5,0.3c0,0.1,0.1,0.1,0.1,0.2c0,0,0,0.1,0.1,0.2c0,0,0,0.2,0,0.3c0,0.1,0,0.3,0,0.4c0,0.2,0,0.4,0,0.5c0,0.2,0,0.3,-0.1,0.4c0,0.1,0,0.1,-0.1,0.2c0,0,-0.1,0,-0.2,0c0,0,-0.1,0,-0.3,-0.1c-0.2,-0.1,-0.4,-0.2,-0.6,-0.3c-0.3,-0.1,-0.5,-0.2,-0.9,-0.3c-0.3,-0.1,-0.6,-0.2,-1,-0.2c-0.3,0,-0.6,0.1,-0.8,0.1c-0.2,0.1,-0.4,0.2,-0.6,0.3c-0.1,0.2,-0.2,0.3,-0.3,0.5c-0.1,0.2,-0.1,0.4,-0.1,0.6c0,0.3,0.1,0.5,0.2,0.7c0.2,0.3,0.4,0.5,0.7,0.6c0.3,0.2,0.6,0.4,0.9,0.5c0.4,0.2,0.7,0.3,1.1,0.5c0.4,0.2,0.7,0.4,1.1,0.6c0.3,0.2,0.6,0.4,0.9,0.7c0.3,0.3,0.5,0.7,0.7,1.1c0.1,0.4,0.2,0.8,0.2,1.4Z" class="g6_1" />
<path d="M691.5,208.5l52,0" class="g3_1" />
<path fill-rule="evenodd" d="M741.8,201.6l13.8,6.9l-13.8,6.9l0,-13.8Z" class="g6_1" />
<g clip-path="url(#c0_1)">
<g fill="#000000" >
<use xlink:href="#f0_1c" transform="matrix(13.8,0,0,13.8,714.4,197.8)" />
<use xlink:href="#f0_1y" transform="matrix(13.8,0,0,13.8,719.9,197.8)" />
</g>
</g>
<text 
x="714" 
y="197" 
dx="0,-0.1" 
class="s4_1"
>IN</text>

<path d="M682.5,253.5l0,254.8" class="g3_1" />
<path fill-rule="evenodd" d="M689.4,506.6l-6.9,13.8l-6.9,-13.8l13.8,0Z" class="g6_1" />
<g clip-path="url(#c0_1)">
<g fill="#000000" >
<use xlink:href="#f0_1c" transform="matrix(0,-13.8,13.8,0,672.3,450)" />
<use xlink:href="#f0_2n" transform="matrix(0,-13.8,13.8,0,672.3,444.5)" />
<use xlink:href="#f0_38" transform="matrix(0,-13.8,13.8,0,672.3,429)" />
<use xlink:href="#f0_1c" transform="matrix(0,-13.8,13.8,0,672.3,417)" />
<use xlink:href="#f0_2n" transform="matrix(0,-13.8,13.8,0,672.3,410.6)" />
<use xlink:href="#f0_2x" transform="matrix(0,-13.8,13.8,0,672.3,400.6)" />
<use xlink:href="#f0_5" transform="matrix(0,-13.8,13.8,0,672.3,386.8)" />
<use xlink:href="#f0_1r" transform="matrix(0,-13.8,13.8,0,672.3,373.9)" />
<use xlink:href="#f0_1c" transform="matrix(0,-13.8,13.8,0,672.3,364.8)" />
<use xlink:href="#f0_3k" transform="matrix(0,-13.8,13.8,0,672.3,359.3)" />
<use xlink:href="#f0_t" transform="matrix(0,-13.8,13.8,0,672.3,349.2)" />
<use xlink:href="#f0_p" transform="matrix(0,-13.8,13.8,0,672.3,338.2)" />
</g>
</g>
<text 
transform="matrix(0, -1, 1, 0, 672, 450)"
dx="0,-0.1,0.1,0.7,-0.5,0.8,0.1,0,0.1,0.2,-0.1,0,0.7" 
class="s4_1"
>IS VISUALIZED</text>

<path fill-rule="evenodd" d="M345.8,68.1l65,0l0,-40.6l-65,0l0,40.6Z" class="g5_1" />
<path d="M345.8,68.1l65,0l0,-40.6l-65,0l0,40.6Z" class="g1_1" />
<g clip-path="url(#c0_1)">
<g fill="#000000" >
<use xlink:href="#f0_2n" transform="matrix(13.8,0,0,13.8,360.2,54.3)" />
<use xlink:href="#f0_38" transform="matrix(13.8,0,0,13.8,370.3,54.3)" />
<use xlink:href="#f0_1y" transform="matrix(13.8,0,0,13.8,383.1,54.3)" />
</g>
</g>
<text 
x="360" 
y="54" 
dx="0,0.1,0.3" 
class="s5_1"
>SVN</text>

<path fill-rule="evenodd" d="M150.6,251.4l186.8,0l0,-112.6l-186.8,0l0,112.6Z" class="g4_1" />
<path d="M150.6,251.4l186.8,0l0,-112.6l-186.8,0l0,112.6Z" class="g1_1" />
<g clip-path="url(#c0_1)">
<g fill="#000000" >
<use xlink:href="#f0_j" transform="matrix(18,0,0,18,171.6,203.6)" />
<use xlink:href="#f0_24" transform="matrix(18,0,0,18,186.3,203.6)" />
<use xlink:href="#f0_1r" transform="matrix(18,0,0,18,204.7,203.6)" />
<use xlink:href="#f0_1r" transform="matrix(18,0,0,18,216.6,203.6)" />
<use xlink:href="#f0_t" transform="matrix(18,0,0,18,228.5,203.6)" />
<use xlink:href="#f0_j" transform="matrix(18,0,0,18,241.4,203.6)" />
<use xlink:href="#f0_2t" transform="matrix(18,0,0,18,256.1,203.6)" />
<use xlink:href="#f0_24" transform="matrix(18,0,0,18,269.8,203.6)" />
<use xlink:href="#f0_2j" transform="matrix(18,0,0,18,288.2,203.6)" />
<use xlink:href="#f0_2n" transform="matrix(18,0,0,18,303.8,203.6)" />
</g>
</g>
<text 
x="171" 
y="203" 
dx="0,0.1,-0.2,0.3,0.3,-0.6,0.1,0.1,-0.2,0.1" 
class="s1_1"
>COLLECTORS</text>

<path fill-rule="evenodd" d="M152,400.7l186.7,0l0,-111.3l-186.7,0l0,111.3Z" class="g4_1" />
<path d="M152,400.7l186.7,0l0,-111.3l-186.7,0l0,111.3Z" class="g1_1" />
<g clip-path="url(#c0_1)">
<g fill="#000000" >
<use xlink:href="#f0_2g" transform="matrix(18,0,0,18,164.2,353.8)" />
<use xlink:href="#f0_24" transform="matrix(18,0,0,18,178.9,353.8)" />
<use xlink:href="#f0_2n" transform="matrix(18,0,0,18,197.3,353.8)" />
<use xlink:href="#f0_2t" transform="matrix(18,0,0,18,210.1,353.8)" />
<use xlink:href="#f0_2g" transform="matrix(18,0,0,18,223.8,353.8)" />
<use xlink:href="#f0_2j" transform="matrix(18,0,0,18,238.5,353.8)" />
<use xlink:href="#f0_24" transform="matrix(18,0,0,18,254,353.8)" />
<use xlink:href="#f0_j" transform="matrix(18,0,0,18,272.4,353.8)" />
<use xlink:href="#f0_t" transform="matrix(18,0,0,18,287.1,353.8)" />
<use xlink:href="#f0_2n" transform="matrix(18,0,0,18,300.8,353.8)" />
<use xlink:href="#f0_2n" transform="matrix(18,0,0,18,313.6,353.8)" />
</g>
</g>
<text 
x="164" 
y="353" 
dx="0,0,-0.2,-0.2,0.1,0,0.1,-0.2,0.1,0.3,-0.2" 
class="s1_1"
>POSTPROCESS</text>


<defs>
	<path d="M459.6,-4.8c0,0,-29.8,0,-51.1,0.4c0,0,-21.2,0.4,-36.1,1.9c0,0,-15,1.5,-24.3,4.3c0,0,-9.3,3,-15.7,7.5c0,0,-6.3,4.5,-9.7,10.8c0,0,-3.3,6.4,-6.3,16.1L28.9,892.3c0,0,-9,26.9,-10.9,42.6c0,0,-1.8,15.6,7.5,23.5c0,0,9.3,7.8,31.7,9.7c0,0,22.3,1.9,62.5,1.9c0,0,34.2,0,53.6,-1.5c0,0,19.3,-1.6,29.7,-5.3c0,0,10.5,-3.7,14.6,-11.2c0,0,4.1,-7.4,7.8,-18.6L461.2,188.5l0.8,0L692.8,929.6c0,0,2.9,12.7,7.4,20.6c0,0,4.5,7.8,15.3,12.3c0,0,10.8,4.4,30.9,5.9c0,0,20,1.6,55,1.6c0,0,34.3,0,53.3,-2.3c0,0,18.9,-2.2,26,-10.8c0,0,7.1,-8.6,4.5,-24.3c0,0,-2.6,-15.7,-11.6,-41.8L585.8,33.9c0,0,-3.8,-12.7,-9.7,-20.5c0,0,-6,-7.8,-19.4,-11.9c0,0,-13.5,-4,-36.6,-5.1c0,0,-23.1,-1.2,-60.5,-1.2Z" 
	id="f0_38"
	transform="scale(0.001,-0.001)" />

	<path d="M203.9,-4.8c0,0,-28.3,0,-47.3,2.3c0,0,-19,2.2,-30.2,5.8c0,0,-11.1,3.7,-16,9.7c0,0,-4.8,6,-4.8,13.5l0,912.1c0,0,0,7.5,4.8,13.4c0,0,4.9,6,16.4,9.7c0,0,11.5,3.8,30.1,6c0,0,18.7,2.3,47,2.3c0,0,29,0,47.6,-2.3c0,0,18.6,-2.2,29.8,-6c0,0,11.2,-3.7,16,-9.7c0,0,4.8,-5.9,4.8,-13.4l0,-912.1c0,0,0,-7.5,-4.8,-13.5c0,0,-4.8,-6,-16,-9.7c0,0,-11.2,-3.6,-29.8,-5.8c0,0,-18.6,-2.3,-47.6,-2.3Z" 
	id="f0_1c"
	transform="scale(0.001,-0.001)" />

	<path d="M163.7,0c0,0,-24.5,0,-41.3,14.5c0,0,-16.8,14.6,-16.8,47.4l0,841.3c0,0,0,32.8,16.8,47.3c0,0,16.7,14.6,41.3,14.6l481.6,0c0,0,6.8,0,12,-3.8c0,0,5.2,-3.7,8.9,-13c0,0,3.8,-9.3,5.6,-23.8c0,0,1.9,-14.6,1.9,-36.9c0,0,0,-20.9,-1.9,-35.4c0,0,-1.8,-14.6,-5.6,-23.5c0,0,-3.7,-8.9,-8.9,-13c0,0,-5.2,-4.1,-11.9,-4.1l-344.2,0l0,-235.7l291.6,0c0,0,6.7,0,12.3,-4.1c0,0,5.6,-4.1,9.3,-12.6c0,0,3.7,-8.6,5.6,-23.1c0,0,1.9,-14.5,1.9,-35.4c0,0,0,-21.5,-1.9,-35.7c0,0,-1.9,-14.1,-5.6,-22.7c0,0,-3.7,-8.6,-9.3,-12.3c0,0,-5.6,-3.7,-12.3,-3.7l-291.6,0l0,-272.8l347.3,0c0,0,6.7,0,12.3,-4.1c0,0,5.6,-4.1,9.3,-13c0,0,3.8,-9,5.6,-23.5c0,0,1.9,-14.6,1.9,-36.2c0,0,0,-21.6,-1.9,-36.1c0,0,-1.8,-14.5,-5.6,-23.5c0,0,-3.7,-8.9,-9.3,-13c0,0,-5.6,-4.1,-12.3,-4.1Z" 
	id="f0_t"
	transform="scale(0.001,-0.001)" />

	<path d="M402.2,-4.8c0,0,-43.3,0,-69,1.9c0,0,-25.8,1.9,-40.7,7.3c0,0,-14.9,5.6,-21.6,16.5c0,0,-6.7,10.8,-11.2,28.7L40.6,892.3c0,0,-6.7,26.9,-7.5,42.2c0,0,-0.7,15.3,8.6,23.5c0,0,9.3,8.2,30.6,10.1c0,0,21.2,1.9,59.2,1.9c0,0,35,0,55.5,-1.2c0,0,20.5,-1.1,31,-5.2c0,0,10.4,-4.1,14.1,-11.9c0,0,3.8,-7.9,6,-22.1L407.2,189.9l0.8,0L584.3,924.4c0,0,3,14.2,7.8,23.1c0,0,4.9,9,16.5,13.9c0,0,11.5,4.8,31.7,6.7c0,0,20.1,1.9,53.7,1.9c0,0,35.9,0,57.1,-1.5c0,0,21.3,-1.6,32.9,-6.4c0,0,11.5,-4.9,16.8,-13.8c0,0,5.2,-9,8.2,-23.9L991,189.9l1.5,0l169.6,737.5c0,0,2.2,11.9,5.9,20.5c0,0,3.8,8.6,14.2,13.5c0,0,10.4,4.8,29.8,6.7c0,0,19.3,1.9,54.3,1.9c0,0,32.8,0,51,-1.9c0,0,18.2,-1.9,26.4,-10.1c0,0,8.2,-8.2,7.1,-24.3c0,0,-1.1,-16,-7.8,-43.6L1121.5,49.6c0,0,-4.5,-17.9,-12.3,-28.7c0,0,-7.9,-10.9,-23.5,-16.5c0,0,-15.7,-5.4,-40.3,-7.3c0,0,-24.6,-1.9,-62.7,-1.9c0,0,-42.5,0,-68.2,1.9c0,0,-25.7,1.9,-40.6,7.3c0,0,-15,5.6,-21.7,16.5c0,0,-6.7,10.8,-10.4,28.7L687.4,661.7l-1.5,0L539.5,49.6c0,0,-3.8,-17.2,-10.5,-28c0,0,-6.7,-10.8,-21.2,-16.8c0,0,-14.6,-5.8,-39.6,-7.7c0,0,-25,-1.9,-66,-1.9Z" 
	id="f0_39"
	transform="scale(0.001,-0.001)" />

	<path d="M403.2,155.5c0,0,80.4,0,135.5,20.8c0,0,55.1,20.9,92,63c0,0,36.8,42.2,55.1,104.8c0,0,18.2,62.6,18.2,146.1c0,0,0,68.6,-16,127.5c0,0,-16,58.9,-51.4,102.1c0,0,-35.4,43.3,-90.8,67.5c0,0,-55.5,24.3,-145.6,24.3l-99,0l0,-656.1ZM163.8,0c0,0,-24.6,0,-41.4,14.5c0,0,-16.8,14.6,-16.8,47.4l0,841.3c0,0,0,32.8,16.8,47.3c0,0,16.8,14.6,41.4,14.6l247.6,0c0,0,129,0,218.9,-30.2c0,0,89.9,-30.2,151.4,-89.5c0,0,61.5,-59.3,93.6,-146.6c0,0,32.1,-87.3,32.1,-202.1c0,0,0,-132.8,-34.7,-227.1c0,0,-34.7,-94.3,-99.6,-154c0,0,-64.9,-59.7,-157.7,-87.6C615.4,28,522.5,0,394.2,0Z" 
	id="f0_p"
	transform="scale(0.001,-0.001)" />

	<path d="M589.4,370.6l-136.2,411l-0.7,0L316.8,370.6ZM105.6,-4.8c0,0,-34.3,0,-53.7,2.3c0,0,-19.4,2.2,-26.9,10.7c0,0,-7.5,8.5,-5.2,24.2c0,0,2.2,15.7,11.2,41.8L328.6,931.1c0,0,4.5,12.7,10.5,20.6c0,0,5.9,7.8,19,11.9c0,0,13,4.1,36.2,5.2c0,0,23.1,1.2,61.1,1.2c0,0,44,0,70.2,-1.2c0,0,26.1,-1.1,40.6,-5.2c0,0,14.6,-4.1,20.9,-12.3c0,0,6.3,-8.2,10.8,-22.4L896.1,72.7c0,0,9,-26.9,11.2,-42.5c0,0,2.2,-15.7,-6,-23.5c0,0,-8.2,-7.7,-29,-9.6c0,0,-20.9,-1.9,-57.5,-1.9c0,0,-38,0,-59.3,1.1c0,0,-21.2,1.2,-32.4,4.4c0,0,-11.2,3.4,-15.7,9.3c0,0,-4.5,6,-7.5,15.7L635.5,220l-363.1,0L211.5,30.9c0,0,-3,-10.4,-7.8,-17.5c0,0,-4.9,-7.1,-15.7,-11.2c0,0,-10.8,-4,-30.6,-5.5c0,0,-19.8,-1.5,-51.8,-1.5Z" 
	id="f0_5"
	transform="scale(0.001,-0.001)" />

	<path d="M377.9,-4.8c0,0,-28.3,0,-47.3,2.3c0,0,-19,2.2,-30.1,5.8c0,0,-11.2,3.7,-16,9.7c0,0,-4.9,6,-4.9,13.4l0,778.3l-241.7,0c0,0,-7.5,0,-12.7,4.5c0,0,-5.2,4.4,-8.9,13.8c0,0,-3.8,9.3,-5.6,24.6c0,0,-1.9,15.3,-1.9,36.9c0,0,0,22.4,1.9,38c0,0,1.8,15.7,5.6,25c0,0,3.7,9.3,8.9,13.5c0,0,5.2,4.1,12.7,4.1l680,0c0,0,6.7,0,12.3,-4.1c0,0,5.6,-4.2,9.4,-13.5c0,0,3.7,-9.3,5.6,-25c0,0,1.8,-15.6,1.8,-38c0,0,0,-21.6,-1.8,-36.9c0,0,-1.9,-15.3,-5.6,-24.6c0,0,-3.8,-9.4,-9.4,-13.8c0,0,-5.6,-4.5,-12.3,-4.5l-241.7,0l0,-778.3c0,0,0,-7.4,-4.9,-13.4c0,0,-4.8,-6,-16,-9.7c0,0,-11.1,-3.6,-30.1,-5.8c0,0,-19,-2.3,-47.3,-2.3Z" 
	id="f0_2t"
	transform="scale(0.001,-0.001)" />

	<path d="M163.7,0c0,0,-24.6,0,-41.3,14.5c0,0,-16.8,14.6,-16.8,47.4l0,876.7c0,0,0,7.5,4.8,13.4c0,0,4.9,6,16,9.7c0,0,11.2,3.8,30.2,6c0,0,19,2.3,47.3,2.3c0,0,29,0,47.6,-2.3c0,0,18.6,-2.2,29.8,-5.9c0,0,11.2,-3.8,16,-9.7c0,0,4.8,-6,4.8,-13.5l0,-776.3l303.6,0c0,0,7.5,0,13.1,-4.1c0,0,5.6,-4.1,9.3,-13.5c0,0,3.7,-9.3,5.6,-24.6c0,0,1.9,-15.4,1.9,-37.8c0,0,0,-22.5,-1.9,-37.8c0,0,-1.9,-15.3,-5.6,-25.4c0,0,-3.7,-10.1,-9.3,-14.6c0,0,-5.6,-4.5,-13.1,-4.5Z" 
	id="f0_1r"
	transform="scale(0.001,-0.001)" />

	<path d="M514.2,144.7c0,0,72.3,0,120.7,26.9c0,0,48.4,26.8,78.3,73.1c0,0,29.8,46.2,42.1,107.8c0,0,12.3,61.5,12.3,130.9c0,0,0,76.1,-11.9,138.4c0,0,-12,62.3,-40.7,106.6c0,0,-28.7,44.4,-76.4,68.7c0,0,-47.7,24.2,-119.2,24.2c0,0,-72.3,0,-120.8,-27.2c0,0,-48.4,-27.2,-78.2,-72.7c0,0,-29.9,-45.5,-42.1,-106.3c0,0,-12.3,-60.8,-12.3,-128.7c0,0,0,-79.1,11.9,-142.1c0,0,11.9,-63.1,40.2,-107.8c0,0,28.3,-44.8,76,-68.3c0,0,47.7,-23.5,120.1,-23.5Zm-6,-162.2c0,0,-112.7,0,-196.7,29.4c0,0,-83.9,29.5,-139.9,89.9c0,0,-56,60.5,-84,153.8c0,0,-28,93.3,-28,220.9c0,0,0,117.2,29.9,210.9c0,0,29.9,93.7,88.8,159.4c0,0,58.9,65.7,145.9,100.8c0,0,86.9,35.1,201.9,35.1c0,0,109.7,0,193.6,-29.2c0,0,84,-29.1,140.3,-89.5c0,0,56.4,-60.5,85.1,-152.7c0,0,28.8,-92.2,28.8,-217.6c0,0,0,-120.2,-29.9,-215c0,0,-29.9,-94.8,-88.8,-160.8c0,0,-59,-66.1,-145.9,-100.8c0,0,-86.9,-34.6,-201.1,-34.6Z" 
	id="f0_24"
	transform="scale(0.001,-0.001)" />

	<path d="M547.4,-16.5c0,0,-115.7,0,-207.1,33.1c0,0,-91.5,33.2,-154.9,96.3c0,0,-63.5,63.1,-97,153.9c0,0,-33.6,90.7,-33.6,205.8c0,0,0,118.7,35.8,213.2c0,0,35.8,94.5,101.4,160.5c0,0,65.7,66.2,158.6,101.3c0,0,92.9,35.1,207.1,35.1c0,0,62.6,0,114.1,-8.6c0,0,51.5,-8.6,89.9,-20.9c0,0,38.5,-12.3,63.8,-26.4c0,0,25.4,-14.2,35.5,-24.6c0,0,10,-10.4,14.5,-29.5c0,0,4.5,-19,4.5,-56.3c0,0,0,-21.7,-1.9,-37.3c0,0,-1.8,-15.7,-5.2,-25c0,0,-3.3,-9.4,-8.2,-13.1c0,0,-4.9,-3.7,-11.6,-3.7c0,0,-9.7,0,-31.3,13.4c0,0,-21.6,13.4,-57.5,29.1c0,0,-35.8,15.7,-85.4,29.1c0,0,-49.6,13.4,-115.3,13.4c0,0,-70.1,0,-126.8,-24.3c0,0,-56.7,-24.3,-97.1,-68.7c0,0,-40.3,-44.5,-61.9,-106.9c0,0,-21.6,-62.4,-21.6,-137.9c0,0,0,-83,22,-146.1c0,0,22,-63.2,61.6,-105.8c0,0,39.6,-42.6,95.2,-64.2c0,0,55.6,-21.7,122.8,-21.7c0,0,32.9,0,65,7.5c0,0,32.1,7.4,59.7,22.4l0,224.3l-182.9,0c0,0,-13.4,0,-20.9,16.8c0,0,-7.4,16.8,-7.4,57.1c0,0,0,20.9,1.9,35.1c0,0,1.8,14.2,5.5,22.8c0,0,3.8,8.6,9,12.7c0,0,5.2,4.1,11.9,4.1l326.2,0c0,0,11.9,0,21.3,-4.1c0,0,9.3,-4.1,16.4,-12.3c0,0,7.1,-8.2,10.8,-19.8c0,0,3.7,-11.6,3.7,-26.5l0,-384.7c0,0,0,-22.4,-7.8,-39.2c0,0,-7.8,-16.8,-32.1,-26.5c0,0,-24.3,-9.7,-60.1,-20.2c0,0,-35.8,-10.4,-74.2,-17.8c0,0,-38.5,-7.5,-77.7,-11.2c0,0,-39.2,-3.7,-78.7,-3.7Z" 
	id="f0_14"
	transform="scale(0.001,-0.001)" />

	<path d="M489,-15.5c0,0,-99.2,0,-179,30.4c0,0,-79.8,30.6,-135.7,91.4c0,0,-56,60.8,-85.8,151.7c0,0,-29.8,91,-29.8,211.9c0,0,0,123,32.8,218.5c0,0,32.8,95.4,91.7,160.3c0,0,59,64.9,141.4,98.4c0,0,82.4,33.6,181.6,33.6c0,0,40.3,0,77.6,-6.7c0,0,37.3,-6.8,69,-17.7c0,0,31.7,-10.9,57,-25.1c0,0,25.4,-14.3,35.5,-24.4c0,0,10,-10.1,13.8,-16.9c0,0,3.7,-6.7,5.9,-17.1c0,0,2.3,-10.4,3.4,-24.5c0,0,1.1,-14.2,1.1,-35c0,0,0,-22.3,-1.5,-38c0,0,-1.5,-15.6,-5.2,-25.3c0,0,-3.7,-9.7,-8.9,-14.1c0,0,-5.3,-4.5,-12,-4.5c0,0,-11.1,0,-28.3,13c0,0,-17.1,13,-44.3,29c0,0,-27.3,16,-64.9,29.1c0,0,-37.6,13,-89.8,13c0,0,-57.4,0,-102.5,-23.5c0,0,-45.1,-23.5,-76.8,-67.1c0,0,-31.7,-43.6,-48.1,-105.5c0,0,-16.4,-61.8,-16.4,-139.4c0,0,0,-84.9,17.6,-147.2c0,0,17.5,-62.2,49.9,-102.5c0,0,32.4,-40.2,78.2,-60c0,0,45.9,-19.7,103.3,-19.7c0,0,52.1,0,90.2,12.3c0,0,38,12.3,65.2,27.2c0,0,27.2,14.9,44.7,26.8c0,0,17.5,11.9,27.2,11.9c0,0,7.5,0,11.9,-3c0,0,4.5,-2.9,7.5,-11.9c0,0,3,-8.9,4.4,-24.9c0,0,1.5,-16,1.5,-42.9c0,0,0,-18.6,-1.1,-31.6c0,0,-1.1,-13,-3.3,-22.3c0,0,-2.3,-9.3,-6,-16c0,0,-3.7,-6.7,-11.9,-15.3c0,0,-8.2,-8.6,-31.7,-22.1c0,0,-23.5,-13.4,-57.5,-25.7c0,0,-33.9,-12.3,-77.5,-20.4c0,0,-43.7,-8.2,-94.4,-8.2Z" 
	id="f0_j"
	transform="scale(0.001,-0.001)" />

	<path d="M390,486c0,0,46.9,0,78.5,12.6c0,0,31.7,12.7,51.8,35.5c0,0,20.1,22.7,30.5,54.4c0,0,10.5,31.8,10.5,69.1c0,0,0,50.7,-17.9,83.6c0,0,-17.9,32.8,-44,48.4c0,0,-26,15.7,-54.7,19.8c0,0,-28.7,4.1,-59.2,4.1l-83.4,0l0,-327.5ZM203.5,-4.8c0,0,-28.4,0,-47.5,2.3c0,0,-19,2.2,-30.2,5.8c0,0,-11.2,3.7,-15.7,9.7c0,0,-4.5,6,-4.5,13.4l0,868.5c0,0,0,35.1,18.3,52.6c0,0,18.2,17.6,48.1,17.6l227.5,0c0,0,34.3,0,65.3,-2.6c0,0,31,-2.7,74.2,-11.2c0,0,43.3,-8.6,87.7,-31.8c0,0,44.4,-23.1,75.7,-58.6c0,0,31.3,-35.4,47.8,-82.8c0,0,16.4,-47.4,16.4,-106.4c0,0,0,-81.3,-25.4,-144c0,0,-25.3,-62.7,-73.8,-105.6c0,0,-48.4,-42.9,-118.9,-65.3c0,0,-70.4,-22.4,-165.9,-22.4l-80.5,0l0,-308c0,0,0,-7.4,-4.8,-13.4c0,0,-4.9,-6,-16.1,-9.7c0,0,-11.2,-3.6,-29.9,-5.8c0,0,-18.7,-2.3,-47.8,-2.3Z" 
	id="f0_2g"
	transform="scale(0.001,-0.001)" />

	<path d="M401.7,541.7c0,0,41.6,0,72.8,10.1c0,0,31.2,10,52,28.3c0,0,20.8,18.3,31.2,43.6c0,0,10.4,25.4,10.4,56.7c0,0,0,47.8,-21.5,80.6c0,0,-21.6,32.8,-70.6,46.3c0,0,-14.9,3.7,-33.8,5.9c0,0,-19,2.3,-52.4,2.3l-87.7,0l0,-273.8ZM203.5,-4.8c0,0,-28.4,0,-47.5,2.3c0,0,-19,2.2,-30.2,5.8c0,0,-11.2,3.7,-15.7,9.7c0,0,-4.5,6,-4.5,13.4l0,876.7c0,0,0,32.8,16.8,47.4c0,0,16.8,14.6,41.3,14.6l249.9,0c0,0,38,0,62.6,-1.5c0,0,24.6,-1.5,44.7,-3.8c0,0,58.2,-8.2,104.8,-28.3c0,0,46.6,-20.1,79,-52.5c0,0,32.5,-32.4,49.6,-76.8c0,0,17.2,-44.3,17.2,-101.7c0,0,0,-48.4,-12.3,-88.3c0,0,-12.3,-39.9,-36.1,-71.2c0,0,-23.9,-31.3,-58.9,-54.4c0,0,-35,-23.1,-79.7,-37.2c0,0,21.6,-10.5,40.5,-25.4c0,0,19.1,-15,35.8,-36.2c0,0,16.8,-21.3,31.7,-48.6c0,0,14.9,-27.3,29,-61.7L802.7,87c0,0,11.2,-28.4,14.9,-41.5c0,0,3.7,-13,3.7,-20.5c0,0,0,-8.2,-3,-13.8c0,0,-3,-5.6,-14.1,-9.4c0,0,-11.2,-3.6,-32.9,-5.1c0,0,-21.6,-1.5,-58.9,-1.5c0,0,-31.4,0,-50,1.5c0,0,-18.7,1.5,-29.5,5.5c0,0,-10.8,4.1,-15.3,10.5c0,0,-4.5,6.3,-7.5,15.3L523.9,244c0,0,-15.7,36.7,-30.5,65.1c0,0,-14.9,28.4,-33.1,47.4c0,0,-18.3,19.1,-42.1,28.8c0,0,-23.8,9.7,-55,9.7l-61.1,0l0,-368.5c0,0,0,-7.5,-4.8,-13.5c0,0,-4.9,-5.9,-16.1,-9.7c0,0,-11.2,-3.6,-29.9,-5.8c0,0,-18.7,-2.3,-47.8,-2.3Z" 
	id="f0_2j"
	transform="scale(0.001,-0.001)" />

	<path d="M493.1,-17.5c0,0,-91,0,-163.3,22.7c0,0,-72.3,22.7,-122.3,69c0,0,-49.9,46.3,-76.4,115.3c0,0,-26.5,69.1,-26.5,161.6l0,587.5c0,0,0,7.5,4.5,13.4c0,0,4.5,6,16.1,9.7c0,0,11.6,3.8,30.2,6c0,0,18.7,2.3,47.9,2.3c0,0,28.4,0,47,-2.3c0,0,18.7,-2.2,29.9,-6c0,0,11.2,-3.7,16.1,-9.7c0,0,4.9,-5.9,4.9,-13.4l0,-570.2c0,0,0,-57.5,14.1,-99.6c0,0,14.2,-42.2,40.6,-69.8c0,0,26.5,-27.7,63.4,-41.5c0,0,36.9,-13.8,82.3,-13.8c0,0,46.2,0,82.7,14.2c0,0,36.6,14.2,61.9,41.4c0,0,25.3,27.3,39.1,67.2c0,0,13.8,39.9,13.8,90.7l0,581.4c0,0,0,7.5,4.5,13.4c0,0,4.4,6,15.6,9.7c0,0,11.2,3.8,30.2,6c0,0,19,2.3,47.2,2.3c0,0,28.4,0,46.6,-2.3c0,0,18.2,-2.2,29.4,-6c0,0,11.2,-3.7,15.6,-9.7c0,0,4.5,-5.9,4.5,-13.4l0,-579.3c0,0,0,-88.8,-26.1,-158.9c0,0,-26.1,-70.2,-76.8,-118.7c0,0,-50.7,-48.5,-125.2,-73.9c0,0,-74.6,-25.3,-171.5,-25.3Z" 
	id="f0_2x"
	transform="scale(0.001,-0.001)" />

	<path d="M193,-4.8c0,0,-26.2,0,-43.3,2.3c0,0,-17.2,2.2,-26.9,6.2c0,0,-9.7,4.1,-13.5,10.1c0,0,-3.7,5.9,-3.7,13.4l0,867.7c0,0,0,35.1,20.5,52.6c0,0,20.5,17.6,50.3,17.6l105.1,0c0,0,28.3,0,47.7,-4.9c0,0,19.4,-4.8,34.7,-16c0,0,15.3,-11.2,28.7,-31c0,0,13.4,-19.8,27.6,-48.9l188,-352.9c0,0,16.4,-32.1,32.4,-63c0,0,16.1,-31,31,-61.9c0,0,14.9,-31,29.1,-60.9c0,0,14.1,-29.8,27.6,-59.6l0.7,0c0,0,-2.2,52.2,-3.3,108.9c0,0,-1.2,56.7,-1.2,108.2l0,452.8c0,0,0,7.5,4.5,13.4c0,0,4.5,6,15,10.5c0,0,10.4,4.5,27.6,6.3c0,0,17.1,1.9,44,1.9c0,0,25.4,0,42.6,-1.9c0,0,17.2,-1.8,26.5,-6.3c0,0,9.3,-4.5,13.1,-10.5c0,0,3.7,-5.9,3.7,-13.4l0,-867.7c0,0,0,-17.2,-6,-30.6c0,0,-5.9,-13.4,-16,-22.4c0,0,-10.1,-9,-23.9,-13c0,0,-13.8,-4,-28,-4l-83.6,0c0,0,-26.1,0,-45.1,5.1c0,0,-19.1,5.2,-35.1,19c0,0,-16.1,13.8,-31,37.3c0,0,-14.9,23.6,-33.6,60.7L359,571.5c0,0,-20.9,40.3,-42.5,86.9c0,0,-21.7,46.6,-38.8,90.6l-1.5,0c0,0,3.1,-53.7,4.7,-107c0,0,1.7,-53.3,1.7,-110l0,-504.8c0,0,0,-7.5,-4.1,-13.4c0,0,-4.1,-6,-14.2,-10.1c0,0,-10.1,-4,-27.3,-6.2c0,0,-17.2,-2.3,-44,-2.3Z" 
	id="f0_1y"
	transform="scale(0.001,-0.001)" />

	<path d="M204.2,-4.8c0,0,-28.4,0,-47.4,2.3c0,0,-19.1,2.2,-30.3,5.8c0,0,-11.2,3.7,-16,9.7c0,0,-4.9,6,-4.9,13.5l0,912.1c0,0,0,7.5,4.9,13.4c0,0,4.8,6,16,9.7c0,0,11.2,3.8,30.3,6c0,0,19,2.3,47.4,2.3c0,0,29.2,0,47.9,-2.3c0,0,18.6,-2.2,29.8,-6c0,0,11.3,-3.7,15.7,-9.7c0,0,4.5,-6,4.5,-13.4l0,-354.9l360.8,0l0,354.9c0,0,0,7.4,4.9,13.4c0,0,4.9,6,15.7,9.7c0,0,10.8,3.8,29.9,6c0,0,19,2.3,48.2,2.3c0,0,28.4,0,47.1,-2.3c0,0,18.6,-2.2,29.8,-6c0,0,11.2,-3.7,16.1,-9.7c0,0,4.9,-5.9,4.9,-13.4l0,-912.1c0,0,0,-7.5,-4.9,-13.5c0,0,-4.9,-6,-16.1,-9.7c0,0,-11.2,-3.6,-29.8,-5.8c0,0,-18.7,-2.3,-47.1,-2.3c0,0,-29.2,0,-48.2,2.2c0,0,-19.1,2.3,-29.9,5.9c0,0,-10.8,3.7,-15.7,9.7c0,0,-4.9,6,-4.9,13.4l0,390.1l-360.8,0l0,-390.1c0,0,0,-7.4,-4.5,-13.4c0,0,-4.4,-6,-15.6,-9.7c0,0,-11.3,-3.6,-29.9,-5.8c0,0,-18.7,-2.3,-47.9,-2.3Z" 
	id="f0_19"
	transform="scale(0.001,-0.001)" />

	<path d="M198.1,-4.8c0,0,-26.9,0,-44.8,2.3c0,0,-17.9,2.2,-28.7,5.8c0,0,-10.8,3.7,-14.9,9.7c0,0,-4.1,6,-4.1,13.4l0,860.3c0,0,0,38.1,20.1,58.2c0,0,20.2,20.2,53.8,20.2l128.3,0c0,0,34.3,0,58.9,-5.6c0,0,24.6,-5.6,42.5,-18.7c0,0,17.9,-13.1,29.9,-34.3c0,0,11.9,-21.3,20.9,-52.6L669.3,278.6l3,0L888.6,852.4c0,0,9.7,31.3,21.3,53c0,0,11.5,21.6,26.8,35c0,0,15.3,13.5,36.2,19.1c0,0,20.9,5.6,48.5,5.6l132,0c0,0,20.2,0,34.7,-5.3c0,0,14.6,-5.2,23.9,-15.3c0,0,9.3,-10,14.2,-24.6c0,0,4.8,-14.5,4.8,-33.2l0,-860.3c0,0,0,-7.4,-4.1,-13.4c0,0,-4.1,-6,-14.9,-9.7c0,0,-10.8,-3.6,-28.7,-5.8c0,0,-17.9,-2.3,-45.5,-2.3c0,0,-26.9,0,-44.8,2.3c0,0,-17.9,2.2,-28.3,5.8c0,0,-10.5,3.7,-15,9.7c0,0,-4.4,6,-4.4,13.5l0,786l-1.5,0L764,27.2c0,0,-3,-9.7,-9.7,-16c0,0,-6.7,-6.4,-18.2,-10.1c0,0,-11.6,-3.6,-29.5,-4.7c0,0,-17.9,-1.2,-43.3,-1.2c0,0,-25.3,0,-43.3,1.9c0,0,-17.9,1.9,-29.4,5.8C590.6,2.9,579,7,572.3,13c0,0,-6.7,6,-8.9,14.2L292.9,812.5l-1.5,0l0,-786c0,0,0,-7.5,-4.1,-13.5c0,0,-4.1,-6,-15.3,-9.7c0,0,-11.2,-3.6,-28.7,-5.8c0,0,-17.6,-2.3,-45.2,-2.3Z" 
	id="f0_1x"
	transform="scale(0.001,-0.001)" />

	<path d="M203.9,-4.8c0,0,-28.3,0,-47.3,2.3c0,0,-19,2.2,-30.2,6.2c0,0,-11.1,4.1,-16,10.1c0,0,-4.8,5.9,-4.8,14.1l0,875.2c0,0,0,32.8,16.8,47.4c0,0,16.8,14.6,41.4,14.6l454.4,0c0,0,6.7,0,11.9,-4.1c0,0,5.2,-4.2,9.3,-13.5c0,0,4.1,-9.3,6,-25c0,0,1.9,-15.6,1.9,-38c0,0,0,-22.4,-1.9,-37.7c0,0,-1.9,-15.2,-6,-24.2c0,0,-4.1,-9,-9.3,-13.4c0,0,-5.2,-4.5,-11.9,-4.5l-316.1,0l0,-260.1l296.7,0c0,0,6.7,0,11.9,-3.7c0,0,5.2,-3.7,9.3,-12.7c0,0,4.1,-9,6,-23.9c0,0,1.9,-14.9,1.9,-37.3c0,0,0,-22.4,-1.9,-37.3c0,0,-1.9,-14.9,-6,-24.6c0,0,-4.1,-9.7,-9.3,-13.8c0,0,-5.2,-4.1,-11.9,-4.1l-296.7,0l0,-359.3c0,0,0,-8.2,-4.4,-14.2c0,0,-4.5,-5.9,-16,-10c0,0,-11.6,-4,-30.2,-6.2c0,0,-18.6,-2.3,-47.6,-2.3Z" 
	id="f0_13"
	transform="scale(0.001,-0.001)" />

	<path d="M191.5,-6.7c0,0,-44.7,0,-61.9,17c0,0,-17.2,17.2,-17.2,68.7c0,0,0,53.1,17.6,70.6c0,0,17.5,17.6,63.8,17.6c0,0,44.7,0,61.9,-17.2c0,0,17.1,-17.2,17.1,-68.7c0,0,0,-53.1,-17.5,-70.6c0,0,-17.5,-17.4,-63.8,-17.4Z" 
	id="f1_nt"
	transform="scale(0.001,-0.001)" />

	<path d="M320.1,-17.5c0,0,-50,0,-92.9,8.3c0,0,-42.9,8.3,-75.8,19.8c0,0,-32.8,11.7,-54.8,24.5c0,0,-22.1,12.8,-31.8,22.6c0,0,-9.7,9.8,-13.8,28c0,0,-4.1,18.2,-4.1,52.4c0,0,0,23.1,1.5,38.7c0,0,1.5,15.7,4.9,25.3c0,0,3.3,9.7,8.9,13.8c0,0,5.6,4.1,13.1,4.1c0,0,10.5,0,29.5,-12.3c0,0,19.1,-12.4,49,-27.3c0,0,29.8,-14.9,71.3,-27.3c0,0,41.5,-12.3,96,-12.3c0,0,35.9,0,64.2,8.6c0,0,28.4,8.6,48.2,24.2c0,0,19.8,15.7,30.3,38.8c0,0,10.4,23.1,10.4,51.4c0,0,0,32.9,-17.9,56.4c0,0,-17.9,23.5,-46.7,41.8c0,0,-28.7,18.2,-65.3,34.3c0,0,-36.6,16.1,-75.4,34c0,0,-38.8,17.9,-75.4,40.7c0,0,-36.6,22.7,-65.3,54.4c0,0,-28.8,31.8,-46.7,75.1c0,0,-17.9,43.3,-17.9,103.7c0,0,0,69.5,25.7,122.1c0,0,25.8,52.6,69.4,87.3c0,0,43.7,34.7,103,51.9c0,0,59.4,17.2,125.8,17.2c0,0,34.3,0,68.6,-5.2c0,0,34.4,-5.3,64.2,-14.2c0,0,29.9,-8.9,53,-20.1c0,0,23.2,-11.2,30.6,-18.6c0,0,7.5,-7.4,10.1,-12.7c0,0,2.6,-5.2,4.5,-13.7c0,0,1.9,-8.6,2.6,-21.6c0,0,0.8,-13,0.8,-32.4c0,0,0,-21.5,-1.2,-36.4c0,0,-1.1,-14.9,-3.7,-24.6c0,0,-2.6,-9.7,-7.4,-14.1c0,0,-4.9,-4.5,-13.1,-4.5c0,0,-8.2,0,-26.1,10.4c0,0,-17.9,10.5,-44,22.7c0,0,-26.1,12.3,-60.5,22.4c0,0,-34.3,10,-75.3,10c0,0,-32.1,0,-56,-7.8c0,0,-23.8,-7.9,-39.9,-21.8c0,0,-16,-13.9,-23.8,-33.4c0,0,-7.9,-19.5,-7.9,-41.2c0,0,0,-32.1,17.5,-55.6c0,0,17.5,-23.6,47,-41.8c0,0,29.5,-18.3,66.7,-34.4c0,0,37.3,-16,76.1,-33.9c0,0,38.8,-18,76,-40.7c0,0,37.3,-22.8,66.4,-54.5c0,0,29.1,-31.8,47,-74.7c0,0,17.9,-42.9,17.9,-101.1c0,0,0,-76.2,-28.4,-133.6c0,0,-28.3,-57.5,-76.8,-96c0,0,-48.6,-38.4,-113.5,-57.8c0,0,-64.9,-19.3,-138.8,-19.3Z" 
	id="f0_2n"
	transform="scale(0.001,-0.001)" />

	<path d="M203.7,-9.7c0,0,-62.7,0,-86.6,23.5c0,0,-23.8,23.5,-23.8,89.2c0,0,0,70.2,24.2,94.1c0,0,24.2,23.9,87.7,23.9c0,0,61.9,0,85.7,-23.5c0,0,23.9,-23.6,23.9,-90c0,0,0,-69.5,-24.2,-93.4c0,0,-24.3,-23.8,-86.9,-23.8Z" 
	id="f0_nt"
	transform="scale(0.001,-0.001)" />

	<path d="M526.1,431.2c0,0,2.2,79,-31.8,124.1c0,0,-33.9,45.1,-104.8,45.1c0,0,-35.9,0,-62.4,-13.4c0,0,-26.4,-13.5,-44,-36.2c0,0,-17.5,-22.7,-26.8,-53.7c0,0,-9.4,-30.9,-10.9,-65.9ZM410.4,-17.5c0,0,-88.7,0,-155.4,22.3c0,0,-66.8,22.4,-111.5,67.9c0,0,-44.8,45.6,-66.7,115c0,0,-22,69.4,-22,162.7c0,0,0,88.8,23.1,160.1c0,0,23.1,71.3,67.1,120.9c0,0,44,49.7,107,75.8c0,0,63,26.1,142,26.1c0,0,83.5,0,142.8,-24.6c0,0,59.3,-24.7,97.3,-68.3c0,0,38,-43.7,55.9,-103.4c0,0,17.9,-59.8,17.9,-130l0,-29.9c0,0,0,-34.3,-15.3,-50.7c0,0,-15.3,-16.4,-42.1,-16.4l-405.1,0c0,0,0,-42.6,10.1,-77.3c0,0,10.1,-34.7,32.1,-58.9c0,0,22,-24.2,56.7,-36.9c0,0,34.7,-12.7,83.1,-12.7c0,0,49.3,0,86.6,7.1c0,0,37.3,7.2,64.5,15.9c0,0,27.2,8.6,45.1,15.8c0,0,17.9,7.1,29.1,7.1c0,0,6.8,0,11.2,-2.6c0,0,4.5,-2.6,7.5,-9.3c0,0,3,-6.8,4.1,-19.1c0,0,1.1,-12.3,1.1,-31c0,0,0,-16.5,-0.7,-28c0,0,-0.8,-11.6,-2.3,-19.9c0,0,-1.5,-8.2,-4.4,-13.8c0,0,-3,-5.6,-7.9,-10.8c0,0,-4.8,-5.3,-26.4,-14.2c0,0,-21.7,-9,-55.2,-17.6c0,0,-33.6,-8.6,-76.8,-14.9c0,0,-43.3,-6.4,-92.5,-6.4Z" 
	id="f0_7z"
	transform="scale(0.001,-0.001)" />

	<path d="M345.4,-143.6c0,0,42.5,0,71.6,8.5c0,0,29.1,8.6,47,22.7c0,0,17.9,14.2,25.4,31.6c0,0,7.4,17.5,7.4,36.9c0,0,0,33.4,-26.8,51.2c0,0,-26.9,17.8,-73.9,19.3L262.6,30.3c0,0,-19.4,-14.1,-31,-27.1c0,0,-11.5,-12.9,-18.6,-24.8c0,0,-7.1,-11.9,-9.3,-23.1c0,0,-2.3,-11.1,-2.3,-23c0,0,0,-37.3,37.7,-56.6c0,0,37.7,-19.3,106.3,-19.3Zm-4.5,518.1c0,0,28.4,0,49.2,8.9c0,0,20.9,9,34.7,24.6c0,0,13.8,15.7,20.9,36.2c0,0,7.1,20.5,7.1,42.9c0,0,0,53.6,-29.8,83.4c0,0,-29.9,29.9,-84.3,29.9c0,0,-27.6,0,-48.5,-9.3c0,0,-20.9,-9.4,-34.7,-25.4c0,0,-13.8,-16,-20.5,-37.3c0,0,-6.7,-21.2,-6.7,-44.3c0,0,0,-50.7,29.8,-80.2c0,0,29.9,-29.4,82.8,-29.4Zm-3.7,-646.2c0,0,-85.1,0,-145.1,13.4c0,0,-60.1,13.4,-98.5,37.3c0,0,-38.4,23.9,-55.9,57c0,0,-17.6,33.2,-17.6,72.7c0,0,0,24.6,6.4,47c0,0,6.3,22.4,18.6,42.9c0,0,12.3,20.4,30.3,39c0,0,17.9,18.7,41,35.8c0,0,-32.1,17.1,-49.6,46.5c0,0,-17.6,29.4,-17.6,64.4c0,0,0,43.9,20.2,79.9c0,0,20.1,36.1,52.2,65.1c0,0,-26.1,26.2,-41.8,62.8c0,0,-15.6,36.6,-15.6,91.1c0,0,0,58.2,20.5,104.2c0,0,20.5,45.9,57,77.6c0,0,36.6,31.8,87.3,48.6c0,0,50.8,16.8,111.9,16.8c0,0,31.3,0,60.1,-3.9c0,0,28.7,-3.8,53.3,-10.8l211.1,0c0,0,12.7,0,20.5,-16.4c0,0,7.9,-16.4,7.9,-55.2c0,0,0,-35.8,-8.2,-53c0,0,-8.2,-17.1,-20.2,-17.1l-78.3,0c0,0,16.4,-17.9,23.5,-40.6c0,0,7.1,-22.7,7.1,-47.2c0,0,0,-58.3,-19.4,-103.5c0,0,-19.4,-45.2,-55.6,-76.1c0,0,-36.2,-31,-87.3,-47.1c0,0,-51.1,-16,-113.7,-16c0,0,-32.1,0,-61.2,7.8c0,0,-29.1,7.8,-44.8,18.3c0,0,-8.9,-9.7,-16,-23.1c0,0,-7.1,-13.3,-7.1,-29.7c0,0,0,-21.6,19,-35.3c0,0,19,-13.8,53.4,-15.3l161.8,-6c0,0,56.7,-2.2,101.1,-16c0,0,44.4,-13.7,74.6,-38.7c0,0,30.2,-25,46.3,-60c0,0,16,-35,16,-79.6c0,0,0,-49.1,-21.6,-92.7c0,0,-21.7,-43.6,-64.9,-75.6c0,0,-43.3,-32.1,-108.6,-50.7c0,0,-65.2,-18.6,-152.5,-18.6Z" 
	id="f0_9d"
	transform="scale(0.001,-0.001)" />

	<path d="M114.4,-4.8c0,0,-32.9,0,-52.3,1.9c0,0,-19.4,1.9,-28.3,7c0,0,-9,5.2,-9.3,13.4c0,0,-0.4,8.2,6.3,20.9L215.1,366.1L45,673.6c0,0,-6.7,13.4,-7.1,22.7c0,0,-0.4,9.4,9.3,14.6c0,0,9.7,5.2,30.9,7.5c0,0,21.2,2.2,57.7,2.2c0,0,32.7,0,52.4,-1.1c0,0,19.8,-1.1,30.9,-3.4c0,0,11.2,-2.2,16.4,-7c0,0,5.2,-4.9,8.9,-12.4L363.2,474.3L481.1,696.7c0,0,2.2,6,6.7,10.5c0,0,4.5,4.5,14.2,7.4c0,0,9.7,3,26.5,4.5c0,0,16.8,1.5,45.9,1.5c0,0,32.9,0,52.7,-1.5c0,0,19.8,-1.5,28.4,-6.7c0,0,8.6,-5.2,8.2,-14.6c0,0,-0.4,-9.3,-8.6,-24.2L489.4,371.3L672.2,38.4c0,0,6,-12.7,5.6,-20.9c0,0,-0.4,-8.2,-10.8,-13.4c0,0,-10.4,-5.1,-32,-7c0,0,-21.6,-1.9,-57.4,-1.9c0,0,-33.5,0,-54,1.1c0,0,-20.4,1.2,-32,4.4c0,0,-11.5,3.4,-17.1,8.2c0,0,-5.6,4.9,-8.6,12.3L342.7,257.9L219.5,21.2c0,0,-3,-7.4,-8.2,-12.3c0,0,-5.2,-4.8,-16,-8.2c0,0,-10.8,-3.2,-30.2,-4.3c0,0,-19.4,-1.2,-50.7,-1.2Z" 
	id="f0_cn"
	transform="scale(0.001,-0.001)" />

	<path d="M187.7,-4.8c0,0,-27.5,0,-45.4,1.9c0,0,-17.9,1.9,-28.7,5.5c0,0,-10.8,3.7,-15.3,9.3c0,0,-4.4,5.6,-4.4,13.1l0,665.8c0,0,0,7.4,3.7,13c0,0,3.7,5.6,13.4,9.4c0,0,9.7,3.7,24.9,5.5c0,0,15.3,1.9,38.4,1.9c0,0,23.9,0,39.5,-1.8c0,0,15.6,-1.9,24.2,-5.6c0,0,8.6,-3.8,12.3,-9.4c0,0,3.7,-5.6,3.7,-13l0,-76.9c0,0,55.4,59.7,110.3,89.6c0,0,55,29.8,114.8,29.8c0,0,41.1,0,74,-8.6c0,0,33,-8.5,58.7,-24.6c0,0,25.8,-16.1,44.5,-38.4c0,0,18.7,-22.4,31.5,-50.1c0,0,29.8,32.1,58.5,55.3c0,0,28.7,23.1,56.6,37.7c0,0,28,14.5,55.9,21.6c0,0,28,7.1,57,7.1c0,0,66.3,0,111.8,-22.4c0,0,45.5,-22.4,73.4,-60.8c0,0,28,-38.4,39.9,-89.9c0,0,11.9,-51.5,11.9,-109l0,-426.2c0,0,0,-7.5,-4.5,-13.1c0,0,-4.5,-5.6,-14.9,-9.3c0,0,-10.5,-3.6,-28.5,-5.5c0,0,-17.9,-1.9,-45.6,-1.9c0,0,-28.4,0,-46.4,1.9c0,0,-17.9,1.9,-28.8,5.5c0,0,-10.8,3.7,-14.9,9.3c0,0,-4.1,5.6,-4.1,13.1l0,395c0,0,0,33.6,-6.3,61.2c0,0,-6.4,27.6,-19.4,47.4c0,0,-13,19.8,-32.6,30.6c0,0,-19.7,10.9,-47.2,10.9c0,0,-33.5,0,-67.6,-26.2c0,0,-34.2,-26.1,-74.3,-76.2L717.7,25c0,0,0,-7.5,-4.5,-13.1c0,0,-4.5,-5.6,-15.3,-9.3c0,0,-10.9,-3.6,-28.8,-5.5c0,0,-18,-1.9,-44.9,-1.9c0,0,-27.7,0,-45.6,1.9c0,0,-18,1.9,-28.8,5.5c0,0,-10.9,3.7,-15.4,9.3c0,0,-4.4,5.6,-4.4,13.1l0,395c0,0,0,33.6,-6.4,61.2c0,0,-6.4,27.6,-19.1,47.4c0,0,-12.7,19.8,-32.9,30.6c0,0,-20.2,10.9,-47.1,10.9c0,0,-34.4,0,-68.8,-26.2c0,0,-34.5,-26.1,-74.1,-76.2L281.6,25c0,0,0,-7.5,-4.5,-13.1c0,0,-4.5,-5.6,-15.3,-9.3c0,0,-10.8,-3.6,-28.6,-5.5c0,0,-17.9,-1.9,-45.5,-1.9Z" 
	id="f0_ae"
	transform="scale(0.001,-0.001)" />

	<path d="M408.7,132c0,0,42.4,0,73.6,15.3c0,0,31.2,15.3,51.3,44.5c0,0,20.1,29.1,29.7,70.6c0,0,9.7,41.4,9.7,94.5c0,0,0,49.3,-7.8,90.7c0,0,-7.8,41.5,-26.4,72.1c0,0,-18.6,30.7,-49.5,47.8c0,0,-30.8,17.2,-77.6,17.2c0,0,-41.7,0,-72.9,-15.3c0,0,-31.2,-15.3,-51.3,-44.8c0,0,-20.1,-29.5,-30.1,-71c0,0,-10,-41.5,-10,-94.5c0,0,0,-49.3,8.2,-90.7c0,0,8.1,-41.5,26.3,-72.1c0,0,18.3,-30.7,49.5,-47.5c0,0,31.2,-16.8,77.3,-16.8ZM402,-17.5c0,0,-88.8,0,-154.4,24.5c0,0,-65.6,24.7,-108.8,71.7c0,0,-43.3,47,-64.2,115.7c0,0,-20.8,68.7,-20.8,156.7c0,0,0,85.1,22.7,155.7c0,0,22.7,70.5,68.2,120.9c0,0,45.5,50.4,113.7,78c0,0,68.3,27.6,160,27.6c0,0,89.4,0,155.1,-24.2c0,0,65.6,-24.3,108.5,-71.3c0,0,42.8,-47,63.7,-115.7c0,0,20.9,-68.7,20.9,-157.5c0,0,0,-85.1,-22.4,-155.3c0,0,-22.4,-70.1,-67.8,-120.9c0,0,-45.5,-50.8,-114.1,-78.4c0,0,-68.6,-27.5,-160.3,-27.5Z" 
	id="f0_am"
	transform="scale(0.001,-0.001)" />

	<path d="M187.7,-4.8c0,0,-27.5,0,-45.4,1.9c0,0,-17.9,1.9,-28.7,5.5c0,0,-10.8,3.7,-15.3,9.3c0,0,-4.4,5.6,-4.4,13.1l0,665.8c0,0,0,7.4,3.7,13c0,0,3.7,5.6,13.4,9.4c0,0,9.7,3.7,24.9,5.5c0,0,15.3,1.9,38.4,1.9c0,0,23.9,0,39.5,-1.8c0,0,15.6,-1.9,24.2,-5.6c0,0,8.6,-3.8,12.3,-9.4c0,0,3.7,-5.6,3.7,-13l0,-82.9c0,0,26.1,37.3,49.3,61.6c0,0,23.1,24.3,44,38.4c0,0,20.9,14.2,41.8,19.8c0,0,20.9,5.6,41.8,5.6c0,0,9.7,0,20.8,-1.1c0,0,11.2,-1.1,23.2,-3.7c0,0,11.9,-2.6,20.9,-6c0,0,8.9,-3.3,13,-7.1c0,0,4.1,-3.7,6,-8.2c0,0,1.9,-4.5,3.3,-12.3c0,0,1.5,-7.8,2.3,-23.5c0,0,0.8,-15.6,0.8,-42.5c0,0,0,-26.8,-1.5,-44c0,0,-1.5,-17.1,-4.5,-26.8c0,0,-3,-9.7,-7.9,-13.4c0,0,-4.8,-3.8,-12.3,-3.8c0,0,-5.9,0,-13.4,2.6c0,0,-7.5,2.7,-16.8,5.6c0,0,-9.3,3,-20.5,5.6c0,0,-11.2,2.6,-24.6,2.6c0,0,-15.7,0,-31.4,-6.3c0,0,-15.7,-6.4,-32.4,-19.8c0,0,-16.8,-13.5,-35.1,-35.9c0,0,-18.3,-22.4,-39.2,-55.3l0,-415c0,0,0,-7.5,-4.5,-13.1c0,0,-4.5,-5.6,-15.3,-9.3c0,0,-10.8,-3.6,-28.6,-5.5c0,0,-17.9,-1.9,-45.5,-1.9Z" 
	id="f0_b1"
	transform="scale(0.001,-0.001)" />

	<path d="M275.3,-270.7c0,0,-29.8,0,-47.7,2.6c0,0,-17.9,2.6,-26.8,8.6c0,0,-9,5.9,-9.7,14.9c0,0,-0.8,8.9,4.5,21.6L284.3,0c0,0,-9.7,4.5,-17.5,13.8c0,0,-7.9,9.3,-11.6,19.8L25.9,645.3c0,0,-9.7,26.1,-9.7,39.9c0,0,0,13.8,9,21.6c0,0,8.9,7.8,30.2,10.8c0,0,21.2,3,56.3,3c0,0,32,0,50.7,-1.1c0,0,18.6,-1.1,29,-5.6c0,0,10.5,-4.5,15.7,-13.8c0,0,5.2,-9.3,10.5,-26.5L374.7,228.3l2.2,0L520.7,682.6c0,0,4.4,19.4,11.5,25.7c0,0,7.1,6.3,23.5,9.3c0,0,16.3,3,57.3,3c0,0,32,0,53.2,-3c0,0,21.2,-3,31.3,-11.2c0,0,10,-8.2,10,-22c0,0,0,-13.8,-5.9,-32.4L479.9,0l-81,-235.7c0,0,-6.7,-18.6,-36.5,-26.8c0,0,-29.8,-8.2,-87.1,-8.2Z" 
	id="f0_co"
	transform="scale(0.001,-0.001)" />

	<path d="M187.7,-4.8c0,0,-27.5,0,-45.4,1.9c0,0,-17.9,1.9,-28.7,5.5c0,0,-10.8,3.7,-15.3,9.3c0,0,-4.4,5.6,-4.4,13.1l0,664.3c0,0,0,7.4,4.4,13c0,0,4.5,5.6,15.3,9.7c0,0,10.8,4.1,28.7,6.4c0,0,17.9,2.2,45.4,2.2c0,0,27.6,0,45.5,-2.2c0,0,17.8,-2.3,28.6,-6.4c0,0,10.8,-4.1,15.3,-9.7c0,0,4.5,-5.6,4.5,-13L281.6,25c0,0,0,-7.5,-4.5,-13.1c0,0,-4.5,-5.6,-15.3,-9.3c0,0,-10.8,-3.6,-28.6,-5.5c0,0,-17.9,-1.9,-45.5,-1.9Zm-0.2,821.2c0,0,-63.4,0,-85.3,20.9c0,0,-22,20.8,-22,75.2c0,0,0,56.6,22.7,78.5c0,0,22.7,22,86.1,22c0,0,62.6,0,84.9,-21.2c0,0,22.4,-21.3,22.4,-75.6c0,0,0,-56.6,-23.1,-78.2c0,0,-23.1,-21.6,-85.7,-21.6Z" 
	id="f0_9q"
	transform="scale(0.001,-0.001)" />

	<path d="M187.7,-4.8c0,0,-27.5,0,-45.4,1.9c0,0,-17.9,1.9,-28.7,5.5c0,0,-10.8,3.7,-15.3,9.3c0,0,-4.4,5.6,-4.4,13l0,981.4c0,0,0,7.5,4.4,13.4c0,0,4.5,6,15.3,10.1c0,0,10.8,4.1,28.7,6.4c0,0,17.9,2.2,45.4,2.2c0,0,27.6,0,45.5,-2.2c0,0,17.8,-2.3,28.6,-6.4c0,0,10.8,-4.1,15.3,-10.1c0,0,4.5,-5.9,4.5,-13.4l0,-981.4c0,0,0,-7.4,-4.5,-13c0,0,-4.5,-5.6,-15.3,-9.3c0,0,-10.8,-3.6,-28.6,-5.5c0,0,-17.9,-1.9,-45.5,-1.9Z" 
	id="f0_a8"
	transform="scale(0.001,-0.001)" />

	<path d="M343.8,-14.6c0,0,-56.1,0,-97.2,14.2c0,0,-41.2,14,-68.1,43.4c0,0,-26.9,29.5,-39.7,74.1c0,0,-12.7,44.7,-12.7,105.8l0,340.3l-79.5,0c0,0,-14.1,0,-21.6,17.6c0,0,-7.4,17.6,-7.4,58.7c0,0,0,21.7,1.8,36.6c0,0,1.9,15,5.6,23.5c0,0,3.7,8.6,9.3,12.4c0,0,5.6,3.7,13,3.7l78.8,0l0,148.6c0,0,0,7.4,4.1,13.4c0,0,4.2,6,15,10.1c0,0,10.8,4.1,29.2,6c0,0,18.3,1.8,45.2,1.8c0,0,27.7,0,46,-1.8c0,0,18.3,-1.9,28.8,-6c0,0,10.5,-4.1,15,-10.1c0,0,4.5,-6,4.5,-13.4l0,-148.6l145,0c0,0,7.5,0,13.2,-3.7c0,0,5.6,-3.8,9.3,-12.3c0,0,3.7,-8.6,5.6,-23.6c0,0,1.9,-14.9,1.9,-36.6c0,0,0,-41.1,-7.5,-58.7c0,0,-7.5,-17.6,-21.7,-17.6l-145.8,0l0,-311.8c0,0,0,-54.3,17.2,-81.5c0,0,17.2,-27.1,61.3,-27.1c0,0,15,0,26.9,2.6c0,0,12,2.6,21.3,5.9c0,0,9.4,3.4,15.7,6c0,0,6.4,2.6,11.6,2.6c0,0,4.5,0,8.6,-2.6c0,0,4.1,-2.6,6.4,-10.4c0,0,2.2,-7.9,4.1,-21.3c0,0,1.9,-13.4,1.9,-34.3c0,0,0,-32.8,-4.1,-50.4c0,0,-4.2,-17.5,-10.9,-24.6c0,0,-6.7,-7.1,-19.8,-12.7c0,0,-13.1,-5.5,-30.7,-9.6c0,0,-17.5,-4.1,-38.1,-6.3c0,0,-20.6,-2.3,-41.5,-2.3Z" 
	id="f0_bf"
	transform="scale(0.001,-0.001)" />

	<path d="M336.7,115.4c0,0,39.6,0,72.9,20.1c0,0,33.2,20.2,67.6,59l0,113.5l-71.7,0c0,0,-45.6,0,-77.7,-6.7c0,0,-32.2,-6.7,-52.3,-20.2c0,0,-20.2,-13.4,-29.5,-32.5c0,0,-9.4,-19,-9.4,-43.6c0,0,0,-41.8,26.5,-65.7c0,0,26.6,-23.9,73.6,-23.9ZM295.5,-17.5c0,0,-53,0,-97.4,13.8c0,0,-44.5,13.8,-76.9,41c0,0,-32.5,27.3,-50.5,67.6c0,0,-17.9,40.4,-17.9,94.2c0,0,0,58.3,22.8,101.3c0,0,22.8,43,68,71c0,0,45.2,28,112.4,41.5c0,0,67.3,13.4,156.2,13.4l65,0l0,40.1c0,0,0,31.3,-6.4,54.7c0,0,-6.4,23.4,-20.9,39c0,0,-14.6,15.6,-38.9,23.1c0,0,-24.3,7.4,-60.2,7.4c0,0,-47.2,0,-84.2,-10.5c0,0,-37,-10.5,-65.4,-23.2c0,0,-28.5,-12.8,-47.5,-23.3c0,0,-19.1,-10.5,-31.1,-10.5c0,0,-8.2,0,-14.5,5.2c0,0,-6.4,5.2,-10.5,14.9c0,0,-4.1,9.7,-6.4,23.8c0,0,-2.2,14.2,-2.2,31.3c0,0,0,23.1,3.7,36.5c0,0,3.7,13.4,14.2,24.2c0,0,10.4,10.8,36.6,24c0,0,26.1,13.3,61.2,24.6c0,0,35.1,11.3,76.6,18.5c0,0,41.4,7.2,85.4,7.2c0,0,78.5,0,134.1,-15.3c0,0,55.6,-15.3,91.5,-47c0,0,35.8,-31.7,52.2,-81.7c0,0,16.5,-50,16.5,-118.7L661,22.7c0,0,0,-10.4,-7.5,-16.4c0,0,-7.4,-6,-23.4,-8.5c0,0,-16,-2.6,-47.3,-2.6c0,0,-33.4,0,-48.7,2.6c0,0,-15.3,2.5,-21.6,8.5c0,0,-6.3,6,-6.3,16.4l0,53c0,0,-41.1,-44,-93.8,-68.7c0,0,-52.6,-24.5,-116.9,-24.5Z" 
	id="f0_77"
	transform="scale(0.001,-0.001)" />

	<path d="M93.6,0c0,0,-20.1,0,-30.9,13.4c0,0,-10.9,13.4,-10.9,44l0,34.3c0,0,0,13.4,1.1,24.2c0,0,1.2,10.8,4.5,20.9c0,0,3.4,10.1,9,20.5c0,0,5.6,10.4,14.5,23.1L330.5,565.2L94,565.2c0,0,-14.2,0,-22.8,17.8c0,0,-8.6,17.9,-8.6,57.4c0,0,0,21.6,1.8,36.2c0,0,1.9,14.5,5.6,23.1c0,0,3.8,8.6,9.8,12.3c0,0,5.9,3.7,14.2,3.7l407.3,0c0,0,10.5,0,18,-2.2c0,0,7.4,-2.2,12.3,-8.2c0,0,4.9,-6,7.5,-16.4c0,0,2.6,-10.4,2.6,-26.1l0,-36.5c0,0,0,-14.9,-1.5,-26.5c0,0,-1.5,-11.6,-4.5,-22c0,0,-3,-10.4,-8.6,-20.9c0,0,-5.6,-10.4,-13.1,-22.3L266,150.6l262.9,0c0,0,6.7,0,12.7,-3c0,0,6,-3,10.1,-11.2c0,0,4.1,-8.2,6.3,-22.7c0,0,2.3,-14.6,2.3,-36.9c0,0,0,-21.6,-2.3,-36.9c0,0,-2.2,-15.3,-6,-24.3c0,0,-3.7,-8.9,-9.7,-12.3c0,0,-5.9,-3.3,-13.4,-3.3Z" 
	id="f0_ct"
	transform="scale(0.001,-0.001)" />

	<path d="M204.2,-4.8c0,0,-28.4,0,-47.4,2.3c0,0,-19.1,2.2,-30.3,6.2c0,0,-11.2,4.1,-16,10.1c0,0,-4.9,5.9,-4.9,14.1l0,909.9c0,0,0,8.3,4.9,14.2c0,0,4.8,6,16,9.7c0,0,11.2,3.8,30.3,6c0,0,19,2.3,47.4,2.3c0,0,29.2,0,47.9,-2.3c0,0,18.6,-2.2,29.8,-6c0,0,11.3,-3.7,15.7,-9.7c0,0,4.5,-5.9,4.5,-14.2l0,-411.2L584.7,937.1c0,0,5.3,9.7,12.7,16.1c0,0,7.5,6.3,19.4,10c0,0,11.9,3.7,30.6,5.2c0,0,18.7,1.6,47.8,1.6c0,0,29.8,0,49.2,-2.3c0,0,19.4,-2.2,31,-6.3c0,0,11.5,-4.2,16,-10.1c0,0,4.5,-6,4.5,-13.5c0,0,0,-12.6,-6.7,-26.1c0,0,-6.7,-13.4,-25.4,-42.5L498.7,522.1L787.4,85.4c0,0,16.5,-30.6,19.8,-40.7c0,0,3.4,-10,3.4,-16c0,0,0,-8.2,-4.1,-14.6c0,0,-4.1,-6.3,-15.7,-10.4c0,0,-11.5,-4,-31.7,-6.2c0,0,-20.1,-2.3,-50.7,-2.3c0,0,-48.5,0,-69.7,3.7c0,0,-21.3,3.7,-30.6,11.1c0,0,-9.4,7.5,-14.6,17.9L302.1,486.3l0,-458.4c0,0,0,-8.2,-4.5,-14.1c0,0,-4.4,-6,-15.6,-10.1c0,0,-11.3,-4,-29.9,-6.2c0,0,-18.7,-2.3,-47.9,-2.3Z" 
	id="f0_1p"
	transform="scale(0.001,-0.001)" />

	<path d="M100,0C100,0,70.2,0,54.2,17.2c0,0,-16.1,17.1,-16.1,49.9l0,32.9c0,0,0,14.9,1.9,27.2c0,0,1.8,12.3,6.3,25c0,0,4.5,12.7,13.1,27.6c0,0,8.5,14.9,21.2,35.8l374.1,594l-371.3,0c0,0,-8.9,0,-15.3,4.1c0,0,-6.3,4.1,-10.4,13c0,0,-4.1,8.9,-6,23.8c0,0,-1.8,14.9,-1.8,35.7c0,0,0,22.3,1.8,37.6c0,0,1.9,15.2,6,24.5c0,0,4.1,9.3,10.5,13c0,0,6.3,3.8,15.2,3.8l533.5,0c0,0,30.6,0,45.2,-15.6c0,0,14.5,-15.7,14.5,-43.9l0,-36.5c0,0,0,-20.1,-1.8,-34.6c0,0,-1.9,-14.4,-6.7,-28.3c0,0,-4.9,-13.8,-13.1,-28.3c0,0,-8.2,-14.6,-20.9,-34.7L266,157.4l403.1,0c0,0,14.1,0,21.6,-17.9c0,0,7.4,-17.9,7.4,-61.9c0,0,0,-21.7,-1.8,-36.6c0,0,-1.9,-14.9,-5.6,-24.2c0,0,-3.7,-9.3,-9.3,-13.1C681.4,3.7,675.8,0,669,0Z" 
	id="f0_3k"
	transform="scale(0.001,-0.001)" />


</defs>

<!-- Any embedded fonts defined here -->
<style type="text/css" ><![CDATA[

@font-face {
	font-family: Calibri_d;
	src: url("fonts/Calibri_d.woff") format("woff");
}

@font-face {
	font-family: Calibri-Bold_b;
	src: url("fonts/Calibri-Bold_b.woff") format("woff");
}

]]></style>

</svg>
