<?xml version="1.0" encoding="UTF-8" standalone="no"?>
<!DOCTYPE svg PUBLIC "-//W3C//DTD SVG 1.1//EN" "http://www.w3.org/Graphics/SVG/1.1/DTD/svg11.dtd">
<!-- Generated by Microsoft Visio, SVG Export perun-jobs-flow.svg Page-1 -->
<svg xmlns="http://www.w3.org/2000/svg" xmlns:xlink="http://www.w3.org/1999/xlink" xmlns:ev="http://www.w3.org/2001/xml-events"
		xmlns:v="http://schemas.microsoft.com/visio/2003/SVGExtensions/" width="5.85736in" height="3.42818in"
		viewBox="0 0 421.73 246.829" xml:space="preserve" color-interpolation-filters="sRGB" class="st24">
	<v:documentProperties v:langID="1033" v:metric="true" v:viewMarkup="false">
		<v:userDefs>
			<v:ud v:nameU="msvSubprocessMaster" v:prompt="" v:val="VT4(Rectangle)"/>
			<v:ud v:nameU="msvNoAutoConnect" v:val="VT0(1):26"/>
		</v:userDefs>
	</v:documentProperties>

	<style type="text/css">
	<![CDATA[
		.st1 {fill:#ffffff;stroke:#000000;stroke-dasharray:10.5,7.5;stroke-linecap:round;stroke-linejoin:round;stroke-width:1.5}
		.st2 {fill:none;stroke:#000000;stroke-linecap:round;stroke-linejoin:round;stroke-width:1.5}
		.st3 {fill:#000000;font-family:Calibri;font-size:1.00001em}
		.st4 {font-size:1em}
		.st5 {fill:none;stroke:none;stroke-linecap:round;stroke-linejoin:round;stroke-width:0.75}
		.st6 {fill:#000000;font-family:Tahoma;font-size:0.499992em;font-weight:bold}
		.st7 {fill:#000000;font-family:Calibri;font-size:0.499992em}
		.st8 {baseline-shift:-32.4949%;font-size:0.649897em}
		.st9 {fill:#000000;stroke:none;stroke-linecap:butt;stroke-width:0.75}
		.st10 {fill:#ffffff;stroke:none;stroke-linecap:butt;stroke-width:0.75}
		.st11 {marker-end:url(#mrkr4-63);stroke:#000000;stroke-linecap:round;stroke-linejoin:round;stroke-width:1.5}
		.st12 {fill:#000000;fill-opacity:1;stroke:#000000;stroke-opacity:1;stroke-width:0.37313432835821}
		.st13 {marker-end:url(#mrkr4-63);stroke:#000000;stroke-dasharray:1.5,3;stroke-linecap:round;stroke-linejoin:round;stroke-width:1.5}
		.st14 {fill:#000000;font-family:Calibri;font-size:1.16666em;font-weight:bold}
		.st15 {fill:#000000;font-family:Tahoma;font-size:0.666664em}
		.st16 {fill:#ffffff;stroke:none;stroke-linecap:round;stroke-linejoin:round;stroke-width:0.75}
		.st17 {fill:#000000;font-family:Calibri;font-size:0.75em}
		.st18 {fill:#ffffff}
		.st19 {stroke:none;stroke-linecap:round;stroke-linejoin:round;stroke-width:0.75}
		.st20 {stroke:#000000;stroke-linecap:round;stroke-linejoin:round;stroke-width:0.75}
		.st21 {fill:#ffffff;stroke:#000000;stroke-linecap:round;stroke-linejoin:round;stroke-width:0.75}
		.st22 {fill:#000000}
		.st23 {fill:#000000;font-family:Calibri;font-size:0.250008em}
		.st24 {fill:none;fill-rule:evenodd;font-size:12px;overflow:visible;stroke-linecap:square;stroke-miterlimit:3}
	]]>
	</style>

	<defs id="Markers">
		<g id="lend4">
			<path d="M 2 1 L 0 0 L 2 -1 L 2 1 " style="stroke:none"/>
		</g>
		<marker id="mrkr4-63" class="st12" v:arrowType="4" v:arrowSize="2" v:setback="5.36" refX="-5.36" orient="auto"
				markerUnits="strokeWidth" overflow="visible">
			<use xlink:href="#lend4" transform="scale(-2.68,-2.68) "/>
		</marker>
	</defs>
	<g v:mID="0" v:index="1" v:groupContext="foregroundPage">
		<v:userDefs>
			<v:ud v:nameU="msvThemeOrder" v:val="VT0(0):26"/>
		</v:userDefs>
		<title>Page-1</title>
		<v:pageProperties v:drawingScale="0.0393701" v:pageScale="0.0393701" v:drawingUnits="24" v:shadowOffsetX="9"
				v:shadowOffsetY="-9"/>
		<v:layer v:name="Flowchart" v:index="0"/>
		<v:layer v:name="Connector" v:index="1"/>
		<v:layer v:name="Web Site Map Shapes" v:index="2"/>
		<g id="shape237-1" v:mID="237" v:groupContext="shape" transform="translate(210.067,-51.0236)">
			<title>Sheet.237</title>
			<path d="M0 246.83 L79.07 246.83 L79.07 141.95 L0 141.95 L0 246.83 Z" class="st1"/>
		</g>
		<g id="shape236-3" v:mID="236" v:groupContext="shape" transform="translate(181.417,-51.0236)">
			<title>Sheet.236</title>
			<path d="M0 246.83 L19.84 246.83 L19.84 141.95 L0 141.95 L0 246.83 Z" class="st1"/>
		</g>
		<g id="shape152-5" v:mID="152" v:groupContext="shape" transform="translate(113.386,-65.9055)">
			<title>Sheet.152</title>
			<desc>RUNNERS</desc>
			<v:textBlock v:margins="rect(4,4,4,4)" v:tabSpace="42.5197"/>
			<v:textRect cx="14.1732" cy="206.435" width="28.35" height="80.7874"/>
			<rect x="0" y="166.041" width="28.3465" height="80.7874" class="st2"/>
			<text x="7.07" y="195.64" class="st3" v:langID="1033"><v:paragraph v:horizAlign="1"/><v:tabList/>RU<tspan x="6.43"
						dy="1.2em" class="st4">NN</tspan><tspan x="5.23" dy="1.2em" class="st4">ERS</tspan></text>		</g>
		<g id="shape213-10" v:mID="213" v:groupContext="shape" transform="translate(97.3315,-219.685)">
			<title>Sheet.213</title>
			<desc>.perun/local.yml</desc>
			<v:textBlock v:margins="rect(4,4,4,4)" v:tabSpace="42.5197"/>
			<v:textRect cx="30.2276" cy="236.829" width="60.46" height="20"/>
			<rect x="0" y="226.829" width="60.4552" height="20" class="st5"/>
			<text x="5.28" y="238.63" class="st6" v:langID="1033"><v:paragraph v:horizAlign="1"/><v:tabList/>.perun/local.yml</text>		</g>
		<g id="shape215-13" v:mID="215" v:groupContext="shape" transform="translate(184.252,-135.529)">
			<title>Sheet.215</title>
			<desc>c1</desc>
			<v:textBlock v:margins="rect(4,4,4,4)" v:tabSpace="42.5197"/>
			<v:textRect cx="6.85474" cy="241.247" width="13.71" height="11.1634"/>
			<rect x="0" y="235.665" width="13.7095" height="11.1634" class="st2"/>
			<text x="4.6" y="243.05" class="st7" v:langID="1033"><v:paragraph v:horizAlign="1"/><v:tabList/>c<tspan dy="-0.284em"
						class="st8" v:baseFontSize="6">1</tspan></text>		</g>
		<g id="shape216-17" v:mID="216" v:groupContext="shape" transform="translate(184.252,-66.7893)">
			<title>Sheet.216</title>
			<desc>cm</desc>
			<v:textBlock v:margins="rect(4,4,4,4)" v:tabSpace="42.5197"/>
			<v:textRect cx="6.85474" cy="241.247" width="13.71" height="11.1634"/>
			<rect x="0" y="235.665" width="13.7095" height="11.1634" class="st2"/>
			<text x="4.03" y="243.05" class="st7" v:langID="1033"><v:paragraph v:horizAlign="1"/><v:tabList/>c<tspan dy="-0.284em"
						class="st8" v:baseFontSize="6">m</tspan></text>		</g>
		<g id="shape217-21" v:mID="217" v:groupContext="shape" transform="translate(213.97,-135.529)">
			<title>Sheet.217</title>
			<desc>p1</desc>
			<v:textBlock v:margins="rect(4,4,4,4)" v:tabSpace="42.5197"/>
			<v:textRect cx="6.85474" cy="241.247" width="13.71" height="11.1634"/>
			<rect x="0" y="235.665" width="13.7095" height="11.1634" class="st2"/>
			<text x="4.29" y="243.05" class="st7" v:langID="1033"><v:paragraph v:horizAlign="1"/><v:tabList/>p<tspan dy="-0.284em"
						class="st8" v:baseFontSize="6">1</tspan></text>		</g>
		<g id="shape218-25" v:mID="218" v:groupContext="shape" transform="translate(213.97,-66.7893)">
			<title>Sheet.218</title>
			<desc>p1</desc>
			<v:textBlock v:margins="rect(4,4,4,4)" v:tabSpace="42.5197"/>
			<v:textRect cx="6.85474" cy="241.247" width="13.71" height="11.1634"/>
			<rect x="0" y="235.665" width="13.7095" height="11.1634" class="st2"/>
			<text x="4.29" y="243.05" class="st7" v:langID="1033"><v:paragraph v:horizAlign="1"/><v:tabList/>p<tspan dy="-0.284em"
						class="st8" v:baseFontSize="6">1</tspan></text>		</g>
		<g id="shape219-29" v:mID="219" v:groupContext="shape" transform="translate(269.291,-135.529)">
			<title>Sheet.219</title>
			<desc>pn</desc>
			<v:textBlock v:margins="rect(4,4,4,4)" v:tabSpace="42.5197"/>
			<v:textRect cx="6.85474" cy="241.247" width="13.71" height="11.1634"/>
			<rect x="0" y="235.665" width="13.7095" height="11.1634" class="st2"/>
			<text x="4.25" y="243.05" class="st7" v:langID="1033"><v:paragraph v:horizAlign="1"/><v:tabList/>p<tspan dy="-0.284em"
						class="st8" v:baseFontSize="6">n</tspan></text>		</g>
		<g id="shape220-33" v:mID="220" v:groupContext="shape" transform="translate(269.291,-66.7893)">
			<title>Sheet.220</title>
			<desc>pn</desc>
			<v:textBlock v:margins="rect(4,4,4,4)" v:tabSpace="42.5197"/>
			<v:textRect cx="6.85474" cy="241.247" width="13.71" height="11.1634"/>
			<rect x="0" y="235.665" width="13.7095" height="11.1634" class="st2"/>
			<text x="4.25" y="243.05" class="st7" v:langID="1033"><v:paragraph v:horizAlign="1"/><v:tabList/>p<tspan dy="-0.284em"
						class="st8" v:baseFontSize="6">n</tspan></text>		</g>
		<g id="group221-37" transform="translate(324,-77.9528)" v:mID="221" v:groupContext="group">
			<title>Sheet.221</title>
			<g id="group89-38" transform="translate(3.35969,-14.2486)" v:mID="89" v:groupContext="group">
				<title>Sheet.89</title>
				<g id="group90-39" v:mID="90" v:groupContext="group">
					<title>Sheet.90</title>
					<g id="shape91-40" v:mID="91" v:groupContext="shape" transform="translate(0,-19.5)">
						<title>Sheet.91</title>
						<path d="M15 246.83 C6.59 246.83 0 243.86 0 240.08 C0 236.29 6.59 233.33 15 233.33 C23.41 233.33 30 236.29
									 30 240.08 C30 243.86 23.41 246.83 15 246.83 ZM15 234.83 C8.61 234.83 1.5 236.98 1.5 240.08 C1.5
									 243.17 8.61 245.33 15 245.33 C21.39 245.33 28.5 243.17 28.5 240.08 C28.5 236.98 21.39 234.83
									 15 234.83 Z" class="st9"/>
					</g>
					<g id="shape92-42" v:mID="92" v:groupContext="shape" transform="translate(0,-13.5)">
						<title>Sheet.92</title>
						<path d="M15 246.83 C6.59 246.83 0 243.86 0 240.08 L0 234.08 C0 233.66 0.34 233.33 0.75 233.33 C1.16 233.33
									 1.5 233.66 1.5 234.08 L1.5 240.08 C1.5 243.17 8.61 245.33 15 245.33 C21.39 245.33 28.5 243.17
									 28.5 240.08 L28.5 234.08 C28.5 233.66 28.84 233.33 29.25 233.33 C29.66 233.33 30 233.66 30 234.08
									 L30 240.08 C30 243.86 23.41 246.83 15 246.83 Z" class="st9"/>
					</g>
					<g id="shape93-44" v:mID="93" v:groupContext="shape" transform="translate(0,-6.75)">
						<title>Sheet.93</title>
						<path d="M15 246.83 C6.59 246.83 0 243.86 0 240.08 L0 233.33 C0 232.91 0.34 232.58 0.75 232.58 C1.16 232.58
									 1.5 232.91 1.5 233.33 L1.5 240.08 C1.5 243.17 8.61 245.33 15 245.33 C21.39 245.33 28.5 243.17
									 28.5 240.08 L28.5 233.33 C28.5 232.91 28.84 232.58 29.25 232.58 C29.66 232.58 30 232.91 30 233.33
									 L30 240.08 C30 243.86 23.41 246.83 15 246.83 Z" class="st9"/>
					</g>
					<g id="shape94-46" v:mID="94" v:groupContext="shape">
						<title>Sheet.94</title>
						<path d="M15 246.83 C6.59 246.83 0 243.86 0 240.08 L0 233.33 C0 232.91 0.34 232.58 0.75 232.58 C1.16 232.58
									 1.5 232.91 1.5 233.33 L1.5 240.08 C1.5 243.17 8.61 245.33 15 245.33 C21.39 245.33 28.5 243.17
									 28.5 240.08 L28.5 233.33 C28.5 232.91 28.84 232.58 29.25 232.58 C29.66 232.58 30 232.91 30 233.33
									 L30 240.08 C30 243.86 23.41 246.83 15 246.83 Z" class="st9"/>
					</g>
				</g>
			</g>
			<g id="group101-48" transform="translate(7.47223,-37.8353)" v:mID="101" v:groupContext="group">
				<title>Sheet.101</title>
				<g id="shape102-49" v:mID="102" v:groupContext="shape" transform="translate(0.12641,-0.125811)">
					<title>Sheet.102</title>
					<ellipse cx="10.8243" cy="236.004" rx="10.8243" ry="10.8243" class="st10"/>
				</g>
				<g id="shape103-51" v:mID="103" v:groupContext="shape">
					<title>Sheet.103</title>
					<path d="M10.82 225.18 C4.85 225.18 0 230.03 0 236 C0 241.98 4.85 246.83 10.82 246.83 C16.8 246.83 21.65 241.98
								 21.65 236 C21.65 230.03 16.8 225.18 10.82 225.18 ZM10.82 245.57 C5.54 245.57 1.26 241.29 1.26 236
								 C1.26 230.72 5.54 226.44 10.82 226.44 C16.11 226.44 20.39 230.72 20.39 236 C20.39 241.29 16.11 245.57
								 10.82 245.57 Z" class="st9"/>
				</g>
				<g id="shape104-53" v:mID="104" v:groupContext="shape" transform="translate(2.39131,-2.39131)">
					<title>Sheet.104</title>
					<path d="M8.56 238.52 C7.68 240.92 10.39 241.58 11.58 240.32 C11.06 239.28 9.57 238.83 8.56 238.52 ZM8.43 229.96
								 C3.78 229.96 0 233.74 0 238.4 C0 243.05 3.78 246.83 8.43 246.83 C13.09 246.83 16.87 243.05 16.87
								 238.4 C16.87 233.74 13.09 229.96 8.43 229.96 ZM12.66 242.33 C10.64 242.47 8.43 242.66 6.21 242.72
								 C6.14 242.28 6.19 241.83 6.25 241.39 C6.68 239.75 7.4 237.41 7.7 235.79 C5.66 235.39 3.29 236.58
								 3.17 234.14 C5.06 233.56 8 233.85 10 233.92 C9.57 235.04 8.77 236.31 8.56 237.87 C10.5 237.76 12.69
								 238.25 13.59 239.6 C13.63 240.82 12.81 241.55 12.66 242.33 Z" class="st9"/>
				</g>
			</g>
			<g id="shape150-55" v:mID="150" v:groupContext="shape" transform="translate(-12.7559,0)">
				<title>Sheet.150</title>
				<desc>.perun/jobs</desc>
				<v:textBlock v:margins="rect(4,4,4,4)" v:tabSpace="42.5197"/>
				<v:textRect cx="31.1811" cy="236.829" width="62.37" height="20"/>
				<rect x="0" y="226.829" width="62.3622" height="20" class="st5"/>
				<text x="13.32" y="238.63" class="st6" v:langID="1033"><v:paragraph v:horizAlign="1"/><v:tabList/>.perun/jobs</text>			</g>
		</g>
		<g id="shape222-58" v:mID="222" v:groupContext="shape" v:layerMember="1" transform="translate(141.732,-134.025)">
			<title>Dynamic connector</title>
			<path d="M0 239.74 L34.48 239.74" class="st11"/>
		</g>
		<g id="shape223-64" v:mID="223" v:groupContext="shape" v:layerMember="1" transform="translate(141.732,-65.2844)">
			<title>Dynamic connector.223</title>
			<path d="M0 239.74 L34.48 239.74" class="st11"/>
		</g>
		<g id="shape224-69" v:mID="224" v:groupContext="shape" v:layerMember="1" transform="translate(197.961,-134.025)">
			<title>Dynamic connector.224</title>
			<path d="M0 239.74 L7.97 239.74" class="st11"/>
		</g>
		<g id="shape225-74" v:mID="225" v:groupContext="shape" v:layerMember="1" transform="translate(197.961,-65.2844)">
			<title>Dynamic connector.225</title>
			<path d="M0 239.74 L7.97 239.74" class="st11"/>
		</g>
		<g id="shape228-79" v:mID="228" v:groupContext="shape" v:layerMember="1" transform="translate(283.001,-137.676)">
			<title>Dynamic connector.228</title>
			<path d="M0 246.83 L37.17 265.45" class="st11"/>
		</g>
		<g id="shape229-84" v:mID="229" v:groupContext="shape" v:layerMember="1" transform="translate(283.001,-76.0152)">
			<title>Dynamic connector.229</title>
			<path d="M0 246.83 L37.26 227.02" class="st11"/>
		</g>
		<g id="shape231-89" v:mID="231" v:groupContext="shape" transform="translate(227.528,-141.111)">
			<title>Sheet.231</title>
			<path d="M0 246.83 L33.72 246.83" class="st13"/>
		</g>
		<g id="shape232-94" v:mID="232" v:groupContext="shape" transform="translate(227.528,-72)">
			<title>Sheet.232</title>
			<path d="M0 246.83 L33.72 246.83" class="st13"/>
		</g>
		<g id="shape233-99" v:mID="233" v:groupContext="shape" transform="translate(184.252,-100.551)">
			<title>Sheet.233</title>
			<desc>. . .</desc>
			<v:textBlock v:margins="rect(4,4,4,4)" v:tabSpace="42.5197"/>
			<v:textRect cx="6.85474" cy="236.829" width="13.71" height="20"/>
			<rect x="0" y="226.829" width="13.7095" height="20" class="st5"/>
			<text x="4.99" y="224.23" class="st14" v:langID="1033"><v:paragraph v:horizAlign="1"/><v:tabList/>.<v:newlineChar/><tspan
						x="4.99" dy="1.2em" class="st4">.<v:newlineChar/></tspan><tspan x="4.99" dy="1.2em" class="st4">.</tspan></text>		</g>
		<g id="shape234-104" v:mID="234" v:groupContext="shape" transform="translate(213.354,-100.551)">
			<title>Sheet.234</title>
			<desc>. . .</desc>
			<v:textBlock v:margins="rect(4,4,4,4)" v:tabSpace="42.5197"/>
			<v:textRect cx="6.85474" cy="236.829" width="13.71" height="20"/>
			<rect x="0" y="226.829" width="13.7095" height="20" class="st5"/>
			<text x="4.99" y="224.23" class="st14" v:langID="1033"><v:paragraph v:horizAlign="1"/><v:tabList/>.<v:newlineChar/><tspan
						x="4.99" dy="1.2em" class="st4">.<v:newlineChar/></tspan><tspan x="4.99" dy="1.2em" class="st4">.</tspan></text>		</g>
		<g id="shape235-109" v:mID="235" v:groupContext="shape" transform="translate(269.48,-100.551)">
			<title>Sheet.235</title>
			<desc>. . .</desc>
			<v:textBlock v:margins="rect(4,4,4,4)" v:tabSpace="42.5197"/>
			<v:textRect cx="6.85474" cy="236.829" width="13.71" height="20"/>
			<rect x="0" y="226.829" width="13.7095" height="20" class="st5"/>
			<text x="4.99" y="224.23" class="st14" v:langID="1033"><v:paragraph v:horizAlign="1"/><v:tabList/>.<v:newlineChar/><tspan
						x="4.99" dy="1.2em" class="st4">.<v:newlineChar/></tspan><tspan x="4.99" dy="1.2em" class="st4">.</tspan></text>		</g>
		<g id="shape238-114" v:mID="238" v:groupContext="shape" transform="translate(161.111,-32.5197)">
			<title>Sheet.238</title>
			<desc>Collection</desc>
			<v:textBlock v:margins="rect(4,4,4,4)" v:tabSpace="42.5197"/>
			<v:textRect cx="30.2276" cy="236.829" width="60.46" height="20"/>
			<rect x="0" y="226.829" width="60.4552" height="20" class="st5"/>
			<text x="13.22" y="239.23" class="st15" v:langID="1033"><v:paragraph v:horizAlign="1"/><v:tabList/>Collection</text>		</g>
		<g id="shape239-117" v:mID="239" v:groupContext="shape" transform="translate(219.312,-32.5197)">
			<title>Sheet.239</title>
			<desc>Postprocessing</desc>
			<v:textBlock v:margins="rect(4,4,4,4)" v:tabSpace="42.5197"/>
			<v:textRect cx="30.2276" cy="236.829" width="60.46" height="20"/>
			<rect x="0" y="226.829" width="60.4552" height="20" class="st5"/>
			<text x="4.03" y="239.23" class="st15" v:langID="1033"><v:paragraph v:horizAlign="1"/><v:tabList/>Postprocessing</text>		</g>
		<g id="shape240-120" v:mID="240" v:groupContext="shape" transform="translate(150.7,-134.111)">
			<title>Sheet.240</title>
			<desc>bin</desc>
			<v:textBlock v:margins="rect(4,4,4,4)" v:tabSpace="42.5197"/>
			<v:textRect cx="9.92126" cy="239.829" width="19.85" height="14"/>
			<rect x="0" y="232.829" width="19.8425" height="14" class="st16"/>
			<text x="4.16" y="242.53" class="st17" v:langID="1033"><v:paragraph v:horizAlign="1"/><v:tabList/>bin</text>		</g>
		<g id="shape241-123" v:mID="241" v:groupContext="shape" transform="translate(150.7,-65.6444)">
			<title>Sheet.241</title>
			<desc>bin</desc>
			<v:textBlock v:margins="rect(4,4,4,4)" v:tabSpace="42.5197"/>
			<v:textRect cx="9.92126" cy="239.829" width="19.85" height="14"/>
			<rect x="0" y="232.829" width="19.8425" height="14" class="st16"/>
			<text x="4.16" y="242.53" class="st17" v:langID="1033"><v:paragraph v:horizAlign="1"/><v:tabList/>bin</text>		</g>
		<g id="shape242-126" v:mID="242" v:groupContext="shape" transform="translate(154.041,-100.551)">
			<title>Sheet.242</title>
			<desc>. . .</desc>
			<v:textBlock v:margins="rect(4,4,4,4)" v:tabSpace="42.5197"/>
			<v:textRect cx="6.85474" cy="236.829" width="13.71" height="20"/>
			<rect x="0" y="226.829" width="13.7095" height="20" class="st5"/>
			<text x="4.99" y="224.23" class="st14" v:langID="1033"><v:paragraph v:horizAlign="1"/><v:tabList/>.<v:newlineChar/><tspan
						x="4.99" dy="1.2em" class="st4">.<v:newlineChar/></tspan><tspan x="4.99" dy="1.2em" class="st4">.</tspan></text>		</g>
		<g id="group247-131" transform="translate(70.8661,-127.559)" v:mID="247" v:groupContext="group">
			<v:userDefs>
				<v:ud v:nameU="visVersion" v:val="VT0(15):26"/>
			</v:userDefs>
			<title>1-D single, open</title>
			<g id="shape248-132" v:mID="248" v:groupContext="shape">
				<title>Sheet.248</title>
				<path d="M-2.25 243.29 L38.98 243.29 L38.98 246.83 L42.52 239.74 L38.98 232.66 L38.98 236.2 L-2.25 236.2 L-2.25 243.29
							 Z" class="st18"/>
				<path d="M-2.25 243.29 L38.98 243.29 L38.98 246.83 L42.52 239.74 L38.98 232.66 L38.98 236.2 L-2.25 236.2"
						class="st19"/>
			</g>
			<g id="shape249-135" v:mID="249" v:groupContext="shape">
				<title>Sheet.249</title>
				<path d="M0 243.29 L38.98 243.29 L38.98 246.83 L42.52 239.74 L38.98 232.66 L38.98 236.2 L0 236.2" class="st20"/>
			</g>
			<g id="shape250-138" v:mID="250" v:groupContext="shape" transform="translate(-1.1752,-4.29331)">
				<title>Sheet.250</title>
				<rect x="0" y="241.242" width="1.5" height="5.58661" class="st16"/>
			</g>
		</g>
		<g id="group171-140" transform="translate(42.5197,-118.346)" v:mID="171" v:groupContext="group">
			<v:custProps>
				<v:cp v:nameU="AssetNumber" v:lbl="Asset Number" v:prompt="" v:type="0" v:format="" v:sortKey="Asset"
						v:invis="false" v:ask="false" v:langID="1033" v:cal="0"/>
				<v:cp v:nameU="SerialNumber" v:lbl="Serial Number" v:prompt="" v:type="0" v:format="" v:sortKey="Asset"
						v:invis="false" v:ask="false" v:langID="1033" v:cal="0"/>
				<v:cp v:nameU="Location" v:lbl="Location" v:prompt="" v:type="0" v:format="" v:sortKey="Asset" v:invis="false"
						v:ask="false" v:langID="1033" v:cal="0"/>
				<v:cp v:nameU="Building" v:lbl="Building" v:prompt="" v:type="0" v:format="" v:sortKey="Asset" v:invis="false"
						v:ask="false" v:langID="1033" v:cal="0"/>
				<v:cp v:nameU="Room" v:lbl="Room" v:prompt="" v:type="0" v:format="" v:sortKey="Asset" v:invis="false"
						v:ask="false" v:langID="1033" v:cal="0"/>
				<v:cp v:nameU="Manufacturer" v:lbl="Manufacturer" v:prompt="" v:type="0" v:format="" v:sortKey="Equipment"
						v:invis="false" v:ask="false" v:langID="1033" v:cal="0"/>
				<v:cp v:nameU="ProductNumber" v:lbl="Product Number" v:prompt="" v:type="0" v:format="" v:sortKey="Equipment"
						v:invis="false" v:ask="false" v:langID="1033" v:cal="0"/>
				<v:cp v:nameU="PartNumber" v:lbl="Part Number" v:prompt="" v:type="0" v:format="" v:sortKey="Equipment"
						v:invis="false" v:ask="false" v:langID="1033" v:cal="0"/>
				<v:cp v:nameU="ProductDescription" v:lbl="Product Description" v:prompt="" v:type="0" v:format=""
						v:sortKey="Equipment" v:invis="false" v:ask="false" v:langID="1033" v:cal="0"/>
				<v:cp v:nameU="NetworkName" v:lbl="Network Name" v:prompt="" v:type="0" v:format="" v:sortKey="Network"
						v:invis="false" v:ask="false" v:langID="1033" v:cal="0"/>
				<v:cp v:nameU="IPAddress" v:lbl="IP Address" v:prompt="" v:type="0" v:format="" v:sortKey="Network" v:invis="false"
						v:ask="false" v:langID="1033" v:cal="0"/>
				<v:cp v:nameU="SubnetMask" v:lbl="Subnet Mask" v:prompt="" v:type="0" v:format="" v:sortKey="Network"
						v:invis="false" v:ask="false" v:langID="1033" v:cal="0"/>
				<v:cp v:nameU="AdminInterface" v:lbl="Administrative Interface" v:prompt="" v:type="0" v:format=""
						v:sortKey="Network" v:invis="false" v:ask="false" v:langID="1033" v:cal="0"/>
				<v:cp v:nameU="NumberofPorts" v:lbl="Number of Ports" v:prompt="" v:type="0" v:format="" v:sortKey="Network"
						v:invis="false" v:ask="false" v:langID="1033" v:cal="0"/>
				<v:cp v:nameU="CommunityString" v:lbl="Community String" v:prompt="" v:type="0" v:format="" v:sortKey="Network"
						v:invis="false" v:ask="false" v:langID="1033" v:cal="0"/>
				<v:cp v:nameU="NetworkDescription" v:lbl="Network Description" v:prompt="" v:type="0" v:format=""
						v:sortKey="Network" v:invis="false" v:ask="false" v:langID="1033" v:cal="0"/>
				<v:cp v:nameU="MACAddress" v:lbl="MAC Address" v:prompt="" v:type="0" v:format="" v:sortKey="Network"
						v:invis="false" v:ask="false" v:langID="1033" v:cal="0"/>
				<v:cp v:nameU="CPU" v:lbl="CPU" v:prompt="" v:type="0" v:format="" v:sortKey="Workstation" v:invis="false"
						v:ask="false" v:langID="1033" v:cal="0"/>
				<v:cp v:nameU="Memory" v:lbl="Memory" v:prompt="" v:type="0" v:format="" v:sortKey="Workstation" v:invis="false"
						v:ask="false" v:langID="1033" v:cal="0"/>
				<v:cp v:nameU="OperatingSystem" v:lbl="Operating System" v:prompt="" v:type="0" v:format="" v:sortKey="Workstation"
						v:invis="false" v:ask="false" v:langID="1033" v:cal="0"/>
				<v:cp v:nameU="HardDriveSize" v:lbl="Hard Drive Capacity" v:prompt="" v:type="0" v:format=""
						v:sortKey="Workstation" v:invis="false" v:ask="false" v:langID="1033" v:cal="0"/>
				<v:cp v:nameU="ShapeClass" v:lbl="ShapeClass" v:prompt="" v:type="0" v:format="" v:sortKey="" v:invis="true"
						v:ask="false" v:langID="1033" v:cal="0" v:val="VT4(Equipment)"/>
				<v:cp v:nameU="ShapeType" v:lbl="ShapeType" v:prompt="" v:type="0" v:format="" v:sortKey="" v:invis="true"
						v:ask="false" v:langID="1033" v:cal="0" v:val="VT4(Peripheral)"/>
				<v:cp v:nameU="SubShapeType" v:lbl="SubShapeType" v:prompt="" v:type="0" v:format="" v:sortKey="" v:invis="true"
						v:ask="false" v:langID="1033" v:cal="0" v:val="VT4(Monitor)"/>
			</v:custProps>
			<v:userDefs>
				<v:ud v:nameU="visVersion" v:prompt="" v:val="VT0(15):26"/>
				<v:ud v:nameU="ShapeClass" v:prompt="" v:val="VT0(5):26"/>
				<v:ud v:nameU="SolSH" v:prompt="" v:val="VT15({BF0433D9-CD73-4EB5-8390-8653BE590246}):41"/>
				<v:ud v:nameU="visLegendShape" v:prompt="" v:val="VT0(2):26"/>
			</v:userDefs>
			<title>CRT Monitor</title>
			<desc>GUI</desc>
			<g id="shape172-141" v:mID="172" v:groupContext="shape" transform="translate(0,-0.858331)">
				<title>Sheet.172</title>
				<path d="M8.24 242.78 C7.1 243.24 6.45 243.8 6.45 244.34 C6.45 245.51 9.62 246.83 14.17 246.83 C18.73 246.83 21.9
							 245.52 21.9 244.34 C21.9 243.8 21.24 243.24 20.1 242.78 L8.24 242.78 ZM0 242.78 L28.35 242.78 L28.35
							 220.2 L0.01 220.2 L0 242.78 Z" class="st21"/>
			</g>
			<g id="shape173-143" v:mID="173" v:groupContext="shape" transform="translate(2.89446,-8.83871)">
				<title>Sheet.173</title>
				<path d="M11.28 231.71 C15 231.71 18.54 232.01 21.82 232.59 L21.82 245.21 C18.58 245.79 14.95 246.09 11.28 246.09
							 C7.61 246.09 3.98 245.79 0.74 245.21 L0.74 232.59 C3.98 232.02 7.61 231.71 11.28 231.71 ZM11.28 230.97
							 C7.19 230.97 3.35 231.34 0 231.98 L0 245.82 C3.35 246.46 7.19 246.83 11.28 246.83 C15.36 246.83 19.21
							 246.46 22.56 245.82 L22.56 231.98 C19.2 231.34 15.47 230.97 11.28 230.97 Z" class="st21"/>
			</g>
			<g id="shape174-145" v:mID="174" v:groupContext="shape" transform="translate(2.89446,-8.83871)">
				<title>Sheet.174</title>
				<v:userDefs>
					<v:ud v:nameU="SurroundingRegionColor" v:prompt="" v:val="VT5(1)"/>
					<v:ud v:nameU="SurroundingRegionColor" v:prompt="" v:val="VT5(#ffffff)"/>
				</v:userDefs>
				<path d="M0 245.82 C3.35 246.46 7.19 246.83 11.28 246.83 C15.36 246.83 19.21 246.46 22.56 245.82 L22.56 231.98 C19.2
							 231.34 15.47 230.97 11.28 230.97 C7.19 230.97 3.35 231.34 0 231.98 L0 245.82 Z" class="st21"/>
			</g>
			<g id="shape175-147" v:mID="175" v:groupContext="shape" transform="translate(20.8239,-6.60954)">
				<title>Sheet.175</title>
				<v:userDefs>
					<v:ud v:nameU="SurroundingRegionColor" v:prompt="" v:val="VT5(1)"/>
					<v:ud v:nameU="SurroundingRegionColor" v:prompt="" v:val="VT5(#ffffff)"/>
				</v:userDefs>
				<path d="M3.81 245.82 A1.01055 1.01055 -180 1 0 1.79 245.82 A1.01055 1.01055 -180 1 0 3.81 245.82 ZM1.19 245.82 a0.596976
							 0.596976 -180 1 0 -1.19395 0 a0.596976 0.596976 -180 1 0 1.19395 0 Z" class="st22"/>
			</g>
			<g id="shape171-150" v:mID="171" v:groupContext="groupContent">
				<v:textBlock v:margins="rect(4,4,4,4)" v:tabSpace="42.5197"/>
				<v:textRect cx="13.6056" cy="229.821" width="29.01" height="22.4037"/>
				<text x="4.46" y="233.42" class="st3" v:langID="1033"><v:paragraph v:horizAlign="1"/><v:tabList/>GUI</text>			</g>
		</g>
		<g id="group252-152" transform="translate(70.8661,-74.9689)" v:mID="252" v:groupContext="group">
			<v:userDefs>
				<v:ud v:nameU="visVersion" v:val="VT0(15):26"/>
			</v:userDefs>
			<title>1-D single, open.252</title>
			<g id="shape253-153" v:mID="253" v:groupContext="shape">
				<title>Sheet.253</title>
				<path d="M-2.25 243.29 L38.98 243.29 L38.98 246.83 L42.52 239.74 L38.98 232.66 L38.98 236.2 L-2.25 236.2 L-2.25 243.29
							 Z" class="st18"/>
				<path d="M-2.25 243.29 L38.98 243.29 L38.98 246.83 L42.52 239.74 L38.98 232.66 L38.98 236.2 L-2.25 236.2"
						class="st19"/>
			</g>
			<g id="shape254-156" v:mID="254" v:groupContext="shape">
				<title>Sheet.254</title>
				<path d="M0 243.29 L38.98 243.29 L38.98 246.83 L42.52 239.74 L38.98 232.66 L38.98 236.2 L0 236.2" class="st20"/>
			</g>
			<g id="shape255-159" v:mID="255" v:groupContext="shape" transform="translate(-1.1752,-4.29331)">
				<title>Sheet.255</title>
				<rect x="0" y="241.242" width="1.5" height="5.58661" class="st16"/>
			</g>
		</g>
		<g id="group180-161" transform="translate(42.5197,-65.9055)" v:mID="180" v:groupContext="group">
			<v:custProps>
				<v:cp v:nameU="AssetNumber" v:lbl="Asset Number" v:prompt="" v:type="0" v:format="" v:sortKey="Asset"
						v:invis="false" v:ask="false" v:langID="1033" v:cal="0"/>
				<v:cp v:nameU="SerialNumber" v:lbl="Serial Number" v:prompt="" v:type="0" v:format="" v:sortKey="Asset"
						v:invis="false" v:ask="false" v:langID="1033" v:cal="0"/>
				<v:cp v:nameU="Location" v:lbl="Location" v:prompt="" v:type="0" v:format="" v:sortKey="Asset" v:invis="false"
						v:ask="false" v:langID="1033" v:cal="0"/>
				<v:cp v:nameU="Building" v:lbl="Building" v:prompt="" v:type="0" v:format="" v:sortKey="Asset" v:invis="false"
						v:ask="false" v:langID="1033" v:cal="0"/>
				<v:cp v:nameU="Room" v:lbl="Room" v:prompt="" v:type="0" v:format="" v:sortKey="Asset" v:invis="false"
						v:ask="false" v:langID="1033" v:cal="0"/>
				<v:cp v:nameU="Manufacturer" v:lbl="Manufacturer" v:prompt="" v:type="0" v:format="" v:sortKey="Equipment"
						v:invis="false" v:ask="false" v:langID="1033" v:cal="0"/>
				<v:cp v:nameU="ProductNumber" v:lbl="Product Number" v:prompt="" v:type="0" v:format="" v:sortKey="Equipment"
						v:invis="false" v:ask="false" v:langID="1033" v:cal="0"/>
				<v:cp v:nameU="PartNumber" v:lbl="Part Number" v:prompt="" v:type="0" v:format="" v:sortKey="Equipment"
						v:invis="false" v:ask="false" v:langID="1033" v:cal="0"/>
				<v:cp v:nameU="ProductDescription" v:lbl="Product Description" v:prompt="" v:type="0" v:format=""
						v:sortKey="Equipment" v:invis="false" v:ask="false" v:langID="1033" v:cal="0"/>
				<v:cp v:nameU="NetworkName" v:lbl="Network Name" v:prompt="" v:type="0" v:format="" v:sortKey="Network"
						v:invis="false" v:ask="false" v:langID="1033" v:cal="0"/>
				<v:cp v:nameU="IPAddress" v:lbl="IP Address" v:prompt="" v:type="0" v:format="" v:sortKey="Network" v:invis="false"
						v:ask="false" v:langID="1033" v:cal="0"/>
				<v:cp v:nameU="SubnetMask" v:lbl="Subnet Mask" v:prompt="" v:type="0" v:format="" v:sortKey="Network"
						v:invis="false" v:ask="false" v:langID="1033" v:cal="0"/>
				<v:cp v:nameU="AdminInterface" v:lbl="Administrative Interface" v:prompt="" v:type="0" v:format=""
						v:sortKey="Network" v:invis="false" v:ask="false" v:langID="1033" v:cal="0"/>
				<v:cp v:nameU="NumberofPorts" v:lbl="Number of Ports" v:prompt="" v:type="0" v:format="" v:sortKey="Network"
						v:invis="false" v:ask="false" v:langID="1033" v:cal="0"/>
				<v:cp v:nameU="CommunityString" v:lbl="Community String" v:prompt="" v:type="0" v:format="" v:sortKey="Network"
						v:invis="false" v:ask="false" v:langID="1033" v:cal="0"/>
				<v:cp v:nameU="NetworkDescription" v:lbl="Network Description" v:prompt="" v:type="0" v:format=""
						v:sortKey="Network" v:invis="false" v:ask="false" v:langID="1033" v:cal="0"/>
				<v:cp v:nameU="MACAddress" v:lbl="MAC Address" v:prompt="" v:type="0" v:format="" v:sortKey="Network"
						v:invis="false" v:ask="false" v:langID="1033" v:cal="0"/>
				<v:cp v:nameU="CPU" v:lbl="CPU" v:prompt="" v:type="0" v:format="" v:sortKey="Workstation" v:invis="false"
						v:ask="false" v:langID="1033" v:cal="0"/>
				<v:cp v:nameU="Memory" v:lbl="Memory" v:prompt="" v:type="0" v:format="" v:sortKey="Workstation" v:invis="false"
						v:ask="false" v:langID="1033" v:cal="0"/>
				<v:cp v:nameU="OperatingSystem" v:lbl="Operating System" v:prompt="" v:type="0" v:format="" v:sortKey="Workstation"
						v:invis="false" v:ask="false" v:langID="1033" v:cal="0"/>
				<v:cp v:nameU="HardDriveSize" v:lbl="Hard Drive Capacity" v:prompt="" v:type="0" v:format=""
						v:sortKey="Workstation" v:invis="false" v:ask="false" v:langID="1033" v:cal="0"/>
				<v:cp v:nameU="ShapeClass" v:lbl="ShapeClass" v:prompt="" v:type="0" v:format="" v:sortKey="" v:invis="true"
						v:ask="false" v:langID="1033" v:cal="0" v:val="VT4(Equipment)"/>
				<v:cp v:nameU="ShapeType" v:lbl="ShapeType" v:prompt="" v:type="0" v:format="" v:sortKey="" v:invis="true"
						v:ask="false" v:langID="1033" v:cal="0" v:val="VT4(Peripheral)"/>
				<v:cp v:nameU="SubShapeType" v:lbl="SubShapeType" v:prompt="" v:type="0" v:format="" v:sortKey="" v:invis="true"
						v:ask="false" v:langID="1033" v:cal="0" v:val="VT4(Monitor)"/>
			</v:custProps>
			<v:userDefs>
				<v:ud v:nameU="visVersion" v:prompt="" v:val="VT0(15):26"/>
				<v:ud v:nameU="ShapeClass" v:prompt="" v:val="VT0(5):26"/>
				<v:ud v:nameU="SolSH" v:prompt="" v:val="VT15({BF0433D9-CD73-4EB5-8390-8653BE590246}):41"/>
				<v:ud v:nameU="visLegendShape" v:prompt="" v:val="VT0(2):26"/>
			</v:userDefs>
			<title>CRT Monitor.180</title>
			<desc>CLI</desc>
			<g id="shape181-162" v:mID="181" v:groupContext="shape" transform="translate(0,-0.858331)">
				<title>Sheet.181</title>
				<path d="M8.24 242.78 C7.1 243.24 6.45 243.8 6.45 244.34 C6.45 245.51 9.62 246.83 14.17 246.83 C18.73 246.83 21.9
							 245.52 21.9 244.34 C21.9 243.8 21.24 243.24 20.1 242.78 L8.24 242.78 ZM0 242.78 L28.35 242.78 L28.35
							 220.2 L0.01 220.2 L0 242.78 Z" class="st21"/>
			</g>
			<g id="shape182-164" v:mID="182" v:groupContext="shape" transform="translate(2.89446,-8.83871)">
				<title>Sheet.182</title>
				<path d="M11.28 231.71 C15 231.71 18.54 232.01 21.82 232.59 L21.82 245.21 C18.58 245.79 14.95 246.09 11.28 246.09
							 C7.61 246.09 3.98 245.79 0.74 245.21 L0.74 232.59 C3.98 232.02 7.61 231.71 11.28 231.71 ZM11.28 230.97
							 C7.19 230.97 3.35 231.34 0 231.98 L0 245.82 C3.35 246.46 7.19 246.83 11.28 246.83 C15.36 246.83 19.21
							 246.46 22.56 245.82 L22.56 231.98 C19.2 231.34 15.47 230.97 11.28 230.97 Z" class="st21"/>
			</g>
			<g id="shape183-166" v:mID="183" v:groupContext="shape" transform="translate(2.89446,-8.83871)">
				<title>Sheet.183</title>
				<v:userDefs>
					<v:ud v:nameU="SurroundingRegionColor" v:prompt="" v:val="VT5(1)"/>
					<v:ud v:nameU="SurroundingRegionColor" v:prompt="" v:val="VT5(#ffffff)"/>
				</v:userDefs>
				<path d="M0 245.82 C3.35 246.46 7.19 246.83 11.28 246.83 C15.36 246.83 19.21 246.46 22.56 245.82 L22.56 231.98 C19.2
							 231.34 15.47 230.97 11.28 230.97 C7.19 230.97 3.35 231.34 0 231.98 L0 245.82 Z" class="st21"/>
			</g>
			<g id="shape184-168" v:mID="184" v:groupContext="shape" transform="translate(20.8239,-6.60954)">
				<title>Sheet.184</title>
				<v:userDefs>
					<v:ud v:nameU="SurroundingRegionColor" v:prompt="" v:val="VT5(1)"/>
					<v:ud v:nameU="SurroundingRegionColor" v:prompt="" v:val="VT5(#ffffff)"/>
				</v:userDefs>
				<path d="M3.81 245.82 A1.01055 1.01055 -180 1 0 1.79 245.82 A1.01055 1.01055 -180 1 0 3.81 245.82 ZM1.19 245.82 a0.596976
							 0.596976 -180 1 0 -1.19395 0 a0.596976 0.596976 -180 1 0 1.19395 0 Z" class="st22"/>
			</g>
			<g id="shape180-171" v:mID="180" v:groupContext="groupContent">
				<v:textBlock v:margins="rect(4,4,4,4)" v:tabSpace="42.5197"/>
				<v:textRect cx="13.6056" cy="229.821" width="25.19" height="22.4037"/>
				<text x="6.37" y="233.42" class="st3" v:langID="1033"><v:paragraph v:horizAlign="1"/><v:tabList/>CLI</text>			</g>
		</g>
		<g id="group256-173" transform="translate(367.301,69.6634) rotate(90)" v:mID="256" v:groupContext="group">
			<v:userDefs>
				<v:ud v:nameU="visVersion" v:val="VT0(15):26"/>
			</v:userDefs>
			<title>1-D single, open.256</title>
			<g id="shape257-174" v:mID="257" v:groupContext="shape">
				<title>Sheet.257</title>
				<path d="M-2.25 243.29 L26.93 243.29 L26.93 246.83 L30.47 239.74 L26.93 232.66 L26.93 236.2 L-2.25 236.2 L-2.25 243.29
							 Z" class="st18"/>
				<path d="M-2.25 243.29 L26.93 243.29 L26.93 246.83 L30.47 239.74 L26.93 232.66 L26.93 236.2 L-2.25 236.2"
						class="st19"/>
			</g>
			<g id="shape258-177" v:mID="258" v:groupContext="shape">
				<title>Sheet.258</title>
				<path d="M0 243.29 L26.93 243.29 L26.93 246.83 L30.47 239.74 L26.93 232.66 L26.93 236.2 L0 236.2" class="st20"/>
			</g>
			<g id="shape259-180" v:mID="259" v:groupContext="shape" transform="translate(-1.05472,-4.29331)">
				<title>Sheet.259</title>
				<rect x="0" y="241.242" width="1.5" height="5.58661" class="st16"/>
			</g>
		</g>
		<g id="shape211-182" v:mID="211" v:groupContext="shape" transform="translate(113.386,-177.165)">
			<title>Sheet.211</title>
			<desc>cmd: - bin collectors: - c1 - ... - cm postprocessors: - p1 -...</desc>
			<v:textBlock v:margins="rect(4,4,4,4)" v:tabSpace="42.5197" v:verticalAlign="0"/>
			<v:textRect cx="14.1732" cy="224.382" width="28.35" height="44.8927"/>
			<rect x="0" y="201.936" width="28.3465" height="44.8927" class="st2"/>
			<text x="4" y="208.64" class="st23" v:langID="1033"><v:paragraph/><v:tabList/>cmd:<v:newlineChar/><tspan x="4"
						dy="1.2em" class="st4">  </tspan>- bin<v:newlineChar/><tspan x="4" dy="1.2em" class="st4">collectors:<v:newlineChar/></tspan><tspan
						x="4" dy="1.2em" class="st4">  </tspan>- c1<v:newlineChar/><tspan x="4" dy="1.2em" class="st4">  </tspan>- ...<v:newlineChar/><tspan
						x="4" dy="1.2em" class="st4">  </tspan>- cm <tspan x="4" dy="1.2em" class="st4"> </tspan><tspan x="4"
						dy="1.2em" class="st4">postprocessors:<v:newlineChar/></tspan><tspan x="4" dy="1.2em" class="st4">  </tspan>- p1<v:newlineChar/><tspan
						x="4" dy="1.2em" class="st4">  </tspan>- ...<v:newlineChar/><tspan x="4" dy="1.2em" class="st4">  </tspan>- pn</text>		</g>
	</g>
</svg>
