<?xml version="1.0" encoding="UTF-8" standalone="no"?>
<!DOCTYPE svg PUBLIC "-//W3C//DTD SVG 1.1//EN"
"http://www.w3.org/Graphics/SVG/1.1/DTD/svg11.dtd">


<!-- Page 1 -->
<svg x="0" y="0" width="643" height="376" viewBox="0 0 643 376" version="1.1" xmlns="http://www.w3.org/2000/svg" xmlns:xlink="http://www.w3.org/1999/xlink"
style="display: block;margin-left: auto;margin-right: auto;">
<defs>
<clipPath id="c0_1"><path d="M0,377L0,0L644,0l0,377Z" /></clipPath>
<clipPath id="c1_1"><path d="M0,377L0,0L644,0l0,377L0,377Z" /></clipPath>
<clipPath id="c2_1"><path d="M644,377L0,377L0,0L644,0l0,377Z" /></clipPath>

<style type="text/css"><![CDATA[

.g1_1{
}
.g2_1{
fill: #FFFFFF;
}
.g3_1{
fill: #100F0D;
}
.g4_1{
fill: none;
stroke: #000000;
stroke-width: 2.2916667;
stroke-linecap: round;
stroke-linejoin: round;
}
.g5_1{
fill: none;
stroke: #000000;
stroke-width: 1.9097222;
stroke-linecap: round;
stroke-linejoin: round;
stroke-dasharray: 14,10;
}
.g6_1{
fill: none;
stroke: #000000;
stroke-width: 3.4375;
stroke-linecap: round;
stroke-linejoin: round;
}
.g7_1{
fill: none;
stroke: #000000;
stroke-width: 1.1458334;
stroke-linecap: round;
stroke-linejoin: round;
}

.s1_1{
font-size: 12.64px;
font-family: Tahoma-Bold_7;
fill: TRANSPARENT;
}
.s2_1{
font-size: 9.20px;
font-family: Tahoma-Bold_7;
fill: TRANSPARENT;
}
.s3_1{
font-size: 18.37px;
font-family: Tahoma-Bold_7;
fill: TRANSPARENT;
}
.s4_1{
font-size: 9.17px;
font-family: Tahoma-Bold_7;
fill: TRANSPARENT;
}
.s5_1{
font-size: 14.93px;
font-family: Tahoma-Bold_7;
fill: TRANSPARENT;
}
text::-moz-selection {
	color: transparent;
	background: rgba(0, 106, 173, 0.4);
}
text::selection {
	color: transparent;
	background: rgba(0, 106, 173, 0.4);
}

]]></style>

</defs>
<path d="M0,0
L0,376
L643,376
L643,0 Z " 
fill="#FFFFFF" stroke="none" />
<path fill-rule="evenodd" d="M231.1,106c-12.8,0,-22.9,-4.5,-22.9,-10.3c0,-5.8,10.1,-10.3,22.9,-10.3c12.9,0,23,4.5,23,10.3c0,5.8,-10.1,10.3,-23,10.3Zm0,-18.3c-9.7,0,-20.6,3.3,-20.6,8c0,4.7,10.9,8,20.6,8c9.8,0,20.7,-3.3,20.7,-8c0,-4.7,-10.9,-8,-20.7,-8Z" class="g1_1" />
<path fill-rule="evenodd" d="M231.1,115.2c-12.8,0,-22.9,-4.5,-22.9,-10.3l0,-9.2c0,-0.6,0.5,-1.1,1.2,-1.1c0.6,0,1.1,0.5,1.1,1.1l0,9.2c0,4.7,10.9,8,20.6,8c9.8,0,20.7,-3.3,20.7,-8l0,-9.2c0,-0.6,0.5,-1.1,1.1,-1.1c0.6,0,1.2,0.5,1.2,1.1l0,9.2c0,5.8,-10.1,10.3,-23,10.3Z" class="g1_1" />
<path fill-rule="evenodd" d="M231.1,125.5c-12.8,0,-22.9,-4.5,-22.9,-10.3l0,-10.3c0,-0.7,0.5,-1.2,1.2,-1.2c0.6,0,1.1,0.5,1.1,1.2l0,10.3c0,4.7,10.9,8,20.6,8c9.8,0,20.7,-3.3,20.7,-8l0,-10.3c0,-0.7,0.5,-1.2,1.1,-1.2c0.6,0,1.2,0.5,1.2,1.2l0,10.3c0,5.8,-10.1,10.3,-23,10.3Z" class="g1_1" />
<path fill-rule="evenodd" d="M231.1,135.8c-12.8,0,-22.9,-4.5,-22.9,-10.3l0,-10.3c0,-0.6,0.5,-1.2,1.2,-1.2c0.6,0,1.1,0.6,1.1,1.2l0,10.3c0,4.7,10.9,8,20.6,8c9.8,0,20.7,-3.3,20.7,-8l0,-10.3c0,-0.6,0.5,-1.2,1.1,-1.2c0.6,0,1.2,0.6,1.2,1.2l0,10.3c0,5.8,-10.1,10.3,-23,10.3Z" class="g1_1" />
<path fill-rule="evenodd" d="M231.1,106c-12.8,0,-22.9,-4.5,-22.9,-10.3c0,-5.8,10.1,-10.3,22.9,-10.3c12.9,0,23,4.5,23,10.3c0,5.8,-10.1,10.3,-23,10.3Zm0,-18.3c-9.7,0,-20.6,3.3,-20.6,8c0,4.7,10.9,8,20.6,8c9.8,0,20.7,-3.3,20.7,-8c0,-4.7,-10.9,-8,-20.7,-8Z" class="g1_1" />
<path fill-rule="evenodd" d="M231.1,115.2c-12.8,0,-22.9,-4.5,-22.9,-10.3l0,-9.2c0,-0.6,0.5,-1.1,1.2,-1.1c0.6,0,1.1,0.5,1.1,1.1l0,9.2c0,4.7,10.9,8,20.6,8c9.8,0,20.7,-3.3,20.7,-8l0,-9.2c0,-0.6,0.5,-1.1,1.1,-1.1c0.6,0,1.2,0.5,1.2,1.1l0,9.2c0,5.8,-10.1,10.3,-23,10.3Z" class="g1_1" />
<path fill-rule="evenodd" d="M231.1,125.5c-12.8,0,-22.9,-4.5,-22.9,-10.3l0,-10.3c0,-0.7,0.5,-1.2,1.2,-1.2c0.6,0,1.1,0.5,1.1,1.2l0,10.3c0,4.7,10.9,8,20.6,8c9.8,0,20.7,-3.3,20.7,-8l0,-10.3c0,-0.7,0.5,-1.2,1.1,-1.2c0.6,0,1.2,0.5,1.2,1.2l0,10.3c0,5.8,-10.1,10.3,-23,10.3Z" class="g1_1" />
<path fill-rule="evenodd" d="M231.1,135.8c-12.8,0,-22.9,-4.5,-22.9,-10.3l0,-10.3c0,-0.6,0.5,-1.2,1.2,-1.2c0.6,0,1.1,0.6,1.1,1.2l0,10.3c0,4.7,10.9,8,20.6,8c9.8,0,20.7,-3.3,20.7,-8l0,-10.3c0,-0.6,0.5,-1.2,1.1,-1.2c0.6,0,1.2,0.6,1.2,1.2l0,10.3c0,5.8,-10.1,10.3,-23,10.3Z" class="g1_1" />
<path fill-rule="evenodd" d="M231.1,106c-12.8,0,-22.9,-4.5,-22.9,-10.3c0,-5.8,10.1,-10.3,22.9,-10.3c12.9,0,23,4.5,23,10.3c0,5.8,-10.1,10.3,-23,10.3Zm0,-18.3c-9.7,0,-20.6,3.3,-20.6,8c0,4.7,10.9,8,20.6,8c9.8,0,20.7,-3.3,20.7,-8c0,-4.7,-10.9,-8,-20.7,-8Z" class="g1_1" />
<path fill-rule="evenodd" d="M231.1,115.2c-12.8,0,-22.9,-4.5,-22.9,-10.3l0,-9.2c0,-0.6,0.5,-1.1,1.2,-1.1c0.6,0,1.1,0.5,1.1,1.1l0,9.2c0,4.7,10.9,8,20.6,8c9.8,0,20.7,-3.3,20.7,-8l0,-9.2c0,-0.6,0.5,-1.1,1.1,-1.1c0.6,0,1.2,0.5,1.2,1.1l0,9.2c0,5.8,-10.1,10.3,-23,10.3Z" class="g1_1" />
<path fill-rule="evenodd" d="M231.1,125.5c-12.8,0,-22.9,-4.5,-22.9,-10.3l0,-10.3c0,-0.7,0.5,-1.2,1.2,-1.2c0.6,0,1.1,0.5,1.1,1.2l0,10.3c0,4.7,10.9,8,20.6,8c9.8,0,20.7,-3.3,20.7,-8l0,-10.3c0,-0.7,0.5,-1.2,1.1,-1.2c0.6,0,1.2,0.5,1.2,1.2l0,10.3c0,5.8,-10.1,10.3,-23,10.3Z" class="g1_1" />
<path fill-rule="evenodd" d="M231.1,135.8c-12.8,0,-22.9,-4.5,-22.9,-10.3l0,-10.3c0,-0.6,0.5,-1.2,1.2,-1.2c0.6,0,1.1,0.6,1.1,1.2l0,10.3c0,4.7,10.9,8,20.6,8c9.8,0,20.7,-3.3,20.7,-8l0,-10.3c0,-0.6,0.5,-1.2,1.1,-1.2c0.6,0,1.2,0.6,1.2,1.2l0,10.3c0,5.8,-10.1,10.3,-23,10.3Z" class="g1_1" />
<path fill-rule="evenodd" d="M275.7,106c-12.8,0,-22.9,-4.5,-22.9,-10.3c0,-5.8,10.1,-10.3,22.9,-10.3c12.9,0,22.9,4.5,22.9,10.3c0,5.8,-10,10.3,-22.9,10.3Zm0,-18.3c-9.8,0,-20.6,3.3,-20.6,8c0,4.7,10.8,8,20.6,8c9.8,0,20.6,-3.3,20.6,-8c0,-4.7,-10.8,-8,-20.6,-8Z" class="g1_1" />
<path fill-rule="evenodd" d="M275.7,115.2c-12.8,0,-22.9,-4.5,-22.9,-10.3l0,-9.2c0,-0.6,0.5,-1.1,1.1,-1.1c0.7,0,1.2,0.5,1.2,1.1l0,9.2c0,4.7,10.8,8,20.6,8c9.8,0,20.6,-3.3,20.6,-8l0,-9.2c0,-0.6,0.5,-1.1,1.2,-1.1c0.6,0,1.1,0.5,1.1,1.1l0,9.2c0,5.8,-10,10.3,-22.9,10.3Z" class="g1_1" />
<path fill-rule="evenodd" d="M275.7,125.5c-12.8,0,-22.9,-4.5,-22.9,-10.3l0,-10.3c0,-0.7,0.5,-1.2,1.1,-1.2c0.7,0,1.2,0.5,1.2,1.2l0,10.3c0,4.7,10.8,8,20.6,8c9.8,0,20.6,-3.3,20.6,-8l0,-10.3c0,-0.7,0.5,-1.2,1.2,-1.2c0.6,0,1.1,0.5,1.1,1.2l0,10.3c0,5.8,-10,10.3,-22.9,10.3Z" class="g1_1" />
<path fill-rule="evenodd" d="M275.7,135.8c-12.8,0,-22.9,-4.5,-22.9,-10.3l0,-10.3c0,-0.6,0.5,-1.2,1.1,-1.2c0.7,0,1.2,0.6,1.2,1.2l0,10.3c0,4.7,10.8,8,20.6,8c9.8,0,20.6,-3.3,20.6,-8l0,-10.3c0,-0.6,0.5,-1.2,1.2,-1.2c0.6,0,1.1,0.6,1.1,1.2l0,10.3c0,5.8,-10,10.3,-22.9,10.3Z" class="g1_1" />
<path fill-rule="evenodd" d="M275.7,106c-12.8,0,-22.9,-4.5,-22.9,-10.3c0,-5.8,10.1,-10.3,22.9,-10.3c12.9,0,22.9,4.5,22.9,10.3c0,5.8,-10,10.3,-22.9,10.3Zm0,-18.3c-9.8,0,-20.6,3.3,-20.6,8c0,4.7,10.8,8,20.6,8c9.8,0,20.6,-3.3,20.6,-8c0,-4.7,-10.8,-8,-20.6,-8Z" class="g1_1" />
<path fill-rule="evenodd" d="M275.7,115.2c-12.8,0,-22.9,-4.5,-22.9,-10.3l0,-9.2c0,-0.6,0.5,-1.1,1.1,-1.1c0.7,0,1.2,0.5,1.2,1.1l0,9.2c0,4.7,10.8,8,20.6,8c9.8,0,20.6,-3.3,20.6,-8l0,-9.2c0,-0.6,0.5,-1.1,1.2,-1.1c0.6,0,1.1,0.5,1.1,1.1l0,9.2c0,5.8,-10,10.3,-22.9,10.3Z" class="g1_1" />
<path fill-rule="evenodd" d="M275.7,125.5c-12.8,0,-22.9,-4.5,-22.9,-10.3l0,-10.3c0,-0.7,0.5,-1.2,1.1,-1.2c0.7,0,1.2,0.5,1.2,1.2l0,10.3c0,4.7,10.8,8,20.6,8c9.8,0,20.6,-3.3,20.6,-8l0,-10.3c0,-0.7,0.5,-1.2,1.2,-1.2c0.6,0,1.1,0.5,1.1,1.2l0,10.3c0,5.8,-10,10.3,-22.9,10.3Z" class="g1_1" />
<path fill-rule="evenodd" d="M275.7,135.8c-12.8,0,-22.9,-4.5,-22.9,-10.3l0,-10.3c0,-0.6,0.5,-1.2,1.1,-1.2c0.7,0,1.2,0.6,1.2,1.2l0,10.3c0,4.7,10.8,8,20.6,8c9.8,0,20.6,-3.3,20.6,-8l0,-10.3c0,-0.6,0.5,-1.2,1.2,-1.2c0.6,0,1.1,0.6,1.1,1.2l0,10.3c0,5.8,-10,10.3,-22.9,10.3Z" class="g1_1" />
<path fill-rule="evenodd" d="M275.7,106c-12.8,0,-22.9,-4.5,-22.9,-10.3c0,-5.8,10.1,-10.3,22.9,-10.3c12.9,0,22.9,4.5,22.9,10.3c0,5.8,-10,10.3,-22.9,10.3Zm0,-18.3c-9.8,0,-20.6,3.3,-20.6,8c0,4.7,10.8,8,20.6,8c9.8,0,20.6,-3.3,20.6,-8c0,-4.7,-10.8,-8,-20.6,-8Z" class="g1_1" />
<path fill-rule="evenodd" d="M275.7,115.2c-12.8,0,-22.9,-4.5,-22.9,-10.3l0,-9.2c0,-0.6,0.5,-1.1,1.1,-1.1c0.7,0,1.2,0.5,1.2,1.1l0,9.2c0,4.7,10.8,8,20.6,8c9.8,0,20.6,-3.3,20.6,-8l0,-9.2c0,-0.6,0.5,-1.1,1.2,-1.1c0.6,0,1.1,0.5,1.1,1.1l0,9.2c0,5.8,-10,10.3,-22.9,10.3Z" class="g1_1" />
<path fill-rule="evenodd" d="M275.7,125.5c-12.8,0,-22.9,-4.5,-22.9,-10.3l0,-10.3c0,-0.7,0.5,-1.2,1.1,-1.2c0.7,0,1.2,0.5,1.2,1.2l0,10.3c0,4.7,10.8,8,20.6,8c9.8,0,20.6,-3.3,20.6,-8l0,-10.3c0,-0.7,0.5,-1.2,1.2,-1.2c0.6,0,1.1,0.5,1.1,1.2l0,10.3c0,5.8,-10,10.3,-22.9,10.3Z" class="g1_1" />
<path fill-rule="evenodd" d="M275.7,135.8c-12.8,0,-22.9,-4.5,-22.9,-10.3l0,-10.3c0,-0.6,0.5,-1.2,1.1,-1.2c0.7,0,1.2,0.6,1.2,1.2l0,10.3c0,4.7,10.8,8,20.6,8c9.8,0,20.6,-3.3,20.6,-8l0,-10.3c0,-0.6,0.5,-1.2,1.2,-1.2c0.6,0,1.1,0.6,1.1,1.2l0,10.3c0,5.8,-10,10.3,-22.9,10.3Z" class="g1_1" />
<path fill-rule="evenodd" d="M231.4,69.6c-6.6,-1.5,-7.8,3.1,-7.9,8c-0.1,5.8,1.3,11.9,4.2,14.3c2.9,2.3,7.4,0.8,11.1,-2.8c2.4,-2.3,4.4,-5.3,4.2,-8c-0.5,-5,-9,-8.7,-11.6,-11.5Z" class="g2_1" />
<path fill-rule="evenodd" d="M246.9,81.7L232.6,67.3c-0.8,-0.8,-2.2,-0.8,-3,0l-3,3l3.8,3.8c0.9,-0.3,1.9,-0.1,2.6,0.6c0.7,0.7,0.9,1.7,0.6,2.6l3.6,3.6c0.9,-0.3,1.9,-0.1,2.6,0.6c1,1,1,2.6,0,3.6c-1,1,-2.6,1,-3.5,0c-0.8,-0.8,-1,-1.8,-0.6,-2.8L232.3,79l0,8.9c0.3,0.1,0.5,0.3,0.7,0.5c1,0.9,1,2.5,0,3.5c-1,1,-2.6,1,-3.6,0c-1,-1,-1,-2.6,0,-3.5c0.3,-0.3,0.5,-0.5,0.9,-0.6l0,-9c-0.4,-0.1,-0.6,-0.3,-0.9,-0.5c-0.7,-0.8,-0.9,-1.9,-0.5,-2.8l-3.7,-3.7l-9.9,9.8c-0.8,0.8,-0.8,2.2,0,3l14.4,14.3c0.8,0.9,2.1,0.9,3,0L246.9,84.7c0.9,-0.9,0.9,-2.2,0,-3Z" class="g3_1" />
<path fill-rule="evenodd" d="M246.9,81.7L232.6,67.3c-0.8,-0.8,-2.2,-0.8,-3,0l-3,3l3.8,3.8c0.9,-0.3,1.9,-0.1,2.6,0.6c0.7,0.7,0.9,1.7,0.6,2.6l3.6,3.6c0.9,-0.3,1.9,-0.1,2.6,0.6c1,1,1,2.6,0,3.6c-1,1,-2.6,1,-3.5,0c-0.8,-0.8,-1,-1.8,-0.6,-2.8L232.3,79l0,8.9c0.3,0.1,0.5,0.3,0.7,0.5c1,0.9,1,2.5,0,3.5c-1,1,-2.6,1,-3.6,0c-1,-1,-1,-2.6,0,-3.5c0.3,-0.3,0.5,-0.5,0.9,-0.6l0,-9c-0.4,-0.1,-0.6,-0.3,-0.9,-0.5c-0.7,-0.8,-0.9,-1.9,-0.5,-2.8l-3.7,-3.7l-9.9,9.8c-0.8,0.8,-0.8,2.2,0,3l14.4,14.3c0.8,0.9,2.1,0.9,3,0L246.9,84.7c0.9,-0.9,0.9,-2.2,0,-3Z" class="g3_1" />
<path fill-rule="evenodd" d="M246.9,81.7L232.6,67.3c-0.8,-0.8,-2.2,-0.8,-3,0l-3,3l3.8,3.8c0.9,-0.3,1.9,-0.1,2.6,0.6c0.7,0.7,0.9,1.7,0.6,2.6l3.6,3.6c0.9,-0.3,1.9,-0.1,2.6,0.6c1,1,1,2.6,0,3.6c-1,1,-2.6,1,-3.5,0c-0.8,-0.8,-1,-1.8,-0.6,-2.8L232.3,79l0,8.9c0.3,0.1,0.5,0.3,0.7,0.5c1,0.9,1,2.5,0,3.5c-1,1,-2.6,1,-3.6,0c-1,-1,-1,-2.6,0,-3.5c0.3,-0.3,0.5,-0.5,0.9,-0.6l0,-9c-0.4,-0.1,-0.6,-0.3,-0.9,-0.5c-0.7,-0.8,-0.9,-1.9,-0.5,-2.8l-3.7,-3.7l-9.9,9.8c-0.8,0.8,-0.8,2.2,0,3l14.4,14.3c0.8,0.9,2.1,0.9,3,0L246.9,84.7c0.9,-0.9,0.9,-2.2,0,-3Z" class="g3_1" />
<path fill-rule="evenodd" d="M231.4,69.6c-6.6,-1.5,-7.8,3.1,-7.9,8c-0.1,5.8,1.3,11.9,4.2,14.3c2.9,2.3,7.4,0.8,11.1,-2.8c2.4,-2.3,4.4,-5.3,4.2,-8c-0.5,-5,-9,-8.7,-11.6,-11.5Z" class="g2_1" />
<path fill-rule="evenodd" d="M246.9,81.7L232.6,67.3c-0.8,-0.8,-2.2,-0.8,-3,0l-3,3l3.8,3.8c0.9,-0.3,1.9,-0.1,2.6,0.6c0.7,0.7,0.9,1.7,0.6,2.6l3.6,3.6c0.9,-0.3,1.9,-0.1,2.6,0.6c1,1,1,2.6,0,3.6c-1,1,-2.6,1,-3.5,0c-0.8,-0.8,-1,-1.8,-0.6,-2.8L232.3,79l0,8.9c0.3,0.1,0.5,0.3,0.7,0.5c1,0.9,1,2.5,0,3.5c-1,1,-2.6,1,-3.6,0c-1,-1,-1,-2.6,0,-3.5c0.3,-0.3,0.5,-0.5,0.9,-0.6l0,-9c-0.4,-0.1,-0.6,-0.3,-0.9,-0.5c-0.7,-0.8,-0.9,-1.9,-0.5,-2.8l-3.7,-3.7l-9.9,9.8c-0.8,0.8,-0.8,2.2,0,3l14.4,14.3c0.8,0.9,2.1,0.9,3,0L246.9,84.7c0.9,-0.9,0.9,-2.2,0,-3Z" class="g3_1" />
<path fill-rule="evenodd" d="M292.3,83c0,-9.1,-7.4,-16.5,-16.5,-16.5c-9.1,0,-16.5,7.4,-16.5,16.5c0,9.2,7.4,16.6,16.5,16.6c9.1,0,16.5,-7.4,16.5,-16.6Z" class="g2_1" />
<path fill-rule="evenodd" d="M275.6,66.7c-9.1,0,-16.5,7.4,-16.5,16.5c0,9.2,7.4,16.6,16.5,16.6c9.1,0,16.5,-7.4,16.5,-16.6c0,-9.1,-7.4,-16.5,-16.5,-16.5Zm0,31.2C267.5,97.9,261,91.3,261,83.2c0,-8,6.5,-14.6,14.6,-14.6c8.1,0,14.6,6.6,14.6,14.6c0,8.1,-6.5,14.7,-14.6,14.7Z" class="g1_1" />
<path fill-rule="evenodd" d="M275.8,83.4c-1.3,3.7,2.8,4.7,4.6,2.8c-0.8,-1.6,-3.1,-2.3,-4.6,-2.8Zm-0.2,-13c-7.1,0,-12.9,5.7,-12.9,12.8c0,7.2,5.8,12.9,12.9,12.9c7.1,0,12.9,-5.7,12.9,-12.9c0,-7.1,-5.8,-12.8,-12.9,-12.8Zm6.5,18.9c-3.1,0.2,-6.5,0.4,-9.9,0.5c-0.1,-0.6,0,-1.3,0.1,-2c0.6,-2.5,1.7,-6.1,2.2,-8.6c-3.1,-0.6,-6.7,1.3,-6.9,-2.5c2.8,-0.9,7.4,-0.4,10.4,-0.3c-0.6,1.7,-1.9,3.6,-2.2,6c3,-0.1,6.3,0.6,7.7,2.7c0.1,1.8,-1.2,2.9,-1.4,4.2Z" class="g1_1" />
<path fill-rule="evenodd" d="M292.3,83c0,-9.1,-7.4,-16.5,-16.5,-16.5c-9.1,0,-16.5,7.4,-16.5,16.5c0,9.2,7.4,16.6,16.5,16.6c9.1,0,16.5,-7.4,16.5,-16.6Z" class="g2_1" />
<path fill-rule="evenodd" d="M275.6,66.7c-9.1,0,-16.5,7.4,-16.5,16.5c0,9.2,7.4,16.6,16.5,16.6c9.1,0,16.5,-7.4,16.5,-16.6c0,-9.1,-7.4,-16.5,-16.5,-16.5Zm0,31.2C267.5,97.9,261,91.3,261,83.2c0,-8,6.5,-14.6,14.6,-14.6c8.1,0,14.6,6.6,14.6,14.6c0,8.1,-6.5,14.7,-14.6,14.7Z" class="g1_1" />
<path fill-rule="evenodd" d="M275.8,83.4c-1.3,3.7,2.8,4.7,4.6,2.8c-0.8,-1.6,-3.1,-2.3,-4.6,-2.8Zm-0.2,-13c-7.1,0,-12.9,5.7,-12.9,12.8c0,7.2,5.8,12.9,12.9,12.9c7.1,0,12.9,-5.7,12.9,-12.9c0,-7.1,-5.8,-12.8,-12.9,-12.8Zm6.5,18.9c-3.1,0.2,-6.5,0.4,-9.9,0.5c-0.1,-0.6,0,-1.3,0.1,-2c0.6,-2.5,1.7,-6.1,2.2,-8.6c-3.1,-0.6,-6.7,1.3,-6.9,-2.5c2.8,-0.9,7.4,-0.4,10.4,-0.3c-0.6,1.7,-1.9,3.6,-2.2,6c3,-0.1,6.3,0.6,7.7,2.7c0.1,1.8,-1.2,2.9,-1.4,4.2Z" class="g1_1" />
<path fill-rule="evenodd" d="M231.1,106c-12.8,0,-22.9,-4.5,-22.9,-10.3c0,-5.8,10.1,-10.3,22.9,-10.3c12.9,0,23,4.5,23,10.3c0,5.8,-10.1,10.3,-23,10.3Zm0,-18.3c-9.7,0,-20.6,3.3,-20.6,8c0,4.7,10.9,8,20.6,8c9.8,0,20.7,-3.3,20.7,-8c0,-4.7,-10.9,-8,-20.7,-8Z" class="g1_1" />
<path fill-rule="evenodd" d="M231.1,115.2c-12.8,0,-22.9,-4.5,-22.9,-10.3l0,-9.2c0,-0.6,0.5,-1.1,1.2,-1.1c0.6,0,1.1,0.5,1.1,1.1l0,9.2c0,4.7,10.9,8,20.6,8c9.8,0,20.7,-3.3,20.7,-8l0,-9.2c0,-0.6,0.5,-1.1,1.1,-1.1c0.6,0,1.2,0.5,1.2,1.1l0,9.2c0,5.8,-10.1,10.3,-23,10.3Z" class="g1_1" />
<path fill-rule="evenodd" d="M231.1,125.5c-12.8,0,-22.9,-4.5,-22.9,-10.3l0,-10.3c0,-0.7,0.5,-1.2,1.2,-1.2c0.6,0,1.1,0.5,1.1,1.2l0,10.3c0,4.7,10.9,8,20.6,8c9.8,0,20.7,-3.3,20.7,-8l0,-10.3c0,-0.7,0.5,-1.2,1.1,-1.2c0.6,0,1.2,0.5,1.2,1.2l0,10.3c0,5.8,-10.1,10.3,-23,10.3Z" class="g1_1" />
<path fill-rule="evenodd" d="M231.1,135.8c-12.8,0,-22.9,-4.5,-22.9,-10.3l0,-10.3c0,-0.6,0.5,-1.2,1.2,-1.2c0.6,0,1.1,0.6,1.1,1.2l0,10.3c0,4.7,10.9,8,20.6,8c9.8,0,20.7,-3.3,20.7,-8l0,-10.3c0,-0.6,0.5,-1.2,1.1,-1.2c0.6,0,1.2,0.6,1.2,1.2l0,10.3c0,5.8,-10.1,10.3,-23,10.3Z" class="g1_1" />
<path fill-rule="evenodd" d="M275.7,106c-12.8,0,-22.9,-4.5,-22.9,-10.3c0,-5.8,10.1,-10.3,22.9,-10.3c12.9,0,22.9,4.5,22.9,10.3c0,5.8,-10,10.3,-22.9,10.3Zm0,-18.3c-9.8,0,-20.6,3.3,-20.6,8c0,4.7,10.8,8,20.6,8c9.8,0,20.6,-3.3,20.6,-8c0,-4.7,-10.8,-8,-20.6,-8Z" class="g1_1" />
<path fill-rule="evenodd" d="M275.7,115.2c-12.8,0,-22.9,-4.5,-22.9,-10.3l0,-9.2c0,-0.6,0.5,-1.1,1.1,-1.1c0.7,0,1.2,0.5,1.2,1.1l0,9.2c0,4.7,10.8,8,20.6,8c9.8,0,20.6,-3.3,20.6,-8l0,-9.2c0,-0.6,0.5,-1.1,1.2,-1.1c0.6,0,1.1,0.5,1.1,1.1l0,9.2c0,5.8,-10,10.3,-22.9,10.3Z" class="g1_1" />
<path fill-rule="evenodd" d="M275.7,125.5c-12.8,0,-22.9,-4.5,-22.9,-10.3l0,-10.3c0,-0.7,0.5,-1.2,1.1,-1.2c0.7,0,1.2,0.5,1.2,1.2l0,10.3c0,4.7,10.8,8,20.6,8c9.8,0,20.6,-3.3,20.6,-8l0,-10.3c0,-0.7,0.5,-1.2,1.2,-1.2c0.6,0,1.1,0.5,1.1,1.2l0,10.3c0,5.8,-10,10.3,-22.9,10.3Z" class="g1_1" />
<path fill-rule="evenodd" d="M275.7,135.8c-12.8,0,-22.9,-4.5,-22.9,-10.3l0,-10.3c0,-0.6,0.5,-1.2,1.1,-1.2c0.7,0,1.2,0.6,1.2,1.2l0,10.3c0,4.7,10.8,8,20.6,8c9.8,0,20.6,-3.3,20.6,-8l0,-10.3c0,-0.6,0.5,-1.2,1.2,-1.2c0.6,0,1.1,0.6,1.1,1.2l0,10.3c0,5.8,-10,10.3,-22.9,10.3Z" class="g1_1" />
<path fill-rule="evenodd" d="M231.4,69.6c-6.6,-1.5,-7.8,3.1,-7.9,8c-0.1,5.8,1.3,11.9,4.2,14.3c2.9,2.3,7.4,0.8,11.1,-2.8c2.4,-2.3,4.4,-5.3,4.2,-8c-0.5,-5,-9,-8.7,-11.6,-11.5Z" class="g2_1" />
<path fill-rule="evenodd" d="M246.9,81.7L232.6,67.3c-0.8,-0.8,-2.2,-0.8,-3,0l-3,3l3.8,3.8c0.9,-0.3,1.9,-0.1,2.6,0.6c0.7,0.7,0.9,1.7,0.6,2.6l3.6,3.6c0.9,-0.3,1.9,-0.1,2.6,0.6c1,1,1,2.6,0,3.6c-1,1,-2.6,1,-3.5,0c-0.8,-0.8,-1,-1.8,-0.6,-2.8L232.3,79l0,8.9c0.3,0.1,0.5,0.3,0.7,0.5c1,0.9,1,2.5,0,3.5c-1,1,-2.6,1,-3.6,0c-1,-1,-1,-2.6,0,-3.5c0.3,-0.3,0.5,-0.5,0.9,-0.6l0,-9c-0.4,-0.1,-0.6,-0.3,-0.9,-0.5c-0.7,-0.8,-0.9,-1.9,-0.5,-2.8l-3.7,-3.7l-9.9,9.8c-0.8,0.8,-0.8,2.2,0,3l14.4,14.3c0.8,0.9,2.1,0.9,3,0L246.9,84.7c0.9,-0.9,0.9,-2.2,0,-3Z" class="g3_1" />
<path fill-rule="evenodd" d="M292.3,83c0,-9.1,-7.4,-16.5,-16.5,-16.5c-9.1,0,-16.5,7.4,-16.5,16.5c0,9.2,7.4,16.6,16.5,16.6c9.1,0,16.5,-7.4,16.5,-16.6Z" class="g2_1" />
<path fill-rule="evenodd" d="M275.6,66.7c-9.1,0,-16.5,7.4,-16.5,16.5c0,9.2,7.4,16.6,16.5,16.6c9.1,0,16.5,-7.4,16.5,-16.6c0,-9.1,-7.4,-16.5,-16.5,-16.5Zm0,31.2C267.5,97.9,261,91.3,261,83.2c0,-8,6.5,-14.6,14.6,-14.6c8.1,0,14.6,6.6,14.6,14.6c0,8.1,-6.5,14.7,-14.6,14.7Z" class="g1_1" />
<path fill-rule="evenodd" d="M275.8,83.4c-1.3,3.7,2.8,4.7,4.6,2.8c-0.8,-1.6,-3.1,-2.3,-4.6,-2.8Zm-0.2,-13c-7.1,0,-12.9,5.7,-12.9,12.8c0,7.2,5.8,12.9,12.9,12.9c7.1,0,12.9,-5.7,12.9,-12.9c0,-7.1,-5.8,-12.8,-12.9,-12.8Zm6.5,18.9c-3.1,0.2,-6.5,0.4,-9.9,0.5c-0.1,-0.6,0,-1.3,0.1,-2c0.6,-2.5,1.7,-6.1,2.2,-8.6c-3.1,-0.6,-6.7,1.3,-6.9,-2.5c2.8,-0.9,7.4,-0.4,10.4,-0.3c-0.6,1.7,-1.9,3.6,-2.2,6c3,-0.1,6.3,0.6,7.7,2.7c0.1,1.8,-1.2,2.9,-1.4,4.2Z" class="g1_1" />
<path fill-rule="evenodd" d="M341.9,256.2c-12.8,0,-22.9,-4.5,-22.9,-10.3c0,-5.8,10.1,-10.3,22.9,-10.3c12.9,0,22.9,4.5,22.9,10.3c0,5.8,-10,10.3,-22.9,10.3Zm0,-18.3c-9.7,0,-20.6,3.3,-20.6,8c0,4.7,10.9,8,20.6,8c9.8,0,20.7,-3.3,20.7,-8c0,-4.7,-10.9,-8,-20.7,-8Z" class="g1_1" />
<path fill-rule="evenodd" d="M341.9,265.4c-12.8,0,-22.9,-4.6,-22.9,-10.3l0,-9.2c0,-0.6,0.5,-1.2,1.2,-1.2c0.6,0,1.1,0.6,1.1,1.2l0,9.2c0,4.7,10.9,8,20.6,8c9.8,0,20.7,-3.3,20.7,-8l0,-9.2c0,-0.6,0.5,-1.2,1.1,-1.2c0.6,0,1.1,0.6,1.1,1.2l0,9.2c0,5.7,-10,10.3,-22.9,10.3Z" class="g1_1" />
<path fill-rule="evenodd" d="M341.9,275.7c-12.8,0,-22.9,-4.5,-22.9,-10.3l0,-10.3c0,-0.7,0.5,-1.2,1.2,-1.2c0.6,0,1.1,0.5,1.1,1.2l0,10.3c0,4.7,10.9,8,20.6,8c9.8,0,20.7,-3.3,20.7,-8l0,-10.3c0,-0.7,0.5,-1.2,1.1,-1.2c0.6,0,1.1,0.5,1.1,1.2l0,10.3c0,5.8,-10,10.3,-22.9,10.3Z" class="g1_1" />
<path fill-rule="evenodd" d="M341.9,286C329.1,286,319,281.5,319,275.7l0,-10.3c0,-0.7,0.5,-1.2,1.2,-1.2c0.6,0,1.1,0.5,1.1,1.2l0,10.3c0,4.7,10.9,8,20.6,8c9.8,0,20.7,-3.3,20.7,-8l0,-10.3c0,-0.7,0.5,-1.2,1.1,-1.2c0.6,0,1.1,0.5,1.1,1.2l0,10.3c0,5.8,-10,10.3,-22.9,10.3Z" class="g1_1" />
<path fill-rule="evenodd" d="M341.9,256.2c-12.8,0,-22.9,-4.5,-22.9,-10.3c0,-5.8,10.1,-10.3,22.9,-10.3c12.9,0,22.9,4.5,22.9,10.3c0,5.8,-10,10.3,-22.9,10.3Zm0,-18.3c-9.7,0,-20.6,3.3,-20.6,8c0,4.7,10.9,8,20.6,8c9.8,0,20.7,-3.3,20.7,-8c0,-4.7,-10.9,-8,-20.7,-8Z" class="g1_1" />
<path fill-rule="evenodd" d="M341.9,265.4c-12.8,0,-22.9,-4.6,-22.9,-10.3l0,-9.2c0,-0.6,0.5,-1.2,1.2,-1.2c0.6,0,1.1,0.6,1.1,1.2l0,9.2c0,4.7,10.9,8,20.6,8c9.8,0,20.7,-3.3,20.7,-8l0,-9.2c0,-0.6,0.5,-1.2,1.1,-1.2c0.6,0,1.1,0.6,1.1,1.2l0,9.2c0,5.7,-10,10.3,-22.9,10.3Z" class="g1_1" />
<path fill-rule="evenodd" d="M341.9,275.7c-12.8,0,-22.9,-4.5,-22.9,-10.3l0,-10.3c0,-0.7,0.5,-1.2,1.2,-1.2c0.6,0,1.1,0.5,1.1,1.2l0,10.3c0,4.7,10.9,8,20.6,8c9.8,0,20.7,-3.3,20.7,-8l0,-10.3c0,-0.7,0.5,-1.2,1.1,-1.2c0.6,0,1.1,0.5,1.1,1.2l0,10.3c0,5.8,-10,10.3,-22.9,10.3Z" class="g1_1" />
<path fill-rule="evenodd" d="M341.9,286C329.1,286,319,281.5,319,275.7l0,-10.3c0,-0.7,0.5,-1.2,1.2,-1.2c0.6,0,1.1,0.5,1.1,1.2l0,10.3c0,4.7,10.9,8,20.6,8c9.8,0,20.7,-3.3,20.7,-8l0,-10.3c0,-0.7,0.5,-1.2,1.1,-1.2c0.6,0,1.1,0.5,1.1,1.2l0,10.3c0,5.8,-10,10.3,-22.9,10.3Z" class="g1_1" />
<path fill-rule="evenodd" d="M341.9,256.2c-12.8,0,-22.9,-4.5,-22.9,-10.3c0,-5.8,10.1,-10.3,22.9,-10.3c12.9,0,22.9,4.5,22.9,10.3c0,5.8,-10,10.3,-22.9,10.3Zm0,-18.3c-9.7,0,-20.6,3.3,-20.6,8c0,4.7,10.9,8,20.6,8c9.8,0,20.7,-3.3,20.7,-8c0,-4.7,-10.9,-8,-20.7,-8Z" class="g1_1" />
<path fill-rule="evenodd" d="M341.9,265.4c-12.8,0,-22.9,-4.6,-22.9,-10.3l0,-9.2c0,-0.6,0.5,-1.2,1.2,-1.2c0.6,0,1.1,0.6,1.1,1.2l0,9.2c0,4.7,10.9,8,20.6,8c9.8,0,20.7,-3.3,20.7,-8l0,-9.2c0,-0.6,0.5,-1.2,1.1,-1.2c0.6,0,1.1,0.6,1.1,1.2l0,9.2c0,5.7,-10,10.3,-22.9,10.3Z" class="g1_1" />
<path fill-rule="evenodd" d="M341.9,275.7c-12.8,0,-22.9,-4.5,-22.9,-10.3l0,-10.3c0,-0.7,0.5,-1.2,1.2,-1.2c0.6,0,1.1,0.5,1.1,1.2l0,10.3c0,4.7,10.9,8,20.6,8c9.8,0,20.7,-3.3,20.7,-8l0,-10.3c0,-0.7,0.5,-1.2,1.1,-1.2c0.6,0,1.1,0.5,1.1,1.2l0,10.3c0,5.8,-10,10.3,-22.9,10.3Z" class="g1_1" />
<path fill-rule="evenodd" d="M341.9,286C329.1,286,319,281.5,319,275.7l0,-10.3c0,-0.7,0.5,-1.2,1.2,-1.2c0.6,0,1.1,0.5,1.1,1.2l0,10.3c0,4.7,10.9,8,20.6,8c9.8,0,20.7,-3.3,20.7,-8l0,-10.3c0,-0.7,0.5,-1.2,1.1,-1.2c0.6,0,1.1,0.5,1.1,1.2l0,10.3c0,5.8,-10,10.3,-22.9,10.3Z" class="g1_1" />
<path fill-rule="evenodd" d="M386.5,256.2c-12.9,0,-22.9,-4.5,-22.9,-10.3c0,-5.8,10,-10.3,22.9,-10.3c12.8,0,22.9,4.5,22.9,10.3c0,5.8,-10.1,10.3,-22.9,10.3Zm0,-18.3c-9.8,0,-20.6,3.3,-20.6,8c0,4.7,10.8,8,20.6,8c9.8,0,20.6,-3.3,20.6,-8c0,-4.7,-10.8,-8,-20.6,-8Z" class="g1_1" />
<path fill-rule="evenodd" d="M386.5,265.4c-12.9,0,-22.9,-4.6,-22.9,-10.3l0,-9.2c0,-0.6,0.5,-1.2,1.1,-1.2c0.7,0,1.2,0.6,1.2,1.2l0,9.2c0,4.7,10.8,8,20.6,8c9.8,0,20.6,-3.3,20.6,-8l0,-9.2c0,-0.6,0.5,-1.2,1.2,-1.2c0.6,0,1.1,0.6,1.1,1.2l0,9.2c0,5.7,-10.1,10.3,-22.9,10.3Z" class="g1_1" />
<path fill-rule="evenodd" d="M386.5,275.7c-12.9,0,-22.9,-4.5,-22.9,-10.3l0,-10.3c0,-0.7,0.5,-1.2,1.1,-1.2c0.7,0,1.2,0.5,1.2,1.2l0,10.3c0,4.7,10.8,8,20.6,8c9.8,0,20.6,-3.3,20.6,-8l0,-10.3c0,-0.7,0.5,-1.2,1.2,-1.2c0.6,0,1.1,0.5,1.1,1.2l0,10.3c0,5.8,-10.1,10.3,-22.9,10.3Z" class="g1_1" />
<path fill-rule="evenodd" d="M386.5,286c-12.9,0,-22.9,-4.5,-22.9,-10.3l0,-10.3c0,-0.7,0.5,-1.2,1.1,-1.2c0.7,0,1.2,0.5,1.2,1.2l0,10.3c0,4.7,10.8,8,20.6,8c9.8,0,20.6,-3.3,20.6,-8l0,-10.3c0,-0.7,0.5,-1.2,1.2,-1.2c0.6,0,1.1,0.5,1.1,1.2l0,10.3c0,5.8,-10.1,10.3,-22.9,10.3Z" class="g1_1" />
<path fill-rule="evenodd" d="M386.5,256.2c-12.9,0,-22.9,-4.5,-22.9,-10.3c0,-5.8,10,-10.3,22.9,-10.3c12.8,0,22.9,4.5,22.9,10.3c0,5.8,-10.1,10.3,-22.9,10.3Zm0,-18.3c-9.8,0,-20.6,3.3,-20.6,8c0,4.7,10.8,8,20.6,8c9.8,0,20.6,-3.3,20.6,-8c0,-4.7,-10.8,-8,-20.6,-8Z" class="g1_1" />
<path fill-rule="evenodd" d="M386.5,265.4c-12.9,0,-22.9,-4.6,-22.9,-10.3l0,-9.2c0,-0.6,0.5,-1.2,1.1,-1.2c0.7,0,1.2,0.6,1.2,1.2l0,9.2c0,4.7,10.8,8,20.6,8c9.8,0,20.6,-3.3,20.6,-8l0,-9.2c0,-0.6,0.5,-1.2,1.2,-1.2c0.6,0,1.1,0.6,1.1,1.2l0,9.2c0,5.7,-10.1,10.3,-22.9,10.3Z" class="g1_1" />
<path fill-rule="evenodd" d="M386.5,275.7c-12.9,0,-22.9,-4.5,-22.9,-10.3l0,-10.3c0,-0.7,0.5,-1.2,1.1,-1.2c0.7,0,1.2,0.5,1.2,1.2l0,10.3c0,4.7,10.8,8,20.6,8c9.8,0,20.6,-3.3,20.6,-8l0,-10.3c0,-0.7,0.5,-1.2,1.2,-1.2c0.6,0,1.1,0.5,1.1,1.2l0,10.3c0,5.8,-10.1,10.3,-22.9,10.3Z" class="g1_1" />
<path fill-rule="evenodd" d="M386.5,286c-12.9,0,-22.9,-4.5,-22.9,-10.3l0,-10.3c0,-0.7,0.5,-1.2,1.1,-1.2c0.7,0,1.2,0.5,1.2,1.2l0,10.3c0,4.7,10.8,8,20.6,8c9.8,0,20.6,-3.3,20.6,-8l0,-10.3c0,-0.7,0.5,-1.2,1.2,-1.2c0.6,0,1.1,0.5,1.1,1.2l0,10.3c0,5.8,-10.1,10.3,-22.9,10.3Z" class="g1_1" />
<path fill-rule="evenodd" d="M386.5,256.2c-12.9,0,-22.9,-4.5,-22.9,-10.3c0,-5.8,10,-10.3,22.9,-10.3c12.8,0,22.9,4.5,22.9,10.3c0,5.8,-10.1,10.3,-22.9,10.3Zm0,-18.3c-9.8,0,-20.6,3.3,-20.6,8c0,4.7,10.8,8,20.6,8c9.8,0,20.6,-3.3,20.6,-8c0,-4.7,-10.8,-8,-20.6,-8Z" class="g1_1" />
<path fill-rule="evenodd" d="M386.5,265.4c-12.9,0,-22.9,-4.6,-22.9,-10.3l0,-9.2c0,-0.6,0.5,-1.2,1.1,-1.2c0.7,0,1.2,0.6,1.2,1.2l0,9.2c0,4.7,10.8,8,20.6,8c9.8,0,20.6,-3.3,20.6,-8l0,-9.2c0,-0.6,0.5,-1.2,1.2,-1.2c0.6,0,1.1,0.6,1.1,1.2l0,9.2c0,5.7,-10.1,10.3,-22.9,10.3Z" class="g1_1" />
<path fill-rule="evenodd" d="M386.5,275.7c-12.9,0,-22.9,-4.5,-22.9,-10.3l0,-10.3c0,-0.7,0.5,-1.2,1.1,-1.2c0.7,0,1.2,0.5,1.2,1.2l0,10.3c0,4.7,10.8,8,20.6,8c9.8,0,20.6,-3.3,20.6,-8l0,-10.3c0,-0.7,0.5,-1.2,1.2,-1.2c0.6,0,1.1,0.5,1.1,1.2l0,10.3c0,5.8,-10.1,10.3,-22.9,10.3Z" class="g1_1" />
<path fill-rule="evenodd" d="M386.5,286c-12.9,0,-22.9,-4.5,-22.9,-10.3l0,-10.3c0,-0.7,0.5,-1.2,1.1,-1.2c0.7,0,1.2,0.5,1.2,1.2l0,10.3c0,4.7,10.8,8,20.6,8c9.8,0,20.6,-3.3,20.6,-8l0,-10.3c0,-0.7,0.5,-1.2,1.2,-1.2c0.6,0,1.1,0.5,1.1,1.2l0,10.3c0,5.8,-10.1,10.3,-22.9,10.3Z" class="g1_1" />
<path fill-rule="evenodd" d="M342.2,219.8c-6.6,-1.6,-7.8,3.1,-7.9,8c-0.1,5.7,1.2,11.9,4.1,14.3c3,2.3,7.5,0.7,11.2,-2.8c2.4,-2.3,4.4,-5.3,4.2,-8c-0.5,-5,-9,-8.7,-11.6,-11.5Z" class="g2_1" />
<path fill-rule="evenodd" d="M357.7,231.9L343.4,217.5c-0.8,-0.8,-2.2,-0.8,-3,0l-3,3l3.8,3.8c0.9,-0.3,1.9,-0.1,2.6,0.6c0.7,0.7,0.9,1.7,0.6,2.6l3.6,3.6c0.9,-0.3,1.9,-0.1,2.6,0.6c1,1,1,2.6,0,3.6c-1,1,-2.6,1,-3.5,0c-0.8,-0.8,-1,-1.8,-0.6,-2.8l-3.4,-3.4l0,9c0.3,0.1,0.5,0.3,0.7,0.5c1,0.9,1,2.5,0,3.5c-1,1,-2.6,1,-3.6,0c-1,-1,-1,-2.6,0,-3.5c0.3,-0.3,0.5,-0.5,0.8,-0.6l0,-9c-0.3,-0.1,-0.5,-0.3,-0.8,-0.6c-0.7,-0.7,-0.9,-1.8,-0.5,-2.7L336,222l-9.9,9.8c-0.8,0.8,-0.8,2.2,0,3l14.4,14.3c0.8,0.9,2.1,0.9,3,0l14.2,-14.2c0.9,-0.9,0.9,-2.2,0,-3Z" class="g3_1" />
<path fill-rule="evenodd" d="M357.7,231.9L343.4,217.5c-0.8,-0.8,-2.2,-0.8,-3,0l-3,3l3.8,3.8c0.9,-0.3,1.9,-0.1,2.6,0.6c0.7,0.7,0.9,1.7,0.6,2.6l3.6,3.6c0.9,-0.3,1.9,-0.1,2.6,0.6c1,1,1,2.6,0,3.6c-1,1,-2.6,1,-3.5,0c-0.8,-0.8,-1,-1.8,-0.6,-2.8l-3.4,-3.4l0,9c0.3,0.1,0.5,0.3,0.7,0.5c1,0.9,1,2.5,0,3.5c-1,1,-2.6,1,-3.6,0c-1,-1,-1,-2.6,0,-3.5c0.3,-0.3,0.5,-0.5,0.8,-0.6l0,-9c-0.3,-0.1,-0.5,-0.3,-0.8,-0.6c-0.7,-0.7,-0.9,-1.8,-0.5,-2.7L336,222l-9.9,9.8c-0.8,0.8,-0.8,2.2,0,3l14.4,14.3c0.8,0.9,2.1,0.9,3,0l14.2,-14.2c0.9,-0.9,0.9,-2.2,0,-3Z" class="g3_1" />
<path fill-rule="evenodd" d="M357.7,231.9L343.4,217.5c-0.8,-0.8,-2.2,-0.8,-3,0l-3,3l3.8,3.8c0.9,-0.3,1.9,-0.1,2.6,0.6c0.7,0.7,0.9,1.7,0.6,2.6l3.6,3.6c0.9,-0.3,1.9,-0.1,2.6,0.6c1,1,1,2.6,0,3.6c-1,1,-2.6,1,-3.5,0c-0.8,-0.8,-1,-1.8,-0.6,-2.8l-3.4,-3.4l0,9c0.3,0.1,0.5,0.3,0.7,0.5c1,0.9,1,2.5,0,3.5c-1,1,-2.6,1,-3.6,0c-1,-1,-1,-2.6,0,-3.5c0.3,-0.3,0.5,-0.5,0.8,-0.6l0,-9c-0.3,-0.1,-0.5,-0.3,-0.8,-0.6c-0.7,-0.7,-0.9,-1.8,-0.5,-2.7L336,222l-9.9,9.8c-0.8,0.8,-0.8,2.2,0,3l14.4,14.3c0.8,0.9,2.1,0.9,3,0l14.2,-14.2c0.9,-0.9,0.9,-2.2,0,-3Z" class="g3_1" />
<path fill-rule="evenodd" d="M342.2,219.8c-6.6,-1.6,-7.8,3.1,-7.9,8c-0.1,5.7,1.2,11.9,4.1,14.3c3,2.3,7.5,0.7,11.2,-2.8c2.4,-2.3,4.4,-5.3,4.2,-8c-0.5,-5,-9,-8.7,-11.6,-11.5Z" class="g2_1" />
<path fill-rule="evenodd" d="M357.7,231.9L343.4,217.5c-0.8,-0.8,-2.2,-0.8,-3,0l-3,3l3.8,3.8c0.9,-0.3,1.9,-0.1,2.6,0.6c0.7,0.7,0.9,1.7,0.6,2.6l3.6,3.6c0.9,-0.3,1.9,-0.1,2.6,0.6c1,1,1,2.6,0,3.6c-1,1,-2.6,1,-3.5,0c-0.8,-0.8,-1,-1.8,-0.6,-2.8l-3.4,-3.4l0,9c0.3,0.1,0.5,0.3,0.7,0.5c1,0.9,1,2.5,0,3.5c-1,1,-2.6,1,-3.6,0c-1,-1,-1,-2.6,0,-3.5c0.3,-0.3,0.5,-0.5,0.8,-0.6l0,-9c-0.3,-0.1,-0.5,-0.3,-0.8,-0.6c-0.7,-0.7,-0.9,-1.8,-0.5,-2.7L336,222l-9.9,9.8c-0.8,0.8,-0.8,2.2,0,3l14.4,14.3c0.8,0.9,2.1,0.9,3,0l14.2,-14.2c0.9,-0.9,0.9,-2.2,0,-3Z" class="g3_1" />
<path fill-rule="evenodd" d="M403.1,233.2c0,-9.1,-7.4,-16.5,-16.5,-16.5c-9.1,0,-16.5,7.4,-16.5,16.5c0,9.2,7.4,16.6,16.5,16.6c9.1,0,16.5,-7.4,16.5,-16.6Z" class="g2_1" />
<path fill-rule="evenodd" d="M386.4,216.9c-9.1,0,-16.5,7.4,-16.5,16.5c0,9.2,7.4,16.6,16.5,16.6c9.1,0,16.5,-7.4,16.5,-16.6c0,-9.1,-7.4,-16.5,-16.5,-16.5Zm0,31.1c-8.1,0,-14.6,-6.5,-14.6,-14.6c0,-8,6.5,-14.6,14.6,-14.6c8.1,0,14.6,6.6,14.6,14.6c0,8.1,-6.5,14.6,-14.6,14.6Z" class="g1_1" />
<path fill-rule="evenodd" d="M386.6,233.6c-1.4,3.7,2.8,4.7,4.6,2.8c-0.8,-1.6,-3.1,-2.3,-4.6,-2.8Zm-0.2,-13.1c-7.1,0,-12.9,5.8,-12.9,12.9c0,7.1,5.8,12.9,12.9,12.9c7.1,0,12.9,-5.8,12.9,-12.9c0,-7.1,-5.8,-12.9,-12.9,-12.9Zm6.5,18.9c-3.1,0.2,-6.5,0.5,-9.9,0.6c-0.1,-0.6,0,-1.3,0.1,-2c0.6,-2.5,1.7,-6.1,2.2,-8.6c-3.1,-0.6,-6.7,1.3,-6.9,-2.5c2.8,-0.9,7.3,-0.4,10.4,-0.3c-0.7,1.7,-1.9,3.6,-2.2,6c3,-0.2,6.3,0.6,7.7,2.7c0,1.8,-1.2,2.9,-1.4,4.1Z" class="g1_1" />
<path fill-rule="evenodd" d="M403.1,233.2c0,-9.1,-7.4,-16.5,-16.5,-16.5c-9.1,0,-16.5,7.4,-16.5,16.5c0,9.2,7.4,16.6,16.5,16.6c9.1,0,16.5,-7.4,16.5,-16.6Z" class="g2_1" />
<path fill-rule="evenodd" d="M386.4,216.9c-9.1,0,-16.5,7.4,-16.5,16.5c0,9.2,7.4,16.6,16.5,16.6c9.1,0,16.5,-7.4,16.5,-16.6c0,-9.1,-7.4,-16.5,-16.5,-16.5Zm0,31.1c-8.1,0,-14.6,-6.5,-14.6,-14.6c0,-8,6.5,-14.6,14.6,-14.6c8.1,0,14.6,6.6,14.6,14.6c0,8.1,-6.5,14.6,-14.6,14.6Z" class="g1_1" />
<path fill-rule="evenodd" d="M386.6,233.6c-1.4,3.7,2.8,4.7,4.6,2.8c-0.8,-1.6,-3.1,-2.3,-4.6,-2.8Zm-0.2,-13.1c-7.1,0,-12.9,5.8,-12.9,12.9c0,7.1,5.8,12.9,12.9,12.9c7.1,0,12.9,-5.8,12.9,-12.9c0,-7.1,-5.8,-12.9,-12.9,-12.9Zm6.5,18.9c-3.1,0.2,-6.5,0.5,-9.9,0.6c-0.1,-0.6,0,-1.3,0.1,-2c0.6,-2.5,1.7,-6.1,2.2,-8.6c-3.1,-0.6,-6.7,1.3,-6.9,-2.5c2.8,-0.9,7.3,-0.4,10.4,-0.3c-0.7,1.7,-1.9,3.6,-2.2,6c3,-0.2,6.3,0.6,7.7,2.7c0,1.8,-1.2,2.9,-1.4,4.1Z" class="g1_1" />
<path fill-rule="evenodd" d="M341.9,256.2c-12.8,0,-22.9,-4.5,-22.9,-10.3c0,-5.8,10.1,-10.3,22.9,-10.3c12.9,0,22.9,4.5,22.9,10.3c0,5.8,-10,10.3,-22.9,10.3Zm0,-18.3c-9.7,0,-20.6,3.3,-20.6,8c0,4.7,10.9,8,20.6,8c9.8,0,20.7,-3.3,20.7,-8c0,-4.7,-10.9,-8,-20.7,-8Z" class="g1_1" />
<path fill-rule="evenodd" d="M341.9,265.4c-12.8,0,-22.9,-4.6,-22.9,-10.3l0,-9.2c0,-0.6,0.5,-1.2,1.2,-1.2c0.6,0,1.1,0.6,1.1,1.2l0,9.2c0,4.7,10.9,8,20.6,8c9.8,0,20.7,-3.3,20.7,-8l0,-9.2c0,-0.6,0.5,-1.2,1.1,-1.2c0.6,0,1.1,0.6,1.1,1.2l0,9.2c0,5.7,-10,10.3,-22.9,10.3Z" class="g1_1" />
<path fill-rule="evenodd" d="M341.9,275.7c-12.8,0,-22.9,-4.5,-22.9,-10.3l0,-10.3c0,-0.7,0.5,-1.2,1.2,-1.2c0.6,0,1.1,0.5,1.1,1.2l0,10.3c0,4.7,10.9,8,20.6,8c9.8,0,20.7,-3.3,20.7,-8l0,-10.3c0,-0.7,0.5,-1.2,1.1,-1.2c0.6,0,1.1,0.5,1.1,1.2l0,10.3c0,5.8,-10,10.3,-22.9,10.3Z" class="g1_1" />
<path fill-rule="evenodd" d="M341.9,286C329.1,286,319,281.5,319,275.7l0,-10.3c0,-0.7,0.5,-1.2,1.2,-1.2c0.6,0,1.1,0.5,1.1,1.2l0,10.3c0,4.7,10.9,8,20.6,8c9.8,0,20.7,-3.3,20.7,-8l0,-10.3c0,-0.7,0.5,-1.2,1.1,-1.2c0.6,0,1.1,0.5,1.1,1.2l0,10.3c0,5.8,-10,10.3,-22.9,10.3Z" class="g1_1" />
<path fill-rule="evenodd" d="M386.5,256.2c-12.9,0,-22.9,-4.5,-22.9,-10.3c0,-5.8,10,-10.3,22.9,-10.3c12.8,0,22.9,4.5,22.9,10.3c0,5.8,-10.1,10.3,-22.9,10.3Zm0,-18.3c-9.8,0,-20.6,3.3,-20.6,8c0,4.7,10.8,8,20.6,8c9.8,0,20.6,-3.3,20.6,-8c0,-4.7,-10.8,-8,-20.6,-8Z" class="g1_1" />
<path fill-rule="evenodd" d="M386.5,265.4c-12.9,0,-22.9,-4.6,-22.9,-10.3l0,-9.2c0,-0.6,0.5,-1.2,1.1,-1.2c0.7,0,1.2,0.6,1.2,1.2l0,9.2c0,4.7,10.8,8,20.6,8c9.8,0,20.6,-3.3,20.6,-8l0,-9.2c0,-0.6,0.5,-1.2,1.2,-1.2c0.6,0,1.1,0.6,1.1,1.2l0,9.2c0,5.7,-10.1,10.3,-22.9,10.3Z" class="g1_1" />
<path fill-rule="evenodd" d="M386.5,275.7c-12.9,0,-22.9,-4.5,-22.9,-10.3l0,-10.3c0,-0.7,0.5,-1.2,1.1,-1.2c0.7,0,1.2,0.5,1.2,1.2l0,10.3c0,4.7,10.8,8,20.6,8c9.8,0,20.6,-3.3,20.6,-8l0,-10.3c0,-0.7,0.5,-1.2,1.2,-1.2c0.6,0,1.1,0.5,1.1,1.2l0,10.3c0,5.8,-10.1,10.3,-22.9,10.3Z" class="g1_1" />
<path fill-rule="evenodd" d="M386.5,286c-12.9,0,-22.9,-4.5,-22.9,-10.3l0,-10.3c0,-0.7,0.5,-1.2,1.1,-1.2c0.7,0,1.2,0.5,1.2,1.2l0,10.3c0,4.7,10.8,8,20.6,8c9.8,0,20.6,-3.3,20.6,-8l0,-10.3c0,-0.7,0.5,-1.2,1.2,-1.2c0.6,0,1.1,0.5,1.1,1.2l0,10.3c0,5.8,-10.1,10.3,-22.9,10.3Z" class="g1_1" />
<path fill-rule="evenodd" d="M342.2,219.8c-6.6,-1.6,-7.8,3.1,-7.9,8c-0.1,5.7,1.2,11.9,4.1,14.3c3,2.3,7.5,0.7,11.2,-2.8c2.4,-2.3,4.4,-5.3,4.2,-8c-0.5,-5,-9,-8.7,-11.6,-11.5Z" class="g2_1" />
<path fill-rule="evenodd" d="M357.7,231.9L343.4,217.5c-0.8,-0.8,-2.2,-0.8,-3,0l-3,3l3.8,3.8c0.9,-0.3,1.9,-0.1,2.6,0.6c0.7,0.7,0.9,1.7,0.6,2.6l3.6,3.6c0.9,-0.3,1.9,-0.1,2.6,0.6c1,1,1,2.6,0,3.6c-1,1,-2.6,1,-3.5,0c-0.8,-0.8,-1,-1.8,-0.6,-2.8l-3.4,-3.4l0,9c0.3,0.1,0.5,0.3,0.7,0.5c1,0.9,1,2.5,0,3.5c-1,1,-2.6,1,-3.6,0c-1,-1,-1,-2.6,0,-3.5c0.3,-0.3,0.5,-0.5,0.8,-0.6l0,-9c-0.3,-0.1,-0.5,-0.3,-0.8,-0.6c-0.7,-0.7,-0.9,-1.8,-0.5,-2.7L336,222l-9.9,9.8c-0.8,0.8,-0.8,2.2,0,3l14.4,14.3c0.8,0.9,2.1,0.9,3,0l14.2,-14.2c0.9,-0.9,0.9,-2.2,0,-3Z" class="g3_1" />
<path fill-rule="evenodd" d="M403.1,233.2c0,-9.1,-7.4,-16.5,-16.5,-16.5c-9.1,0,-16.5,7.4,-16.5,16.5c0,9.2,7.4,16.6,16.5,16.6c9.1,0,16.5,-7.4,16.5,-16.6Z" class="g2_1" />
<path fill-rule="evenodd" d="M386.4,216.9c-9.1,0,-16.5,7.4,-16.5,16.5c0,9.2,7.4,16.6,16.5,16.6c9.1,0,16.5,-7.4,16.5,-16.6c0,-9.1,-7.4,-16.5,-16.5,-16.5Zm0,31.1c-8.1,0,-14.6,-6.5,-14.6,-14.6c0,-8,6.5,-14.6,14.6,-14.6c8.1,0,14.6,6.6,14.6,14.6c0,8.1,-6.5,14.6,-14.6,14.6Z" class="g1_1" />
<path fill-rule="evenodd" d="M386.6,233.6c-1.4,3.7,2.8,4.7,4.6,2.8c-0.8,-1.6,-3.1,-2.3,-4.6,-2.8Zm-0.2,-13.1c-7.1,0,-12.9,5.8,-12.9,12.9c0,7.1,5.8,12.9,12.9,12.9c7.1,0,12.9,-5.8,12.9,-12.9c0,-7.1,-5.8,-12.9,-12.9,-12.9Zm6.5,18.9c-3.1,0.2,-6.5,0.5,-9.9,0.6c-0.1,-0.6,0,-1.3,0.1,-2c0.6,-2.5,1.7,-6.1,2.2,-8.6c-3.1,-0.6,-6.7,1.3,-6.9,-2.5c2.8,-0.9,7.3,-0.4,10.4,-0.3c-0.7,1.7,-1.9,3.6,-2.2,6c3,-0.2,6.3,0.6,7.7,2.7c0,1.8,-1.2,2.9,-1.4,4.1Z" class="g1_1" />
<path fill-rule="evenodd" d="M121.9,256.2C109,256.2,99,251.7,99,245.9c0,-5.8,10,-10.3,22.9,-10.3c12.8,0,22.9,4.5,22.9,10.3c0,5.8,-10.1,10.3,-22.9,10.3Zm0,-18.3c-9.8,0,-20.6,3.3,-20.6,8c0,4.7,10.8,8,20.6,8c9.8,0,20.6,-3.3,20.6,-8c0,-4.7,-10.8,-8,-20.6,-8Z" class="g1_1" />
<path fill-rule="evenodd" d="M121.9,265.4C109,265.4,99,260.8,99,255.1l0,-9.2c0,-0.6,0.5,-1.2,1.1,-1.2c0.7,0,1.2,0.6,1.2,1.2l0,9.2c0,4.7,10.8,8,20.6,8c9.8,0,20.6,-3.3,20.6,-8l0,-9.2c0,-0.6,0.5,-1.2,1.2,-1.2c0.6,0,1.1,0.6,1.1,1.2l0,9.2c0,5.7,-10.1,10.3,-22.9,10.3Z" class="g1_1" />
<path fill-rule="evenodd" d="M121.9,275.7C109,275.7,99,271.2,99,265.4l0,-10.3c0,-0.7,0.5,-1.2,1.1,-1.2c0.7,0,1.2,0.5,1.2,1.2l0,10.3c0,4.7,10.8,8,20.6,8c9.8,0,20.6,-3.3,20.6,-8l0,-10.3c0,-0.7,0.5,-1.2,1.2,-1.2c0.6,0,1.1,0.5,1.1,1.2l0,10.3c0,5.8,-10.1,10.3,-22.9,10.3Z" class="g1_1" />
<path fill-rule="evenodd" d="M121.9,286C109,286,99,281.5,99,275.7l0,-10.3c0,-0.7,0.5,-1.2,1.1,-1.2c0.7,0,1.2,0.5,1.2,1.2l0,10.3c0,4.7,10.8,8,20.6,8c9.8,0,20.6,-3.3,20.6,-8l0,-10.3c0,-0.7,0.5,-1.2,1.2,-1.2c0.6,0,1.1,0.5,1.1,1.2l0,10.3c0,5.8,-10.1,10.3,-22.9,10.3Z" class="g1_1" />
<path fill-rule="evenodd" d="M121.9,256.2C109,256.2,99,251.7,99,245.9c0,-5.8,10,-10.3,22.9,-10.3c12.8,0,22.9,4.5,22.9,10.3c0,5.8,-10.1,10.3,-22.9,10.3Zm0,-18.3c-9.8,0,-20.6,3.3,-20.6,8c0,4.7,10.8,8,20.6,8c9.8,0,20.6,-3.3,20.6,-8c0,-4.7,-10.8,-8,-20.6,-8Z" class="g1_1" />
<path fill-rule="evenodd" d="M121.9,265.4C109,265.4,99,260.8,99,255.1l0,-9.2c0,-0.6,0.5,-1.2,1.1,-1.2c0.7,0,1.2,0.6,1.2,1.2l0,9.2c0,4.7,10.8,8,20.6,8c9.8,0,20.6,-3.3,20.6,-8l0,-9.2c0,-0.6,0.5,-1.2,1.2,-1.2c0.6,0,1.1,0.6,1.1,1.2l0,9.2c0,5.7,-10.1,10.3,-22.9,10.3Z" class="g1_1" />
<path fill-rule="evenodd" d="M121.9,275.7C109,275.7,99,271.2,99,265.4l0,-10.3c0,-0.7,0.5,-1.2,1.1,-1.2c0.7,0,1.2,0.5,1.2,1.2l0,10.3c0,4.7,10.8,8,20.6,8c9.8,0,20.6,-3.3,20.6,-8l0,-10.3c0,-0.7,0.5,-1.2,1.2,-1.2c0.6,0,1.1,0.5,1.1,1.2l0,10.3c0,5.8,-10.1,10.3,-22.9,10.3Z" class="g1_1" />
<path fill-rule="evenodd" d="M121.9,286C109,286,99,281.5,99,275.7l0,-10.3c0,-0.7,0.5,-1.2,1.1,-1.2c0.7,0,1.2,0.5,1.2,1.2l0,10.3c0,4.7,10.8,8,20.6,8c9.8,0,20.6,-3.3,20.6,-8l0,-10.3c0,-0.7,0.5,-1.2,1.2,-1.2c0.6,0,1.1,0.5,1.1,1.2l0,10.3c0,5.8,-10.1,10.3,-22.9,10.3Z" class="g1_1" />
<path fill-rule="evenodd" d="M121.9,256.2C109,256.2,99,251.7,99,245.9c0,-5.8,10,-10.3,22.9,-10.3c12.8,0,22.9,4.5,22.9,10.3c0,5.8,-10.1,10.3,-22.9,10.3Zm0,-18.3c-9.8,0,-20.6,3.3,-20.6,8c0,4.7,10.8,8,20.6,8c9.8,0,20.6,-3.3,20.6,-8c0,-4.7,-10.8,-8,-20.6,-8Z" class="g1_1" />
<path fill-rule="evenodd" d="M121.9,265.4C109,265.4,99,260.8,99,255.1l0,-9.2c0,-0.6,0.5,-1.2,1.1,-1.2c0.7,0,1.2,0.6,1.2,1.2l0,9.2c0,4.7,10.8,8,20.6,8c9.8,0,20.6,-3.3,20.6,-8l0,-9.2c0,-0.6,0.5,-1.2,1.2,-1.2c0.6,0,1.1,0.6,1.1,1.2l0,9.2c0,5.7,-10.1,10.3,-22.9,10.3Z" class="g1_1" />
<path fill-rule="evenodd" d="M121.9,275.7C109,275.7,99,271.2,99,265.4l0,-10.3c0,-0.7,0.5,-1.2,1.1,-1.2c0.7,0,1.2,0.5,1.2,1.2l0,10.3c0,4.7,10.8,8,20.6,8c9.8,0,20.6,-3.3,20.6,-8l0,-10.3c0,-0.7,0.5,-1.2,1.2,-1.2c0.6,0,1.1,0.5,1.1,1.2l0,10.3c0,5.8,-10.1,10.3,-22.9,10.3Z" class="g1_1" />
<path fill-rule="evenodd" d="M121.9,286C109,286,99,281.5,99,275.7l0,-10.3c0,-0.7,0.5,-1.2,1.1,-1.2c0.7,0,1.2,0.5,1.2,1.2l0,10.3c0,4.7,10.8,8,20.6,8c9.8,0,20.6,-3.3,20.6,-8l0,-10.3c0,-0.7,0.5,-1.2,1.2,-1.2c0.6,0,1.1,0.5,1.1,1.2l0,10.3c0,5.8,-10.1,10.3,-22.9,10.3Z" class="g1_1" />
<path fill-rule="evenodd" d="M166.5,256.2c-12.9,0,-22.9,-4.5,-22.9,-10.3c0,-5.8,10,-10.3,22.9,-10.3c12.8,0,22.9,4.5,22.9,10.3c0,5.8,-10.1,10.3,-22.9,10.3Zm0,-18.3c-9.8,0,-20.7,3.3,-20.7,8c0,4.7,10.9,8,20.7,8c9.7,0,20.6,-3.3,20.6,-8c0,-4.7,-10.9,-8,-20.6,-8Z" class="g1_1" />
<path fill-rule="evenodd" d="M166.5,265.4c-12.9,0,-22.9,-4.6,-22.9,-10.3l0,-9.2c0,-0.6,0.5,-1.2,1.1,-1.2c0.6,0,1.1,0.6,1.1,1.2l0,9.2c0,4.7,10.9,8,20.7,8c9.7,0,20.6,-3.3,20.6,-8l0,-9.2c0,-0.6,0.5,-1.2,1.1,-1.2c0.7,0,1.2,0.6,1.2,1.2l0,9.2c0,5.7,-10.1,10.3,-22.9,10.3Z" class="g1_1" />
<path fill-rule="evenodd" d="M166.5,275.7c-12.9,0,-22.9,-4.5,-22.9,-10.3l0,-10.3c0,-0.7,0.5,-1.2,1.1,-1.2c0.6,0,1.1,0.5,1.1,1.2l0,10.3c0,4.7,10.9,8,20.7,8c9.7,0,20.6,-3.3,20.6,-8l0,-10.3c0,-0.7,0.5,-1.2,1.1,-1.2c0.7,0,1.2,0.5,1.2,1.2l0,10.3c0,5.8,-10.1,10.3,-22.9,10.3Z" class="g1_1" />
<path fill-rule="evenodd" d="M166.5,286c-12.9,0,-22.9,-4.5,-22.9,-10.3l0,-10.3c0,-0.7,0.5,-1.2,1.1,-1.2c0.6,0,1.1,0.5,1.1,1.2l0,10.3c0,4.7,10.9,8,20.7,8c9.7,0,20.6,-3.3,20.6,-8l0,-10.3c0,-0.7,0.5,-1.2,1.1,-1.2c0.7,0,1.2,0.5,1.2,1.2l0,10.3c0,5.8,-10.1,10.3,-22.9,10.3Z" class="g1_1" />
<path fill-rule="evenodd" d="M166.5,256.2c-12.9,0,-22.9,-4.5,-22.9,-10.3c0,-5.8,10,-10.3,22.9,-10.3c12.8,0,22.9,4.5,22.9,10.3c0,5.8,-10.1,10.3,-22.9,10.3Zm0,-18.3c-9.8,0,-20.7,3.3,-20.7,8c0,4.7,10.9,8,20.7,8c9.7,0,20.6,-3.3,20.6,-8c0,-4.7,-10.9,-8,-20.6,-8Z" class="g1_1" />
<path fill-rule="evenodd" d="M166.5,265.4c-12.9,0,-22.9,-4.6,-22.9,-10.3l0,-9.2c0,-0.6,0.5,-1.2,1.1,-1.2c0.6,0,1.1,0.6,1.1,1.2l0,9.2c0,4.7,10.9,8,20.7,8c9.7,0,20.6,-3.3,20.6,-8l0,-9.2c0,-0.6,0.5,-1.2,1.1,-1.2c0.7,0,1.2,0.6,1.2,1.2l0,9.2c0,5.7,-10.1,10.3,-22.9,10.3Z" class="g1_1" />
<path fill-rule="evenodd" d="M166.5,275.7c-12.9,0,-22.9,-4.5,-22.9,-10.3l0,-10.3c0,-0.7,0.5,-1.2,1.1,-1.2c0.6,0,1.1,0.5,1.1,1.2l0,10.3c0,4.7,10.9,8,20.7,8c9.7,0,20.6,-3.3,20.6,-8l0,-10.3c0,-0.7,0.5,-1.2,1.1,-1.2c0.7,0,1.2,0.5,1.2,1.2l0,10.3c0,5.8,-10.1,10.3,-22.9,10.3Z" class="g1_1" />
<path fill-rule="evenodd" d="M166.5,286c-12.9,0,-22.9,-4.5,-22.9,-10.3l0,-10.3c0,-0.7,0.5,-1.2,1.1,-1.2c0.6,0,1.1,0.5,1.1,1.2l0,10.3c0,4.7,10.9,8,20.7,8c9.7,0,20.6,-3.3,20.6,-8l0,-10.3c0,-0.7,0.5,-1.2,1.1,-1.2c0.7,0,1.2,0.5,1.2,1.2l0,10.3c0,5.8,-10.1,10.3,-22.9,10.3Z" class="g1_1" />
<path fill-rule="evenodd" d="M166.5,256.2c-12.9,0,-22.9,-4.5,-22.9,-10.3c0,-5.8,10,-10.3,22.9,-10.3c12.8,0,22.9,4.5,22.9,10.3c0,5.8,-10.1,10.3,-22.9,10.3Zm0,-18.3c-9.8,0,-20.7,3.3,-20.7,8c0,4.7,10.9,8,20.7,8c9.7,0,20.6,-3.3,20.6,-8c0,-4.7,-10.9,-8,-20.6,-8Z" class="g1_1" />
<path fill-rule="evenodd" d="M166.5,265.4c-12.9,0,-22.9,-4.6,-22.9,-10.3l0,-9.2c0,-0.6,0.5,-1.2,1.1,-1.2c0.6,0,1.1,0.6,1.1,1.2l0,9.2c0,4.7,10.9,8,20.7,8c9.7,0,20.6,-3.3,20.6,-8l0,-9.2c0,-0.6,0.5,-1.2,1.1,-1.2c0.7,0,1.2,0.6,1.2,1.2l0,9.2c0,5.7,-10.1,10.3,-22.9,10.3Z" class="g1_1" />
<path fill-rule="evenodd" d="M166.5,275.7c-12.9,0,-22.9,-4.5,-22.9,-10.3l0,-10.3c0,-0.7,0.5,-1.2,1.1,-1.2c0.6,0,1.1,0.5,1.1,1.2l0,10.3c0,4.7,10.9,8,20.7,8c9.7,0,20.6,-3.3,20.6,-8l0,-10.3c0,-0.7,0.5,-1.2,1.1,-1.2c0.7,0,1.2,0.5,1.2,1.2l0,10.3c0,5.8,-10.1,10.3,-22.9,10.3Z" class="g1_1" />
<path fill-rule="evenodd" d="M166.5,286c-12.9,0,-22.9,-4.5,-22.9,-10.3l0,-10.3c0,-0.7,0.5,-1.2,1.1,-1.2c0.6,0,1.1,0.5,1.1,1.2l0,10.3c0,4.7,10.9,8,20.7,8c9.7,0,20.6,-3.3,20.6,-8l0,-10.3c0,-0.7,0.5,-1.2,1.1,-1.2c0.7,0,1.2,0.5,1.2,1.2l0,10.3c0,5.8,-10.1,10.3,-22.9,10.3Z" class="g1_1" />
<path fill-rule="evenodd" d="M122.1,219.8c-6.5,-1.6,-7.8,3.1,-7.9,8c-0.1,5.7,1.3,11.9,4.2,14.3c3,2.3,7.4,0.7,11.2,-2.8c2.3,-2.3,4.4,-5.3,4.1,-8c-0.4,-5,-8.9,-8.7,-11.6,-11.5Z" class="g2_1" />
<path fill-rule="evenodd" d="M137.7,231.9L123.4,217.5c-0.9,-0.8,-2.2,-0.8,-3,0l-3,3l3.8,3.8c0.8,-0.3,1.9,-0.1,2.6,0.6c0.7,0.7,0.9,1.7,0.6,2.6l3.6,3.6c0.9,-0.3,1.9,-0.1,2.6,0.6c1,1,1,2.6,0,3.6c-1,1,-2.6,1,-3.6,0c-0.7,-0.8,-0.9,-1.8,-0.5,-2.8l-3.4,-3.4l0,9c0.2,0.1,0.5,0.3,0.7,0.5c0.9,0.9,0.9,2.5,0,3.5c-1,1,-2.6,1,-3.6,0c-1,-1,-1,-2.6,0,-3.5c0.2,-0.3,0.5,-0.5,0.8,-0.6l0,-9c-0.3,-0.1,-0.6,-0.3,-0.8,-0.6c-0.8,-0.7,-0.9,-1.8,-0.5,-2.7L115.9,222l-9.8,9.8c-0.8,0.8,-0.8,2.2,0,3l14.3,14.3c0.9,0.9,2.2,0.9,3,0l14.3,-14.2c0.8,-0.9,0.8,-2.2,0,-3Z" class="g3_1" />
<path fill-rule="evenodd" d="M137.7,231.9L123.4,217.5c-0.9,-0.8,-2.2,-0.8,-3,0l-3,3l3.8,3.8c0.8,-0.3,1.9,-0.1,2.6,0.6c0.7,0.7,0.9,1.7,0.6,2.6l3.6,3.6c0.9,-0.3,1.9,-0.1,2.6,0.6c1,1,1,2.6,0,3.6c-1,1,-2.6,1,-3.6,0c-0.7,-0.8,-0.9,-1.8,-0.5,-2.8l-3.4,-3.4l0,9c0.2,0.1,0.5,0.3,0.7,0.5c0.9,0.9,0.9,2.5,0,3.5c-1,1,-2.6,1,-3.6,0c-1,-1,-1,-2.6,0,-3.5c0.2,-0.3,0.5,-0.5,0.8,-0.6l0,-9c-0.3,-0.1,-0.6,-0.3,-0.8,-0.6c-0.8,-0.7,-0.9,-1.8,-0.5,-2.7L115.9,222l-9.8,9.8c-0.8,0.8,-0.8,2.2,0,3l14.3,14.3c0.9,0.9,2.2,0.9,3,0l14.3,-14.2c0.8,-0.9,0.8,-2.2,0,-3Z" class="g3_1" />
<path fill-rule="evenodd" d="M137.7,231.9L123.4,217.5c-0.9,-0.8,-2.2,-0.8,-3,0l-3,3l3.8,3.8c0.8,-0.3,1.9,-0.1,2.6,0.6c0.7,0.7,0.9,1.7,0.6,2.6l3.6,3.6c0.9,-0.3,1.9,-0.1,2.6,0.6c1,1,1,2.6,0,3.6c-1,1,-2.6,1,-3.6,0c-0.7,-0.8,-0.9,-1.8,-0.5,-2.8l-3.4,-3.4l0,9c0.2,0.1,0.5,0.3,0.7,0.5c0.9,0.9,0.9,2.5,0,3.5c-1,1,-2.6,1,-3.6,0c-1,-1,-1,-2.6,0,-3.5c0.2,-0.3,0.5,-0.5,0.8,-0.6l0,-9c-0.3,-0.1,-0.6,-0.3,-0.8,-0.6c-0.8,-0.7,-0.9,-1.8,-0.5,-2.7L115.9,222l-9.8,9.8c-0.8,0.8,-0.8,2.2,0,3l14.3,14.3c0.9,0.9,2.2,0.9,3,0l14.3,-14.2c0.8,-0.9,0.8,-2.2,0,-3Z" class="g3_1" />
<path fill-rule="evenodd" d="M122.1,219.8c-6.5,-1.6,-7.8,3.1,-7.9,8c-0.1,5.7,1.3,11.9,4.2,14.3c3,2.3,7.4,0.7,11.2,-2.8c2.3,-2.3,4.4,-5.3,4.1,-8c-0.4,-5,-8.9,-8.7,-11.6,-11.5Z" class="g2_1" />
<path fill-rule="evenodd" d="M137.7,231.9L123.4,217.5c-0.9,-0.8,-2.2,-0.8,-3,0l-3,3l3.8,3.8c0.8,-0.3,1.9,-0.1,2.6,0.6c0.7,0.7,0.9,1.7,0.6,2.6l3.6,3.6c0.9,-0.3,1.9,-0.1,2.6,0.6c1,1,1,2.6,0,3.6c-1,1,-2.6,1,-3.6,0c-0.7,-0.8,-0.9,-1.8,-0.5,-2.8l-3.4,-3.4l0,9c0.2,0.1,0.5,0.3,0.7,0.5c0.9,0.9,0.9,2.5,0,3.5c-1,1,-2.6,1,-3.6,0c-1,-1,-1,-2.6,0,-3.5c0.2,-0.3,0.5,-0.5,0.8,-0.6l0,-9c-0.3,-0.1,-0.6,-0.3,-0.8,-0.6c-0.8,-0.7,-0.9,-1.8,-0.5,-2.7L115.9,222l-9.8,9.8c-0.8,0.8,-0.8,2.2,0,3l14.3,14.3c0.9,0.9,2.2,0.9,3,0l14.3,-14.2c0.8,-0.9,0.8,-2.2,0,-3Z" class="g3_1" />
<path fill-rule="evenodd" d="M183.1,233.2c0,-9.1,-7.4,-16.5,-16.5,-16.5c-9.2,0,-16.6,7.4,-16.6,16.5c0,9.2,7.4,16.6,16.6,16.6c9.1,0,16.5,-7.4,16.5,-16.6Z" class="g2_1" />
<path fill-rule="evenodd" d="M166.4,216.9c-9.2,0,-16.6,7.4,-16.6,16.5c0,9.2,7.4,16.6,16.6,16.6c9.1,0,16.5,-7.4,16.5,-16.6c0,-9.1,-7.4,-16.5,-16.5,-16.5Zm0,31.1c-8.1,0,-14.6,-6.5,-14.6,-14.6c0,-8,6.5,-14.6,14.6,-14.6c8,0,14.6,6.6,14.6,14.6c0,8.1,-6.6,14.6,-14.6,14.6Z" class="g1_1" />
<path fill-rule="evenodd" d="M166.6,233.6c-1.4,3.7,2.8,4.7,4.6,2.8c-0.8,-1.6,-3.1,-2.3,-4.6,-2.8Zm-0.2,-13.1c-7.1,0,-12.9,5.8,-12.9,12.9c0,7.1,5.8,12.9,12.9,12.9c7.1,0,12.9,-5.8,12.9,-12.9c0,-7.1,-5.8,-12.9,-12.9,-12.9Zm6.4,18.9c-3.1,0.2,-6.4,0.5,-9.8,0.6c-0.1,-0.6,-0.1,-1.3,0,-2c0.7,-2.5,1.8,-6.1,2.2,-8.6c-3.1,-0.6,-6.7,1.3,-6.9,-2.5c2.9,-0.9,7.4,-0.4,10.5,-0.3c-0.7,1.7,-1.9,3.6,-2.2,6c2.9,-0.2,6.3,0.6,7.7,2.7c0,1.8,-1.2,2.9,-1.5,4.1Z" class="g1_1" />
<path fill-rule="evenodd" d="M183.1,233.2c0,-9.1,-7.4,-16.5,-16.5,-16.5c-9.2,0,-16.6,7.4,-16.6,16.5c0,9.2,7.4,16.6,16.6,16.6c9.1,0,16.5,-7.4,16.5,-16.6Z" class="g2_1" />
<path fill-rule="evenodd" d="M166.4,216.9c-9.2,0,-16.6,7.4,-16.6,16.5c0,9.2,7.4,16.6,16.6,16.6c9.1,0,16.5,-7.4,16.5,-16.6c0,-9.1,-7.4,-16.5,-16.5,-16.5Zm0,31.1c-8.1,0,-14.6,-6.5,-14.6,-14.6c0,-8,6.5,-14.6,14.6,-14.6c8,0,14.6,6.6,14.6,14.6c0,8.1,-6.6,14.6,-14.6,14.6Z" class="g1_1" />
<path fill-rule="evenodd" d="M166.6,233.6c-1.4,3.7,2.8,4.7,4.6,2.8c-0.8,-1.6,-3.1,-2.3,-4.6,-2.8Zm-0.2,-13.1c-7.1,0,-12.9,5.8,-12.9,12.9c0,7.1,5.8,12.9,12.9,12.9c7.1,0,12.9,-5.8,12.9,-12.9c0,-7.1,-5.8,-12.9,-12.9,-12.9Zm6.4,18.9c-3.1,0.2,-6.4,0.5,-9.8,0.6c-0.1,-0.6,-0.1,-1.3,0,-2c0.7,-2.5,1.8,-6.1,2.2,-8.6c-3.1,-0.6,-6.7,1.3,-6.9,-2.5c2.9,-0.9,7.4,-0.4,10.5,-0.3c-0.7,1.7,-1.9,3.6,-2.2,6c2.9,-0.2,6.3,0.6,7.7,2.7c0,1.8,-1.2,2.9,-1.5,4.1Z" class="g1_1" />
<path fill-rule="evenodd" d="M121.9,256.2C109,256.2,99,251.7,99,245.9c0,-5.8,10,-10.3,22.9,-10.3c12.8,0,22.9,4.5,22.9,10.3c0,5.8,-10.1,10.3,-22.9,10.3Zm0,-18.3c-9.8,0,-20.6,3.3,-20.6,8c0,4.7,10.8,8,20.6,8c9.8,0,20.6,-3.3,20.6,-8c0,-4.7,-10.8,-8,-20.6,-8Z" class="g1_1" />
<path fill-rule="evenodd" d="M121.9,265.4C109,265.4,99,260.8,99,255.1l0,-9.2c0,-0.6,0.5,-1.2,1.1,-1.2c0.7,0,1.2,0.6,1.2,1.2l0,9.2c0,4.7,10.8,8,20.6,8c9.8,0,20.6,-3.3,20.6,-8l0,-9.2c0,-0.6,0.5,-1.2,1.2,-1.2c0.6,0,1.1,0.6,1.1,1.2l0,9.2c0,5.7,-10.1,10.3,-22.9,10.3Z" class="g1_1" />
<path fill-rule="evenodd" d="M121.9,275.7C109,275.7,99,271.2,99,265.4l0,-10.3c0,-0.7,0.5,-1.2,1.1,-1.2c0.7,0,1.2,0.5,1.2,1.2l0,10.3c0,4.7,10.8,8,20.6,8c9.8,0,20.6,-3.3,20.6,-8l0,-10.3c0,-0.7,0.5,-1.2,1.2,-1.2c0.6,0,1.1,0.5,1.1,1.2l0,10.3c0,5.8,-10.1,10.3,-22.9,10.3Z" class="g1_1" />
<path fill-rule="evenodd" d="M121.9,286C109,286,99,281.5,99,275.7l0,-10.3c0,-0.7,0.5,-1.2,1.1,-1.2c0.7,0,1.2,0.5,1.2,1.2l0,10.3c0,4.7,10.8,8,20.6,8c9.8,0,20.6,-3.3,20.6,-8l0,-10.3c0,-0.7,0.5,-1.2,1.2,-1.2c0.6,0,1.1,0.5,1.1,1.2l0,10.3c0,5.8,-10.1,10.3,-22.9,10.3Z" class="g1_1" />
<path fill-rule="evenodd" d="M166.5,256.2c-12.9,0,-22.9,-4.5,-22.9,-10.3c0,-5.8,10,-10.3,22.9,-10.3c12.8,0,22.9,4.5,22.9,10.3c0,5.8,-10.1,10.3,-22.9,10.3Zm0,-18.3c-9.8,0,-20.7,3.3,-20.7,8c0,4.7,10.9,8,20.7,8c9.7,0,20.6,-3.3,20.6,-8c0,-4.7,-10.9,-8,-20.6,-8Z" class="g1_1" />
<path fill-rule="evenodd" d="M166.5,265.4c-12.9,0,-22.9,-4.6,-22.9,-10.3l0,-9.2c0,-0.6,0.5,-1.2,1.1,-1.2c0.6,0,1.1,0.6,1.1,1.2l0,9.2c0,4.7,10.9,8,20.7,8c9.7,0,20.6,-3.3,20.6,-8l0,-9.2c0,-0.6,0.5,-1.2,1.1,-1.2c0.7,0,1.2,0.6,1.2,1.2l0,9.2c0,5.7,-10.1,10.3,-22.9,10.3Z" class="g1_1" />
<path fill-rule="evenodd" d="M166.5,275.7c-12.9,0,-22.9,-4.5,-22.9,-10.3l0,-10.3c0,-0.7,0.5,-1.2,1.1,-1.2c0.6,0,1.1,0.5,1.1,1.2l0,10.3c0,4.7,10.9,8,20.7,8c9.7,0,20.6,-3.3,20.6,-8l0,-10.3c0,-0.7,0.5,-1.2,1.1,-1.2c0.7,0,1.2,0.5,1.2,1.2l0,10.3c0,5.8,-10.1,10.3,-22.9,10.3Z" class="g1_1" />
<path fill-rule="evenodd" d="M166.5,286c-12.9,0,-22.9,-4.5,-22.9,-10.3l0,-10.3c0,-0.7,0.5,-1.2,1.1,-1.2c0.6,0,1.1,0.5,1.1,1.2l0,10.3c0,4.7,10.9,8,20.7,8c9.7,0,20.6,-3.3,20.6,-8l0,-10.3c0,-0.7,0.5,-1.2,1.1,-1.2c0.7,0,1.2,0.5,1.2,1.2l0,10.3c0,5.8,-10.1,10.3,-22.9,10.3Z" class="g1_1" />
<path fill-rule="evenodd" d="M122.1,219.8c-6.5,-1.6,-7.8,3.1,-7.9,8c-0.1,5.7,1.3,11.9,4.2,14.3c3,2.3,7.4,0.7,11.2,-2.8c2.3,-2.3,4.4,-5.3,4.1,-8c-0.4,-5,-8.9,-8.7,-11.6,-11.5Z" class="g2_1" />
<path fill-rule="evenodd" d="M137.7,231.9L123.4,217.5c-0.9,-0.8,-2.2,-0.8,-3,0l-3,3l3.8,3.8c0.8,-0.3,1.9,-0.1,2.6,0.6c0.7,0.7,0.9,1.7,0.6,2.6l3.6,3.6c0.9,-0.3,1.9,-0.1,2.6,0.6c1,1,1,2.6,0,3.6c-1,1,-2.6,1,-3.6,0c-0.7,-0.8,-0.9,-1.8,-0.5,-2.8l-3.4,-3.4l0,9c0.2,0.1,0.5,0.3,0.7,0.5c0.9,0.9,0.9,2.5,0,3.5c-1,1,-2.6,1,-3.6,0c-1,-1,-1,-2.6,0,-3.5c0.2,-0.3,0.5,-0.5,0.8,-0.6l0,-9c-0.3,-0.1,-0.6,-0.3,-0.8,-0.6c-0.8,-0.7,-0.9,-1.8,-0.5,-2.7L115.9,222l-9.8,9.8c-0.8,0.8,-0.8,2.2,0,3l14.3,14.3c0.9,0.9,2.2,0.9,3,0l14.3,-14.2c0.8,-0.9,0.8,-2.2,0,-3Z" class="g3_1" />
<path fill-rule="evenodd" d="M183.1,233.2c0,-9.1,-7.4,-16.5,-16.5,-16.5c-9.2,0,-16.6,7.4,-16.6,16.5c0,9.2,7.4,16.6,16.6,16.6c9.1,0,16.5,-7.4,16.5,-16.6Z" class="g2_1" />
<path fill-rule="evenodd" d="M166.4,216.9c-9.2,0,-16.6,7.4,-16.6,16.5c0,9.2,7.4,16.6,16.6,16.6c9.1,0,16.5,-7.4,16.5,-16.6c0,-9.1,-7.4,-16.5,-16.5,-16.5Zm0,31.1c-8.1,0,-14.6,-6.5,-14.6,-14.6c0,-8,6.5,-14.6,14.6,-14.6c8,0,14.6,6.6,14.6,14.6c0,8.1,-6.6,14.6,-14.6,14.6Z" class="g1_1" />
<path fill-rule="evenodd" d="M166.6,233.6c-1.4,3.7,2.8,4.7,4.6,2.8c-0.8,-1.6,-3.1,-2.3,-4.6,-2.8Zm-0.2,-13.1c-7.1,0,-12.9,5.8,-12.9,12.9c0,7.1,5.8,12.9,12.9,12.9c7.1,0,12.9,-5.8,12.9,-12.9c0,-7.1,-5.8,-12.9,-12.9,-12.9Zm6.4,18.9c-3.1,0.2,-6.4,0.5,-9.8,0.6c-0.1,-0.6,-0.1,-1.3,0,-2c0.7,-2.5,1.8,-6.1,2.2,-8.6c-3.1,-0.6,-6.7,1.3,-6.9,-2.5c2.9,-0.9,7.4,-0.4,10.5,-0.3c-0.7,1.7,-1.9,3.6,-2.2,6c2.9,-0.2,6.3,0.6,7.7,2.7c0,1.8,-1.2,2.9,-1.5,4.1Z" class="g1_1" />
<path d="M178.3,158.2l151.5,0l0,-101.7l-151.5,0l0,101.7Z" class="g4_1" />
<path d="M68.4,316.3l151.6,0l0,-123.4l-151.6,0l0,123.4Z" class="g4_1" />
<path d="M429.7,225.2c0,-3.5,-3,-6.3,-6.6,-6.3c-3.7,0,-6.6,2.8,-6.6,6.3c0,3.4,2.9,6.2,6.6,6.2c3.6,0,6.6,-2.8,6.6,-6.2Z" class="g4_1" />
<path d="M423.1,222.6l0,5.1" class="g4_1" />
<path d="M420.4,225.2l5.3,0" class="g4_1" />
<path d="M429.7,225.2c0,-3.5,-3,-6.3,-6.6,-6.3c-3.7,0,-6.6,2.8,-6.6,6.3c0,3.4,2.9,6.2,6.6,6.2c3.6,0,6.6,-2.8,6.6,-6.2Z" class="g4_1" />
<path d="M423.1,222.6l0,5.1" class="g4_1" />
<path d="M420.4,225.2l5.3,0" class="g4_1" />
<g clip-path="url(#c0_1)">
<g fill="#000000" >
<use xlink:href="#f0_13" transform="matrix(8.3,0,0,8.3,436.5,228.4)" />
<use xlink:href="#f0_2b" transform="matrix(8.3,0,0,8.3,444.5,228.4)" />
<use xlink:href="#f0_28" transform="matrix(8.3,0,0,8.3,452.5,228.4)" />
<use xlink:href="#f0_28" transform="matrix(8.3,0,0,8.3,455.9,228.4)" />
<use xlink:href="#f0_21" transform="matrix(8.3,0,0,8.3,459.4,228.4)" />
<use xlink:href="#f0_1z" transform="matrix(8.3,0,0,8.3,466.3,228.4)" />
<use xlink:href="#f0_2g" transform="matrix(8.3,0,0,8.3,473.1,228.4)" />
<use xlink:href="#f0_2b" transform="matrix(8.3,0,0,8.3,478.8,228.4)" />
<use xlink:href="#f0_2e" transform="matrix(8.3,0,0,8.3,485.7,228.4)" />
<use xlink:href="#f0_2f" transform="matrix(8.3,0,0,8.3,491.4,228.4)" />
</g>
</g>
<text 
x="436" 
y="228" 
dx="0,-0.4,0.2,-0.4,-0.4,-0.6,0.2,0.5,-0.9,0.2" 
class="s1_1"
>Collectors</text>

<path d="M429.7,255.8c0,-3.5,-3,-6.3,-6.6,-6.3c-3.7,0,-6.6,2.8,-6.6,6.3c0,3.5,2.9,6.3,6.6,6.3c3.6,0,6.6,-2.8,6.6,-6.3Z" class="g4_1" />
<path d="M423.1,253.3l0,5" class="g4_1" />
<path d="M420.4,255.8l5.3,0" class="g4_1" />
<path d="M429.7,255.8c0,-3.5,-3,-6.3,-6.6,-6.3c-3.7,0,-6.6,2.8,-6.6,6.3c0,3.5,2.9,6.3,6.6,6.3c3.6,0,6.6,-2.8,6.6,-6.3Z" class="g4_1" />
<path d="M423.1,253.3l0,5" class="g4_1" />
<path d="M420.4,255.8l5.3,0" class="g4_1" />
<g clip-path="url(#c0_1)">
<g fill="#000000" >
<use xlink:href="#f0_1g" transform="matrix(8.3,0,0,8.3,435.7,260.3)" />
<use xlink:href="#f0_2b" transform="matrix(8.3,0,0,8.3,443.7,260.3)" />
<use xlink:href="#f0_2f" transform="matrix(8.3,0,0,8.3,451.7,260.3)" />
<use xlink:href="#f0_2g" transform="matrix(8.3,0,0,8.3,457.5,260.3)" />
<use xlink:href="#f0_2c" transform="matrix(8.3,0,0,8.3,463.2,260.3)" />
<use xlink:href="#f0_2e" transform="matrix(8.3,0,0,8.3,470.1,260.3)" />
<use xlink:href="#f0_2b" transform="matrix(8.3,0,0,8.3,475.8,260.3)" />
<use xlink:href="#f0_1z" transform="matrix(8.3,0,0,8.3,482.7,260.3)" />
<use xlink:href="#f0_21" transform="matrix(8.3,0,0,8.3,489.5,260.3)" />
<use xlink:href="#f0_2f" transform="matrix(8.3,0,0,8.3,496.4,260.3)" />
<use xlink:href="#f0_2f" transform="matrix(8.3,0,0,8.3,503.3,260.3)" />
<use xlink:href="#f0_25" transform="matrix(8.3,0,0,8.3,509,260.3)" />
<use xlink:href="#f0_2a" transform="matrix(8.3,0,0,8.3,513.6,260.3)" />
<use xlink:href="#f0_23" transform="matrix(8.3,0,0,8.3,520.4,260.3)" />
</g>
</g>
<text 
x="435" 
y="260" 
dx="0,-0.3,0.2,-0.8,0.5,-1.1,0.2,-0.9,0.2,-0.6,0.4,-0.8,0.8,-1.2" 
class="s1_1"
>Postprocessing</text>

<path d="M429.7,283.8c0,-3.4,-3,-6.3,-6.6,-6.3c-3.7,0,-6.6,2.9,-6.6,6.3c0,3.5,2.9,6.3,6.6,6.3c3.6,0,6.6,-2.8,6.6,-6.3Z" class="g4_1" />
<path d="M423.1,281.3l0,5" class="g4_1" />
<path d="M420.4,283.8l5.3,0" class="g4_1" />
<path d="M429.7,283.8c0,-3.4,-3,-6.3,-6.6,-6.3c-3.7,0,-6.6,2.9,-6.6,6.3c0,3.5,2.9,6.3,6.6,6.3c3.6,0,6.6,-2.8,6.6,-6.3Z" class="g4_1" />
<path d="M423.1,281.3l0,5" class="g4_1" />
<path d="M420.4,283.8l5.3,0" class="g4_1" />
<g clip-path="url(#c0_1)">
<g fill="#000000" >
<use xlink:href="#f0_1m" transform="matrix(8.3,0,0,8.3,436.5,288.4)" />
<use xlink:href="#f0_25" transform="matrix(8.3,0,0,8.3,444.5,288.4)" />
<use xlink:href="#f0_2f" transform="matrix(8.3,0,0,8.3,448,288.4)" />
<use xlink:href="#f0_2h" transform="matrix(8.3,0,0,8.3,454.9,288.4)" />
<use xlink:href="#f0_1x" transform="matrix(8.3,0,0,8.3,463,288.4)" />
<use xlink:href="#f0_28" transform="matrix(8.3,0,0,8.3,469.8,288.4)" />
<use xlink:href="#f0_25" transform="matrix(8.3,0,0,8.3,473.3,288.4)" />
<use xlink:href="#f0_2m" transform="matrix(8.3,0,0,8.3,477.9,288.4)" />
<use xlink:href="#f0_1x" transform="matrix(8.3,0,0,8.3,483.6,288.4)" />
<use xlink:href="#f0_2g" transform="matrix(8.3,0,0,8.3,491.7,288.4)" />
<use xlink:href="#f0_25" transform="matrix(8.3,0,0,8.3,496.3,288.4)" />
<use xlink:href="#f0_2b" transform="matrix(8.3,0,0,8.3,499.7,288.4)" />
<use xlink:href="#f0_2a" transform="matrix(8.3,0,0,8.3,507.7,288.4)" />
<use xlink:href="#f0_2f" transform="matrix(8.3,0,0,8.3,515.8,288.4)" />
<use xlink:href="#f0_c" transform="matrix(6,0,0,6,435.3,239.6)" />
</g>
</g>
<text 
x="436" 
y="288" 
dx="0,-0.5,-0.4,0.4,0,-0.7,-0.4,0.8,-0.9,0.5,-0.7,-0.4,0.2,0" 
class="s1_1"
>Visualizations</text>

<g clip-path="url(#c0_1)">
<g fill="#000000" >
<use xlink:href="#f0_2g" transform="matrix(6,0,0,6,439.9,239.6)" />
<use xlink:href="#f0_25" transform="matrix(6,0,0,6,443.3,239.6)" />
<use xlink:href="#f0_29" transform="matrix(6,0,0,6,445.6,239.6)" />
<use xlink:href="#f0_21" transform="matrix(6,0,0,6,454.8,239.6)" />
<use xlink:href="#f0_g" transform="matrix(6,0,0,6,460.5,239.6)" />
<use xlink:href="#f0_29" transform="matrix(6,0,0,6,466.2,239.6)" />
<use xlink:href="#f0_21" transform="matrix(6,0,0,6,474.3,239.6)" />
<use xlink:href="#f0_29" transform="matrix(6,0,0,6,480,239.6)" />
<use xlink:href="#f0_2b" transform="matrix(6,0,0,6,489.2,239.6)" />
<use xlink:href="#f0_2e" transform="matrix(6,0,0,6,494.9,239.6)" />
<use xlink:href="#f0_2l" transform="matrix(6,0,0,6,498.3,239.6)" />
<use xlink:href="#f0_g" transform="matrix(6,0,0,6,504.1,239.6)" />
<use xlink:href="#f1_4s" transform="matrix(6,0,0,6,509.3,239.6)" />
</g>
</g>
<text 
x="435" 
y="239" 
dx="0,0.4,-0.4,-0.5,0.4,0.2,-0.6,0.7,-0.7,0.2,0.4,0,-0.6,0.4,-0.6" 
class="s2_1"
>(time, memory, </text>

<g clip-path="url(#c0_1)">
<g fill="#000000" >
<use xlink:href="#f1_d" transform="matrix(6,0,0,6,518.5,239.6)" />
<use xlink:href="#f0_c" transform="matrix(6,0,0,6,436.3,270.7)" />
<use xlink:href="#f0_2e" transform="matrix(6,0,0,6,440.9,270.7)" />
<use xlink:href="#f0_21" transform="matrix(6,0,0,6,444.3,270.7)" />
<use xlink:href="#f0_23" transform="matrix(6,0,0,6,450,270.7)" />
<use xlink:href="#f0_2e" transform="matrix(6,0,0,6,455.8,270.7)" />
<use xlink:href="#f0_21" transform="matrix(6,0,0,6,459.2,270.7)" />
<use xlink:href="#f0_2f" transform="matrix(6,0,0,6,464.9,270.7)" />
<use xlink:href="#f0_2f" transform="matrix(6,0,0,6,469.5,270.7)" />
<use xlink:href="#f0_25" transform="matrix(6,0,0,6,474.1,270.7)" />
<use xlink:href="#f0_2b" transform="matrix(6,0,0,6,477.5,270.7)" />
<use xlink:href="#f0_2a" transform="matrix(6,0,0,6,483.2,270.7)" />
<use xlink:href="#f0_1x" transform="matrix(6,0,0,6,491.2,270.7)" />
<use xlink:href="#f0_2a" transform="matrix(6,0,0,6,496.9,270.7)" />
<use xlink:href="#f0_1x" transform="matrix(6,0,0,6,502.7,270.7)" />
<use xlink:href="#f0_28" transform="matrix(6,0,0,6,508.4,270.7)" />
<use xlink:href="#f0_2l" transform="matrix(6,0,0,6,510.7,270.7)" />
<use xlink:href="#f0_2f" transform="matrix(6,0,0,6,516.4,270.7)" />
<use xlink:href="#f0_25" transform="matrix(6,0,0,6,521,270.7)" />
<use xlink:href="#f0_2f" transform="matrix(6,0,0,6,523.3,270.7)" />
<use xlink:href="#f0_g" transform="matrix(6,0,0,6,529,270.7)" />
<use xlink:href="#f0_22" transform="matrix(6,0,0,6,533.6,270.7)" />
<use xlink:href="#f0_25" transform="matrix(6,0,0,6,537,270.7)" />
<use xlink:href="#f0_28" transform="matrix(6,0,0,6,540.4,270.7)" />
<use xlink:href="#f0_2g" transform="matrix(6,0,0,6,542.7,270.7)" />
<use xlink:href="#f0_21" transform="matrix(6,0,0,6,547.3,270.7)" />
<use xlink:href="#f0_2e" transform="matrix(6,0,0,6,551.9,270.7)" />
<use xlink:href="#f0_2f" transform="matrix(6,0,0,6,556.5,270.7)" />
<use xlink:href="#f0_g" transform="matrix(6,0,0,6,561,270.7)" />
<use xlink:href="#f1_4s" transform="matrix(6,0,0,6,566.9,270.7)" />
</g>
</g>
<text 
x="436" 
y="270" 
dx="0,0.4,-0.6,0.2,-0.1,-0.6,0.2,-0.2,-0.2,0.6,0,-0.2,-0.4,0.2,-0.2,0.2,-0.5,0.4,-0.2,-0.5,1,-0.6,-0.4,-0.1,0.6,-0.5,0.7,-0.9,0.6,-0.2,-0.6" 
class="s2_1"
>(regression analysis, filters, </text>

<g clip-path="url(#c0_1)">
<g fill="#000000" >
<use xlink:href="#f1_d" transform="matrix(6,0,0,6,576,270.7)" />
<use xlink:href="#f0_c" transform="matrix(6,0,0,6,434.9,298.8)" />
<use xlink:href="#f0_1y" transform="matrix(6,0,0,6,439.4,298.8)" />
<use xlink:href="#f0_1x" transform="matrix(6,0,0,6,445.2,298.8)" />
<use xlink:href="#f0_2e" transform="matrix(6,0,0,6,449.7,298.8)" />
<use xlink:href="#f0_2f" transform="matrix(6,0,0,6,454.3,298.8)" />
<use xlink:href="#f0_g" transform="matrix(6,0,0,6,458.9,298.8)" />
<use xlink:href="#f0_2f" transform="matrix(6,0,0,6,464.6,298.8)" />
<use xlink:href="#f0_1z" transform="matrix(6,0,0,6,469.2,298.8)" />
<use xlink:href="#f0_1x" transform="matrix(6,0,0,6,473.8,298.8)" />
<use xlink:href="#f0_2g" transform="matrix(6,0,0,6,479.5,298.8)" />
<use xlink:href="#f0_2g" transform="matrix(6,0,0,6,482.9,298.8)" />
<use xlink:href="#f0_21" transform="matrix(6,0,0,6,487.5,298.8)" />
<use xlink:href="#f0_2e" transform="matrix(6,0,0,6,492.1,298.8)" />
<use xlink:href="#f0_2c" transform="matrix(6,0,0,6,499,298.8)" />
<use xlink:href="#f0_28" transform="matrix(6,0,0,6,504.7,298.8)" />
<use xlink:href="#f0_2b" transform="matrix(6,0,0,6,508.1,298.8)" />
<use xlink:href="#f0_2g" transform="matrix(6,0,0,6,513.8,298.8)" />
<use xlink:href="#f0_2f" transform="matrix(6,0,0,6,517.3,298.8)" />
<use xlink:href="#f0_g" transform="matrix(6,0,0,6,521.8,298.8)" />
<use xlink:href="#f0_24" transform="matrix(6,0,0,6,527.6,298.8)" />
<use xlink:href="#f0_21" transform="matrix(6,0,0,6,533.3,298.8)" />
<use xlink:href="#f0_1x" transform="matrix(6,0,0,6,539,298.8)" />
<use xlink:href="#f0_2g" transform="matrix(6,0,0,6,544.7,298.8)" />
<use xlink:href="#f0_29" transform="matrix(6,0,0,6,550.4,298.8)" />
<use xlink:href="#f0_1x" transform="matrix(6,0,0,6,559.6,298.8)" />
<use xlink:href="#f0_2c" transform="matrix(6,0,0,6,565.3,298.8)" />
<use xlink:href="#f0_2f" transform="matrix(6,0,0,6,571,298.8)" />
<use xlink:href="#f0_g" transform="matrix(6,0,0,6,575.6,298.8)" />
<use xlink:href="#f1_4s" transform="matrix(6,0,0,6,581.4,298.8)" />
</g>
</g>
<text 
x="434" 
y="298" 
dx="0,0.4,-0.1,-0.9,0.6,-0.2,0.5,-0.4,-0.2,-0.3,0.2,-0.4,0.7,-0.9,0.6,-0.4,-0.1,0.6,0,-0.4,-0.2,0.5,-0.4,-0.2,0.2,0.2,-0.4,-0.4,0.4,0.2,-0.1,-0.2,-0.6" 
class="s2_1"
>(bars, scatter plots, heat maps, </text>

<g clip-path="url(#c0_1)">
<g fill="#000000" >
<use xlink:href="#f1_d" transform="matrix(6,0,0,6,590.6,298.8)" />
</g>
</g>
<path d="M293,316.3l322.7,0l0,-123.4l-322.7,0l0,123.4Z" class="g4_1" />
<path d="M364.5,305.5l238.2,0l0,-97.5l-238.2,0l0,97.5Z" class="g5_1" />
<g clip-path="url(#c0_1)">
<g fill="#000000" >
<use xlink:href="#f0_1j" transform="matrix(12,0,0,12,224.5,49)" />
<use xlink:href="#f0_21" transform="matrix(12,0,0,12,236,49)" />
<use xlink:href="#f0_2e" transform="matrix(12,0,0,12,247.5,49)" />
<use xlink:href="#f0_2i" transform="matrix(12,0,0,12,255.5,49)" />
<use xlink:href="#f0_21" transform="matrix(12,0,0,12,265.9,49)" />
<use xlink:href="#f0_2e" transform="matrix(12,0,0,12,276.2,49)" />
<use xlink:href="#f0_14" transform="matrix(12,0,0,12,407.4,340.3)" />
</g>
</g>
<text 
x="224" 
y="48" 
dx="0,-0.1,0.6,0,-0.2,-0.6" 
class="s3_1"
>Server</text>

<g clip-path="url(#c0_1)">
<g fill="#000000" >
<use xlink:href="#f0_21" transform="matrix(12,0,0,12,421.2,340.3)" />
<use xlink:href="#f0_2i" transform="matrix(12,0,0,12,432.7,340.3)" />
<use xlink:href="#f0_21" transform="matrix(12,0,0,12,443,340.3)" />
<use xlink:href="#f0_28" transform="matrix(12,0,0,12,453.3,340.3)" />
<use xlink:href="#f0_2b" transform="matrix(12,0,0,12,459.1,340.3)" />
<use xlink:href="#f0_2c" transform="matrix(12,0,0,12,470.6,340.3)" />
<use xlink:href="#f0_21" transform="matrix(12,0,0,12,482.1,340.3)" />
<use xlink:href="#f0_2e" transform="matrix(12,0,0,12,493.6,340.3)" />
<use xlink:href="#f0_m" transform="matrix(12,0,0,12,506.2,340.3)" />
<use xlink:href="#f0_14" transform="matrix(12,0,0,12,89.1,340.3)" />
<use xlink:href="#f0_21" transform="matrix(12,0,0,12,102.9,340.3)" />
<use xlink:href="#f0_2i" transform="matrix(12,0,0,12,114.3,340.3)" />
<use xlink:href="#f0_21" transform="matrix(12,0,0,12,124.7,340.3)" />
<use xlink:href="#f0_28" transform="matrix(12,0,0,12,135,340.3)" />
<use xlink:href="#f0_2b" transform="matrix(12,0,0,12,140.8,340.3)" />
<use xlink:href="#f0_2c" transform="matrix(12,0,0,12,152.3,340.3)" />
<use xlink:href="#f0_21" transform="matrix(12,0,0,12,163.8,340.3)" />
<use xlink:href="#f0_2e" transform="matrix(12,0,0,12,175.3,340.3)" />
<use xlink:href="#f0_l" transform="matrix(12,0,0,12,187.9,340.3)" />
<use xlink:href="#f0_c" transform="matrix(6,0,0,6,110.3,296.2)" />
</g>
</g>
<text 
x="407" 
y="340" 
dx="0,-0.1,0.6,-0.3,-0.6,0.2,0.1,-0.1,0.6,0.1,-0.8" 
class="s3_1"
>Developer 2</text>

<text 
x="89" 
y="340" 
dx="0,-0.1,0.6,-0.3,-0.6,0.2,0.1,-0.1,0.6,0.1,-0.8" 
class="s3_1"
>Developer 1</text>

<g clip-path="url(#c0_1)">
<g fill="#000000" >
<use xlink:href="#f0_i" transform="matrix(6,0,0,6,114.9,296.2)" />
<use xlink:href="#f0_23" transform="matrix(6,0,0,6,117.2,296.2)" />
<use xlink:href="#f0_25" transform="matrix(6,0,0,6,122.9,296.2)" />
<use xlink:href="#f0_2g" transform="matrix(6,0,0,6,126.4,296.2)" />
<use xlink:href="#f0_d" transform="matrix(6,0,0,6,129.8,296.2)" />
<use xlink:href="#f0_c" transform="matrix(6,0,0,6,148.2,296.2)" />
<use xlink:href="#f0_i" transform="matrix(6,0,0,6,152.8,296.2)" />
<use xlink:href="#f0_2c" transform="matrix(6,0,0,6,155.1,296.2)" />
<use xlink:href="#f0_21" transform="matrix(6,0,0,6,160.8,296.2)" />
<use xlink:href="#f0_2e" transform="matrix(6,0,0,6,166.5,296.2)" />
<use xlink:href="#f0_2h" transform="matrix(6,0,0,6,170,296.2)" />
<use xlink:href="#f0_2a" transform="matrix(6,0,0,6,176.9,296.2)" />
<use xlink:href="#f0_d" transform="matrix(6,0,0,6,182.6,296.2)" />
<use xlink:href="#f0_c" transform="matrix(6,0,0,6,110.3,296.2)" />
<use xlink:href="#f0_i" transform="matrix(6,0,0,6,114.9,296.2)" />
<use xlink:href="#f0_23" transform="matrix(6,0,0,6,117.2,296.2)" />
<use xlink:href="#f0_25" transform="matrix(6,0,0,6,122.9,296.2)" />
<use xlink:href="#f0_2g" transform="matrix(6,0,0,6,126.4,296.2)" />
<use xlink:href="#f0_d" transform="matrix(6,0,0,6,129.8,296.2)" />
<use xlink:href="#f0_c" transform="matrix(6,0,0,6,148.2,296.2)" />
<use xlink:href="#f0_i" transform="matrix(6,0,0,6,152.8,296.2)" />
<use xlink:href="#f0_2c" transform="matrix(6,0,0,6,155.1,296.2)" />
<use xlink:href="#f0_21" transform="matrix(6,0,0,6,160.8,296.2)" />
<use xlink:href="#f0_2e" transform="matrix(6,0,0,6,166.5,296.2)" />
<use xlink:href="#f0_2h" transform="matrix(6,0,0,6,170,296.2)" />
<use xlink:href="#f0_2a" transform="matrix(6,0,0,6,176.9,296.2)" />
<use xlink:href="#f0_d" transform="matrix(6,0,0,6,182.6,296.2)" />
<use xlink:href="#f0_c" transform="matrix(6,0,0,6,330.1,296.2)" />
<use xlink:href="#f0_i" transform="matrix(6,0,0,6,334.7,296.2)" />
<use xlink:href="#f0_23" transform="matrix(6,0,0,6,337,296.2)" />
<use xlink:href="#f0_25" transform="matrix(6,0,0,6,342.7,296.2)" />
<use xlink:href="#f0_2g" transform="matrix(6,0,0,6,346.1,296.2)" />
<use xlink:href="#f0_d" transform="matrix(6,0,0,6,349.6,296.2)" />
<use xlink:href="#f0_c" transform="matrix(6,0,0,6,368,296.2)" />
<use xlink:href="#f0_i" transform="matrix(6,0,0,6,372.6,296.2)" />
<use xlink:href="#f0_2c" transform="matrix(6,0,0,6,374.9,296.2)" />
<use xlink:href="#f0_21" transform="matrix(6,0,0,6,380.6,296.2)" />
<use xlink:href="#f0_2e" transform="matrix(6,0,0,6,386.4,296.2)" />
<use xlink:href="#f0_2h" transform="matrix(6,0,0,6,389.9,296.2)" />
<use xlink:href="#f0_2a" transform="matrix(6,0,0,6,396.8,296.2)" />
<use xlink:href="#f0_d" transform="matrix(6,0,0,6,402.5,296.2)" />
<use xlink:href="#f0_c" transform="matrix(6,0,0,6,330.1,296.2)" />
<use xlink:href="#f0_i" transform="matrix(6,0,0,6,334.7,296.2)" />
<use xlink:href="#f0_23" transform="matrix(6,0,0,6,337,296.2)" />
<use xlink:href="#f0_25" transform="matrix(6,0,0,6,342.7,296.2)" />
<use xlink:href="#f0_2g" transform="matrix(6,0,0,6,346.1,296.2)" />
<use xlink:href="#f0_d" transform="matrix(6,0,0,6,349.6,296.2)" />
<use xlink:href="#f0_c" transform="matrix(6,0,0,6,368,296.2)" />
<use xlink:href="#f0_i" transform="matrix(6,0,0,6,372.6,296.2)" />
<use xlink:href="#f0_2c" transform="matrix(6,0,0,6,374.9,296.2)" />
<use xlink:href="#f0_21" transform="matrix(6,0,0,6,380.6,296.2)" />
<use xlink:href="#f0_2e" transform="matrix(6,0,0,6,386.4,296.2)" />
<use xlink:href="#f0_2h" transform="matrix(6,0,0,6,389.9,296.2)" />
<use xlink:href="#f0_2a" transform="matrix(6,0,0,6,396.8,296.2)" />
<use xlink:href="#f0_d" transform="matrix(6,0,0,6,402.5,296.2)" />
<use xlink:href="#f0_c" transform="matrix(6,0,0,6,216.7,146.2)" />
</g>
</g>
<text 
x="110" 
y="296" 
dx="0,0.4,-0.6,0,0.7,-0.4" 
class="s4_1"
>(.git)</text>

<text 
x="148" 
y="296" 
dx="0,0.4,-0.6,0,0.3,-0.5,1,-0.1" 
class="s4_1"
>(.perun)</text>

<text 
x="110" 
y="296" 
dx="0,0.4,-0.6,0,0.7,-0.4" 
class="s4_1"
>(.git)</text>

<text 
x="148" 
y="296" 
dx="0,0.4,-0.6,0,0.3,-0.5,1,-0.1" 
class="s4_1"
>(.perun)</text>

<text 
x="330" 
y="296" 
dx="0,0.4,-0.6,0,0.7,-0.4" 
class="s4_1"
>(.git)</text>

<text 
x="367" 
y="296" 
dx="0,0.4,-0.6,0,0.3,-0.5,1,-0.1" 
class="s4_1"
>(.perun)</text>

<text 
x="330" 
y="296" 
dx="0,0.4,-0.6,0,0.7,-0.4" 
class="s4_1"
>(.git)</text>

<text 
x="367" 
y="296" 
dx="0,0.4,-0.6,0,0.3,-0.5,1,-0.1" 
class="s4_1"
>(.perun)</text>

<g clip-path="url(#c0_1)">
<g fill="#000000" >
<use xlink:href="#f0_i" transform="matrix(6,0,0,6,221.3,146.2)" />
<use xlink:href="#f0_23" transform="matrix(6,0,0,6,223.6,146.2)" />
<use xlink:href="#f0_25" transform="matrix(6,0,0,6,229.4,146.2)" />
<use xlink:href="#f0_2g" transform="matrix(6,0,0,6,232.8,146.2)" />
<use xlink:href="#f0_d" transform="matrix(6,0,0,6,236.2,146.2)" />
<use xlink:href="#f0_c" transform="matrix(6,0,0,6,254.6,146.2)" />
<use xlink:href="#f0_i" transform="matrix(6,0,0,6,259.1,146.2)" />
<use xlink:href="#f0_2c" transform="matrix(6,0,0,6,261.4,146.2)" />
<use xlink:href="#f0_21" transform="matrix(6,0,0,6,267.2,146.2)" />
<use xlink:href="#f0_2e" transform="matrix(6,0,0,6,272.9,146.2)" />
<use xlink:href="#f0_2h" transform="matrix(6,0,0,6,276.3,146.2)" />
<use xlink:href="#f0_2a" transform="matrix(6,0,0,6,283.2,146.2)" />
<use xlink:href="#f0_d" transform="matrix(6,0,0,6,288.9,146.2)" />
<use xlink:href="#f0_c" transform="matrix(6,0,0,6,216.7,146.2)" />
<use xlink:href="#f0_i" transform="matrix(6,0,0,6,221.3,146.2)" />
<use xlink:href="#f0_23" transform="matrix(6,0,0,6,223.6,146.2)" />
<use xlink:href="#f0_25" transform="matrix(6,0,0,6,229.4,146.2)" />
<use xlink:href="#f0_2g" transform="matrix(6,0,0,6,232.8,146.2)" />
<use xlink:href="#f0_d" transform="matrix(6,0,0,6,236.2,146.2)" />
<use xlink:href="#f0_c" transform="matrix(6,0,0,6,254.6,146.2)" />
<use xlink:href="#f0_i" transform="matrix(6,0,0,6,259.1,146.2)" />
<use xlink:href="#f0_2c" transform="matrix(6,0,0,6,261.4,146.2)" />
<use xlink:href="#f0_21" transform="matrix(6,0,0,6,267.2,146.2)" />
<use xlink:href="#f0_2e" transform="matrix(6,0,0,6,272.9,146.2)" />
<use xlink:href="#f0_2h" transform="matrix(6,0,0,6,276.3,146.2)" />
<use xlink:href="#f0_2a" transform="matrix(6,0,0,6,283.2,146.2)" />
<use xlink:href="#f0_d" transform="matrix(6,0,0,6,288.9,146.2)" />
</g>
</g>
<text 
x="216" 
y="146" 
dx="0,0.4,-0.6,0,0.7,-0.4" 
class="s4_1"
>(.git)</text>

<text 
x="254" 
y="146" 
dx="0,0.4,-0.6,0,0.3,-0.5,1,-0.1" 
class="s4_1"
>(.perun)</text>

<text 
x="216" 
y="146" 
dx="0,0.4,-0.6,0,0.7,-0.4" 
class="s4_1"
>(.git)</text>

<text 
x="254" 
y="146" 
dx="0,0.4,-0.6,0,0.3,-0.5,1,-0.1" 
class="s4_1"
>(.perun)</text>

<path fill-rule="evenodd" d="M204.2,263.9l90.5,0l0,-12.6l-90.5,0l0,12.6Z" class="g2_1" />
<path d="M298.1,257.6l-97.3,0" class="g6_1" />
<path fill-rule="evenodd" d="M296.7,252l11.3,5.6l-11.3,5.7l0,-11.3Z" class="g1_1" />
<path fill-rule="evenodd" d="M202.2,263.3l-11.3,-5.7L202.2,252l0,11.3Z" class="g1_1" />
<g clip-path="url(#c1_1)">
<path fill-rule="evenodd" d="M156,207.5l53.1,-53.1l-8.9,-8.9l-53.1,53.1l8.9,8.9Z" class="g2_1" />
</g>
<g clip-path="url(#c2_1)">
<path d="M207.9,146.8l-58.6,58.6" class="g6_1" />
<path fill-rule="evenodd" d="M202.9,143.8l12,-3.9l-4,11.9l-8,-8Z" class="g1_1" />
<path fill-rule="evenodd" d="M154.3,208.4l-12,4l4,-12l8,8Z" class="g1_1" />
</g>
<g clip-path="url(#c1_1)">
<path fill-rule="evenodd" d="M297.4,152.6l47,54.6l9.5,-8.2l-47,-54.6l-9.5,8.2Z" class="g2_1" />
</g>
<path d="M300.5,146.1l50.2,58.8" class="g6_1" />
<path fill-rule="evenodd" d="M297.2,150.9l-3.1,-12.3l11.6,5l-8.5,7.3Z" class="g1_1" />
<path fill-rule="evenodd" d="M354.1,200.1l3,12.3l-11.6,-4.9l8.6,-7.4Z" class="g1_1" />
<g clip-path="url(#c0_1)">
<g fill="#000000" >
<use xlink:href="#f0_1g" transform="matrix(9.8,0,0,9.8,548.8,230.3)" />
<use xlink:href="#f0_21" transform="matrix(9.8,0,0,9.8,559.1,230.3)" />
<use xlink:href="#f0_2e" transform="matrix(9.8,0,0,9.8,568.3,230.3)" />
<use xlink:href="#f0_2h" transform="matrix(9.8,0,0,9.8,574,230.3)" />
<use xlink:href="#f0_2a" transform="matrix(9.8,0,0,9.8,584.3,230.3)" />
<use xlink:href="#f0_1j" transform="matrix(9.8,0,0,9.8,551.7,248.6)" />
</g>
</g>
<text 
x="548" 
y="230" 
dx="0,0.5,0.3,-0.7,0.7" 
class="s5_1"
>Perun</text>

<g clip-path="url(#c0_1)">
<g fill="#000000" >
<use xlink:href="#f0_2h" transform="matrix(9.8,0,0,9.8,560.9,248.6)" />
<use xlink:href="#f0_25" transform="matrix(9.8,0,0,9.8,571.2,248.6)" />
<use xlink:href="#f0_2g" transform="matrix(9.8,0,0,9.8,575.8,248.6)" />
<use xlink:href="#f0_21" transform="matrix(9.8,0,0,9.8,582.6,248.6)" />
</g>
</g>
<text 
x="551" 
y="248" 
dx="0,-0.3,0.7,0.1,0.6" 
class="s5_1"
>Suite</text>

<path fill-rule="evenodd" d="M204.4,111.1c0,-2.2,-1.6,-3.9,-3.7,-3.9c-2,0,-3.6,1.7,-3.6,3.9c0,2.1,1.6,3.9,3.6,3.9c2.1,0,3.7,-1.8,3.7,-3.9Z" class="g1_1" />
<path d="M204.4,111.1c0,-2.2,-1.6,-3.9,-3.7,-3.9c-2,0,-3.6,1.7,-3.6,3.9c0,2.1,1.6,3.9,3.6,3.9c2.1,0,3.7,-1.8,3.7,-3.9Z" class="g7_1" />
<g clip-path="url(#c0_1)">
<g fill="#000000" >
<use xlink:href="#f0_23" transform="matrix(6,0,0,6,79.6,94.2)" />
<use xlink:href="#f0_25" transform="matrix(6,0,0,6,85.3,94.2)" />
<use xlink:href="#f0_2g" transform="matrix(6,0,0,6,87.6,94.2)" />
<use xlink:href="#f0_25" transform="matrix(6,0,0,6,94.4,94.2)" />
<use xlink:href="#f0_2a" transform="matrix(6,0,0,6,97.9,94.2)" />
<use xlink:href="#f0_25" transform="matrix(6,0,0,6,103.6,94.2)" />
<use xlink:href="#f0_2g" transform="matrix(6,0,0,6,105.9,94.2)" />
<use xlink:href="#f0_h" transform="matrix(6,0,0,6,112.5,94.2)" />
<use xlink:href="#f0_h" transform="matrix(6,0,0,6,116,94.2)" />
<use xlink:href="#f0_1y" transform="matrix(6,0,0,6,120.5,94.2)" />
<use xlink:href="#f0_1x" transform="matrix(6,0,0,6,126.2,94.2)" />
<use xlink:href="#f0_2e" transform="matrix(6,0,0,6,131.9,94.2)" />
<use xlink:href="#f0_21" transform="matrix(6,0,0,6,135.3,94.2)" />
</g>
</g>
<text 
x="79" 
y="94" 
dx="0,-0.1,-0.5,0.7,-0.4,0.6,-0.2,-0.5,-0.4,0.5,-0.5,0.5,-0.1,0.2,-0.6" 
class="s2_1"
>git init --bare</text>

<g clip-path="url(#c2_1)">
<path d="M200.2,110L168,91.3" class="g4_1" />
</g>
<path d="M152.2,91.3l15.8,0" class="g4_1" />
<path fill-rule="evenodd" d="M153.4,97.4l-6.2,-6.1l6.2,-6.2l0,12.3Z" class="g1_1" />

<defs>
	<path d="M594,-21.4c0,0,-250.1,0,-397.1,150.9c0,0,-147,151,-147,424.7c0,0,0,264.1,147.4,421.1c0,0,147.4,157,397.4,157c0,0,66.5,0,119.5,-7.5c0,0,53,-7.4,101.5,-20.8c0,0,38,-11.2,82.8,-30.6c0,0,44.8,-19.4,72.4,-33.5l0,-264.5l-28.3,0c0,0,-20.2,17.8,-50.7,42.7c0,0,-30.6,24.9,-69.4,48.7c0,0,-38.8,23.8,-85.4,40.5c0,0,-46.7,16.7,-97.4,16.7c0,0,-60.4,0,-110.8,-19c0,0,-50.3,-19,-95.9,-66c0,0,-41.7,-42.5,-68.2,-114.8c0,0,-26.5,-72.3,-26.5,-170.7c0,0,0,-103.6,27.6,-174c0,0,27.6,-70.5,72.4,-113.7c0,0,43.2,-41.8,96.6,-60.4c0,0,53.3,-18.6,106.3,-18.6c0,0,55.2,0,105.2,18.3c0,0,50,18.3,84.3,40.6c0,0,37.3,23.2,65.6,47.1c0,0,28.4,23.9,49.3,42.6l25.3,0l0,-261.3c0,0,-30.6,-14.2,-70.9,-32.5c0,0,-40.3,-18.3,-82.8,-31c0,0,-52.3,-15.6,-97.8,-23.8c0,0,-45.5,-8.2,-125.4,-8.2Z" 
	id="f0_13"
	transform="scale(0.001,-0.001)" />

	<path d="M473.7,161.3c0,0,31.3,0,63.6,13.5c0,0,32.4,13.4,51.8,40.2c0,0,23,32.1,34.9,77.2c0,0,11.9,45.1,11.9,124.9c0,0,0,74.6,-12.2,124.2c0,0,-12.3,49.6,-33.9,79.4c0,0,-23.1,31.3,-52.1,43.6c0,0,-29,12.3,-66.2,12.3c0,0,-35,0,-63.3,-10.8c0,0,-28.2,-10.8,-52.1,-41.4c0,0,-22.3,-29.1,-35.7,-79.8c0,0,-13.4,-50.7,-13.4,-127.5c0,0,0,-76.8,12.7,-124.1c0,0,12.6,-47.4,32.7,-75.7c0,0,20.9,-29.1,52.1,-42.5c0,0,31.3,-13.5,69.2,-13.5ZM471.5,-26.3c0,0,-205,0,-318.7,119c0,0,-113.7,119.1,-113.7,325.9c0,0,0,209.1,113.7,327.4c0,0,113.7,118.4,318.7,118.4c0,0,205.7,0,319,-119.1c0,0,113.3,-119.1,113.3,-326.7c0,0,0,-206.8,-112.9,-325.9c0,0,-112.9,-119,-319.4,-119Z" 
	id="f0_2b"
	transform="scale(0.001,-0.001)" />

	<path d="M99.7,0l0,1160.6l261.1,0L360.8,0Z" 
	id="f0_28"
	transform="scale(0.001,-0.001)" />

	<path d="M615.8,527c0,0,-2.3,82.7,-38.5,126c0,0,-36.3,43.2,-111.1,43.2c0,0,-76.3,0,-119.3,-45.5c0,0,-43,-45.4,-47.5,-123.7Zm-87,-549.4c0,0,-237,0,-363.3,113.4c0,0,-126.4,113.4,-126.4,323.2c0,0,0,205.3,117.8,327.7c0,0,117.9,122.5,329.7,122.5c0,0,192.4,0,289.4,-103.8c0,0,96.9,-103.7,96.9,-297l0,-94l-572.7,0c0,0,3.7,-58.3,24.6,-97.6c0,0,20.9,-39.2,55.2,-62.4c0,0,33.6,-23.2,78.3,-33.3c0,0,44.8,-10.1,97.8,-10.1c0,0,45.5,0,89.5,10.1c0,0,44,10,80.6,26.3c0,0,32.1,14.1,59.3,30.5c0,0,27.2,16.3,44.4,28.9l27.6,0l0,-215.2c0,0,-32,-12.7,-58.5,-23.5c0,0,-26.5,-10.8,-72.7,-22c0,0,-42.5,-11,-87.6,-17.3c0,0,-45.1,-6.4,-109.9,-6.4Z" 
	id="f0_21"
	transform="scale(0.001,-0.001)" />

	<path d="M511.4,-22.4c0,0,-103.7,0,-189.9,26c0,0,-86.2,26.1,-149.6,80.6c0,0,-62.7,54.4,-97.7,136.8c0,0,-35.1,82.4,-35.1,194.2c0,0,0,120.1,38.1,204.4c0,0,38,84.2,102.9,138.7c0,0,62.7,52.2,147.4,77.2c0,0,84.6,24.9,176.4,24.9c0,0,69.4,0,138.8,-16c0,0,69.4,-16.1,139.5,-51.2l0,-224.1l-33.5,0c0,0,-15.7,15,-38.5,33c0,0,-22.7,18,-49.6,33.1c0,0,-28.3,15.7,-64.1,26.6c0,0,-35.8,10.9,-79.9,10.9c0,0,-99.9,0,-154.7,-69.7c0,0,-54.9,-69.8,-54.9,-187.7c0,0,0,-126.2,58.6,-188.1c0,0,58.5,-61.9,155.5,-61.9c0,0,49.3,0,86.6,11.1c0,0,37.3,11.2,64.1,26.9c0,0,26.1,15.6,44.8,32.4c0,0,18.6,16.8,32.1,30.3l33.5,0l0,-223.6c0,0,-22.4,-9.8,-51.8,-22.4c0,0,-29.5,-12.7,-60.1,-20.8c0,0,-38.1,-10.4,-71.3,-16c0,0,-33.2,-5.6,-87.6,-5.6Z" 
	id="f0_1z"
	transform="scale(0.001,-0.001)" />

	<path d="M420.4,-16.5c0,0,-159.6,0,-232.3,65.6c0,0,-72.7,65.7,-72.7,215l0,392l-99.8,0l0,181.9l99.8,0l0,239.5l261,0l0,-239.5l251.3,0l0,-181.9l-251.3,0l0,-297.8c0,0,0,-44.2,0.8,-77.1c0,0,0.7,-32.9,11.9,-59.1c0,0,10.5,-26.2,36.9,-41.5c0,0,26.5,-15.3,77.2,-15.3c0,0,20.9,0,54.8,8.9c0,0,33.9,9,47.4,16.5l22.3,0l0,-183.6c0,0,-42.5,-11,-90.2,-17.3c0,0,-47.7,-6.3,-117.1,-6.3Z" 
	id="f0_2g"
	transform="scale(0.001,-0.001)" />

	<path d="M99.7,0l0,838l261.1,0l0,-120.2c0,0,17.9,16.4,49.6,41.4c0,0,31.6,25,57.7,39.9c0,0,28.4,17.2,66,29.5c0,0,37.7,12.3,71.2,12.3c0,0,12.7,0,28.3,-0.8c0,0,15.7,-0.7,28.4,-2.2l0,-247.3l-21.7,0c0,0,-14.9,5.4,-43.2,8.1c0,0,-28.3,2.6,-62.6,2.6c0,0,-41,0,-86.1,-11.9c0,0,-45.1,-11.9,-87.6,-28.3L360.8,0Z" 
	id="f0_2e"
	transform="scale(0.001,-0.001)" />

	<path d="M355.1,-22.4c0,0,-92.5,0,-175,20.2c0,0,-82.4,20.1,-136.1,47L44,266l21.6,0c0,0,18.7,-14.3,42.5,-31.5c0,0,23.9,-17.3,66.3,-36.1c0,0,36.6,-17.2,82.4,-29.6c0,0,45.9,-12.3,99.5,-12.3c0,0,55.2,0,97.3,17.1c0,0,42.1,17.1,42.1,54.3c0,0,0,29,-19.3,43.9c0,0,-19.4,14.9,-75.3,28.3c0,0,-29.8,7.5,-75.3,16c0,0,-45.4,8.6,-80.4,19.8c0,0,-98.4,30.6,-147.9,90.5c0,0,-49.6,60,-49.6,157.6c0,0,0,55.9,25.8,105.4c0,0,25.7,49.6,75.7,88.3c0,0,50,38,123.5,60.4c0,0,73.5,22.3,166,22.3c0,0,88.1,0,162,-17.5c0,0,73.9,-17.6,124.6,-42.2l0,-212.1l-20.9,0c0,0,-13.4,10.5,-42.5,28.1c0,0,-29.1,17.6,-56.7,30.4c0,0,-32.8,14.9,-73.4,24.7c0,0,-40.7,9.7,-83.2,9.7c0,0,-56.6,0,-95.8,-19.3c0,0,-39.1,-19.4,-39.1,-51.4c0,0,0,-28.3,19.3,-44.7c0,0,19.4,-16.4,84.2,-32c0,0,33.6,-8.2,77.1,-16c0,0,43.6,-7.9,83.9,-21.3c0,0,90.1,-29,136.7,-85.3c0,0,46.6,-56.2,46.6,-149.4c0,0,0,-58.8,-27.6,-112.1c0,0,-27.6,-53.3,-78.4,-89.8c0,0,-53.7,-39.5,-126.4,-61c0,0,-72.8,-21.6,-174.2,-21.6Z" 
	id="f0_2f"
	transform="scale(0.001,-0.001)" />

	<path d="M413.4,571c0,0,39.6,0,74.6,0.8c0,0,35.1,0.7,61.2,5.2c0,0,22.4,3.7,47.4,14.5c0,0,25,10.8,38.4,24.2c0,0,28.3,27.6,38.4,57.4c0,0,10.1,29.8,10.1,80.5c0,0,0,47,-22.4,80.9c0,0,-22.4,33.9,-53.7,46.6c0,0,-39.6,17.2,-75.7,19.8c0,0,-36.2,2.6,-98.1,2.6l-39.6,0L394,571ZM115.4,0l0,1110.8l431,0c0,0,96.2,0,165.9,-17.6c0,0,69.7,-17.5,126.4,-55.5c0,0,62.6,-41.8,96.9,-111.5c0,0,34.4,-69.7,34.4,-165.8c0,0,0,-77.6,-24.7,-147.7c0,0,-24.6,-70,-70.8,-117c0,0,-28.4,-29.1,-62.3,-53.7c0,0,-34,-24.6,-75,-41.7c0,0,-41,-17.2,-89.1,-26.9c0,0,-48.2,-9.7,-107.8,-9.7l-146.3,0L394,0Z" 
	id="f0_1g"
	transform="scale(0.001,-0.001)" />

	<path d="M465.9,175c0,0,95.3,0,141.5,62.2c0,0,46.2,62.2,46.2,187.4c0,0,0,122.2,-37.6,177.3c0,0,-37.6,55.2,-117.4,55.2c0,0,-35,0,-69.6,-11.2c0,0,-34.7,-11.2,-68.2,-33.5l0,-421c0,0,20.9,-8.9,45.8,-12.6c0,0,25,-3.8,59.3,-3.8ZM99.7,-306.9L99.7,838l261.1,0l0,-87.9c0,0,57.5,49.2,117.2,79.8c0,0,59.7,30.5,138.1,30.5c0,0,145.6,0,225.5,-115.6c0,0,79.9,-115.6,79.9,-314.7c0,0,0,-200.6,-101.9,-323.7c0,0,-101.9,-122.9,-251.3,-122.9c0,0,-62.7,0,-109,14.1c0,0,-46.2,14.1,-98.5,43.9l0,-348.4Z" 
	id="f0_2c"
	transform="scale(0.001,-0.001)" />

	<path d="M99.7,0l0,838l261.1,0l0,-838ZM91.9,957.2l0,203.4l275.8,0l0,-203.4Z" 
	id="f0_25"
	transform="scale(0.001,-0.001)" />

	<path d="M99.7,0l0,838l261.1,0l0,-93.1c0,0,64.2,54.4,125.1,85c0,0,60.9,30.5,134.8,30.5c0,0,128.5,0,196.4,-80.9c0,0,68,-80.9,68,-234.5l0,-545l-263,0l0,415.3c0,0,0,50.7,-4.1,101c0,0,-4.1,50.3,-15.3,74.2c0,0,-13.5,28.3,-38.8,40.6c0,0,-25.4,12.3,-68,12.3c0,0,-32.1,0,-64.9,-11.9c0,0,-32.9,-12,-70.2,-38.1L360.8,0Z" 
	id="f0_2a"
	transform="scale(0.001,-0.001)" />

	<path d="M467.4,218c0,0,35,0,68.9,11.9c0,0,33.9,11.9,64.5,34.3l0,378.9c0,0,-19.4,8.9,-47.7,14.9c0,0,-28.3,5.9,-56.6,5.9c0,0,-93.9,0,-141.2,-60.6c0,0,-47.3,-60.7,-47.3,-169.4c0,0,0,-54.3,7.1,-91.9c0,0,7,-37.6,26.4,-66.6c0,0,18.6,-28.3,48.8,-42.8c0,0,30.2,-14.6,77.1,-14.6ZM416.1,-314.7c0,0,-83.7,0,-158.7,10.8c0,0,-75,10.8,-130.3,25l0,209.6l30.6,0c0,0,19.5,-7.4,46,-16.2c0,0,26.5,-8.9,53.4,-16.2c0,0,32.1,-8.1,62.8,-13.3c0,0,30.6,-5.2,62.7,-5.2c0,0,66.5,0,111,13.7c0,0,44.4,13.6,66.8,38.7c0,0,22.5,25.8,31.4,60.9c0,0,9,35,9,88.8l0,15.6c0,0,-44.1,-38.8,-101.9,-62.3c0,0,-57.9,-23.5,-119.1,-23.5c0,0,-162.8,0,-251.2,105.9c0,0,-88.5,105.9,-88.5,322.2c0,0,0,98.5,27.2,176.8c0,0,27.3,78.3,75.8,133.4c0,0,46.3,53,112,81.7c0,0,65.7,28.7,136.6,28.7c0,0,64.3,0,115,-16c0,0,50.8,-16.1,92.6,-43.7L609,838l252.9,0l0,-741.2c0,0,0,-116.3,-33.6,-197.5c0,0,-33.7,-81.3,-91.9,-126.8c0,0,-58.2,-46.2,-139.6,-66.7c0,0,-81.4,-20.5,-180.7,-20.5Z" 
	id="f0_23"
	transform="scale(0.001,-0.001)" />

	<path d="M370.3,0L-11.6,1110.8l289.4,0L519.4,358.6L761,1110.8l282.3,0L661.3,0Z" 
	id="f0_1m"
	transform="scale(0.001,-0.001)" />

	<path d="M357.3,-23.4c0,0,-124.8,0,-194.6,78.7c0,0,-69.8,78.7,-69.8,237l0,545.7l263,0l0,-415.9c0,0,0,-65,3.4,-106c0,0,3.3,-41.1,16,-69.5c0,0,12,-26.1,37,-39.5c0,0,25,-13.5,69.8,-13.5c0,0,27.6,0,65.3,13.4c0,0,37.7,13.5,69.8,36.6l0,594.4l261.1,0l0,-838L617.2,0l0,92.2c0,0,-67.9,-56.7,-124.7,-86.2c0,0,-56.8,-29.4,-135.2,-29.4Z" 
	id="f0_2h"
	transform="scale(0.001,-0.001)" />

	<path d="M426.5,159.4c0,0,34.4,0,70.2,15.6c0,0,35.8,15.7,64.9,43.9l0,174.2c0,0,-66.4,-6.7,-107.5,-11.6c0,0,-41,-4.8,-80.6,-18.9c0,0,-34.3,-11.9,-53.3,-36.1c0,0,-19,-24.2,-19,-64.4c0,0,0,-58.8,31.7,-80.8c0,0,31.7,-21.9,93.6,-21.9ZM295.3,-22.4c0,0,-111.2,0,-184.7,74.5c0,0,-73.4,74.6,-73.4,188c0,0,0,93.3,37.2,150.7c0,0,37.4,57.5,107.5,91c0,0,70.9,34.4,169.3,47.8c0,0,98.5,13.4,211.9,20.9l0,4.5c0,0,0,69.5,-51.1,96.1c0,0,-51,26.5,-153.2,26.5c0,0,-46.2,0,-108.1,-16.8c0,0,-61.9,-16.7,-120.8,-42.8l-22.3,0l0,201.7c0,0,38.7,11.2,125.3,26.5c0,0,86.6,15.2,174.6,15.2c0,0,216.4,0,315.3,-71.9c0,0,98.9,-72,98.9,-219.7L821.7,0L561.6,0l0,88.8c0,0,-26.8,-22.4,-48.1,-40.3c0,0,-21.3,-17.9,-57.1,-35.8c0,0,-35,-17.1,-68.2,-26.1c0,0,-33.2,-9,-92.9,-9Z" 
	id="f0_1x"
	transform="scale(0.001,-0.001)" />

	<path d="M36.2,0l0,171.9L435.6,641.4l-381.8,0l0,196.6l705.9,0l0,-169.7L359.6,199.5l408,0L767.6,0Z" 
	id="f0_2m"
	transform="scale(0.001,-0.001)" />

	<path d="M360.6,-306.9c0,0,-63.5,75.3,-115,155.1c0,0,-51.5,79.8,-88.8,171.4c0,0,-35.1,85.8,-54.9,190.2c0,0,-19.8,104.4,-19.8,217c0,0,0,123,20.6,223c0,0,20.5,99.9,53.3,182.7c0,0,35.9,90.2,87.8,170.4c0,0,51.8,80.1,116.8,157.7l274,0l0,-21.6c0,0,-60.4,-54.5,-115.3,-123.4c0,0,-54.8,-69,-101.8,-161.5c0,0,-44.8,-88.7,-72.7,-196.9c0,0,-28,-108.1,-28,-230.4c0,0,0,-127.5,27.2,-231.2c0,0,27.3,-103.7,73.5,-196c0,0,44.8,-88,101.1,-160c0,0,56.3,-71.9,116,-124.9l0,-21.6Z" 
	id="f0_c"
	transform="scale(0.001,-0.001)" />

	<path d="M98.8,0l0,838l261,0l0,-93.1c0,0,64.3,54.4,121.2,85c0,0,56.8,30.5,127.9,30.5c0,0,77,0,135.3,-36.5c0,0,58.4,-36.5,89,-108.9c0,0,75.3,70.1,142,107.8c0,0,66.7,37.6,135.2,37.6c0,0,58.1,0,104.3,-18.6c0,0,46.2,-18.6,78.3,-55.9c0,0,35,-40.3,52.5,-95.8c0,0,17.5,-55.6,17.5,-145.1L1363,0L1100,0l0,418.2c0,0,0,61.9,-2.2,104.4c0,0,-2.3,42.5,-13.4,69.4c0,0,-11.1,26.8,-34.5,39.1c0,0,-23.4,12.3,-65.7,12.3c0,0,-29.7,0,-58.7,-13.1c0,0,-29,-13,-63.1,-36.9L862.4,0l-263,0l0,418.2c0,0,0,61.2,-2.6,104c0,0,-2.7,42.9,-13.9,69.8c0,0,-11.2,26.8,-34.8,39.1c0,0,-23.6,12.3,-65.5,12.3c0,0,-32.2,0,-62.9,-14.9c0,0,-30.7,-14.9,-59.9,-35.1L359.8,0Z" 
	id="f0_29"
	transform="scale(0.001,-0.001)" />

	<path d="M-3.8,-275.6l147,568.9l273.3,0L155.1,-275.6Z" 
	id="f0_g"
	transform="scale(0.001,-0.001)" />

	<path d="M178.2,-306.9l127,327.8L-1.8,838l274.6,0L448.5,313.8L613.1,838L882,838L459,-306.9Z" 
	id="f0_2l"
	transform="scale(0.001,-0.001)" />

	<path d="M127.1,0l0,293.3l253.3,0L380.4,0ZM636.5,0l0,293.3l253.3,0L889.8,0ZM1146,0l0,293.3l253.2,0L1399.2,0Z" 
	id="f1_4s"
	transform="scale(0.001,-0.001)" />

	<path d="M58.7,-306.9l0,21.6c0,0,59.7,53,116.4,124.6c0,0,56.6,71.5,100.6,160.3c0,0,46.3,92.3,73.5,196c0,0,27.3,103.7,27.3,231.2c0,0,0,122.3,-28,230.4c0,0,-28,108.2,-72.8,196.9c0,0,-47.1,92.5,-101.9,161.5c0,0,-54.9,68.9,-115.4,123.4l0,21.6l274.2,0c0,0,65,-77.6,116.9,-157.7c0,0,51.9,-80.2,87.7,-170.4c0,0,32.8,-82.8,53.4,-182.7c0,0,20.5,-100,20.5,-223c0,0,0,-112.6,-19.8,-216.6c0,0,-19.8,-104.1,-54.9,-190.6c0,0,-37.3,-91.6,-88.8,-171.4c0,0,-51.5,-79.8,-115,-155.1Z" 
	id="f1_d"
	transform="scale(0.001,-0.001)" />

	<path d="M120.3,0l0,656.1l-104.7,0l0,181.9l104.7,0l0,23.1c0,0,0,153.7,80.5,230.5c0,0,80.5,76.8,243.8,76.8c0,0,56.7,0,105.9,-4c0,0,49.2,-4.2,85.1,-10.9l0,-189.4l-20.2,0c0,0,-14.9,4.5,-46.5,11.5c0,0,-31.7,7.1,-60,7.1c0,0,-79,0,-107.7,-29.1c0,0,-28.7,-29.1,-28.7,-108.9l0,-6.7l207.3,0l0,-181.9l-198.5,0L381.3,0Z" 
	id="f0_22"
	transform="scale(0.001,-0.001)" />

	<path d="M465.8,174.1c0,0,94.6,0,141.1,62.6c0,0,46.5,62.6,46.5,187.8c0,0,0,125.2,-37.9,178.9c0,0,-38,53.7,-117,53.7c0,0,-35,0,-69.6,-11.2c0,0,-34.6,-11.2,-68.1,-33.5l0,-420.4c0,0,26,-10.5,52.5,-14.2c0,0,26.4,-3.7,52.5,-3.7ZM568.3,-16.5c0,0,-62.7,0,-109,14.3c0,0,-46.3,14.1,-98.5,44L349.6,0L99.7,0l0,1160.6l261.1,0l0,-410.6c0,0,57.5,49.3,117.2,79.9c0,0,59.7,30.5,138,30.5c0,0,146.3,0,225.8,-114.1c0,0,79.5,-114.1,79.5,-316.2c0,0,0,-199.9,-101.5,-323.3c0,0,-101.5,-123.3,-251.5,-123.3Z" 
	id="f0_1y"
	transform="scale(0.001,-0.001)" />

	<path d="M99.7,0l0,1160.6l261.1,0l0,-415.7c0,0,64.2,54.4,125.1,85c0,0,60.9,30.5,134.8,30.5c0,0,128.5,0,196.4,-80.9c0,0,68,-80.9,68,-234.5l0,-545l-263,0l0,415.3c0,0,0,50.7,-4.1,101c0,0,-4.1,50.3,-15.3,74.2c0,0,-13.5,28.3,-38.8,40.6c0,0,-25.4,12.3,-68,12.3c0,0,-32.1,0,-64.9,-11.9c0,0,-32.9,-12,-70.2,-38.1L360.8,0Z" 
	id="f0_24"
	transform="scale(0.001,-0.001)" />

	<path d="M458.1,-20.4c0,0,-127.5,0,-224.1,24.5c0,0,-96.5,24.6,-179.2,61.2l0,264.2l25.3,0c0,0,83.5,-70.7,184.2,-108.7c0,0,100.7,-37.9,195.4,-37.9c0,0,23.9,0,63,5.2c0,0,39.2,5.2,63.1,16.3c0,0,29,12.7,49.2,35.4c0,0,20.1,22.7,20.1,59.9c0,0,0,41.8,-32.8,67.9c0,0,-32.8,26.2,-78.3,38.1c0,0,-56.6,14.9,-121.1,28.4c0,0,-64.5,13.4,-120.5,32.8c0,0,-129,45.5,-184.9,122.4c0,0,-55.9,76.9,-55.9,192.6c0,0,0,156,131.9,252.7c0,0,131.9,96.7,329.5,96.7c0,0,99.1,0,197.1,-20.2c0,0,98,-20.1,175.5,-54.5l0,-253.8l-24.6,0c0,0,-61.9,52.5,-150.9,88.8c0,0,-89.1,36.3,-183.1,36.3c0,0,-36.5,0,-65.6,-5.2c0,0,-29.1,-5.1,-61.2,-19.9c0,0,-26.1,-11.8,-45.1,-35.1c0,0,-19,-23.3,-19,-52.2c0,0,0,-42.5,30.2,-67.5c0,0,30.2,-25.1,116.7,-45.2c0,0,55.9,-12.7,107.8,-24.6c0,0,51.8,-12,110.7,-32.9c0,0,115.5,-41.8,171.8,-112.3c0,0,56.3,-70.6,56.3,-186.3c0,0,0,-165.7,-130,-266.5c0,0,-130.1,-100.6,-351.5,-100.6Z" 
	id="f0_1j"
	transform="scale(0.001,-0.001)" />

	<path d="M298.4,0L0,838l274,0L445.6,283.6L614.9,838l269,0L583.3,0Z" 
	id="f0_2i"
	transform="scale(0.001,-0.001)" />

	<path d="M399.3,208.3c0,0,93.9,0,158.5,3.3c0,0,64.5,3.4,122.7,39.9c0,0,68.6,43.3,104.4,119.4c0,0,35.8,76.1,35.8,185.7c0,0,0,109.7,-37.7,187.6c0,0,-37.7,78,-116,122c0,0,-56.7,31.3,-118.9,34.3c0,0,-62.3,3,-148.8,3l-5.3,0l0,-695.2ZM115.4,0l0,1110.8l344.5,0c0,0,117.1,0,219.2,-15c0,0,102.2,-14.9,191.7,-72.3c0,0,109.6,-70.2,173,-189.1c0,0,63.4,-119,63.4,-280.2c0,0,0,-155.1,-67.9,-277.8c0,0,-67.9,-122.7,-171.5,-188.4c0,0,-86.5,-55.9,-188.3,-72C679.5,16,577.7,0,462.9,0Z" 
	id="f0_14"
	transform="scale(0.001,-0.001)" />

	<path d="M112.4,0l0,180.9c0,0,103.8,82.2,186.3,155.3c0,0,82.5,73.2,145.2,138.9c0,0,81.4,85.9,117.9,150.8c0,0,36.6,65,36.6,133.7c0,0,0,77.6,-46.3,119.1c0,0,-46.4,41.4,-129.3,41.4c0,0,-42.6,0,-80.3,-10.5c0,0,-37.8,-10.5,-76.6,-27c0,0,-38.1,-17.3,-65,-35.2c0,0,-26.9,-18,-40.4,-27l-21.7,0l0,242.5c0,0,47.1,22.4,147.1,45.9c0,0,100,23.5,192.5,23.5c0,0,197.8,0,299.7,-88.1c0,0,101.9,-88,101.9,-247.7c0,0,0,-98.5,-46.2,-192.9c0,0,-46.3,-94.4,-153.7,-202.6c0,0,-67.1,-66.4,-130.5,-118.3c0,0,-63.5,-51.8,-91.8,-73.5l471.1,0L928.9,0Z" 
	id="f0_m"
	transform="scale(0.001,-0.001)" />

	<path d="M144.7,0l0,193.6l234.7,0l0,587.7l-234.7,0l0,180.8c0,0,51.6,0,102.4,6.7c0,0,50.8,6.8,81.4,21.7c0,0,35.9,17.9,55.7,48.2c0,0,19.8,30.2,22.8,75l243.2,0l0,-920.1l228.8,0L879,0Z" 
	id="f0_l"
	transform="scale(0.001,-0.001)" />

	<path d="M106.6,0l0,293.3l264,0L370.6,0Z" 
	id="f0_i"
	transform="scale(0.001,-0.001)" />

	<path d="M58.7,-306.9l0,21.6c0,0,59.7,53,116.4,124.6c0,0,56.6,71.5,100.6,160.3c0,0,46.3,92.3,73.5,196c0,0,27.3,103.7,27.3,231.2c0,0,0,122.3,-28,230.4c0,0,-28,108.2,-72.8,196.9c0,0,-47.1,92.5,-101.9,161.5c0,0,-54.9,68.9,-115.4,123.4l0,21.6l274.2,0c0,0,65,-77.6,116.9,-157.7c0,0,51.9,-80.2,87.7,-170.4c0,0,32.8,-82.8,53.4,-182.7c0,0,20.5,-100,20.5,-223c0,0,0,-112.6,-19.8,-216.6c0,0,-19.8,-104.1,-54.9,-190.6c0,0,-37.3,-91.6,-88.8,-171.4c0,0,-51.5,-79.8,-115,-155.1Z" 
	id="f0_d"
	transform="scale(0.001,-0.001)" />

	<path d="M82.1,386.2l0,207.3l494.8,0l0,-207.3Z" 
	id="f0_h"
	transform="scale(0.001,-0.001)" />


</defs>

<!-- Any embedded fonts defined here -->
<style type="text/css" ><![CDATA[

@font-face {
	font-family: Tahoma-Bold_7;
	src: url("fonts/Tahoma-Bold_7.woff") format("woff");
}

]]></style>

</svg>
