<?xml version="1.0" encoding="UTF-8" standalone="no"?>
<svg
   xmlns:dc="http://purl.org/dc/elements/1.1/"
   xmlns:cc="http://creativecommons.org/ns#"
   xmlns:rdf="http://www.w3.org/1999/02/22-rdf-syntax-ns#"
   xmlns:svg="http://www.w3.org/2000/svg"
   xmlns="http://www.w3.org/2000/svg"
   viewBox="0 0 354.55997 136"
   height="136"
   width="354.55997"
   xml:space="preserve"
   id="svg2"
   version="1.1"><metadata
     id="metadata8"><rdf:RDF><cc:Work
         rdf:about=""><dc:format>image/svg+xml</dc:format><dc:type
           rdf:resource="http://purl.org/dc/dcmitype/StillImage" /></cc:Work></rdf:RDF></metadata><defs
     id="defs6"><clipPath
       id="clipPath18"
       clipPathUnits="userSpaceOnUse"><path
         style="clip-rule:evenodd"
         id="path16"
         d="M 0,0 H 1108.3333 V 422.36484 H 0 Z" /></clipPath><clipPath
       id="clipPath30"
       clipPathUnits="userSpaceOnUse"><path
         style="clip-rule:evenodd"
         id="path28"
         d="M 0,0 H 1108.3333 V 422.36484 H 0 Z" /></clipPath></defs><g
     transform="matrix(0.31999998,0,0,0.31999998,0,3.4e-6)"
     id="g10"><g
       id="g12"><g
         clip-path="url(#clipPath18)"
         id="g14"><g
           transform="scale(2.9954953)"
           id="g20"><path
             id="path22"
             style="fill:#ffffff;fill-opacity:1;fill-rule:nonzero;stroke:none"
             d="M 0,0 H 370 V 142 H 0 Z" /></g></g></g><g
       id="g24"><g
         clip-path="url(#clipPath30)"
         id="g26"><g
           transform="scale(2.9954953)"
           id="g32"><path
             id="path34"
             style="fill:none;stroke:#000000;stroke-width:1;stroke-linecap:butt;stroke-linejoin:miter;stroke-miterlimit:10;stroke-dasharray:none;stroke-opacity:1"
             d="M 8,51 H 329.76001" /><path
             id="path36"
             style="fill:#000000;fill-opacity:1;fill-rule:nonzero;stroke:none"
             d="m 335.76001,51 -8,4 2,-4 -2,-4 z" /><path
             id="path38"
             style="fill:none;stroke:#000000;stroke-width:1;stroke-linecap:butt;stroke-linejoin:miter;stroke-miterlimit:10;stroke-dasharray:none;stroke-opacity:1"
             d="m 335.76001,51 -8,4 2,-4 -2,-4 z" /></g><g
           transform="matrix(2.9954953,0,0,2.9954953,1.4977477,1.4977477)"
           id="g40"><path
             id="path42"
             style="fill:#ff6666;fill-opacity:1;fill-rule:nonzero;stroke:none"
             d="m 215.5,51 c -2e-5,0.464123 -0.0888,0.910587 -0.26645,1.339386 -0.1776,0.428799 -0.4305,0.807297 -0.75868,1.135487 -0.3282,0.328186 -0.7067,0.581085 -1.13548,0.758701 C 212.91057,54.41119 212.46411,54.5 212,54.5 c -0.46414,0 -0.91061,-0.08881 -1.3394,-0.266426 -0.42882,-0.177616 -0.80731,-0.430515 -1.13548,-0.758701 -0.32821,-0.32819 -0.5811,-0.706685 -0.75873,-1.135483 C 208.58879,51.910587 208.49998,51.464123 208.5,51 c -2e-5,-0.464134 0.0888,-0.910603 0.26639,-1.339401 0.17763,-0.428799 0.43052,-0.807289 0.75873,-1.135475 0.32817,-0.32819 0.70665,-0.581089 1.13546,-0.758706 C 211.08939,47.588806 211.53586,47.5 212,47.5 c 0.46411,0 0.91057,0.08881 1.33937,0.266415 0.4288,0.177616 0.8073,0.430519 1.1355,0.758709 0.32818,0.328186 0.58108,0.70668 0.75868,1.135479 0.17763,0.428798 0.26643,0.875263 0.26645,1.339397 z" /><path
             id="path44"
             style="fill:#ff6666;fill-opacity:1;fill-rule:nonzero;stroke:none"
             d="m 92.5,51 c -8e-6,0.464123 -0.08881,0.910587 -0.266434,1.339386 -0.17762,0.428799 -0.430519,0.807297 -0.758697,1.135487 -0.328186,0.328186 -0.706681,0.581085 -1.135483,0.758701 C 89.910583,54.41119 89.464119,54.5 89,54.5 88.535866,54.5 88.089401,54.41119 87.660591,54.233574 87.231796,54.055958 86.85331,53.803059 86.525116,53.474873 86.196922,53.146683 85.944023,52.768188 85.766411,52.33939 85.588799,51.910587 85.499992,51.464123 85.5,51 c -8e-6,-0.464134 0.0888,-0.910603 0.266411,-1.339401 0.177612,-0.428799 0.430511,-0.807289 0.758705,-1.135475 0.328194,-0.32819 0.70668,-0.581089 1.135475,-0.758706 C 88.089401,47.588806 88.535866,47.5 89,47.5 c 0.464119,0 0.910583,0.08881 1.339378,0.266415 0.42881,0.177616 0.807305,0.430519 1.135491,0.758709 0.328178,0.328186 0.581077,0.70668 0.758697,1.135479 C 92.411186,50.089401 92.499992,50.535866 92.5,51 Z" /><path
             id="path46"
             style="fill:#ff6666;fill-opacity:1;fill-rule:nonzero;stroke:none"
             d="m 115.5,51 c -1e-5,0.464123 -0.0888,0.910587 -0.26643,1.339386 -0.17762,0.428799 -0.43052,0.807297 -0.7587,1.135487 -0.32819,0.328186 -0.70669,0.581085 -1.13549,0.758701 C 112.91058,54.41119 112.46412,54.5 112,54.5 c -0.46413,0 -0.91061,-0.08881 -1.3394,-0.266426 -0.4288,-0.177616 -0.8073,-0.430515 -1.13548,-0.758701 -0.3282,-0.32819 -0.5811,-0.706685 -0.75872,-1.135483 C 108.5888,51.910587 108.49999,51.464123 108.5,51 c -1e-5,-0.464134 0.0888,-0.910603 0.26641,-1.339401 0.17761,-0.428799 0.43051,-0.807289 0.75871,-1.135475 0.32818,-0.32819 0.70668,-0.581089 1.13548,-0.758706 C 111.08939,47.588806 111.53587,47.5 112,47.5 c 0.46412,0 0.91058,0.08881 1.33938,0.266415 0.4288,0.177616 0.8073,0.430519 1.13549,0.758709 0.32818,0.328186 0.58108,0.70668 0.7587,1.135479 0.17762,0.428798 0.26642,0.875263 0.26643,1.339397 z" /><path
             id="path48"
             style="fill:#ff6666;fill-opacity:1;fill-rule:nonzero;stroke:none"
             d="m 187.5,51 c -2e-5,0.464123 -0.0888,0.910587 -0.26643,1.339386 -0.17763,0.428799 -0.43053,0.807297 -0.7587,1.135487 -0.3282,0.328186 -0.7067,0.581085 -1.1355,0.758701 C 184.91058,54.41119 184.46413,54.5 184,54.5 c -0.46414,0 -0.91061,-0.08881 -1.33942,-0.266426 -0.42878,-0.177616 -0.80728,-0.430515 -1.13546,-0.758701 -0.32821,-0.32819 -0.5811,-0.706685 -0.75872,-1.135483 C 180.58879,51.910587 180.49998,51.464123 180.5,51 c -2e-5,-0.464134 0.0888,-0.910603 0.2664,-1.339401 0.17762,-0.428799 0.43051,-0.807289 0.75872,-1.135475 0.32818,-0.32819 0.70668,-0.581089 1.13546,-0.758706 C 183.08939,47.588806 183.53586,47.5 184,47.5 c 0.46413,0 0.91058,0.08881 1.33937,0.266415 0.4288,0.177616 0.8073,0.430519 1.1355,0.758709 0.32817,0.328186 0.58107,0.70668 0.7587,1.135479 0.17761,0.428798 0.26641,0.875263 0.26643,1.339397 z" /><path
             id="path50"
             style="fill:#ff6666;fill-opacity:1;fill-rule:nonzero;stroke:none"
             d="m 151.5,51 c -2e-5,0.464123 -0.0888,0.910587 -0.26645,1.339386 -0.1776,0.428799 -0.4305,0.807297 -0.75868,1.135487 -0.3282,0.328186 -0.7067,0.581085 -1.13548,0.758701 C 148.91057,54.41119 148.46411,54.5 148,54.5 c -0.46414,0 -0.91061,-0.08881 -1.3394,-0.266426 -0.4288,-0.177616 -0.8073,-0.430515 -1.13548,-0.758701 -0.32821,-0.32819 -0.5811,-0.706685 -0.75873,-1.135483 C 144.58879,51.910587 144.49998,51.464123 144.5,51 c -2e-5,-0.464134 0.0888,-0.910603 0.26639,-1.339401 0.17763,-0.428799 0.43052,-0.807289 0.75873,-1.135475 0.32818,-0.32819 0.70668,-0.581089 1.13548,-0.758706 C 147.08939,47.588806 147.53586,47.5 148,47.5 c 0.46411,0 0.91057,0.08881 1.33939,0.266415 0.42878,0.177616 0.80728,0.430519 1.13548,0.758709 0.32818,0.328186 0.58108,0.70668 0.75868,1.135479 0.17763,0.428798 0.26643,0.875263 0.26645,1.339397 z" /><path
             id="path52"
             style="fill:#ff6666;fill-opacity:1;fill-rule:nonzero;stroke:none"
             d="m 165.5,51 c -2e-5,0.464123 -0.0888,0.910587 -0.26643,1.339386 -0.17762,0.428799 -0.43052,0.807297 -0.7587,1.135487 -0.3282,0.328186 -0.70671,0.581085 -1.1355,0.758701 C 162.91058,54.41119 162.46413,54.5 162,54.5 c -0.46414,0 -0.91061,-0.08881 -1.33943,-0.266426 -0.42879,-0.177616 -0.80728,-0.430515 -1.13545,-0.758701 -0.32821,-0.32819 -0.5811,-0.706685 -0.75872,-1.135483 C 158.58878,51.910587 158.49998,51.464123 158.5,51 c -2e-5,-0.464134 0.0888,-0.910603 0.2664,-1.339401 0.17762,-0.428799 0.43051,-0.807289 0.75872,-1.135475 0.32817,-0.32819 0.70666,-0.581089 1.13545,-0.758706 C 161.08939,47.588806 161.53586,47.5 162,47.5 c 0.46413,0 0.91058,0.08881 1.33937,0.266415 0.42879,0.177616 0.8073,0.430519 1.1355,0.758709 0.32818,0.328186 0.58108,0.70668 0.7587,1.135479 0.17761,0.428798 0.26641,0.875263 0.26643,1.339397 z" /><path
             id="path54"
             style="fill:#ff6666;fill-opacity:1;fill-rule:nonzero;stroke:none"
             d="m 223.5,51 c -2e-5,0.464123 -0.0888,0.910587 -0.26645,1.339386 -0.17763,0.428799 -0.43053,0.807297 -0.7587,1.135487 -0.3282,0.328186 -0.70669,0.581085 -1.13548,0.758701 C 220.91058,54.41119 220.46413,54.5 220,54.5 c -0.46413,0 -0.9106,-0.08881 -1.3394,-0.266426 -0.42882,-0.177616 -0.80731,-0.430515 -1.13548,-0.758701 -0.32821,-0.32819 -0.5811,-0.706685 -0.75872,-1.135483 C 216.58878,51.910587 216.49998,51.464123 216.5,51 c -2e-5,-0.464134 0.0888,-0.910603 0.2664,-1.339401 0.17762,-0.428799 0.43051,-0.807289 0.75872,-1.135475 0.32817,-0.32819 0.70666,-0.581089 1.13546,-0.758706 C 219.0894,47.588806 219.53587,47.5 220,47.5 c 0.46413,0 0.91058,0.08881 1.33937,0.266415 0.42879,0.177616 0.80728,0.430519 1.13548,0.758709 0.32817,0.328186 0.58107,0.70668 0.7587,1.135479 0.17761,0.428798 0.26643,0.875263 0.26645,1.339397 z" /><path
             id="path56"
             style="fill:#3333ff;fill-opacity:1;fill-rule:nonzero;stroke:none"
             d="m 236.5,51 c -2e-5,0.464123 -0.0888,0.910587 -0.26645,1.339386 -0.17763,0.428799 -0.43053,0.807297 -0.7587,1.135487 -0.3282,0.328186 -0.70671,0.581085 -1.13549,0.758701 C 233.91057,54.41119 233.46411,54.5 233,54.5 c -0.46414,0 -0.91061,-0.08881 -1.33943,-0.266426 -0.42879,-0.177616 -0.80728,-0.430515 -1.13545,-0.758701 -0.32821,-0.32819 -0.5811,-0.706685 -0.75872,-1.135483 C 229.58878,51.910587 229.49998,51.464123 229.5,51 c -2e-5,-0.464134 0.0888,-0.910603 0.2664,-1.339401 0.17762,-0.428799 0.43051,-0.807289 0.75872,-1.135475 0.32817,-0.32819 0.70666,-0.581089 1.13545,-0.758706 C 232.08939,47.588806 232.53586,47.5 233,47.5 c 0.46411,0 0.91057,0.08881 1.33936,0.266415 0.42878,0.177616 0.80729,0.430519 1.13549,0.758709 0.32817,0.328186 0.58107,0.70668 0.7587,1.135479 0.17761,0.428798 0.26643,0.875263 0.26645,1.339397 z" /><path
             id="path58"
             style="fill:#ff6666;fill-opacity:1;fill-rule:nonzero;stroke:none"
             d="m 295.5,51 c -3e-5,0.464123 -0.0889,0.910587 -0.26648,1.339386 -0.17761,0.428799 -0.43051,0.807297 -0.75867,1.135487 -0.32821,0.328186 -0.70669,0.581085 -1.13549,0.758701 C 292.91055,54.41119 292.46408,54.5 292,54.5 c -0.46414,0 -0.91061,-0.08881 -1.33942,-0.266426 -0.4288,-0.177616 -0.80731,-0.430515 -1.13546,-0.758701 C 289.1969,53.146683 288.944,52.768188 288.76636,52.33939 288.58875,51.910587 288.49997,51.464123 288.5,51 c -3e-5,-0.464134 0.0888,-0.910603 0.26636,-1.339401 0.17764,-0.428799 0.43054,-0.807289 0.75876,-1.135475 0.32815,-0.32819 0.70666,-0.581089 1.13546,-0.758706 C 291.08939,47.588806 291.53586,47.5 292,47.5 c 0.46408,0 0.91055,0.08881 1.33936,0.266415 0.4288,0.177616 0.80728,0.430519 1.13549,0.758709 0.32816,0.328186 0.58106,0.70668 0.75867,1.135479 0.17761,0.428798 0.26645,0.875263 0.26648,1.339397 z" /><path
             id="path60"
             style="fill:#ff6666;fill-opacity:1;fill-rule:nonzero;stroke:none"
             d="m 286.5,51 c -3e-5,0.464123 -0.0888,0.910587 -0.26645,1.339386 -0.17764,0.428799 -0.43054,0.807297 -0.7587,1.135487 -0.32821,0.328186 -0.70669,0.581085 -1.13549,0.758701 C 283.91055,54.41119 283.46411,54.5 283,54.5 c -0.46414,0 -0.91061,-0.08881 -1.33945,-0.266426 -0.4288,-0.177616 -0.80728,-0.430515 -1.13543,-0.758701 C 280.1969,53.146683 279.944,52.768188 279.76639,52.33939 279.58881,51.910587 279.5,51.464123 279.5,51 c 0,-0.464134 0.0888,-0.910603 0.26639,-1.339401 0.17761,-0.428799 0.43051,-0.807289 0.75873,-1.135475 0.32815,-0.32819 0.70663,-0.581089 1.13543,-0.758706 C 282.08939,47.588806 282.53586,47.5 283,47.5 c 0.46411,0 0.91055,0.08881 1.33936,0.266415 0.4288,0.177616 0.80728,0.430519 1.13549,0.758709 0.32816,0.328186 0.58106,0.70668 0.7587,1.135479 0.17761,0.428798 0.26642,0.875263 0.26645,1.339397 z" /><path
             id="path62"
             style="fill:#ff6666;fill-opacity:1;fill-rule:nonzero;stroke:none"
             d="m 265.5,51 c -3e-5,0.464123 -0.0888,0.910587 -0.26648,1.339386 -0.17761,0.428799 -0.43051,0.807297 -0.75867,1.135487 -0.32821,0.328186 -0.70669,0.581085 -1.13549,0.758701 C 262.91055,54.41119 262.46411,54.5 262,54.5 c -0.46414,0 -0.91061,-0.08881 -1.33942,-0.266426 -0.4288,-0.177616 -0.80731,-0.430515 -1.13546,-0.758701 C 259.1969,53.146683 258.944,52.768188 258.76639,52.33939 258.58881,51.910587 258.5,51.464123 258.5,51 c 0,-0.464134 0.0888,-0.910603 0.26642,-1.339401 0.17758,-0.428799 0.43048,-0.807289 0.7587,-1.135475 0.32815,-0.32819 0.70666,-0.581089 1.13546,-0.758706 C 261.08939,47.588806 261.53586,47.5 262,47.5 c 0.46411,0 0.91055,0.08881 1.33936,0.266415 0.4288,0.177616 0.80728,0.430519 1.13549,0.758709 0.32816,0.328186 0.58106,0.70668 0.75867,1.135479 0.17764,0.428798 0.26645,0.875263 0.26648,1.339397 z" /></g><g
           transform="matrix(2.9954953,0,0,2.9954953,89.864861,11.981981)"
           id="g64"><text
             id="text68"
             style="font-style:italic;font-variant:normal;font-size:11px;font-family:TimesNewRomanPS;-inkscape-font-specification:TimesNewRomanPS-ItalicMT;writing-mode:lr-tb;fill:#000000;fill-opacity:1;fill-rule:nonzero;stroke:none"
             transform="translate(0,11)"><tspan
               id="tspan66"
               y="0"
               x="0 7.3369141 10.086914 17.509766 20.259766">w	=	1</tspan></text>
</g><g
           transform="matrix(2.9954953,0,0,2.9954953,284.57205,11.981981)"
           id="g70"><text
             id="text74"
             style="font-style:italic;font-variant:normal;font-size:11px;font-family:TimesNewRomanPS;-inkscape-font-specification:TimesNewRomanPS-ItalicMT;writing-mode:lr-tb;fill:#000000;fill-opacity:1;fill-rule:nonzero;stroke:none"
             transform="translate(0,11)"><tspan
               id="tspan72"
               y="0"
               x="0 7.3369141 10.086914 17.509766 20.259766">w	=	2</tspan></text>
</g><g
           transform="matrix(2.9954953,0,0,2.9954953,461.30627,11.981981)"
           id="g76"><text
             id="text80"
             style="font-style:italic;font-variant:normal;font-size:11px;font-family:TimesNewRomanPS;-inkscape-font-specification:TimesNewRomanPS-ItalicMT;writing-mode:lr-tb;fill:#000000;fill-opacity:1;fill-rule:nonzero;stroke:none"
             transform="translate(0,11)"><tspan
               id="tspan78"
               y="0"
               x="0 7.3369141 10.086914 17.509766 20.259766">w	=	3</tspan></text>
</g><g
           transform="matrix(2.9954953,0,0,2.9954953,623.06305,11.981981)"
           id="g82"><text
             id="text86"
             style="font-style:italic;font-variant:normal;font-size:11px;font-family:TimesNewRomanPS;-inkscape-font-specification:TimesNewRomanPS-ItalicMT;writing-mode:lr-tb;fill:#000000;fill-opacity:1;fill-rule:nonzero;stroke:none"
             transform="translate(0,11)"><tspan
               id="tspan84"
               y="0"
               x="0 7.3369141 10.086914 17.509766 20.259766">w	=	4</tspan></text>
</g><g
           transform="matrix(2.9954953,0,0,2.9954953,787.81525,11.981981)"
           id="g88"><text
             id="text92"
             style="font-style:italic;font-variant:normal;font-size:11px;font-family:TimesNewRomanPS;-inkscape-font-specification:TimesNewRomanPS-ItalicMT;writing-mode:lr-tb;fill:#000000;fill-opacity:1;fill-rule:nonzero;stroke:none"
             transform="translate(0,11)"><tspan
               id="tspan90"
               y="0"
               x="0 7.3369141 10.086914 17.509766 20.259766">w	=	5</tspan></text>
</g><g
           transform="scale(2.9954953)"
           id="g94"><path
             id="path96"
             style="fill:#3333ff;fill-opacity:1;fill-rule:nonzero;stroke:none"
             d="m 74.5,110 h 2 v 2 h -2 m 4,-2 h 2 v 2 h -2 m 4,-2 h 2 v 2 h -2 m 4,-2 h 2 v 2 h -2 m 4,-2 h 2 v 2 h -2" /></g><g
           transform="matrix(2.9954953,0,0,2.9954953,302.54501,311.53152)"
           id="g98"><text
             id="text102"
             style="font-style:italic;font-variant:normal;font-size:11px;font-family:Helvetica;-inkscape-font-specification:Helvetica-Oblique;writing-mode:lr-tb;fill:#000000;fill-opacity:1;fill-rule:nonzero;stroke:none"
             transform="translate(0,11)"><tspan
               id="tspan100"
               y="0"
               x="0 7.9438477 14.061523 16.505371 22.623047 28.740723 31.796875 37.914551 44.032227 47.088379 49.532227 55.649902 58.706055 64.82373 68.486816 73.986816 80.104492 82.54834 85.604492 91.104492 97.222168 99.666016 105.78369 111.28369 114.33984 116.78369 122.90137">weighted interval selection</tspan></text>
</g><g
           transform="matrix(2.9954953,0,0,2.9954953,1.4977477,1.4977477)"
           id="g104"><path
             id="path106"
             style="fill:#ff6666;fill-opacity:1;fill-rule:nonzero;stroke:none"
             d="m 55.5,51 c -4e-6,0.464123 -0.08881,0.910587 -0.266426,1.339386 -0.177616,0.428799 -0.430519,0.807297 -0.758701,1.135487 -0.32819,0.328186 -0.706688,0.581085 -1.135487,0.758701 C 52.910587,54.41119 52.464127,54.5 52,54.5 51.535866,54.5 51.089401,54.41119 50.660603,54.233574 50.231804,54.055958 49.85331,53.803059 49.525124,53.474873 49.196934,53.146683 48.944031,52.768188 48.766415,52.33939 48.588799,51.910587 48.499996,51.464123 48.5,51 c -4e-6,-0.464134 0.0888,-0.910603 0.266411,-1.339401 0.177616,-0.428799 0.430523,-0.807289 0.758713,-1.135475 0.328186,-0.32819 0.70668,-0.581089 1.135479,-0.758706 C 51.089401,47.588806 51.535866,47.5 52,47.5 c 0.464127,0 0.910587,0.08881 1.339386,0.266415 0.428799,0.177616 0.807297,0.430519 1.135487,0.758709 0.328182,0.328186 0.581085,0.70668 0.758701,1.135479 C 55.41119,50.089401 55.499996,50.535866 55.5,51 Z" /><path
             id="path108"
             style="fill:#ff6666;fill-opacity:1;fill-rule:nonzero;stroke:none"
             d="m 39.5,51 c -4e-6,0.464123 -0.08881,0.910587 -0.266426,1.339386 -0.177616,0.428799 -0.430515,0.807297 -0.758701,1.135487 -0.32819,0.328186 -0.706688,0.581085 -1.135487,0.758701 C 36.910587,54.41119 36.464127,54.5 36,54.5 c -0.46413,0 -0.910595,-0.08881 -1.339397,-0.266426 -0.428799,-0.177616 -0.80729,-0.430515 -1.135479,-0.758701 -0.32819,-0.32819 -0.581089,-0.706685 -0.758706,-1.135483 C 32.588802,51.910587 32.499996,51.464123 32.5,51 c -4e-6,-0.464134 0.0888,-0.910603 0.266418,-1.339401 0.177617,-0.428799 0.430516,-0.807289 0.758706,-1.135475 0.328189,-0.32819 0.70668,-0.581089 1.135479,-0.758706 C 35.089405,47.588806 35.53587,47.5 36,47.5 c 0.464127,0 0.910587,0.08881 1.339386,0.266415 0.428799,0.177616 0.807297,0.430519 1.135487,0.758709 0.328186,0.328186 0.581085,0.70668 0.758701,1.135479 C 39.41119,50.089401 39.499996,50.535866 39.5,51 Z" /><path
             id="path110"
             style="fill:#ff6666;fill-opacity:1;fill-rule:nonzero;stroke:none"
             d="m 66.5,51 c -8e-6,0.464123 -0.08881,0.910587 -0.266426,1.339386 -0.17762,0.428799 -0.430519,0.807297 -0.758705,1.135487 -0.328194,0.328186 -0.706688,0.581085 -1.135483,0.758701 C 63.910587,54.41119 63.464127,54.5 63,54.5 62.53587,54.5 62.089401,54.41119 61.660603,54.233574 61.2318,54.055958 60.853306,53.803059 60.525124,53.474873 60.196934,53.146683 59.944031,52.768188 59.766415,52.33939 59.588799,51.910587 59.499996,51.464123 59.5,51 c -4e-6,-0.464134 0.0888,-0.910603 0.266411,-1.339401 0.177616,-0.428799 0.430523,-0.807289 0.758713,-1.135475 0.328182,-0.32819 0.706676,-0.581089 1.135479,-0.758706 C 62.089401,47.588806 62.53587,47.5 63,47.5 c 0.464127,0 0.910587,0.08881 1.339386,0.266415 0.428795,0.177616 0.807289,0.430519 1.135483,0.758709 0.328186,0.328186 0.581085,0.70668 0.758697,1.135479 C 66.411186,50.089401 66.499992,50.535866 66.5,51 Z" /><path
             id="path112"
             style="fill:#ff6666;fill-opacity:1;fill-rule:nonzero;stroke:none"
             d="m 133.5,51 c -2e-5,0.464123 -0.0888,0.910587 -0.26645,1.339386 -0.17761,0.428799 -0.43051,0.807297 -0.7587,1.135487 -0.3282,0.328186 -0.70669,0.581085 -1.13548,0.758701 C 130.91058,54.41119 130.46413,54.5 130,54.5 c -0.46413,0 -0.9106,-0.08881 -1.3394,-0.266426 -0.4288,-0.177616 -0.8073,-0.430515 -1.13548,-0.758701 -0.3282,-0.32819 -0.5811,-0.706685 -0.75872,-1.135483 C 126.58879,51.910587 126.49999,51.464123 126.5,51 c -1e-5,-0.464134 0.0888,-0.910603 0.2664,-1.339401 0.17762,-0.428799 0.43052,-0.807289 0.75872,-1.135475 0.32818,-0.32819 0.70668,-0.581089 1.13546,-0.758706 C 129.0894,47.588806 129.53587,47.5 130,47.5 c 0.46413,0 0.91058,0.08881 1.33937,0.266415 0.42879,0.177616 0.80728,0.430519 1.13548,0.758709 0.32819,0.328186 0.58109,0.70668 0.7587,1.135479 0.17761,0.428798 0.26643,0.875263 0.26645,1.339397 z" /><path
             id="path114"
             style="fill:#000000;fill-opacity:1;fill-rule:nonzero;stroke:none"
             d="m 75,61 v -1 h 1 v 1 m -1,-2 v -1 h 1 v 1 m -1,-2 v -1 h 1 v 1 m -1,-2 v -1 h 1 v 1 m -1,-2 v -1 h 1 v 1 m -1,-2 v -1 h 1 v 1 m -1,-2 v -1 h 1 v 1 m -1,-2 v -1 h 1 v 1 m -1,-2 v -1 h 1 v 1 m -1,-2 v -1 h 1 v 1 m -1,-2 v -1 h 1 v 1 m -1,-2 v -1 h 1 v 1 m -1,-2 v -1 h 1 v 1 m -1,-2 v -1 h 1 v 1 m -1,-2 v -1 h 1 v 1 m -1,-2 v -1 h 1 v 1 m -1,-2 v -1 h 1 v 1 m -1,-2 v -1 h 1 v 1 m -1,-2 v -1 h 1 v 1 m -1,-2 v -1 h 1 v 1" /></g><g
           transform="matrix(2.9954953,0,0,2.9954953,14.977476,191.7117)"
           id="g116"><text
             id="text120"
             style="font-variant:normal;font-weight:normal;font-size:12px;font-family:Helvetica;-inkscape-font-specification:Helvetica;writing-mode:lr-tb;fill:#000000;fill-opacity:1;fill-rule:nonzero;stroke:none"
             transform="translate(0,11)"><tspan
               id="tspan118"
               y="0"
               x="0">0</tspan></text>
</g><g
           transform="matrix(2.9954953,0,0,2.9954953,958.55847,191.7117)"
           id="g122"><text
             id="text126"
             style="font-style:italic;font-variant:normal;font-size:12px;font-family:Helvetica;-inkscape-font-specification:Helvetica-Oblique;writing-mode:lr-tb;fill:#000000;fill-opacity:1;fill-rule:nonzero;stroke:none"
             transform="translate(0,11)"><tspan
               id="tspan124"
               y="0"
               x="0 6 9.3339844 16.007812 22.681641 28.681641 34.681641">ﬁtness </tspan></text>
<text
             id="text130"
             style="font-style:italic;font-variant:normal;font-size:12px;font-family:Helvetica;-inkscape-font-specification:Helvetica-Oblique;writing-mode:lr-tb;fill:#000000;fill-opacity:1;fill-rule:nonzero;stroke:none"
             transform="translate(0,25)"><tspan
               id="tspan128"
               y="0"
               x="0 6 12 18.673828 22.669922">score</tspan></text>
</g><g
           transform="matrix(2.9954953,0,0,2.9954953,308.53601,251.62161)"
           id="g132"><text
             id="text136"
             style="font-style:italic;font-variant:normal;font-size:11px;font-family:Helvetica;-inkscape-font-specification:Helvetica-Oblique;writing-mode:lr-tb;fill:#000000;fill-opacity:1;fill-rule:nonzero;stroke:none"
             transform="translate(0,11)"><tspan
               id="tspan134"
               y="0"
               x="0 6.1176758 12.235352 15.898438 22.016113 28.133789 31.189941 34.246094 36.689941 42.807617 48.925293 55.042969">parent input</tspan></text>
</g><g
           transform="matrix(2.9954953,0,0,2.9954953,1.4977477,1.4977477)"
           id="g138"><path
             id="path140"
             style="fill:#000000;fill-opacity:1;fill-rule:nonzero;stroke:none"
             d="m 139.5,61 v -1 h 1 v 1 m -1,-2 v -1 h 1 v 1 m -1,-2 v -1 h 1 v 1 m -1,-2 v -1 h 1 v 1 m -1,-2 v -1 h 1 v 1 m -1,-2 v -1 h 1 v 1 m -1,-2 v -1 h 1 v 1 m -1,-2 v -1 h 1 v 1 m -1,-2 v -1 h 1 v 1 m -1,-2 v -1 h 1 v 1 m -1,-2 v -1 h 1 v 1 m -1,-2 v -1 h 1 v 1 m -1,-2 v -1 h 1 v 1 m -1,-2 v -1 h 1 v 1 m -1,-2 v -1 h 1 v 1 m -1,-2 v -1 h 1 v 1 m -1,-2 v -1 h 1 v 1 m -1,-2 v -1 h 1 v 1 m -1,-2 v -1 h 1 v 1 m -1,-2 v -1 h 1 v 1" /></g><g
           transform="scale(2.9954953)"
           id="g142"><path
             id="path144"
             style="fill:#3333ff;fill-opacity:1;fill-rule:nonzero;stroke:none"
             d="m 246,61 v -2 h 2 v 2 m -2,-4 v -2 h 2 v 2 m -2,-4 v -2 h 2 v 2 m -2,-4 v -2 h 2 v 2 m -2,-4 v -2 h 2 v 2 m -2,-4 v -2 h 2 v 2 m -2,-4 v -2 h 2 v 2 m -2,-4 v -2 h 2 v 2 m -2,-4 v -2 h 2 v 2 m -2,-4 v -2 h 2 v 2" /></g><g
           transform="matrix(2.9954953,0,0,2.9954953,1.4977477,1.4977477)"
           id="g146"><path
             id="path148"
             style="fill:#ff6666;fill-opacity:1;fill-rule:nonzero;stroke:none"
             d="m 94.5,91 c -8e-6,0.464119 -0.08882,0.910583 -0.266441,1.339386 -0.177605,0.428795 -0.430504,0.807289 -0.75869,1.135483 -0.328194,0.328186 -0.706688,0.581085 -1.135483,0.758697 C 91.910583,94.411186 91.464119,94.499992 91,94.5 c -0.464134,-8e-6 -0.910606,-0.08882 -1.339401,-0.266441 -0.428803,-0.177605 -0.807297,-0.430504 -1.135475,-0.75869 C 88.19693,93.146675 87.944023,92.768181 87.766411,92.339386 87.588791,91.910583 87.499992,91.464119 87.5,91 c -8e-6,-0.464134 0.08879,-0.910606 0.266411,-1.339401 0.177612,-0.428803 0.430519,-0.807297 0.758713,-1.135475 0.328178,-0.328194 0.706672,-0.581093 1.135475,-0.758713 C 90.089394,87.588806 90.535866,87.5 91,87.5 c 0.464119,0 0.910583,0.08881 1.339386,0.266411 0.428795,0.17762 0.807289,0.430519 1.135483,0.758713 0.328186,0.328178 0.581085,0.706672 0.758697,1.135475 C 94.411186,90.089394 94.499992,90.535866 94.5,91 Z" /><path
             id="path150"
             style="fill:#000000;fill-opacity:1;fill-rule:nonzero;stroke:none"
             d="m 304.5,61 v -1 h 1 v 1 m -1,-2 v -1 h 1 v 1 m -1,-2 v -1 h 1 v 1 m -1,-2 v -1 h 1 v 1 m -1,-2 v -1 h 1 v 1 m -1,-2 v -1 h 1 v 1 m -1,-2 v -1 h 1 v 1 m -1,-2 v -1 h 1 v 1 m -1,-2 v -1 h 1 v 1 m -1,-2 v -1 h 1 v 1 m -1,-2 v -1 h 1 v 1 m -1,-2 v -1 h 1 v 1 m -1,-2 v -1 h 1 v 1 m -1,-2 v -1 h 1 v 1 m -1,-2 v -1 h 1 v 1 m -1,-2 v -1 h 1 v 1 m -1,-2 v -1 h 1 v 1 m -1,-2 v -1 h 1 v 1 m -1,-2 v -1 h 1 v 1 m -1,-2 v -1 h 1 v 1" /><path
             id="path152"
             style="fill:#000000;fill-opacity:1;fill-rule:nonzero;stroke:none"
             d="m 7.5,61 v -1 h 1 v 1 m -1,-2 v -1 h 1 v 1 m -1,-2 v -1 h 1 v 1 m -1,-2 v -1 h 1 v 1 m -1,-2 v -1 h 1 v 1 m -1,-2 v -1 h 1 v 1 m -1,-2 v -1 h 1 v 1 m -1,-2 v -1 h 1 v 1 m -1,-2 v -1 h 1 v 1 m -1,-2 v -1 h 1 v 1 m -1,-2 v -1 h 1 v 1 m -1,-2 v -1 h 1 v 1 m -1,-2 v -1 h 1 v 1 m -1,-2 v -1 h 1 v 1 m -1,-2 v -1 h 1 v 1 m -1,-2 v -1 h 1 v 1 m -1,-2 v -1 h 1 v 1 m -1,-2 v -1 h 1 v 1 m -1,-2 v -1 h 1 v 1 m -1,-2 v -1 h 1 v 1" /></g><g
           transform="scale(2.9954953)"
           id="g154"><path
             id="path156"
             style="fill:#3333ff;fill-opacity:1;fill-rule:nonzero;stroke:none"
             d="m 193.5,61 v -2 h 2 v 2 m -2,-4 v -2 h 2 v 2 m -2,-4 v -2 h 2 v 2 m -2,-4 v -2 h 2 v 2 m -2,-4 v -2 h 2 v 2 m -2,-4 v -2 h 2 v 2 m -2,-4 v -2 h 2 v 2 m -2,-4 v -2 h 2 v 2 m -2,-4 v -2 h 2 v 2 m -2,-4 v -2 h 2 v 2" /></g><g
           transform="matrix(2.9954953,0,0,2.9954953,1.4977477,1.4977477)"
           id="g158"><path
             id="path160"
             style="fill:#3333ff;fill-opacity:1;fill-rule:nonzero;stroke:none"
             d="m 94.5,131 c -8e-6,0.46413 -0.08882,0.91058 -0.266441,1.33937 -0.177605,0.4288 -0.430504,0.8073 -0.75869,1.1355 -0.328194,0.32818 -0.706688,0.58108 -1.135483,0.7587 C 91.910583,134.41119 91.464119,134.5 91,134.5 c -0.464134,0 -0.910606,-0.0888 -1.339401,-0.26643 -0.428803,-0.17762 -0.807297,-0.43052 -1.135475,-0.7587 -0.328194,-0.3282 -0.581101,-0.7067 -0.758713,-1.1355 C 87.588791,131.91058 87.499992,131.46413 87.5,131 c -8e-6,-0.46413 0.08879,-0.9106 0.266411,-1.3394 0.177612,-0.4288 0.430519,-0.8073 0.758713,-1.13548 0.328178,-0.32819 0.706672,-0.58109 1.135475,-0.75871 C 90.089394,127.58881 90.535866,127.5 91,127.5 c 0.464119,0 0.910583,0.0888 1.339386,0.26641 0.428795,0.17762 0.807289,0.43052 1.135483,0.75871 0.328186,0.32818 0.581085,0.70668 0.758697,1.13548 0.17762,0.4288 0.266426,0.87527 0.266434,1.3394 z" /></g><g
           transform="matrix(2.9954953,0,0,2.9954953,302.54501,371.44141)"
           id="g162"><text
             id="text166"
             style="font-style:italic;font-variant:normal;font-size:11px;font-family:Helvetica;-inkscape-font-specification:Helvetica-Oblique;writing-mode:lr-tb;fill:#000000;fill-opacity:1;fill-rule:nonzero;stroke:none"
             transform="translate(0,11)"><tspan
               id="tspan164"
               y="0"
               x="0 3.6630859 9.7807617 15.898438 22.016113 28.133789 37.296875 39.740723 45.240723 48.296875 53.796875 59.914551 66.032227 71.532227 77.649902 83.767578 86.82373 92.941406 99.059082 102.72217 108.83984 114.95752 118.01367 121.06982 124.12598 127.78906 133.90674 143.06982 146.12598 151.62598 157.74365 160.1875 166.30518 171.80518 174.86133 180.979 187.09668 190.15283 192.59668 198.71436 201.77051 207.88818 211.55127 217.05127 223.16895">randomly chosen parent from selected interval</tspan></text>
</g></g></g></g></svg>