<?xml version="1.0" encoding="UTF-8" standalone="no"?>
<!DOCTYPE svg PUBLIC "-//W3C//DTD SVG 1.1//EN" "http://www.w3.org/Graphics/SVG/1.1/DTD/svg11.dtd">
<!-- Generated by Microsoft Visio, SVG Export perun-vs-vcs.svg Page-1 -->
<svg xmlns="http://www.w3.org/2000/svg" xmlns:xlink="http://www.w3.org/1999/xlink" xmlns:ev="http://www.w3.org/2001/xml-events"
		xmlns:v="http://schemas.microsoft.com/visio/2003/SVGExtensions/" width="4.58579in" height="1.90156in"
		viewBox="0 0 330.177 136.913" xml:space="preserve" color-interpolation-filters="sRGB" class="st17">
	<v:documentProperties v:langID="1033" v:metric="true" v:viewMarkup="false">
		<v:userDefs>
			<v:ud v:nameU="msvSubprocessMaster" v:prompt="" v:val="VT4(Rectangle)"/>
			<v:ud v:nameU="msvNoAutoConnect" v:val="VT0(1):26"/>
		</v:userDefs>
	</v:documentProperties>

	<style type="text/css">
	<![CDATA[
		.st1 {fill:none;stroke:#000000;stroke-dasharray:8.75,6.25;stroke-linecap:round;stroke-linejoin:round;stroke-width:1.25}
		.st2 {fill:none;stroke:none;stroke-linecap:round;stroke-linejoin:round;stroke-width:0.75}
		.st3 {fill:#000000;font-family:Tahoma;font-size:0.666664em;font-weight:bold}
		.st4 {fill:#000000;stroke:none;stroke-linecap:butt;stroke-width:0.75}
		.st5 {fill:#ffffff;stroke:none;stroke-linecap:round;stroke-linejoin:round;stroke-width:0.75}
		.st6 {fill:#100f0d;stroke:none;stroke-linecap:butt;stroke-width:0.1}
		.st7 {stroke:none;stroke-linecap:round;stroke-linejoin:round;stroke-width:0.237638}
		.st8 {fill:#ffffff;stroke:none;stroke-linecap:butt;stroke-width:0.75}
		.st9 {fill:#000000;font-family:Tahoma;font-size:0.499992em;font-weight:bold}
		.st10 {fill:#000000;stroke:#000000;stroke-linecap:round;stroke-linejoin:round;stroke-width:0.75}
		.st11 {stroke:#000000;stroke-linecap:round;stroke-linejoin:round;stroke-width:1.5}
		.st12 {marker-start:url(#mrkr2-69);stroke:#000000;stroke-linecap:round;stroke-linejoin:round;stroke-width:1.5}
		.st13 {fill:#000000;fill-opacity:1;stroke:#000000;stroke-opacity:1;stroke-width:0.37313432835821}
		.st14 {fill:#ffffff;stroke:#000000;stroke-linecap:round;stroke-linejoin:round;stroke-width:2.25}
		.st15 {fill:#000000;font-family:Tahoma;font-size:0.75em;font-weight:bold}
		.st16 {fill:#ffffff;font-family:Tahoma;font-size:1.00001em;font-weight:bold}
		.st17 {fill:none;fill-rule:evenodd;font-size:12px;overflow:visible;stroke-linecap:square;stroke-miterlimit:3}
	]]>
	</style>

	<defs id="Markers">
		<g id="lend2">
			<path d="M 1 1 L 0 0 L 1 -1 L 1 1 " style="stroke:none"/>
		</g>
		<marker id="mrkr2-69" class="st13" v:arrowType="2" v:arrowSize="2" v:setback="2.44" refX="2.44" orient="auto"
				markerUnits="strokeWidth" overflow="visible">
			<use xlink:href="#lend2" transform="scale(2.68) "/>
		</marker>
	</defs>
	<g v:mID="0" v:index="1" v:groupContext="foregroundPage">
		<v:userDefs>
			<v:ud v:nameU="msvThemeOrder" v:val="VT0(0):26"/>
		</v:userDefs>
		<title>Page-1</title>
		<v:pageProperties v:drawingScale="0.0393701" v:pageScale="0.0393701" v:drawingUnits="24" v:shadowOffsetX="9"
				v:shadowOffsetY="-9"/>
		<v:layer v:name="Flowchart" v:index="0"/>
		<v:layer v:name="Connector" v:index="1"/>
		<g id="shape145-1" v:mID="145" v:groupContext="shape" transform="translate(163.692,-19.9548)">
			<title>Sheet.145</title>
			<path d="M0 136.91 L144.57 136.91 L144.57 48.33 L0 48.33 L0 136.91 Z" class="st1"/>
		</g>
		<g id="group238-3" transform="translate(43.9282,-18.375)" v:mID="238" v:groupContext="group">
			<title>Sheet.238</title>
			<g id="shape185-4" v:mID="185" v:groupContext="shape" transform="translate(7.99361E-15,-38.2694)">
				<title>Sheet.185</title>
				<desc>Minor Versions</desc>
				<v:textBlock v:margins="rect(4,4,4,4)" v:tabSpace="42.5197"/>
				<v:textRect cx="35.4331" cy="126.913" width="70.87" height="20"/>
				<rect x="0" y="116.913" width="70.8661" height="20" class="st2"/>
				<text x="5.56" y="129.31" class="st3" v:langID="1033"><v:paragraph v:horizAlign="1"/><v:tabList/>Minor Versions</text>			</g>
			<g id="shape186-7" v:mID="186" v:groupContext="shape" transform="translate(7.99361E-15,-21.2598)">
				<title>Sheet.186</title>
				<desc>Major Versions</desc>
				<v:textBlock v:margins="rect(4,4,4,4)" v:tabSpace="42.5197"/>
				<v:textRect cx="35.4331" cy="126.913" width="70.87" height="20"/>
				<rect x="0" y="116.913" width="70.8661" height="20" class="st2"/>
				<text x="5.48" y="129.31" class="st3" v:langID="1033"><v:paragraph v:horizAlign="1"/><v:tabList/>Major Versions</text>			</g>
			<g id="shape187-10" v:mID="187" v:groupContext="shape" transform="translate(7.99361E-15,-5.74803)">
				<title>Sheet.187</title>
				<desc>Code Changes</desc>
				<v:textBlock v:margins="rect(4,4,4,4)" v:tabSpace="42.5197"/>
				<v:textRect cx="35.4331" cy="126.913" width="70.87" height="20"/>
				<rect x="0" y="116.913" width="70.8661" height="20" class="st2"/>
				<text x="7.09" y="129.31" class="st3" v:langID="1033"><v:paragraph v:horizAlign="1"/><v:tabList/>Code Changes</text>			</g>
			<g id="group192-13" transform="translate(90.4488,-2.2064)" v:mID="192" v:groupContext="group">
				<title>Sheet.192</title>
				<g id="group59-14" transform="translate(0,-14.2486)" v:mID="59" v:groupContext="group">
					<title>Sheet.59</title>
					<g id="group60-15" v:mID="60" v:groupContext="group">
						<title>Sheet.60</title>
						<g id="group61-16" v:mID="61" v:groupContext="group">
							<title>Sheet.61</title>
							<g id="shape62-17" v:mID="62" v:groupContext="shape" transform="translate(0,-19.5)">
								<title>Sheet.62</title>
								<path d="M15 136.91 C6.59 136.91 0 133.95 0 130.16 C0 126.38 6.59 123.41 15 123.41 C23.41 123.41
											 30 126.38 30 130.16 C30 133.95 23.41 136.91 15 136.91 ZM15 124.91 C8.61 124.91 1.5 127.07
											 1.5 130.16 C1.5 133.26 8.61 135.41 15 135.41 C21.39 135.41 28.5 133.26 28.5 130.16 C28.5
											 127.07 21.39 124.91 15 124.91 Z" class="st4"/>
							</g>
							<g id="shape63-19" v:mID="63" v:groupContext="shape" transform="translate(0,-13.5)">
								<title>Sheet.63</title>
								<path d="M15 136.91 C6.59 136.91 0 133.95 0 130.16 L0 124.16 C0 123.75 0.34 123.41 0.75 123.41 C1.16
											 123.41 1.5 123.75 1.5 124.16 L1.5 130.16 C1.5 133.26 8.61 135.41 15 135.41 C21.39 135.41
											 28.5 133.26 28.5 130.16 L28.5 124.16 C28.5 123.75 28.84 123.41 29.25 123.41 C29.66 123.41
											 30 123.75 30 124.16 L30 130.16 C30 133.95 23.41 136.91 15 136.91 Z" class="st4"/>
							</g>
							<g id="shape64-21" v:mID="64" v:groupContext="shape" transform="translate(0,-6.75)">
								<title>Sheet.64</title>
								<path d="M15 136.91 C6.59 136.91 0 133.95 0 130.16 L0 123.41 C0 123 0.34 122.66 0.75 122.66 C1.16
											 122.66 1.5 123 1.5 123.41 L1.5 130.16 C1.5 133.26 8.61 135.41 15 135.41 C21.39 135.41
											 28.5 133.26 28.5 130.16 L28.5 123.41 C28.5 123 28.84 122.66 29.25 122.66 C29.66 122.66
											 30 123 30 123.41 L30 130.16 C30 133.95 23.41 136.91 15 136.91 Z" class="st4"/>
							</g>
							<g id="shape65-23" v:mID="65" v:groupContext="shape">
								<title>Sheet.65</title>
								<path d="M15 136.91 C6.59 136.91 0 133.95 0 130.16 L0 123.41 C0 123 0.34 122.66 0.75 122.66 C1.16
											 122.66 1.5 123 1.5 123.41 L1.5 130.16 C1.5 133.26 8.61 135.41 15 135.41 C21.39 135.41
											 28.5 133.26 28.5 130.16 L28.5 123.41 C28.5 123 28.84 122.66 29.25 122.66 C29.66 122.66
											 30 123 30 123.41 L30 130.16 C30 133.95 23.41 136.91 15 136.91 Z" class="st4"/>
							</g>
						</g>
					</g>
					<g id="group66-25" transform="translate(29.1732,0)" v:mID="66" v:groupContext="group">
						<title>Sheet.66</title>
						<g id="group67-26" v:mID="67" v:groupContext="group">
							<title>Sheet.67</title>
							<g id="shape68-27" v:mID="68" v:groupContext="shape" transform="translate(0,-19.5)">
								<title>Sheet.68</title>
								<path d="M15 136.91 C6.59 136.91 0 133.95 0 130.16 C0 126.38 6.59 123.41 15 123.41 C23.41 123.41
											 30 126.38 30 130.16 C30 133.95 23.41 136.91 15 136.91 ZM15 124.91 C8.61 124.91 1.5 127.07
											 1.5 130.16 C1.5 133.26 8.61 135.41 15 135.41 C21.39 135.41 28.5 133.26 28.5 130.16 C28.5
											 127.07 21.39 124.91 15 124.91 Z" class="st4"/>
							</g>
							<g id="shape69-29" v:mID="69" v:groupContext="shape" transform="translate(0,-13.5)">
								<title>Sheet.69</title>
								<path d="M15 136.91 C6.59 136.91 0 133.95 0 130.16 L0 124.16 C0 123.75 0.34 123.41 0.75 123.41 C1.16
											 123.41 1.5 123.75 1.5 124.16 L1.5 130.16 C1.5 133.26 8.61 135.41 15 135.41 C21.39 135.41
											 28.5 133.26 28.5 130.16 L28.5 124.16 C28.5 123.75 28.84 123.41 29.25 123.41 C29.66 123.41
											 30 123.75 30 124.16 L30 130.16 C30 133.95 23.41 136.91 15 136.91 Z" class="st4"/>
							</g>
							<g id="shape70-31" v:mID="70" v:groupContext="shape" transform="translate(0,-6.75)">
								<title>Sheet.70</title>
								<path d="M15 136.91 C6.59 136.91 0 133.95 0 130.16 L0 123.41 C0 123 0.34 122.66 0.75 122.66 C1.16
											 122.66 1.5 123 1.5 123.41 L1.5 130.16 C1.5 133.26 8.61 135.41 15 135.41 C21.39 135.41
											 28.5 133.26 28.5 130.16 L28.5 123.41 C28.5 123 28.84 122.66 29.25 122.66 C29.66 122.66
											 30 123 30 123.41 L30 130.16 C30 133.95 23.41 136.91 15 136.91 Z" class="st4"/>
							</g>
							<g id="shape71-33" v:mID="71" v:groupContext="shape">
								<title>Sheet.71</title>
								<path d="M15 136.91 C6.59 136.91 0 133.95 0 130.16 L0 123.41 C0 123 0.34 122.66 0.75 122.66 C1.16
											 122.66 1.5 123 1.5 123.41 L1.5 130.16 C1.5 133.26 8.61 135.41 15 135.41 C21.39 135.41
											 28.5 133.26 28.5 130.16 L28.5 123.41 C28.5 123 28.84 122.66 29.25 122.66 C29.66 122.66
											 30 123 30 123.41 L30 130.16 C30 133.95 23.41 136.91 15 136.91 Z" class="st4"/>
							</g>
						</g>
					</g>
					<g id="group72-35" transform="translate(4.11254,-23.5866)" v:mID="72" v:groupContext="group">
						<title>Sheet.72</title>
						<g id="shape73-36" v:mID="73" v:groupContext="shape" transform="translate(5.87244,-4.46407)">
							<title>Sheet.73</title>
							<path d="M5.17 121.63 C0.86 120.62 0.07 123.64 0 126.88 C-0.07 130.63 0.84 134.69 2.74 136.21 C4.66 137.76
										 7.6 136.72 10.03 134.39 C11.57 132.91 12.92 130.91 12.76 129.15 C12.46 125.88 6.9 123.48
										 5.17 121.63 Z" class="st5"/>
						</g>
						<g id="group74-38" v:mID="74" v:groupContext="group">
							<title>Sheet.74</title>
							<g id="group75-39" v:mID="75" v:groupContext="group">
								<title>Sheet.75</title>
								<g id="shape76-40" v:mID="76" v:groupContext="shape" transform="translate(0,252.051) scale(1,-1)">
									<title>path14</title>
									<path d="M21.23 126.98 L11.84 136.37 C11.3 136.91 10.43 136.91 9.89 136.37 L7.94 134.42 L10.41
												 131.95 C10.98 132.14 11.64 132.01 12.1 131.55 C12.56 131.09 12.69 130.43 12.49 129.85
												 L14.88 127.47 C15.45 127.67 16.12 127.54 16.58 127.08 C17.22 126.43 17.22 125.39
												 16.58 124.75 C15.93 124.1 14.89 124.1 14.25 124.75 C13.76 125.23 13.64 125.94 13.89
												 126.54 L11.67 128.76 L11.67 122.91 C11.82 122.83 11.97 122.73 12.1 122.6 C12.75
												 121.96 12.75 120.91 12.1 120.27 C11.46 119.63 10.41 119.63 9.77 120.27 C9.13 120.91
												 9.13 121.96 9.77 122.6 C9.93 122.76 10.11 122.88 10.31 122.96 L10.31 128.86 C10.11
												 128.94 9.93 129.06 9.77 129.22 C9.28 129.71 9.17 130.43 9.42 131.03 L6.98 133.46
												 L0.54 127.03 C0 126.49 0 125.61 0.54 125.07 L9.93 115.68 C10.47 115.14 11.35 115.14
												 11.89 115.68 L21.23 125.02 C21.77 125.56 21.77 126.44 21.23 126.98 Z" class="st6"/>
								</g>
							</g>
							<g id="shape77-42" v:mID="77" v:groupContext="shape"
									transform="translate(-81.2964,26.1139) rotate(-45.0052)">
								<title>Sheet.77</title>
								<path d="M0 127.81 C-2.08 128.45 -3.91 128.36 -5.64 128.09 C-6.85 127.9 -8.01 127.63 -8.86 127.89
											 C-10.32 128.33 -10.84 130.34 -11.11 131.9 C-11.28 132.87 -11.35 133.66 -11.11 134.5
											 C-10.91 135.22 -10.48 135.97 -9.66 136.41 C-8.26 137.15 -5.7 136.96 -3.87 136.61 C-1.73
											 136.2 -0.57 135.57 0.32 134.4 C1.7 132.6 2.47 129.51 0 127.81" class="st7"/>
							</g>
						</g>
					</g>
					<g id="group78-45" transform="translate(33.2858,-23.5867)" v:mID="78" v:groupContext="group">
						<title>Sheet.78</title>
						<g id="shape79-46" v:mID="79" v:groupContext="shape" transform="translate(0.12641,-0.125811)">
							<title>Sheet.79</title>
							<ellipse cx="10.8243" cy="126.088" rx="10.8243" ry="10.8243" class="st8"/>
						</g>
						<g id="shape80-48" v:mID="80" v:groupContext="shape">
							<title>Sheet.80</title>
							<path d="M10.82 115.26 C4.85 115.26 0 120.11 0 126.09 C0 132.07 4.85 136.91 10.82 136.91 C16.8 136.91
										 21.65 132.07 21.65 126.09 C21.65 120.11 16.8 115.26 10.82 115.26 ZM10.82 135.65 C5.54 135.65
										 1.26 131.37 1.26 126.09 C1.26 120.81 5.54 116.52 10.82 116.52 C16.11 116.52 20.39 120.81
										 20.39 126.09 C20.39 131.37 16.11 135.65 10.82 135.65 Z" class="st4"/>
						</g>
						<g id="shape81-50" v:mID="81" v:groupContext="shape" transform="translate(2.39131,-2.39131)">
							<title>Sheet.81</title>
							<path d="M8.56 128.61 C7.68 131 10.39 131.66 11.58 130.4 C11.06 129.36 9.57 128.92 8.56 128.61 ZM8.43
										 120.05 C3.78 120.05 0 123.82 0 128.48 C0 133.14 3.78 136.91 8.43 136.91 C13.09 136.91 16.87
										 133.14 16.87 128.48 C16.87 123.82 13.09 120.05 8.43 120.05 ZM12.66 132.42 C10.64 132.55
										 8.43 132.74 6.21 132.8 C6.14 132.37 6.19 131.92 6.25 131.47 C6.68 129.84 7.4 127.5 7.7 125.87
										 C5.66 125.47 3.29 126.67 3.17 124.22 C5.06 123.64 8 123.93 10 124 C9.57 125.12 8.77 126.39
										 8.56 127.96 C10.5 127.84 12.69 128.33 13.59 129.68 C13.63 130.9 12.81 131.63 12.66 132.42
										 Z" class="st4"/>
						</g>
					</g>
				</g>
				<g id="group160-52" transform="translate(1.61314,0)" v:mID="160" v:groupContext="group">
					<title>Sheet.160</title>
					<g id="shape161-53" v:mID="161" v:groupContext="shape">
						<title>Sheet.161</title>
						<desc>(.git)</desc>
						<v:textBlock v:margins="rect(4,4,4,4)" v:tabSpace="42.5197"/>
						<v:textRect cx="14.2052" cy="126.913" width="28.42" height="20"/>
						<rect x="0" y="116.913" width="28.4105" height="20" class="st2"/>
						<text x="6.5" y="128.71" class="st9" v:langID="1033"><v:paragraph v:horizAlign="1"/><v:tabList/>(.git)</text>					</g>
					<g id="shape162-56" v:mID="162" v:groupContext="shape" transform="translate(25.0089,0)">
						<title>Sheet.162</title>
						<desc>(.perun)</desc>
						<v:textBlock v:margins="rect(4,4,4,4)" v:tabSpace="42.5197"/>
						<v:textRect cx="18.7087" cy="126.913" width="37.42" height="20"/>
						<rect x="0" y="116.913" width="37.4173" height="20" class="st2"/>
						<text x="6.24" y="128.71" class="st9" v:langID="1033"><v:paragraph v:horizAlign="1"/><v:tabList/>(.perun)</text>					</g>
				</g>
			</g>
			<g id="shape210-59" v:mID="210" v:groupContext="shape" transform="translate(85.0394,-36.9291)">
				<title>Sheet.210</title>
				<ellipse cx="1.41732" cy="135.412" rx="1.41732" ry="1.50069" class="st10"/>
			</g>
			<g id="shape211-61" v:mID="211" v:groupContext="shape" transform="translate(-12.9738,193.003) rotate(-134.142)">
				<title>Sheet.211</title>
				<path d="M0 136.91 L12.55 136.91" class="st11"/>
			</g>
			<g id="shape212-64" v:mID="212" v:groupContext="shape" transform="translate(66.6142,-48.2677)">
				<title>Sheet.212</title>
				<path d="M3.66 136.91 L4.02 136.91 L9.92 136.91" class="st12"/>
			</g>
			<g id="shape213-70" v:mID="213" v:groupContext="shape" transform="translate(85.0394,-29.7591)">
				<title>Sheet.213</title>
				<ellipse cx="1.41732" cy="135.412" rx="1.41732" ry="1.50069" class="st10"/>
			</g>
			<g id="shape214-72" v:mID="214" v:groupContext="shape" transform="translate(85.0394,-22.5892)">
				<title>Sheet.214</title>
				<ellipse cx="1.41732" cy="135.412" rx="1.41732" ry="1.50069" class="st10"/>
			</g>
			<g id="shape215-74" v:mID="215" v:groupContext="shape" transform="translate(66.6142,-31.2598)">
				<title>Sheet.215</title>
				<path d="M3.66 136.91 L4.02 136.91 L9.92 136.91" class="st12"/>
			</g>
			<g id="shape216-79" v:mID="216" v:groupContext="shape" transform="translate(66.9872,-15.6688) rotate(0.156119)">
				<title>Sheet.216</title>
				<path d="M3.66 136.91 L4.02 136.91 L11.31 136.91" class="st12"/>
			</g>
			<g id="shape217-84" v:mID="217" v:groupContext="shape" transform="translate(183.268,209.551) rotate(135)">
				<title>Sheet.217</title>
				<path d="M0 136.91 L12.2 136.91" class="st11"/>
			</g>
			<g id="shape218-87" v:mID="218" v:groupContext="shape" transform="translate(86.4567,242.565) rotate(180)">
				<title>Sheet.218</title>
				<path d="M0 136.91 L9.92 136.91" class="st11"/>
			</g>
			<g id="shape219-90" v:mID="219" v:groupContext="shape" transform="translate(168.661,-38.189)">
				<title>Sheet.219</title>
				<desc>Performance Profiles</desc>
				<v:textBlock v:margins="rect(4,4,4,4)" v:tabSpace="42.5197"/>
				<v:textRect cx="49.6063" cy="126.913" width="99.22" height="20"/>
				<rect x="0" y="116.913" width="99.2126" height="20" class="st2"/>
				<text x="7.5" y="129.31" class="st3" v:langID="1033"><v:paragraph v:horizAlign="1"/><v:tabList/>Performance Profiles</text>			</g>
			<g id="shape220-93" v:mID="220" v:groupContext="shape" transform="translate(170.079,-21.3386)">
				<title>Sheet.220</title>
				<desc>Data Visualizations</desc>
				<v:textBlock v:margins="rect(4,4,4,4)" v:tabSpace="42.5197"/>
				<v:textRect cx="44.6777" cy="126.913" width="89.36" height="20"/>
				<rect x="0" y="116.913" width="89.3553" height="20" class="st2"/>
				<text x="6.24" y="129.31" class="st3" v:langID="1033"><v:paragraph v:horizAlign="1"/><v:tabList/>Data Visualizations</text>			</g>
			<g id="shape221-96" v:mID="221" v:groupContext="shape" transform="translate(171.988,0)">
				<title>Sheet.221</title>
				<desc>Statistics</desc>
				<v:textBlock v:margins="rect(4,4,4,4)" v:tabSpace="42.5197"/>
				<v:textRect cx="23.1397" cy="126.913" width="46.28" height="20"/>
				<rect x="0" y="116.913" width="46.2793" height="20" class="st2"/>
				<text x="4.59" y="124.51" class="st3" v:langID="1033"><v:paragraph v:horizAlign="1"/><v:tabList/>Statistics<v:newlineChar/></text>			</g>
			<g id="shape225-99" v:mID="225" v:groupContext="shape" transform="translate(151.654,-36.9291)">
				<title>Sheet.225</title>
				<ellipse cx="1.41732" cy="135.412" rx="1.41732" ry="1.50069" class="st10"/>
			</g>
			<g id="shape226-101" v:mID="226" v:groupContext="shape" transform="translate(57.5519,0.265063) rotate(-44.3786)">
				<title>Sheet.226</title>
				<path d="M0 136.91 L13.55 136.91" class="st11"/>
			</g>
			<g id="shape227-104" v:mID="227" v:groupContext="shape" transform="translate(174.048,225.557) rotate(180)">
				<title>Sheet.227</title>
				<path d="M3.66 136.91 L4.02 136.91 L11.26 136.91" class="st12"/>
			</g>
			<g id="shape228-109" v:mID="228" v:groupContext="shape" transform="translate(151.654,-29.7591)">
				<title>Sheet.228</title>
				<ellipse cx="1.41732" cy="135.412" rx="1.41732" ry="1.50069" class="st10"/>
			</g>
			<g id="shape229-111" v:mID="229" v:groupContext="shape" transform="translate(151.654,-22.5892)">
				<title>Sheet.229</title>
				<ellipse cx="1.41732" cy="135.412" rx="1.41732" ry="1.50069" class="st10"/>
			</g>
			<g id="shape232-113" v:mID="232" v:groupContext="shape" transform="translate(243.369,9.82514) rotate(41.264)">
				<title>Sheet.232</title>
				<path d="M0 136.91 L12.92 136.91" class="st11"/>
			</g>
			<g id="shape234-116" v:mID="234" v:groupContext="shape" transform="translate(174.048,242.565) rotate(180)">
				<title>Sheet.234</title>
				<path d="M3.66 136.91 L4.02 136.91 L11.26 136.91" class="st12"/>
			</g>
			<g id="shape236-121" v:mID="236" v:groupContext="shape" transform="translate(174.048,258.174) rotate(180)">
				<title>Sheet.236</title>
				<path d="M3.66 136.91 L4.02 136.91 L11.26 136.91" class="st12"/>
			</g>
			<g id="shape237-126" v:mID="237" v:groupContext="shape" transform="translate(163.67,242.565) rotate(180)">
				<title>Sheet.237</title>
				<path d="M0 136.91 L9.92 136.91" class="st11"/>
			</g>
		</g>
		<g id="shape239-129" v:mID="239" v:groupContext="shape" transform="translate(19.125,-19.9548)">
			<title>Sheet.239</title>
			<path d="M0 136.91 L144.57 136.91 L144.57 48.33 L0 48.33 L0 136.91 Z" class="st1"/>
		</g>
		<g id="shape242-131" v:mID="242" v:groupContext="shape" transform="translate(19.125,-88.5375)">
			<title>Sheet.242</title>
			<desc>Functionality</desc>
			<v:textBlock v:margins="rect(4,4,4,4)" v:tabSpace="42.5197"/>
			<v:textRect cx="40.3937" cy="126.913" width="80.79" height="20"/>
			<rect x="0" y="116.913" width="80.7874" height="20" class="st14"/>
			<text x="10.89" y="129.61" class="st15" v:langID="1033"><v:paragraph v:horizAlign="1"/><v:tabList/>Functionality</text>		</g>
		<g id="shape243-134" v:mID="243" v:groupContext="shape" transform="translate(227.471,-88.5375)">
			<title>Sheet.243</title>
			<desc>Performance</desc>
			<v:textBlock v:margins="rect(4,4,4,4)" v:tabSpace="42.5197"/>
			<v:textRect cx="40.3937" cy="126.913" width="80.79" height="20"/>
			<rect x="0" y="116.913" width="80.7874" height="20" class="st14"/>
			<text x="11.45" y="129.61" class="st15" v:langID="1033"><v:paragraph v:horizAlign="1"/><v:tabList/>Performance</text>		</g>
		<g id="shape147-137" v:mID="147" v:groupContext="shape" transform="translate(134.105,-98.5375)">
			<title>Sheet.147</title>
			<desc>Project</desc>
			<v:textBlock v:margins="rect(4,4,4,4)" v:tabSpace="42.5197"/>
			<v:textRect cx="29.5866" cy="126.913" width="59.18" height="20"/>
			<rect x="0" y="116.913" width="59.1732" height="20" class="st10"/>
			<text x="7.94" y="130.51" class="st16" v:langID="1033"><v:paragraph v:horizAlign="1"/><v:tabList/>Project</text>		</g>
	</g>
</svg>
