<?xml version="1.0" encoding="UTF-8" standalone="no"?>
<!DOCTYPE svg PUBLIC "-//W3C//DTD SVG 1.1//EN" "http://www.w3.org/Graphics/SVG/1.1/DTD/svg11.dtd">
<svg xmlns="http://www.w3.org/2000/svg" xmlns:xlink="http://www.w3.org/1999/xlink" version="1.1" width="340.8pt" height="142.8pt" viewBox="0 0 340.8 142.8">
<g enable-background="new">
<g>
<g id="Layer-1" data-name="P">
<path transform="matrix(1,0,0,-1,0,142.8)" d="M 18.375 17.842 L 322.815 17.842 L 322.815 124.422 L 18.375 124.422 Z " fill="#ffffff" fill-rule="evenodd"/>
</g>
<g id="Layer-1" data-name="P">
<path transform="matrix(1,0,0,-1,0,142.8)" stroke-width="1.25" stroke-linecap="round" stroke-dasharray="8.75,6.25" stroke-linejoin="round" fill="none" stroke="#000000" d="M 171.3 23.907 L 315.87 23.907 L 315.87 112.49 L 171.3 112.49 Z "/>
</g>
<g id="Layer-1" data-name="P">
<text xml:space="preserve" transform="matrix(1 0 -0 1 0 142.8)" font-size="7.825" font-family="Tahoma" font-weight="bold"><tspan y="-67.875" x="57.2 64.39118 66.78564 71.58237 76.97379 79.970767 82.36521 87.75664 92.54553 96.13721 100.331409 102.72586 107.52258 112.91401">Minor Versions</tspan></text>
<text xml:space="preserve" transform="matrix(1 0 -0 1 0 142.8)" font-size="7.85" font-family="Tahoma" font-weight="bold"><tspan y="-50.8" x="57.1 64.31415 69.13405 72.148448 76.9919 80.5872 83.005 88.4215 93.2414 96.26365 100.479099 102.89689 107.74034 113.14114">Major Versions</tspan></text>
<text xml:space="preserve" transform="matrix(1 0 -0 1 0 142.8)" font-size="7.85" font-family="Tahoma" font-weight="bold"><tspan y="-35.225" x="58.725 64.11795 68.91431 74.30726 78.50701 80.90126 86.294208 91.68716 96.475658 101.272 106.664958 111.45346">Code Changes</tspan></text>
<path transform="matrix(1,0,0,-1,0,142.8)" d="M 156.98 58.283 C 148.57 58.283 141.98 61.247 141.98 65.033 C 141.98 68.818 148.57 71.783 156.98 71.783 C 165.39 71.783 171.98 68.818 171.98 65.033 C 171.98 61.247 165.39 58.283 156.98 58.283 Z M 156.98 70.283 C 150.59 70.283 143.48 68.126 143.48 65.033 C 143.48 61.939 150.59 59.783 156.98 59.783 C 163.37 59.783 170.48 61.939 170.48 65.033 C 170.48 68.126 163.37 70.283 156.98 70.283 Z " fill-rule="evenodd"/>
<path transform="matrix(1,0,0,-1,0,142.8)" d="M 156.98 52.283 C 148.57 52.283 141.98 55.247 141.98 59.033 L 141.98 65.033 C 141.98 65.447 142.32 65.783 142.73 65.783 C 143.15 65.783 143.48 65.447 143.48 65.033 L 143.48 59.033 C 143.48 55.939 150.59 53.783 156.98 53.783 C 163.37 53.783 170.48 55.939 170.48 59.033 L 170.48 65.033 C 170.48 65.447 170.82 65.783 171.23 65.783 C 171.65 65.783 171.98 65.447 171.98 65.033 L 171.98 59.033 C 171.98 55.247 165.39 52.283 156.98 52.283 Z " fill-rule="evenodd"/>
<path transform="matrix(1,0,0,-1,0,142.8)" d="M 156.98 45.533 C 148.57 45.533 141.98 48.497 141.98 52.283 L 141.98 59.033 C 141.98 59.447 142.32 59.783 142.73 59.783 C 143.15 59.783 143.48 59.447 143.48 59.033 L 143.48 52.283 C 143.48 49.189 150.59 47.033 156.98 47.033 C 163.37 47.033 170.48 49.189 170.48 52.283 L 170.48 59.033 C 170.48 59.447 170.82 59.783 171.23 59.783 C 171.65 59.783 171.98 59.447 171.98 59.033 L 171.98 52.283 C 171.98 48.497 165.39 45.533 156.98 45.533 Z " fill-rule="evenodd"/>
<path transform="matrix(1,0,0,-1,0,142.8)" d="M 156.98 38.783 C 148.57 38.783 141.98 41.747 141.98 45.533 L 141.98 52.283 C 141.98 52.697 142.32 53.033 142.73 53.033 C 143.15 53.033 143.48 52.697 143.48 52.283 L 143.48 45.533 C 143.48 42.439 150.59 40.283 156.98 40.283 C 163.37 40.283 170.48 42.439 170.48 45.533 L 170.48 52.283 C 170.48 52.697 170.82 53.033 171.23 53.033 C 171.65 53.033 171.98 52.697 171.98 52.283 L 171.98 45.533 C 171.98 41.747 165.39 38.783 156.98 38.783 Z " fill-rule="evenodd"/>
<path transform="matrix(1,0,0,-1,0,142.8)" d="M 186.15 58.283 C 177.74 58.283 171.15 61.247 171.15 65.033 C 171.15 68.818 177.74 71.783 186.15 71.783 C 194.56 71.783 201.15 68.818 201.15 65.033 C 201.15 61.247 194.56 58.283 186.15 58.283 Z M 186.15 70.283 C 179.77 70.283 172.65 68.126 172.65 65.033 C 172.65 61.939 179.77 59.783 186.15 59.783 C 192.54 59.783 199.65 61.939 199.65 65.033 C 199.65 68.126 192.54 70.283 186.15 70.283 Z " fill-rule="evenodd"/>
<path transform="matrix(1,0,0,-1,0,142.8)" d="M 186.15 52.283 C 177.74 52.283 171.15 55.247 171.15 59.033 L 171.15 65.033 C 171.15 65.447 171.49 65.783 171.9 65.783 C 172.32 65.783 172.65 65.447 172.65 65.033 L 172.65 59.033 C 172.65 55.939 179.77 53.783 186.15 53.783 C 192.54 53.783 199.65 55.939 199.65 59.033 L 199.65 65.033 C 199.65 65.447 199.99 65.783 200.4 65.783 C 200.82 65.783 201.15 65.447 201.15 65.033 L 201.15 59.033 C 201.15 55.247 194.56 52.283 186.15 52.283 Z " fill-rule="evenodd"/>
<path transform="matrix(1,0,0,-1,0,142.8)" d="M 186.15 45.533 C 177.74 45.533 171.15 48.497 171.15 52.283 L 171.15 59.033 C 171.15 59.447 171.49 59.783 171.9 59.783 C 172.32 59.783 172.65 59.447 172.65 59.033 L 172.65 52.283 C 172.65 49.189 179.77 47.033 186.15 47.033 C 192.54 47.033 199.65 49.189 199.65 52.283 L 199.65 59.033 C 199.65 59.447 199.99 59.783 200.4 59.783 C 200.82 59.783 201.15 59.447 201.15 59.033 L 201.15 52.283 C 201.15 48.497 194.56 45.533 186.15 45.533 Z " fill-rule="evenodd"/>
<path transform="matrix(1,0,0,-1,0,142.8)" d="M 186.15 38.783 C 177.74 38.783 171.15 41.747 171.15 45.533 L 171.15 52.283 C 171.15 52.697 171.49 53.033 171.9 53.033 C 172.32 53.033 172.65 52.697 172.65 52.283 L 172.65 45.533 C 172.65 42.439 179.77 40.283 186.15 40.283 C 192.54 40.283 199.65 42.439 199.65 45.533 L 199.65 52.283 C 199.65 52.697 199.99 53.033 200.4 53.033 C 200.82 53.033 201.15 52.697 201.15 52.283 L 201.15 45.533 C 201.15 41.747 194.56 38.783 186.15 38.783 Z " fill-rule="evenodd"/>
<path transform="matrix(1,0,0,-1,0,142.8)" d="M 157.14 82.12 C 152.83 83.125 152.03 80.108 151.97 76.869 C 151.9 73.113 152.81 69.059 154.7 67.531 C 156.63 65.982 159.56 67.027 161.99 69.353 C 163.54 70.836 164.88 72.84 164.72 74.592 C 164.43 77.87 158.87 80.264 157.14 82.12 Z " fill="#ffffff" fill-rule="evenodd"/>
<path transform="matrix(1,0,0,-1,0,142.8)" d="M 167.33 74.214 L 157.94 83.603 C 157.4 84.144 156.52 84.144 155.98 83.603 L 154.03 81.653 L 156.5 79.18 C 157.08 79.374 157.74 79.244 158.19 78.786 C 158.66 78.325 158.78 77.66 158.59 77.083 L 160.97 74.7 C 161.55 74.898 162.21 74.77 162.67 74.308 C 163.32 73.665 163.32 72.622 162.67 71.978 C 162.03 71.334 160.99 71.334 160.34 71.978 C 159.86 72.463 159.74 73.174 159.98 73.77 L 157.76 75.993 L 157.76 70.144 C 157.92 70.066 158.06 69.962 158.19 69.832 C 158.84 69.188 158.84 68.146 158.19 67.501 C 157.55 66.858 156.51 66.858 155.86 67.501 C 155.22 68.146 155.22 69.188 155.86 69.832 C 156.02 69.991 156.21 70.111 156.4 70.192 L 156.4 76.096 C 156.21 76.176 156.02 76.295 155.86 76.455 C 155.38 76.943 155.26 77.658 155.51 78.257 L 153.07 80.695 L 146.63 74.258 C 146.09 73.716 146.09 72.839 146.63 72.299 L 156.02 62.91 C 156.56 62.369 157.44 62.369 157.98 62.91 L 167.33 72.255 C 167.87 72.796 167.87 73.673 167.33 74.214 Z " fill="#100f0d" fill-rule="evenodd"/>
<path transform="matrix(1,0,0,-1,0,142.8)" d="M 197.04 73.319 C 197.04 79.297 192.19 84.144 186.22 84.144 C 180.24 84.144 175.39 79.297 175.39 73.319 C 175.39 67.341 180.24 62.495 186.22 62.495 C 192.19 62.495 197.04 67.341 197.04 73.319 Z " fill="#ffffff" fill-rule="evenodd"/>
<path transform="matrix(1,0,0,-1,0,142.8)" d="M 186.09 84.018 C 180.11 84.018 175.27 79.171 175.27 73.193 C 175.27 67.215 180.11 62.369 186.09 62.369 C 192.07 62.369 196.91 67.215 196.91 73.193 C 196.91 79.171 192.07 84.018 186.09 84.018 Z M 186.09 63.628 C 180.81 63.628 176.52 67.911 176.52 73.194 C 176.52 78.476 180.81 82.759 186.09 82.759 C 191.37 82.759 195.66 78.476 195.66 73.193 C 195.66 67.91 191.37 63.628 186.09 63.628 Z " fill-rule="evenodd"/>
<path transform="matrix(1,0,0,-1,0,142.8)" d="M 186.22 73.067 C 185.34 70.669 188.04 70.013 189.24 71.27 C 188.72 72.309 187.23 72.757 186.22 73.067 Z M 186.09 81.626 C 181.43 81.626 177.66 77.851 177.66 73.193 C 177.66 68.536 181.43 64.761 186.09 64.761 C 190.75 64.761 194.52 68.536 194.52 73.193 C 194.52 77.851 190.75 81.626 186.09 81.626 Z M 190.31 69.257 C 188.29 69.121 186.09 68.933 183.87 68.874 C 183.8 69.306 183.84 69.755 183.9 70.199 C 184.34 71.836 185.05 74.175 185.35 75.799 C 183.32 76.2 180.95 75.008 180.82 77.453 C 182.71 78.03 185.66 77.742 187.65 77.669 C 187.23 76.549 186.42 75.281 186.22 73.715 C 188.16 73.834 190.34 73.341 191.25 71.989 C 191.29 70.772 190.46 70.042 190.31 69.257 Z " fill-rule="evenodd"/>
<text xml:space="preserve" transform="matrix(1 0 -0 1 0 142.8)" font-size="6.025" font-family="Tahoma" font-weight="bold"><tspan y="-32.275" x="150.35 153.37535">(.</tspan></text>
<text xml:space="preserve" transform="matrix(1 0 -0 1 0 142.8)" font-size="6.025" font-family="Tahoma" font-weight="bold"><tspan y="-32.275" x="154.98 158.58295 160.38442">git</tspan></text>
<text xml:space="preserve" transform="matrix(1 0 -0 1 0 142.8)" font-size="6.025" font-family="Tahoma" font-weight="bold"><tspan y="-32.275" x="163.05">)</tspan></text>
<text xml:space="preserve" transform="matrix(1 0 -0 1 0 142.8)" font-size="6.025" font-family="Tahoma" font-weight="bold"><tspan y="-32.275" x="175.15 178.15035">(.</tspan></text>
<text xml:space="preserve" transform="matrix(1 0 -0 1 0 142.8)" font-size="6.025" font-family="Tahoma" font-weight="bold"><tspan y="-32.275" x="179.75 183.35295 186.94989 189.94432 193.54727">perun</tspan></text>
<text xml:space="preserve" transform="matrix(1 0 -0 1 0 142.8)" font-size="6.025" font-family="Tahoma" font-weight="bold"><tspan y="-32.275" x="197.4">)</tspan></text>
<path transform="matrix(1,0,0,-1,0,142.8)" d="M 139.41 60.757 C 139.41 61.586 138.77 62.258 137.99 62.258 C 137.21 62.258 136.57 61.586 136.57 60.757 C 136.57 59.929 137.21 59.257 137.99 59.257 C 138.77 59.257 139.41 59.929 139.41 60.757 Z " fill-rule="evenodd"/>
<path transform="matrix(1,0,0,-1,0,142.8)" stroke-width=".75" stroke-linecap="round" stroke-linejoin="round" fill="none" stroke="#000000" d="M 139.41 60.757 C 139.41 61.586 138.77 62.258 137.99 62.258 C 137.21 62.258 136.57 61.586 136.57 60.757 C 136.57 59.929 137.21 59.257 137.99 59.257 C 138.77 59.257 139.41 59.929 139.41 60.757 Z "/>
<path transform="matrix(1,0,0,-1,0,142.8)" stroke-width="1.5" stroke-linecap="round" stroke-linejoin="round" fill="none" stroke="#000000" d="M 136.81 61.588 L 128.07 70.595 "/>
<path transform="matrix(1,0,0,-1,0,142.8)" stroke-width="1.5" stroke-linecap="round" stroke-linejoin="round" fill="none" stroke="#000000" d="M 121.36 70.595 L 128.07 70.595 "/>
<path transform="matrix(1,0,0,-1,0,142.8)" d="M 122.17 66.575 L 118.15 70.595 L 122.17 74.615 L 122.17 66.575 Z " fill-rule="evenodd"/>
<path transform="matrix(1,0,0,-1,0,142.8)" d="M 139.41 53.587 C 139.41 54.416 138.77 55.088 137.99 55.088 C 137.21 55.088 136.57 54.416 136.57 53.587 C 136.57 52.759 137.21 52.087 137.99 52.087 C 138.77 52.087 139.41 52.759 139.41 53.587 Z " fill-rule="evenodd"/>
<path transform="matrix(1,0,0,-1,0,142.8)" stroke-width=".75" stroke-linecap="round" stroke-linejoin="round" fill="none" stroke="#000000" d="M 139.41 53.587 C 139.41 54.416 138.77 55.088 137.99 55.088 C 137.21 55.088 136.57 54.416 136.57 53.587 C 136.57 52.759 137.21 52.087 137.99 52.087 C 138.77 52.087 139.41 52.759 139.41 53.587 Z "/>
<path transform="matrix(1,0,0,-1,0,142.8)" d="M 139.41 46.417 C 139.41 47.246 138.77 47.918 137.99 47.918 C 137.21 47.918 136.57 47.246 136.57 46.417 C 136.57 45.589 137.21 44.917 137.99 44.917 C 138.77 44.917 139.41 45.589 139.41 46.417 Z " fill-rule="evenodd"/>
<path transform="matrix(1,0,0,-1,0,142.8)" stroke-width=".75" stroke-linecap="round" stroke-linejoin="round" fill="none" stroke="#000000" d="M 139.41 46.417 C 139.41 47.246 138.77 47.918 137.99 47.918 C 137.21 47.918 136.57 47.246 136.57 46.417 C 136.57 45.589 137.21 44.917 137.99 44.917 C 138.77 44.917 139.41 45.589 139.41 46.417 Z "/>
<path transform="matrix(1,0,0,-1,0,142.8)" stroke-width="1.5" stroke-linecap="round" stroke-linejoin="round" fill="none" stroke="#000000" d="M 121.36 53.587 L 128.07 53.587 "/>
<path transform="matrix(1,0,0,-1,0,142.8)" d="M 122.17 49.567 L 118.15 53.587 L 122.17 57.607 L 122.17 49.567 Z " fill-rule="evenodd"/>
<path transform="matrix(1,0,0,-1,0,142.8)" stroke-width="1.5" stroke-linecap="round" stroke-linejoin="round" fill="none" stroke="#000000" d="M 121.36 37.988 L 129.45 37.966 "/>
<path transform="matrix(1,0,0,-1,0,142.8)" d="M 122.15 33.966 L 118.15 37.997 L 122.18 42.006 L 122.15 33.966 Z " fill-rule="evenodd"/>
<path transform="matrix(1,0,0,-1,0,142.8)" stroke-width="1.5" stroke-linecap="round" stroke-linejoin="round" fill="none" stroke="#000000" d="M 137.99 46.501 L 129.36 37.874 "/>
<path transform="matrix(1,0,0,-1,0,142.8)" stroke-width="1.5" stroke-linecap="round" stroke-linejoin="round" fill="none" stroke="#000000" d="M 137.99 53.587 L 128.07 53.587 "/>
<text xml:space="preserve" transform="matrix(1 0 -0 1 0 142.8)" font-size="7.825" font-family="Tahoma" font-weight="bold"><tspan y="-67.8" x="228.1 233.49143 238.28034 241.27732 244.86899 249.66571 253.25739 260.4564 265.24528 270.6367 274.8309 279.61979 282.01423 286.81095 290.40263 295.19935 298.79103 301.1855 303.57997 307.78199">Performance Profiles</tspan></text>
<text xml:space="preserve" transform="matrix(1 0 -0 1 0 142.8)" font-size="7.825" font-family="Tahoma" font-weight="bold"><tspan y="-50.875" x="228.25 234.24394 239.03285 242.62453 247.41344 249.80789 255.19931 257.59379 261.19328 266.5847 271.37358 273.76805 276.1625 280.3567 285.14558 288.14253 291.13169 295.9284 300.72514">Data Visualizations</tspan></text>
<text xml:space="preserve" transform="matrix(1 0 -0 1 0 142.8)" font-size="7.85" font-family="Tahoma" font-weight="bold"><tspan y="-34.275" x="228.5 233.29636 236.89165 241.68015 245.27544 247.66968 251.27283 254.86812 257.2624 261.4543">Statistics</tspan></text>
<path transform="matrix(1,0,0,-1,0,142.8)" d="M 206.02 60.757 C 206.02 61.586 205.39 62.258 204.6 62.258 C 203.82 62.258 203.19 61.586 203.19 60.757 C 203.19 59.929 203.82 59.257 204.6 59.257 C 205.39 59.257 206.02 59.929 206.02 60.757 Z " fill-rule="evenodd"/>
<path transform="matrix(1,0,0,-1,0,142.8)" stroke-width=".75" stroke-linecap="round" stroke-linejoin="round" fill="none" stroke="#000000" d="M 206.02 60.757 C 206.02 61.586 205.39 62.258 204.6 62.258 C 203.82 62.258 203.19 61.586 203.19 60.757 C 203.19 59.929 203.82 59.257 204.6 59.257 C 205.39 59.257 206.02 59.929 206.02 60.757 Z "/>
<path transform="matrix(1,0,0,-1,0,142.8)" stroke-width="1.5" stroke-linecap="round" stroke-linejoin="round" fill="none" stroke="#000000" d="M 204.84 61.119 L 214.52 70.595 "/>
<path transform="matrix(1,0,0,-1,0,142.8)" stroke-width="1.5" stroke-linecap="round" stroke-linejoin="round" fill="none" stroke="#000000" d="M 222.36 70.595 L 214.32 70.595 "/>
<path transform="matrix(1,0,0,-1,0,142.8)" d="M 221.56 74.615 L 225.58 70.595 L 221.56 66.575 L 221.56 74.615 Z " fill-rule="evenodd"/>
<path transform="matrix(1,0,0,-1,0,142.8)" d="M 206.02 53.587 C 206.02 54.416 205.39 55.088 204.6 55.088 C 203.82 55.088 203.19 54.416 203.19 53.587 C 203.19 52.759 203.82 52.087 204.6 52.087 C 205.39 52.087 206.02 52.759 206.02 53.587 Z " fill-rule="evenodd"/>
<path transform="matrix(1,0,0,-1,0,142.8)" stroke-width=".75" stroke-linecap="round" stroke-linejoin="round" fill="none" stroke="#000000" d="M 206.02 53.587 C 206.02 54.416 205.39 55.088 204.6 55.088 C 203.82 55.088 203.19 54.416 203.19 53.587 C 203.19 52.759 203.82 52.087 204.6 52.087 C 205.39 52.087 206.02 52.759 206.02 53.587 Z "/>
<path transform="matrix(1,0,0,-1,0,142.8)" d="M 206.02 46.417 C 206.02 47.246 205.39 47.918 204.6 47.918 C 203.82 47.918 203.19 47.246 203.19 46.417 C 203.19 45.589 203.82 44.917 204.6 44.917 C 205.39 44.917 206.02 45.589 206.02 46.417 Z " fill-rule="evenodd"/>
<path transform="matrix(1,0,0,-1,0,142.8)" stroke-width=".75" stroke-linecap="round" stroke-linejoin="round" fill="none" stroke="#000000" d="M 206.02 46.417 C 206.02 47.246 205.39 47.918 204.6 47.918 C 203.82 47.918 203.19 47.246 203.19 46.417 C 203.19 45.589 203.82 44.917 204.6 44.917 C 205.39 44.917 206.02 45.589 206.02 46.417 Z "/>
<path transform="matrix(1,0,0,-1,0,142.8)" stroke-width="1.5" stroke-linecap="round" stroke-linejoin="round" fill="none" stroke="#000000" d="M 204.6 46.501 L 214.32 37.978 "/>
<path transform="matrix(1,0,0,-1,0,142.8)" stroke-width="1.5" stroke-linecap="round" stroke-linejoin="round" fill="none" stroke="#000000" d="M 222.36 53.587 L 214.32 53.587 "/>
<path transform="matrix(1,0,0,-1,0,142.8)" d="M 221.56 57.607 L 225.58 53.587 L 221.56 49.567 L 221.56 57.607 Z " fill-rule="evenodd"/>
<path transform="matrix(1,0,0,-1,0,142.8)" stroke-width="1.5" stroke-linecap="round" stroke-linejoin="round" fill="none" stroke="#000000" d="M 222.36 37.978 L 214.32 37.978 "/>
<path transform="matrix(1,0,0,-1,0,142.8)" d="M 221.56 41.998 L 225.58 37.978 L 221.56 33.958 L 221.56 41.998 Z " fill-rule="evenodd"/>
<path transform="matrix(1,0,0,-1,0,142.8)" stroke-width="1.5" stroke-linecap="round" stroke-linejoin="round" fill="none" stroke="#000000" d="M 215.2 53.587 L 205.28 53.587 "/>
</g>
<g id="Layer-1" data-name="P">
<path transform="matrix(1,0,0,-1,0,142.8)" stroke-width="1.25" stroke-linecap="round" stroke-dasharray="8.75,6.25" stroke-linejoin="round" fill="none" stroke="#000000" d="M 26.728 23.907 L 171.298 23.907 L 171.298 112.49 L 26.728 112.49 Z "/>
</g>
<g id="Layer-1" data-name="P">
<path transform="matrix(1,0,0,-1,0,142.8)" d="M 26.728 92.49 L 107.515 92.49 L 107.515 112.49 L 26.728 112.49 Z " fill="#ffffff" fill-rule="evenodd"/>
<path transform="matrix(1,0,0,-1,0,142.8)" stroke-width="2.25" stroke-linecap="round" stroke-linejoin="round" fill="none" stroke="#000000" d="M 26.728 92.49 L 107.515 92.49 L 107.515 112.49 L 26.728 112.49 Z "/>
</g>
<g id="Layer-1" data-name="P">
<text xml:space="preserve" transform="matrix(1 0 -0 1 0 142.8)" font-size="9.025" font-family="Tahoma" font-weight="bold"><tspan y="-99.6" x="37.675 43.09 48.514028 54.533704 59.353055 62.981103 65.99545 71.41948 76.843509 82.24948 85.281879 87.682529 91.8972">Functionality</tspan></text>
</g>
<g id="Layer-1" data-name="P">
<path transform="matrix(1,0,0,-1,0,142.8)" d="M 235.07 92.49 L 315.857 92.49 L 315.857 112.49 L 235.07 112.49 Z " fill="#ffffff" fill-rule="evenodd"/>
<path transform="matrix(1,0,0,-1,0,142.8)" stroke-width="2.25" stroke-linecap="round" stroke-linejoin="round" fill="none" stroke="#000000" d="M 235.07 92.49 L 315.857 92.49 L 315.857 112.49 L 235.07 112.49 Z "/>
</g>
<g id="Layer-1" data-name="P">
<text xml:space="preserve" transform="matrix(1 0 -0 1 0 142.8)" font-size="9.025" font-family="Tahoma" font-weight="bold"><tspan y="-99.6" x="246.95 252.96968 258.38468 262.01274 265.63175 271.05577 275.27043 283.69978 289.10575 295.14347 299.9628">Performance</tspan></text>
</g>
<g id="Layer-1" data-name="P">
<path transform="matrix(1,0,0,-1,0,142.8)" d="M 141.71 102.49 L 200.88301 102.49 L 200.88301 122.49 L 141.71 122.49 Z " fill-rule="evenodd"/>
<path transform="matrix(1,0,0,-1,0,142.8)" stroke-width=".75" stroke-linecap="round" stroke-linejoin="round" fill="none" stroke="#000000" d="M 141.71 102.49 L 200.88301 102.49 L 200.88301 122.49 L 141.71 122.49 Z "/>
</g>
<g id="Layer-1" data-name="P">
<text fill="#ffffff" xml:space="preserve" transform="matrix(1 0 -0 1 0 142.8)" font-size="12.05" font-family="Tahoma" font-weight="bold"><tspan y="-108.75" x="149.9 157.72045 163.1309 170.3609 174.59044 181.8084 188.42386">Project</tspan></text>
</g>
</g>
</g>
</svg>
